<svg xmlns="http://www.w3.org/2000/svg" xmlns:xlink="http://www.w3.org/1999/xlink" width="48" zoomAndPan="magnify" viewBox="0 0 36 36.000001" height="48" preserveAspectRatio="xMidYMid meet" version="1.0"><defs><clipPath id="a577bff645"><path d="M 1 0 L 35.511719 0 L 35.511719 34 L 1 34 Z M 1 0 " clip-rule="nonzero"/></clipPath><clipPath id="51b22c8a23"><path d="M 0.488281 0 L 35.511719 0 L 35.511719 34.261719 L 0.488281 34.261719 Z M 0.488281 0 " clip-rule="nonzero"/></clipPath></defs><g clip-path="url(#a577bff645)"><path fill="#ff00de" d="M 34.058594 13.804688 C 33.8125 13.804688 33.582031 13.851562 33.355469 13.945312 C 33.132812 14.035156 32.9375 14.167969 32.765625 14.339844 C 32.59375 14.511719 32.460938 14.710938 32.367188 14.933594 C 32.277344 15.15625 32.230469 15.390625 32.230469 15.632812 C 32.230469 15.929688 32.300781 16.207031 32.441406 16.46875 L 26.257812 23.09375 C 25.960938 22.960938 25.65625 22.917969 25.335938 22.960938 L 22.527344 17.109375 L 25.574219 7.707031 C 26.671875 7.691406 27.539062 6.648438 27.324219 5.5625 L 32.871094 2.390625 C 33.210938 2.6875 33.605469 2.835938 34.058594 2.839844 C 34.300781 2.839844 34.53125 2.792969 34.757812 2.699219 C 34.980469 2.609375 35.175781 2.476562 35.347656 2.304688 C 35.519531 2.132812 35.652344 1.933594 35.746094 1.710938 C 35.835938 1.488281 35.882812 1.253906 35.882812 1.011719 C 35.882812 0.769531 35.835938 0.535156 35.746094 0.3125 C 35.652344 0.0898438 35.519531 -0.109375 35.347656 -0.28125 C 35.175781 -0.453125 34.980469 -0.582031 34.757812 -0.675781 C 34.53125 -0.769531 34.300781 -0.816406 34.058594 -0.816406 C 32.9375 -0.828125 32.042969 0.230469 32.261719 1.332031 L 26.714844 4.507812 C 26.375 4.210938 25.980469 4.058594 25.527344 4.058594 C 25.136719 4.054688 24.78125 4.167969 24.464844 4.394531 C 24.144531 4.625 23.921875 4.921875 23.796875 5.292969 C 23.671875 5.664062 23.664062 6.035156 23.78125 6.410156 C 23.894531 6.785156 24.105469 7.089844 24.417969 7.328125 L 21.761719 15.519531 L 19.511719 10.832031 C 19.671875 10.671875 19.800781 10.488281 19.894531 10.285156 C 19.988281 10.078125 20.039062 9.863281 20.054688 9.636719 C 20.066406 9.414062 20.042969 9.191406 19.972656 8.976562 C 19.90625 8.761719 19.800781 8.566406 19.664062 8.390625 C 19.523438 8.210938 19.355469 8.066406 19.160156 7.949219 C 18.96875 7.835938 18.757812 7.757812 18.535156 7.71875 C 18.3125 7.679688 18.09375 7.683594 17.871094 7.726562 C 17.648438 7.769531 17.441406 7.851562 17.25 7.972656 C 17.0625 8.09375 16.898438 8.242188 16.761719 8.421875 C 16.625 8.601562 16.527344 8.800781 16.464844 9.019531 C 16.402344 9.234375 16.378906 9.457031 16.398438 9.679688 C 16.417969 9.90625 16.476562 10.121094 16.574219 10.324219 L 11.691406 15.207031 C 11.402344 15.0625 11.097656 15.003906 10.777344 15.027344 C 10.457031 15.046875 10.164062 15.148438 9.894531 15.328125 L 5.332031 11.910156 C 5.390625 11.734375 5.421875 11.554688 5.425781 11.367188 C 5.425781 11.09375 5.367188 10.832031 5.25 10.585938 C 5.132812 10.335938 4.96875 10.125 4.757812 9.953125 C 4.542969 9.777344 4.304688 9.65625 4.039062 9.589844 C 3.773438 9.523438 3.507812 9.515625 3.238281 9.570312 C 2.96875 9.625 2.722656 9.730469 2.503906 9.894531 C 2.285156 10.058594 2.109375 10.261719 1.980469 10.503906 C 1.851562 10.746094 1.777344 11.003906 1.765625 11.277344 C 1.75 11.550781 1.796875 11.8125 1.902344 12.066406 C 2.003906 12.320312 2.160156 12.539062 2.363281 12.722656 C 2.566406 12.90625 2.796875 13.039062 3.058594 13.117188 C 3.324219 13.199219 3.589844 13.21875 3.859375 13.179688 C 4.132812 13.140625 4.382812 13.042969 4.609375 12.890625 L 9.171875 16.3125 C 9.113281 16.488281 9.082031 16.667969 9.082031 16.851562 C 9.078125 17.128906 9.136719 17.394531 9.257812 17.648438 C 9.375 17.898438 9.542969 18.113281 9.761719 18.289062 C 9.976562 18.460938 10.222656 18.582031 10.492188 18.644531 C 10.765625 18.707031 11.039062 18.707031 11.308594 18.648438 C 11.582031 18.585938 11.828125 18.46875 12.046875 18.292969 C 12.261719 18.121094 12.433594 17.910156 12.554688 17.65625 C 12.675781 17.40625 12.734375 17.140625 12.734375 16.863281 C 12.734375 16.582031 12.675781 16.320312 12.550781 16.066406 L 17.433594 11.183594 C 17.742188 11.339844 18.066406 11.394531 18.410156 11.347656 L 21.21875 17.199219 L 18.171875 26.601562 C 17.851562 26.609375 17.550781 26.699219 17.277344 26.867188 C 17 27.035156 16.785156 27.257812 16.628906 27.542969 L 12.703125 26.890625 C 12.667969 26.679688 12.59375 26.480469 12.488281 26.292969 C 12.378906 26.109375 12.246094 25.945312 12.082031 25.808594 C 11.917969 25.667969 11.734375 25.5625 11.53125 25.488281 C 11.332031 25.417969 11.121094 25.378906 10.90625 25.378906 C 9.777344 25.367188 8.886719 26.441406 9.113281 27.546875 L 4.773438 30.082031 C 4.4375 29.789062 4.042969 29.644531 3.597656 29.644531 C 3.355469 29.644531 3.121094 29.691406 2.898438 29.78125 C 2.675781 29.875 2.476562 30.007812 2.304688 30.179688 C 2.132812 30.351562 2 30.546875 1.910156 30.773438 C 1.816406 30.996094 1.769531 31.230469 1.769531 31.472656 C 1.769531 31.714844 1.816406 31.945312 1.910156 32.171875 C 2 32.394531 2.132812 32.59375 2.304688 32.761719 C 2.476562 32.933594 2.675781 33.066406 2.898438 33.160156 C 3.121094 33.253906 3.355469 33.296875 3.597656 33.296875 C 4.726562 33.3125 5.617188 32.238281 5.390625 31.128906 L 9.734375 28.597656 C 9.941406 28.773438 10.175781 28.898438 10.441406 28.972656 C 10.703125 29.042969 10.96875 29.054688 11.238281 29.003906 C 11.507812 28.957031 11.75 28.851562 11.972656 28.691406 C 12.191406 28.53125 12.367188 28.332031 12.496094 28.089844 L 16.421875 28.742188 C 16.445312 28.890625 16.488281 29.03125 16.546875 29.167969 C 16.609375 29.304688 16.683594 29.433594 16.773438 29.550781 C 16.863281 29.667969 16.96875 29.777344 17.085938 29.867188 C 17.199219 29.960938 17.328125 30.039062 17.460938 30.101562 C 17.597656 30.164062 17.738281 30.207031 17.886719 30.238281 C 18.03125 30.265625 18.179688 30.273438 18.328125 30.265625 C 18.476562 30.257812 18.625 30.230469 18.765625 30.1875 C 18.910156 30.140625 19.042969 30.082031 19.171875 30.003906 C 19.296875 29.925781 19.414062 29.835938 19.519531 29.730469 C 19.625 29.625 19.714844 29.507812 19.792969 29.378906 C 19.871094 29.25 19.929688 29.117188 19.972656 28.972656 C 20.015625 28.832031 20.042969 28.683594 20.050781 28.535156 C 20.058594 28.386719 20.046875 28.238281 20.019531 28.09375 C 19.992188 27.945312 19.945312 27.804688 19.882812 27.667969 C 19.820312 27.535156 19.742188 27.410156 19.648438 27.292969 C 19.554688 27.175781 19.445312 27.074219 19.328125 26.984375 L 21.984375 18.789062 L 24.234375 23.480469 C 24.128906 23.585938 24.035156 23.703125 23.960938 23.832031 C 23.882812 23.960938 23.820312 24.097656 23.777344 24.242188 C 23.734375 24.386719 23.710938 24.53125 23.703125 24.683594 C 23.695312 24.832031 23.707031 24.980469 23.734375 25.128906 C 23.765625 25.277344 23.8125 25.417969 23.875 25.554688 C 23.941406 25.6875 24.019531 25.816406 24.117188 25.929688 C 24.210938 26.046875 24.320312 26.148438 24.441406 26.238281 C 24.5625 26.328125 24.691406 26.402344 24.832031 26.460938 C 24.96875 26.515625 25.113281 26.554688 25.261719 26.578125 C 25.410156 26.601562 25.558594 26.605469 25.707031 26.589844 C 25.859375 26.574219 26.003906 26.542969 26.144531 26.492188 C 26.285156 26.441406 26.417969 26.371094 26.542969 26.289062 C 26.667969 26.207031 26.78125 26.109375 26.882812 25.996094 C 26.984375 25.886719 27.070312 25.765625 27.140625 25.632812 C 27.210938 25.5 27.265625 25.359375 27.300781 25.214844 C 27.335938 25.066406 27.355469 24.921875 27.355469 24.769531 C 27.355469 24.472656 27.28125 24.195312 27.140625 23.933594 L 33.328125 17.308594 C 33.582031 17.417969 33.84375 17.46875 34.121094 17.457031 C 34.394531 17.449219 34.65625 17.382812 34.898438 17.253906 C 35.144531 17.128906 35.347656 16.957031 35.515625 16.738281 C 35.679688 16.519531 35.792969 16.273438 35.847656 16.003906 C 35.90625 15.734375 35.898438 15.464844 35.835938 15.199219 C 35.769531 14.933594 35.648438 14.691406 35.476562 14.476562 C 35.300781 14.265625 35.089844 14.097656 34.84375 13.980469 C 34.59375 13.863281 34.332031 13.804688 34.058594 13.804688 Z M 34.058594 13.804688 " fill-opacity="1" fill-rule="nonzero"/></g><g clip-path="url(#51b22c8a23)"><path fill="#ff00de" d="M 35.273438 34.515625 L 0.550781 34.515625 L 0.550781 -0.207031 C 0.550781 -0.375 0.492188 -0.519531 0.375 -0.636719 C 0.253906 -0.757812 0.109375 -0.816406 -0.0585938 -0.816406 C -0.226562 -0.816406 -0.371094 -0.757812 -0.488281 -0.636719 C -0.605469 -0.519531 -0.667969 -0.375 -0.667969 -0.207031 L -0.667969 35.125 C -0.667969 35.292969 -0.605469 35.4375 -0.488281 35.558594 C -0.371094 35.675781 -0.226562 35.734375 -0.0585938 35.734375 L 35.273438 35.734375 C 35.441406 35.734375 35.585938 35.675781 35.707031 35.558594 C 35.824219 35.4375 35.882812 35.292969 35.882812 35.125 C 35.882812 34.957031 35.824219 34.8125 35.707031 34.695312 C 35.585938 34.578125 35.441406 34.515625 35.273438 34.515625 Z M 35.273438 34.515625 " fill-opacity="1" fill-rule="nonzero"/></g></svg>