<svg xmlns="http://www.w3.org/2000/svg" xmlns:xlink="http://www.w3.org/1999/xlink" width="48" zoomAndPan="magnify" viewBox="0 0 36 36.000001" height="48" preserveAspectRatio="xMidYMid meet" version="1.0"><defs><clipPath id="5c9858ddf4"><path d="M 0.488281 9 L 35.511719 9 L 35.511719 25 L 0.488281 25 Z M 0.488281 9 " clip-rule="nonzero"/></clipPath><clipPath id="28c04885e4"><path d="M 1.035156 0.425781 L 35 0.425781 L 35 15.984375 L 1.035156 15.984375 Z M 1.035156 0.425781 " clip-rule="nonzero"/></clipPath><clipPath id="35115209c1"><path d="M 21.304688 2.859375 L 32.726562 2.859375 L 32.726562 14.277344 L 21.304688 14.277344 Z M 21.304688 2.859375 " clip-rule="nonzero"/></clipPath><clipPath id="daace2883e"><rect x="0" width="36" y="0" height="16"/></clipPath></defs><g clip-path="url(#5c9858ddf4)"><g transform="matrix(1, 0, 0, 1, 0.000000000000000111, 9)"><g clip-path="url(#daace2883e)"><g clip-path="url(#28c04885e4)"><path fill="#ff00de" d="M 8.808594 15.976562 L 27.183594 15.976562 C 31.472656 15.976562 34.960938 12.488281 34.960938 8.199219 C 34.960938 3.914062 31.472656 0.425781 27.183594 0.425781 L 8.808594 0.425781 C 4.511719 0.425781 1.035156 3.902344 1.035156 8.199219 C 1.035156 12.488281 4.519531 15.976562 8.808594 15.976562 Z M 32.132812 8.199219 C 32.132812 10.929688 29.914062 13.148438 27.183594 13.148438 C 24.457031 13.148438 22.238281 10.929688 22.238281 8.199219 C 22.238281 5.472656 24.457031 3.253906 27.183594 3.253906 C 29.914062 3.253906 32.132812 5.472656 32.132812 8.199219 Z M 8.808594 3.253906 L 21.191406 3.253906 C 20.078125 4.597656 19.410156 6.324219 19.410156 8.199219 C 19.410156 10.078125 20.078125 11.804688 21.191406 13.148438 L 8.808594 13.148438 C 6.082031 13.148438 3.859375 10.929688 3.859375 8.199219 C 3.859375 5.464844 6.074219 3.253906 8.808594 3.253906 Z M 8.808594 3.253906 " fill-opacity="1" fill-rule="nonzero"/></g><g clip-path="url(#35115209c1)"><path fill="#ff00de" d="M 32.605469 8.507812 C 32.605469 8.878906 32.570312 9.246094 32.5 9.609375 C 32.425781 9.976562 32.320312 10.328125 32.175781 10.671875 C 32.035156 11.011719 31.859375 11.339844 31.65625 11.648438 C 31.449219 11.957031 31.214844 12.242188 30.953125 12.503906 C 30.691406 12.765625 30.402344 13 30.09375 13.207031 C 29.789062 13.414062 29.460938 13.585938 29.117188 13.730469 C 28.777344 13.871094 28.421875 13.976562 28.058594 14.050781 C 27.695312 14.121094 27.328125 14.160156 26.957031 14.160156 C 26.585938 14.160156 26.21875 14.121094 25.855469 14.050781 C 25.492188 13.976562 25.136719 13.871094 24.792969 13.730469 C 24.453125 13.585938 24.125 13.414062 23.816406 13.207031 C 23.507812 13 23.222656 12.765625 22.960938 12.503906 C 22.699219 12.242188 22.464844 11.957031 22.257812 11.648438 C 22.050781 11.339844 21.878906 11.011719 21.738281 10.671875 C 21.59375 10.328125 21.488281 9.976562 21.414062 9.609375 C 21.34375 9.246094 21.304688 8.878906 21.304688 8.507812 C 21.304688 8.136719 21.34375 7.769531 21.414062 7.40625 C 21.488281 7.042969 21.59375 6.6875 21.738281 6.347656 C 21.878906 6.003906 22.050781 5.679688 22.257812 5.371094 C 22.464844 5.0625 22.699219 4.773438 22.960938 4.511719 C 23.222656 4.25 23.507812 4.015625 23.816406 3.808594 C 24.125 3.605469 24.453125 3.429688 24.792969 3.289062 C 25.136719 3.144531 25.492188 3.039062 25.855469 2.964844 C 26.21875 2.894531 26.585938 2.859375 26.957031 2.859375 C 27.328125 2.859375 27.695312 2.894531 28.058594 2.964844 C 28.421875 3.039062 28.777344 3.144531 29.117188 3.289062 C 29.460938 3.429688 29.789062 3.605469 30.09375 3.808594 C 30.402344 4.015625 30.691406 4.25 30.953125 4.511719 C 31.214844 4.773438 31.449219 5.0625 31.65625 5.371094 C 31.859375 5.679688 32.035156 6.003906 32.175781 6.347656 C 32.320312 6.6875 32.425781 7.042969 32.5 7.40625 C 32.570312 7.769531 32.605469 8.136719 32.605469 8.507812 Z M 32.605469 8.507812 " fill-opacity="1" fill-rule="nonzero"/></g></g></g></g></svg>