<svg xmlns="http://www.w3.org/2000/svg" xmlns:xlink="http://www.w3.org/1999/xlink" width="48" zoomAndPan="magnify" viewBox="0 0 36 36.000001" height="48" preserveAspectRatio="xMidYMid meet" version="1.0"><defs><clipPath id="da51a95f3b"><path d="M 1.0625 2 L 35.359375 2 L 35.359375 34.769531 L 1.0625 34.769531 Z M 1.0625 2 " clip-rule="nonzero"/></clipPath></defs><g clip-path="url(#da51a95f3b)"><path fill="#ff00de" d="M 31.859375 6.058594 C 31.789062 5.953125 31.742188 5.835938 31.722656 5.710938 C 31.699219 5.585938 31.703125 5.460938 31.734375 5.335938 C 31.761719 5.210938 31.816406 5.097656 31.890625 4.996094 C 31.96875 4.894531 32.0625 4.8125 32.171875 4.75 C 32.644531 4.5 33.066406 4.296875 33.230469 4.441406 C 34.011719 5.160156 34.566406 6.019531 34.902344 7.027344 C 34.972656 7.226562 34.644531 7.582031 34.265625 7.972656 C 34.183594 8.0625 34.085938 8.125 33.972656 8.167969 C 33.859375 8.210938 33.742188 8.226562 33.621094 8.214844 C 33.503906 8.199219 33.390625 8.164062 33.289062 8.097656 C 33.1875 8.035156 33.105469 7.949219 33.042969 7.847656 Z M 3.75 28.695312 C 3.679688 28.589844 3.59375 28.503906 3.480469 28.4375 C 3.371094 28.375 3.253906 28.339844 3.125 28.332031 C 3 28.328125 2.875 28.351562 2.761719 28.402344 C 2.644531 28.457031 2.546875 28.535156 2.46875 28.636719 C 2.15625 29.023438 1.90625 29.371094 1.980469 29.566406 C 2.375 30.539062 2.960938 31.375 3.746094 32.074219 C 3.867188 32.183594 4.230469 31.988281 4.636719 31.746094 C 4.851562 31.609375 4.988281 31.414062 5.042969 31.160156 C 5.09375 30.90625 5.050781 30.671875 4.910156 30.457031 Z M 8.238281 26.167969 C 7.394531 24.886719 6.550781 23.609375 5.703125 22.328125 C 4.28125 20.167969 4.28125 20.167969 2.328125 21.726562 C 1.1875 22.632812 1.089844 23.199219 1.898438 24.429688 C 3.542969 26.929688 5.234375 29.394531 6.828125 31.925781 C 8.738281 34.957031 8.875 34.441406 11.316406 32.566406 C 11.914062 32.105469 11.933594 31.710938 11.5 31.085938 C 10.386719 29.46875 9.324219 27.8125 8.238281 26.167969 Z M 34.664062 11.578125 C 33.039062 9.105469 31.371094 6.667969 29.785156 4.164062 C 27.914062 1.207031 27.765625 1.613281 25.28125 3.558594 C 25.15625 3.625 25.054688 3.714844 24.976562 3.828125 C 24.894531 3.941406 24.847656 4.070312 24.828125 4.207031 C 24.808594 4.34375 24.824219 4.480469 24.871094 4.609375 C 24.914062 4.742188 24.988281 4.855469 25.089844 4.949219 C 26.253906 6.636719 27.363281 8.363281 28.492188 10.074219 L 30.96875 13.828125 C 32.34375 15.914062 32.34375 15.914062 34.273438 14.386719 C 35.464844 13.449219 35.542969 12.921875 34.664062 11.578125 Z M 13.074219 22.761719 C 11.726562 20.722656 10.382812 18.683594 9.035156 16.648438 C 7.351562 14.101562 7.351562 14.101562 4.992188 15.945312 C 3.644531 16.996094 3.574219 17.410156 4.550781 18.894531 C 7.347656 23.136719 10.144531 27.375 12.949219 31.617188 C 14.773438 34.375 14.808594 34.378906 17.339844 32.296875 C 18.371094 31.449219 18.453125 30.925781 17.691406 29.765625 C 16.160156 27.425781 14.621094 25.09375 13.074219 22.761719 Z M 27.722656 10.503906 C 26.375 8.464844 25.03125 6.425781 23.683594 4.390625 C 22.035156 1.898438 22.035156 1.898438 19.722656 3.703125 C 18.292969 4.816406 18.246094 5.132812 19.300781 6.726562 C 22.097656 10.96875 24.898438 15.210938 27.699219 19.445312 C 29.46875 22.121094 29.46875 22.121094 31.902344 20.191406 C 33.09375 19.246094 33.175781 18.777344 32.339844 17.503906 C 30.808594 15.167969 29.265625 12.832031 27.722656 10.503906 Z M 22.425781 13.457031 C 22.355469 13.34375 22.269531 13.25 22.160156 13.175781 C 22.050781 13.101562 21.929688 13.054688 21.800781 13.03125 C 21.671875 13.007812 21.542969 13.011719 21.414062 13.042969 C 21.289062 13.074219 21.171875 13.128906 21.070312 13.210938 L 13.238281 19.28125 C 13.015625 19.460938 12.886719 19.691406 12.84375 19.972656 C 12.800781 20.253906 12.855469 20.511719 13.011719 20.75 L 13.972656 22.207031 C 14.042969 22.316406 14.132812 22.410156 14.238281 22.484375 C 14.347656 22.558594 14.46875 22.609375 14.597656 22.632812 C 14.726562 22.65625 14.855469 22.652344 14.984375 22.617188 C 15.109375 22.585938 15.226562 22.53125 15.332031 22.449219 L 23.164062 16.382812 C 23.382812 16.199219 23.511719 15.96875 23.554688 15.691406 C 23.597656 15.410156 23.542969 15.148438 23.386719 14.914062 Z M 22.425781 13.457031 " fill-opacity="1" fill-rule="nonzero"/></g></svg>