<svg xmlns="http://www.w3.org/2000/svg" xmlns:xlink="http://www.w3.org/1999/xlink" width="48" zoomAndPan="magnify" viewBox="0 0 36 36.000001" height="48" preserveAspectRatio="xMidYMid meet" version="1.0"><defs><clipPath id="da77868c17"><path d="M 1.035156 9.425781 L 35.332031 9.425781 L 35.332031 25 L 1.035156 25 Z M 1.035156 9.425781 " clip-rule="nonzero"/></clipPath><clipPath id="d06ea52436"><path d="M 0.0351562 0.425781 L 33.964844 0.425781 L 33.964844 15.984375 L 0.0351562 15.984375 Z M 0.0351562 0.425781 " clip-rule="nonzero"/></clipPath><clipPath id="098fb36de4"><rect x="0" width="35" y="0" height="16"/></clipPath></defs><g clip-path="url(#da77868c17)"><g transform="matrix(1, 0, 0, 1, 1, 9)"><g clip-path="url(#098fb36de4)"><g clip-path="url(#d06ea52436)"><path fill="#ff00de" d="M 26.191406 15.976562 L 7.808594 15.976562 C 3.523438 15.976562 0.0351562 12.488281 0.0351562 8.203125 C 0.0351562 3.914062 3.523438 0.425781 7.808594 0.425781 L 26.191406 0.425781 C 30.488281 0.425781 33.964844 3.902344 33.964844 8.203125 C 33.964844 12.488281 30.476562 15.976562 26.191406 15.976562 Z M 2.863281 8.203125 C 2.863281 10.929688 5.082031 13.152344 7.808594 13.152344 C 10.539062 13.152344 12.757812 10.929688 12.757812 8.203125 C 12.757812 5.472656 10.539062 3.253906 7.808594 3.253906 C 5.082031 3.253906 2.863281 5.472656 2.863281 8.203125 Z M 26.191406 3.253906 L 13.804688 3.253906 C 14.917969 4.597656 15.585938 6.324219 15.585938 8.203125 C 15.585938 10.082031 14.917969 11.804688 13.804688 13.152344 L 26.191406 13.152344 C 28.917969 13.152344 31.136719 10.929688 31.136719 8.203125 C 31.136719 5.46875 28.925781 3.253906 26.191406 3.253906 Z M 26.191406 3.253906 " fill-opacity="1" fill-rule="nonzero"/></g></g></g></g></svg>