<svg xmlns="http://www.w3.org/2000/svg" xmlns:xlink="http://www.w3.org/1999/xlink" width="48" zoomAndPan="magnify" viewBox="0 0 36 36.000001" height="48" preserveAspectRatio="xMidYMid meet" version="1.0"><defs><clipPath id="55a42827df"><path d="M 1.070312 0.582031 L 34.636719 0.582031 L 34.636719 34.152344 L 1.070312 34.152344 Z M 1.070312 0.582031 " clip-rule="nonzero"/></clipPath><clipPath id="87e6f285f4"><path d="M 0.355469 0.582031 L 33.636719 0.582031 L 33.636719 34.152344 L 0.355469 34.152344 Z M 0.355469 0.582031 " clip-rule="nonzero"/></clipPath><clipPath id="0e50551bf9"><rect x="0" width="34" y="0" height="35"/></clipPath></defs><g clip-path="url(#55a42827df)"><g transform="matrix(1, 0, 0, 1, 1, 0.000000000000010603)"><g clip-path="url(#0e50551bf9)"><g clip-path="url(#87e6f285f4)"><path fill="#ff00de" d="M 16.996094 34.433594 C 26.328125 34.433594 33.921875 26.839844 33.921875 17.511719 C 33.921875 8.183594 26.328125 0.582031 16.996094 0.582031 C 7.664062 0.582031 0.0742188 8.175781 0.0742188 17.511719 C 0.0742188 26.84375 7.667969 34.4375 16.996094 34.4375 Z M 16.996094 2.003906 C 25.550781 2.003906 32.503906 8.957031 32.503906 17.511719 C 32.503906 26.0625 25.550781 33.019531 16.996094 33.019531 C 8.445312 33.019531 1.492188 26.0625 1.492188 17.511719 C 1.492188 8.957031 8.449219 2.003906 16.996094 2.003906 Z M 16.996094 2.003906 " fill-opacity="1" fill-rule="nonzero"/></g><path fill="#ff00de" d="M 16.609375 25.316406 C 16.789062 25.316406 16.972656 25.246094 17.109375 25.109375 C 17.390625 24.828125 17.390625 24.378906 17.109375 24.105469 L 10.925781 17.921875 L 17.109375 11.738281 C 17.390625 11.457031 17.390625 11.007812 17.109375 10.734375 C 16.832031 10.457031 16.382812 10.457031 16.109375 10.734375 L 9.726562 17.117188 C 9.507812 17.335938 9.390625 17.617188 9.390625 17.921875 C 9.390625 18.222656 9.507812 18.511719 9.726562 18.726562 L 16.109375 25.109375 C 16.246094 25.246094 16.429688 25.316406 16.609375 25.316406 Z M 10.726562 18.117188 Z M 10.726562 18.117188 " fill-opacity="1" fill-rule="nonzero"/><path fill="#ff00de" d="M 10.109375 18.628906 L 23.78125 18.628906 C 24.171875 18.628906 24.492188 18.3125 24.492188 17.921875 C 24.492188 17.527344 24.171875 17.210938 23.78125 17.210938 L 10.109375 17.210938 C 9.714844 17.210938 9.398438 17.527344 9.398438 17.921875 C 9.398438 18.3125 9.714844 18.628906 10.109375 18.628906 Z M 10.109375 18.628906 " fill-opacity="1" fill-rule="nonzero"/></g></g></g></svg>