<svg xmlns="http://www.w3.org/2000/svg" xmlns:xlink="http://www.w3.org/1999/xlink" width="48" zoomAndPan="magnify" viewBox="0 0 36 36.000001" height="48" preserveAspectRatio="xMidYMid meet" version="1.0"><defs><clipPath id="32c5d5988c"><path d="M 8.074219 0 L 27.777344 0 L 27.777344 35.027344 L 8.074219 35.027344 Z M 8.074219 0 " clip-rule="nonzero"/></clipPath></defs><g clip-path="url(#32c5d5988c)"><path fill="#ff00de" d="M 27.476562 10.132812 C 27.789062 9.667969 27.847656 9.078125 27.636719 8.558594 L 26.667969 6.207031 C 26.40625 5.578125 25.800781 5.171875 25.121094 5.171875 L 23.65625 5.171875 L 23.65625 2.882812 C 23.65625 2.558594 23.394531 2.300781 23.070312 2.300781 L 18.550781 2.300781 L 18.550781 0.582031 C 18.550781 0.261719 18.289062 0 17.964844 0 L 14.226562 0 C 13.90625 0 13.644531 0.261719 13.644531 0.582031 L 13.644531 2.300781 L 12.859375 2.300781 C 12.539062 2.300781 12.277344 2.558594 12.277344 2.882812 L 12.277344 5.171875 L 10.8125 5.171875 C 10.132812 5.171875 9.523438 5.578125 9.265625 6.207031 L 8.296875 8.5625 C 8.082031 9.078125 8.144531 9.667969 8.457031 10.132812 C 8.730469 10.542969 9.171875 10.792969 9.660156 10.851562 L 11.125 32.832031 C 11.1875 33.75 11.773438 34.515625 12.578125 34.847656 C 12.578125 34.847656 12.582031 34.847656 12.582031 34.851562 C 12.855469 34.964844 13.15625 35.027344 13.472656 35.027344 L 22.460938 35.027344 C 23.695312 35.027344 24.726562 34.0625 24.804688 32.832031 L 25.167969 27.386719 C 25.167969 27.386719 25.171875 27.386719 25.171875 27.386719 L 26.273438 10.851562 C 26.757812 10.792969 27.199219 10.542969 27.476562 10.132812 Z M 14.8125 1.167969 L 17.382812 1.167969 L 17.382812 2.300781 L 14.8125 2.300781 Z M 13.445312 3.464844 L 22.488281 3.464844 L 22.488281 5.171875 L 13.445312 5.171875 Z M 9.375 9.003906 L 10.34375 6.652344 C 10.421875 6.464844 10.605469 6.339844 10.8125 6.339844 L 25.121094 6.339844 C 25.328125 6.339844 25.511719 6.464844 25.589844 6.652344 L 26.554688 9.003906 C 26.621094 9.164062 26.605469 9.335938 26.507812 9.480469 C 26.410156 9.625 26.257812 9.707031 26.085938 9.707031 L 9.847656 9.707031 C 9.675781 9.707031 9.519531 9.625 9.425781 9.480469 C 9.328125 9.335938 9.308594 9.164062 9.375 9.003906 Z M 24.015625 27.128906 L 17.28125 33.859375 L 14.074219 33.859375 L 24.246094 23.683594 Z M 10.832031 10.871094 L 25.101562 10.871094 L 24.363281 21.914062 L 12.707031 33.574219 C 12.472656 33.375 12.3125 33.085938 12.292969 32.753906 Z M 22.460938 33.859375 L 18.933594 33.859375 L 23.898438 28.898438 L 23.640625 32.757812 C 23.601562 33.375 23.082031 33.859375 22.460938 33.859375 Z M 22.460938 33.859375 " fill-opacity="1" fill-rule="nonzero"/></g><path fill="#ff00de" d="M 13.5625 20.082031 L 17.277344 20.082031 L 17.277344 24.621094 C 17.277344 24.886719 17.457031 25.121094 17.714844 25.1875 C 17.765625 25.199219 17.8125 25.207031 17.863281 25.207031 C 18.070312 25.207031 18.265625 25.097656 18.371094 24.910156 L 22.878906 16.925781 C 22.980469 16.746094 22.980469 16.523438 22.875 16.34375 C 22.769531 16.164062 22.578125 16.054688 22.371094 16.054688 L 18.300781 16.054688 L 18.300781 12.015625 C 18.300781 11.75 18.121094 11.515625 17.863281 11.449219 C 17.605469 11.382812 17.335938 11.5 17.207031 11.730469 L 13.050781 19.214844 C 12.953125 19.394531 12.953125 19.613281 13.058594 19.792969 C 13.164062 19.972656 13.355469 20.082031 13.5625 20.082031 Z M 17.132812 14.269531 L 17.132812 16.640625 C 17.132812 16.960938 17.394531 17.222656 17.714844 17.222656 L 21.371094 17.222656 L 18.445312 22.402344 L 18.445312 19.496094 C 18.445312 19.175781 18.1875 18.914062 17.863281 18.914062 L 14.554688 18.914062 Z M 17.132812 14.269531 " fill-opacity="1" fill-rule="nonzero"/><path fill="#ff00de" d="M 13.5625 27.96875 C 13.574219 27.96875 13.582031 27.96875 13.59375 27.96875 C 13.917969 27.949219 14.164062 27.675781 14.144531 27.351562 L 13.890625 22.773438 C 13.871094 22.449219 13.609375 22.207031 13.277344 22.222656 C 12.953125 22.238281 12.707031 22.515625 12.726562 22.835938 L 12.980469 27.417969 C 12.996094 27.730469 13.253906 27.96875 13.5625 27.96875 Z M 13.5625 27.96875 " fill-opacity="1" fill-rule="nonzero"/><path fill="#ff00de" d="M 13.628906 28.652344 C 13.308594 28.683594 13.070312 28.96875 13.101562 29.289062 L 13.15625 29.894531 C 13.183594 30.195312 13.441406 30.421875 13.738281 30.421875 C 13.757812 30.421875 13.773438 30.421875 13.792969 30.421875 C 14.113281 30.390625 14.347656 30.105469 14.320312 29.785156 L 14.261719 29.179688 C 14.234375 28.859375 13.945312 28.625 13.628906 28.652344 Z M 13.628906 28.652344 " fill-opacity="1" fill-rule="nonzero"/></svg>