<svg xmlns="http://www.w3.org/2000/svg" xmlns:xlink="http://www.w3.org/1999/xlink" width="48" zoomAndPan="magnify" viewBox="0 0 36 36.000001" height="48" preserveAspectRatio="xMidYMid meet" version="1.0"><defs><clipPath id="81ca949ff3"><path d="M 2.542969 0.972656 L 34.652344 0.972656 L 34.652344 33.082031 L 2.542969 33.082031 Z M 2.542969 0.972656 " clip-rule="nonzero"/></clipPath></defs><g clip-path="url(#81ca949ff3)"><path fill="#ff00de" d="M 29.792969 5.644531 C 26.796875 2.644531 22.808594 0.988281 18.558594 0.988281 C 9.804688 0.988281 2.679688 8.113281 2.675781 16.871094 C 2.675781 19.667969 3.40625 22.402344 4.796875 24.808594 L 2.542969 33.039062 L 10.964844 30.832031 C 13.285156 32.097656 15.894531 32.761719 18.554688 32.765625 L 18.558594 32.765625 C 27.3125 32.765625 34.441406 25.640625 34.441406 16.882812 C 34.441406 12.640625 32.792969 8.648438 29.792969 5.644531 Z M 18.558594 30.082031 L 18.554688 30.082031 C 16.1875 30.082031 13.863281 29.445312 11.835938 28.242188 L 11.351562 27.957031 L 6.355469 29.265625 L 7.6875 24.394531 L 7.375 23.894531 C 6.054688 21.792969 5.355469 19.363281 5.359375 16.871094 C 5.359375 9.59375 11.285156 3.671875 18.5625 3.671875 C 22.089844 3.671875 25.40625 5.046875 27.898438 7.542969 C 30.390625 10.035156 31.761719 13.355469 31.757812 16.882812 C 31.757812 24.160156 25.835938 30.082031 18.558594 30.082031 Z M 25.800781 20.195312 C 25.40625 20 23.453125 19.039062 23.089844 18.90625 C 22.722656 18.773438 22.460938 18.707031 22.195312 19.105469 C 21.933594 19.503906 21.171875 20.398438 20.941406 20.660156 C 20.707031 20.925781 20.476562 20.960938 20.078125 20.757812 C 19.683594 20.5625 18.40625 20.140625 16.886719 18.789062 C 15.707031 17.738281 14.910156 16.4375 14.679688 16.039062 C 14.449219 15.640625 14.65625 15.429688 14.855469 15.230469 C 15.03125 15.050781 15.25 14.765625 15.449219 14.535156 C 15.648438 14.304688 15.714844 14.136719 15.847656 13.871094 C 15.980469 13.605469 15.914062 13.375 15.8125 13.175781 C 15.714844 12.976562 14.921875 11.023438 14.589844 10.230469 C 14.269531 9.457031 13.941406 9.5625 13.699219 9.546875 C 13.464844 9.539062 13.203125 9.535156 12.9375 9.535156 C 12.671875 9.535156 12.242188 9.632812 11.878906 10.03125 C 11.511719 10.429688 10.488281 11.386719 10.488281 13.339844 C 10.488281 15.292969 11.910156 17.179688 12.109375 17.445312 C 12.308594 17.710938 14.910156 21.71875 18.890625 23.441406 C 19.835938 23.847656 20.578125 24.09375 21.152344 24.277344 C 22.105469 24.578125 22.96875 24.535156 23.652344 24.433594 C 24.414062 24.320312 26 23.472656 26.332031 22.546875 C 26.664062 21.617188 26.664062 20.824219 26.5625 20.65625 C 26.464844 20.492188 26.199219 20.394531 25.800781 20.195312 Z M 25.800781 20.195312 " fill-opacity="1" fill-rule="evenodd"/></g></svg>