<svg xmlns="http://www.w3.org/2000/svg" xmlns:xlink="http://www.w3.org/1999/xlink" width="48" zoomAndPan="magnify" viewBox="0 0 36 36.000001" height="48" preserveAspectRatio="xMidYMid meet" version="1.0"><defs><clipPath id="84c87618cd"><path d="M 3.382812 23 L 32.574219 23 L 32.574219 34.402344 L 3.382812 34.402344 Z M 3.382812 23 " clip-rule="nonzero"/></clipPath><clipPath id="e8e9d16a5d"><path d="M 6 0.832031 L 30 0.832031 L 30 25 L 6 25 Z M 6 0.832031 " clip-rule="nonzero"/></clipPath></defs><g clip-path="url(#84c87618cd)"><path fill="#ff00de" d="M 31.234375 34.132812 L 23.1875 34.164062 L 18.085938 34.167969 L 12.457031 34.167969 L 5.0625 34.183594 C 4.238281 34.183594 3.292969 33.71875 3.390625 32.734375 C 3.726562 29.328125 4.886719 26.355469 8.324219 25.105469 L 12.488281 23.585938 C 12.910156 23.875 13.097656 24.242188 13.464844 24.53125 C 16.460938 26.890625 20.902344 26.589844 23.476562 23.59375 C 25.054688 24.128906 26.589844 24.628906 28.097656 25.300781 C 30.148438 26.210938 31.621094 27.875 32.082031 30.070312 L 32.574219 32.40625 C 32.757812 33.289062 32.175781 34.128906 31.234375 34.132812 Z M 31.234375 34.132812 " fill-opacity="1" fill-rule="nonzero"/></g><g clip-path="url(#e8e9d16a5d)"><path fill="#ff00de" d="M 24.957031 8.4375 C 25.292969 9.558594 25.363281 10.621094 25.421875 11.722656 L 25.539062 13.886719 C 25.621094 15.441406 25.152344 16.867188 24.65625 18.335938 C 25.335938 18.21875 26.234375 17.777344 26.5 17.085938 L 26.527344 9.894531 C 26.53125 8.515625 26.054688 7.207031 25.339844 6.046875 C 23.703125 3.386719 20.777344 1.984375 17.660156 2.097656 C 14.964844 2.199219 12.535156 3.378906 10.988281 5.554688 C 10.023438 6.910156 9.453125 8.40625 9.453125 10.078125 L 9.441406 16.519531 C 9.441406 16.730469 9.386719 16.886719 9.304688 17.011719 C 9.195312 17.171875 8.972656 17.117188 8.714844 17.144531 C 7.441406 17.273438 6.207031 16.507812 6.136719 15.175781 C 6.078125 14.027344 6.089844 12.890625 6.136719 11.746094 C 6.183594 10.65625 7.066406 9.914062 8.121094 9.78125 C 8.457031 6.558594 10.15625 3.601562 13.074219 2.046875 C 15.550781 0.726562 18.433594 0.492188 21.125 1.296875 C 24.984375 2.449219 27.5625 5.832031 27.828125 9.804688 C 28.953125 9.90625 29.832031 10.675781 29.832031 11.789062 L 29.84375 14.996094 C 29.835938 16.144531 29.089844 17.039062 27.886719 17.152344 C 27.414062 18.15625 26.640625 18.933594 25.582031 19.308594 L 23.878906 19.910156 C 23.257812 21.007812 22.527344 21.960938 21.550781 22.746094 C 19.726562 24.226562 17.269531 24.460938 15.238281 23.277344 C 12.40625 21.628906 10.640625 17.703125 10.488281 14.539062 C 10.417969 13.105469 10.527344 11.734375 10.632812 10.335938 C 10.839844 7.585938 12.40625 5.101562 15.128906 4.226562 C 18.867188 3.027344 23.65625 4.097656 24.957031 8.4375 Z M 17.773438 20.757812 C 17.042969 20.675781 16.667969 19.988281 16.726562 19.453125 C 16.792969 18.808594 17.285156 18.332031 17.984375 18.332031 L 19.476562 18.339844 C 20.257812 18.339844 20.175781 19.082031 20.964844 19 L 22.972656 18.789062 C 24.046875 17.011719 24.480469 14.914062 24.183594 12.863281 C 22.210938 12.78125 20.441406 12.457031 18.664062 11.851562 C 17.371094 11.324219 16.242188 10.671875 15.136719 9.664062 C 14.417969 11.085938 13.285156 11.972656 11.816406 12.566406 C 11.4375 15.664062 12.394531 18.808594 14.515625 21.132812 C 16.109375 22.875 18.429688 23.410156 20.464844 22.007812 C 21.222656 21.484375 21.828125 20.84375 22.296875 20.105469 C 19.035156 19.96875 21.335938 21.144531 17.773438 20.757812 Z M 17.773438 20.757812 " fill-opacity="1" fill-rule="nonzero"/></g></svg>