<svg xmlns="http://www.w3.org/2000/svg" xmlns:xlink="http://www.w3.org/1999/xlink" width="48" zoomAndPan="magnify" viewBox="0 0 36 36.000001" height="48" preserveAspectRatio="xMidYMid meet" version="1.0"><defs><clipPath id="4155cf4bfa"><path d="M 1.214844 15 L 11 15 L 11 31.5 L 1.214844 31.5 Z M 1.214844 15 " clip-rule="nonzero"/></clipPath><clipPath id="afaee87829"><path d="M 13 8 L 23 8 L 23 31.5 L 13 31.5 Z M 13 8 " clip-rule="nonzero"/></clipPath><clipPath id="3c1e2e7150"><path d="M 25 3.773438 L 34.785156 3.773438 L 34.785156 31.5 L 25 31.5 Z M 25 3.773438 " clip-rule="nonzero"/></clipPath></defs><g clip-path="url(#4155cf4bfa)"><path fill="#ff00de" d="M 2.742188 15.984375 C 1.898438 15.984375 1.214844 16.667969 1.214844 17.511719 L 1.214844 29.71875 C 1.214844 30.558594 1.898438 31.242188 2.742188 31.242188 L 8.84375 31.242188 C 9.6875 31.242188 10.371094 30.558594 10.371094 29.71875 L 10.371094 17.511719 C 10.371094 16.667969 9.6875 15.984375 8.84375 15.984375 Z M 2.742188 15.984375 " fill-opacity="1" fill-rule="evenodd"/></g><g clip-path="url(#afaee87829)"><path fill="#ff00de" d="M 14.949219 8.355469 C 14.105469 8.355469 13.421875 9.039062 13.421875 9.882812 L 13.421875 29.71875 C 13.421875 30.558594 14.105469 31.242188 14.949219 31.242188 L 21.050781 31.242188 C 21.894531 31.242188 22.578125 30.558594 22.578125 29.71875 L 22.578125 9.882812 C 22.578125 9.039062 21.894531 8.355469 21.050781 8.355469 Z M 14.949219 8.355469 " fill-opacity="1" fill-rule="evenodd"/></g><g clip-path="url(#3c1e2e7150)"><path fill="#ff00de" d="M 27.15625 3.777344 C 26.3125 3.777344 25.628906 4.460938 25.628906 5.304688 L 25.628906 29.71875 C 25.628906 30.558594 26.3125 31.242188 27.15625 31.242188 L 33.257812 31.242188 C 34.101562 31.242188 34.785156 30.558594 34.785156 29.71875 L 34.785156 5.304688 C 34.785156 4.460938 34.101562 3.777344 33.257812 3.777344 Z M 27.15625 3.777344 " fill-opacity="1" fill-rule="evenodd"/></g></svg>