<svg xmlns="http://www.w3.org/2000/svg" xmlns:xlink="http://www.w3.org/1999/xlink" width="48" zoomAndPan="magnify" viewBox="0 0 36 36.000001" height="48" preserveAspectRatio="xMidYMid meet" version="1.0"><defs><clipPath id="d1da16fe6e"><path d="M 8 0 L 28.917969 0 L 28.917969 34.296875 L 8 34.296875 Z M 8 0 " clip-rule="nonzero"/></clipPath><clipPath id="8f88f54f4e"><path d="M 8.660156 4.910156 L 28.363281 4.910156 L 28.363281 17.316406 L 8.660156 17.316406 Z M 8.660156 4.910156 " clip-rule="nonzero"/></clipPath></defs><g clip-path="url(#d1da16fe6e)"><path fill="#ff00de" d="M 28.964844 11.414062 C 28.964844 10.800781 28.914062 10.195312 28.808594 9.597656 C 28.707031 8.996094 28.550781 8.410156 28.339844 7.835938 C 28.132812 7.261719 27.878906 6.710938 27.574219 6.183594 C 27.269531 5.65625 26.917969 5.15625 26.527344 4.691406 C 26.136719 4.222656 25.703125 3.792969 25.238281 3.402344 C 24.769531 3.011719 24.269531 2.664062 23.742188 2.359375 C 23.214844 2.054688 22.664062 1.800781 22.089844 1.59375 C 21.515625 1.386719 20.929688 1.230469 20.328125 1.128906 C 19.726562 1.023438 19.121094 0.976562 18.511719 0.976562 C 17.902344 0.980469 17.296875 1.035156 16.695312 1.144531 C 16.097656 1.253906 15.511719 1.414062 14.9375 1.628906 C 14.367188 1.839844 13.816406 2.101562 13.292969 2.410156 C 12.765625 2.71875 12.269531 3.070312 11.808594 3.464844 C 11.34375 3.863281 10.917969 4.292969 10.53125 4.765625 C 10.140625 5.234375 9.796875 5.738281 9.5 6.269531 C 9.199219 6.796875 8.949219 7.351562 8.746094 7.925781 C 8.542969 8.503906 8.390625 9.089844 8.292969 9.691406 C 8.195312 10.292969 8.148438 10.898438 8.15625 11.507812 C 8.164062 12.121094 8.222656 12.722656 8.335938 13.324219 C 8.449219 13.921875 8.617188 14.507812 8.832031 15.078125 C 9.046875 15.648438 9.3125 16.195312 9.625 16.71875 C 9.9375 17.242188 10.292969 17.734375 10.695312 18.195312 C 11.09375 18.65625 11.53125 19.078125 12.003906 19.460938 C 12.476562 19.847656 12.980469 20.1875 13.511719 20.480469 L 9.175781 34.035156 L 27.167969 34.035156 L 22.964844 20.792969 C 23.859375 20.375 24.675781 19.84375 25.417969 19.195312 C 26.15625 18.542969 26.792969 17.804688 27.324219 16.972656 C 27.855469 16.144531 28.261719 15.253906 28.539062 14.308594 C 28.820312 13.363281 28.960938 12.398438 28.964844 11.414062 Z M 28.964844 11.414062 " fill-opacity="1" fill-rule="nonzero"/></g><g clip-path="url(#8f88f54f4e)"><path fill="#000000" d="M 28.15625 10.628906 C 26.179688 7.109375 22.496094 4.921875 18.542969 4.921875 C 14.589844 4.921875 10.90625 7.109375 8.929688 10.628906 C 8.757812 10.929688 8.757812 11.300781 8.929688 11.597656 C 10.90625 15.121094 14.589844 17.308594 18.542969 17.308594 C 22.496094 17.308594 26.179688 15.121094 28.15625 11.597656 C 28.324219 11.300781 28.324219 10.929688 28.15625 10.628906 Z M 18.542969 15.371094 C 15.445312 15.371094 12.550781 13.753906 10.851562 11.113281 C 12.550781 8.476562 15.445312 6.859375 18.542969 6.859375 C 21.636719 6.859375 24.535156 8.476562 26.230469 11.113281 C 24.535156 13.753906 21.636719 15.371094 18.542969 15.371094 Z M 18.542969 15.371094 " fill-opacity="1" fill-rule="nonzero"/></g><path fill="#000000" d="M 18.542969 7.273438 C 16.480469 7.273438 14.804688 8.996094 14.804688 11.113281 C 14.804688 13.230469 16.480469 14.957031 18.542969 14.957031 C 20.601562 14.957031 22.277344 13.230469 22.277344 11.113281 C 22.277344 8.996094 20.601562 7.273438 18.542969 7.273438 Z M 18.542969 13.019531 C 17.519531 13.019531 16.691406 12.164062 16.691406 11.113281 C 16.691406 10.0625 17.519531 9.210938 18.542969 9.210938 C 19.5625 9.210938 20.394531 10.0625 20.394531 11.113281 C 20.394531 12.164062 19.5625 13.019531 18.542969 13.019531 Z M 18.542969 13.019531 " fill-opacity="1" fill-rule="nonzero"/></svg>