<svg xmlns="http://www.w3.org/2000/svg" xmlns:xlink="http://www.w3.org/1999/xlink" width="48" zoomAndPan="magnify" viewBox="0 0 36 36.000001" height="48" preserveAspectRatio="xMidYMid meet" version="1.0"><defs><clipPath id="7e04ace3d8"><path d="M 4.035156 1.324219 L 31.765625 1.324219 L 31.765625 33.429688 L 4.035156 33.429688 Z M 4.035156 1.324219 " clip-rule="nonzero"/></clipPath></defs><g clip-path="url(#7e04ace3d8)"><path fill="#ff00de" d="M 8.65625 6.246094 C 8.367188 6.246094 8.132812 6.011719 8.132812 5.722656 L 8.132812 3.285156 C 8.132812 2.203125 9.015625 1.324219 10.09375 1.324219 L 13.339844 1.324219 C 14.421875 1.324219 15.304688 2.203125 15.304688 3.285156 L 15.304688 5.722656 C 15.304688 6.011719 15.070312 6.246094 14.78125 6.246094 Z M 9.179688 5.199219 L 14.257812 5.199219 L 14.257812 3.285156 C 14.257812 2.78125 13.84375 2.367188 13.339844 2.367188 L 10.09375 2.367188 C 9.59375 2.367188 9.179688 2.78125 9.179688 3.285156 Z M 17.929688 12.230469 C 17.929688 10.253906 16.417969 8.46875 14.105469 7.691406 C 13.929688 7.632812 13.800781 7.488281 13.761719 7.308594 C 13.683594 6.957031 13.660156 6.601562 13.6875 6.246094 L 9.722656 6.246094 C 9.742188 6.574219 9.726562 6.90625 9.675781 7.242188 C 9.644531 7.4375 9.503906 7.597656 9.316406 7.660156 C 6.96875 8.40625 5.425781 10.207031 5.386719 12.242188 C 5.367188 13.277344 5.660156 13.949219 6.308594 14.703125 C 6.3125 14.707031 6.886719 15.335938 7.027344 15.523438 C 7.328125 15.914062 7.488281 16.285156 7.488281 16.710938 C 7.488281 17.269531 7.238281 17.660156 6.734375 18.101562 C 6.648438 18.175781 6.320312 18.449219 6.246094 18.511719 C 5.628906 19.050781 5.367188 19.511719 5.367188 20.304688 L 5.367188 30.355469 C 5.367188 31.621094 6.402344 32.65625 7.667969 32.65625 L 15.71875 32.65625 C 16.984375 32.65625 18.023438 31.621094 18.023438 30.355469 L 18.023438 28.664062 L 17.925781 28.609375 L 17.808594 28.53125 C 17.75 28.492188 17.75 28.492188 17.691406 28.453125 C 17.632812 28.414062 17.632812 28.414062 17.570312 28.371094 L 17.453125 28.289062 L 17.246094 28.132812 L 17.117188 28.03125 L 16.898438 27.847656 L 16.8125 27.769531 L 16.578125 27.554688 L 16.539062 27.515625 C 16.464844 27.445312 16.394531 27.371094 16.304688 27.277344 L 16.234375 27.203125 C 16.144531 27.101562 16.078125 27.027344 16.015625 26.949219 L 15.964844 26.890625 C 15.886719 26.796875 15.8125 26.699219 15.742188 26.605469 L 15.699219 26.550781 C 15.628906 26.453125 15.558594 26.351562 15.480469 26.238281 L 15.457031 26.199219 C 15.390625 26.097656 15.328125 25.996094 15.246094 25.863281 L 15.226562 25.828125 C 15.152344 25.699219 15.09375 25.589844 15.03125 25.46875 L 15.023438 25.449219 C 14.964844 25.339844 14.910156 25.222656 14.84375 25.078125 L 14.828125 25.042969 C 14.773438 24.914062 14.71875 24.78125 14.6875 24.691406 L 14.664062 24.640625 C 14.613281 24.507812 14.566406 24.371094 14.523438 24.238281 L 14.5 24.167969 C 14.460938 24.039062 14.421875 23.90625 14.386719 23.769531 L 14.371094 23.71875 C 14.335938 23.582031 14.304688 23.441406 14.277344 23.296875 L 14.265625 23.257812 C 14.238281 23.109375 14.210938 22.964844 14.191406 22.816406 L 14.183594 22.773438 C 14.164062 22.632812 14.144531 22.488281 14.125 22.320312 L 14.121094 22.277344 C 14.105469 22.105469 14.09375 21.945312 14.089844 21.816406 L 14.085938 21.777344 L 14.082031 21.746094 C 14.078125 21.585938 14.074219 21.417969 14.074219 21.230469 L 14.074219 21.027344 L 14.078125 21.023438 L 14.078125 20.964844 L 14.089844 20.804688 L 14.085938 20.84375 L 14.09375 20.777344 L 14.101562 20.660156 L 14.097656 20.699219 L 14.101562 20.632812 L 14.101562 20.648438 L 14.109375 20.59375 L 14.109375 20.609375 L 14.109375 20.570312 L 14.113281 20.539062 L 14.109375 20.554688 L 14.113281 20.53125 L 14.117188 20.515625 L 14.117188 20.496094 L 14.121094 20.460938 L 14.128906 20.421875 L 14.128906 20.40625 L 14.136719 20.34375 L 14.140625 20.320312 L 14.136719 20.359375 L 14.136719 20.390625 L 14.148438 20.277344 L 14.140625 20.324219 L 14.148438 20.257812 L 14.164062 20.167969 C 14.4375 18.507812 15.308594 16.710938 16.691406 14.738281 L 16.726562 14.683594 L 16.734375 14.671875 L 16.75 14.65625 L 16.769531 14.625 L 16.796875 14.589844 L 16.78125 14.609375 L 16.816406 14.558594 L 16.808594 14.570312 L 16.847656 14.515625 L 16.871094 14.480469 L 16.898438 14.445312 L 16.90625 14.4375 L 16.988281 14.324219 L 17.054688 14.226562 L 17.074219 14.207031 L 17.097656 14.171875 L 17.109375 14.160156 L 17.15625 14.09375 L 17.175781 14.0625 L 17.195312 14.035156 L 17.214844 14.015625 L 17.238281 13.980469 L 17.277344 13.929688 L 17.296875 13.902344 L 17.378906 13.792969 L 17.410156 13.753906 L 17.449219 13.703125 L 17.410156 13.769531 L 17.476562 13.667969 L 17.480469 13.660156 L 17.511719 13.621094 L 17.539062 13.585938 L 17.558594 13.558594 L 17.601562 13.503906 L 17.671875 13.417969 L 17.644531 13.449219 L 17.675781 13.410156 L 17.683594 13.402344 L 17.722656 13.347656 L 17.71875 13.355469 L 17.75 13.316406 L 17.746094 13.320312 L 17.785156 13.269531 C 17.882812 12.925781 17.929688 12.582031 17.929688 12.230469 Z M 18.972656 12.230469 C 18.972656 12.71875 18.902344 13.195312 18.765625 13.65625 L 18.671875 13.835938 L 18.664062 13.839844 L 18.632812 13.882812 L 18.617188 13.898438 L 18.578125 13.953125 L 18.574219 13.960938 L 18.53125 14.011719 L 18.503906 14.042969 L 18.507812 14.039062 L 18.46875 14.09375 L 18.457031 14.105469 L 18.433594 14.140625 L 18.421875 14.15625 L 18.386719 14.195312 L 18.371094 14.21875 L 18.339844 14.257812 L 18.335938 14.265625 L 18.304688 14.304688 L 18.347656 14.230469 L 18.292969 14.320312 L 18.28125 14.335938 L 18.238281 14.390625 L 18.207031 14.429688 L 18.191406 14.453125 L 18.164062 14.488281 L 18.132812 14.53125 L 18.109375 14.5625 L 18.082031 14.597656 L 18.066406 14.621094 L 18.046875 14.648438 L 18.03125 14.667969 L 18.023438 14.679688 L 17.996094 14.714844 L 17.972656 14.742188 L 17.941406 14.785156 L 17.925781 14.808594 L 17.90625 14.835938 L 17.898438 14.847656 L 17.816406 14.960938 L 17.800781 14.980469 L 17.75 15.050781 L 17.742188 15.058594 L 17.714844 15.097656 L 17.699219 15.121094 L 17.703125 15.113281 L 17.664062 15.167969 L 17.683594 15.140625 L 17.648438 15.191406 L 17.625 15.222656 L 17.605469 15.25 L 17.582031 15.289062 L 17.558594 15.324219 C 16.246094 17.195312 15.4375 18.859375 15.195312 20.339844 L 15.183594 20.394531 L 15.183594 20.414062 L 15.175781 20.445312 L 15.167969 20.511719 L 15.164062 20.542969 L 15.160156 20.585938 L 15.15625 20.59375 L 15.152344 20.636719 L 15.152344 20.65625 L 15.144531 20.6875 L 15.144531 20.734375 L 15.136719 20.800781 L 15.132812 20.832031 L 15.132812 20.847656 L 15.132812 20.816406 L 15.132812 20.824219 L 15.128906 20.894531 L 15.121094 20.996094 L 15.121094 21.082031 L 15.117188 21.242188 C 15.117188 21.40625 15.121094 21.554688 15.128906 21.691406 L 15.125 21.691406 L 15.128906 21.738281 C 15.136719 21.878906 15.148438 22.023438 15.160156 22.160156 L 15.164062 22.195312 C 15.183594 22.363281 15.199219 22.496094 15.214844 22.617188 L 15.222656 22.65625 C 15.242188 22.789062 15.265625 22.921875 15.292969 23.050781 L 15.296875 23.085938 C 15.324219 23.214844 15.355469 23.339844 15.382812 23.457031 L 15.394531 23.5 C 15.425781 23.621094 15.460938 23.742188 15.496094 23.847656 L 15.515625 23.914062 C 15.554688 24.039062 15.597656 24.152344 15.617188 24.21875 L 15.640625 24.273438 C 15.6875 24.394531 15.734375 24.507812 15.785156 24.625 L 15.800781 24.65625 C 15.851562 24.773438 15.902344 24.878906 15.957031 24.984375 L 15.96875 25.003906 C 16.011719 25.09375 16.066406 25.191406 16.136719 25.316406 L 16.152344 25.339844 C 16.214844 25.445312 16.273438 25.539062 16.332031 25.632812 L 16.355469 25.664062 C 16.417969 25.757812 16.480469 25.847656 16.539062 25.925781 L 16.578125 25.980469 C 16.640625 26.0625 16.703125 26.144531 16.769531 26.222656 L 16.820312 26.285156 C 16.871094 26.347656 16.929688 26.414062 17 26.492188 L 17.0625 26.558594 C 17.144531 26.644531 17.203125 26.703125 17.269531 26.769531 L 17.300781 26.800781 L 17.511719 26.996094 L 17.582031 27.058594 L 17.777344 27.21875 L 17.882812 27.304688 L 18.070312 27.445312 L 18.171875 27.515625 C 18.222656 27.550781 18.222656 27.550781 18.273438 27.585938 C 18.324219 27.621094 18.324219 27.621094 18.371094 27.652344 L 18.480469 27.722656 L 18.664062 27.832031 L 18.808594 27.914062 L 18.8125 27.917969 C 18.972656 28.015625 19.066406 28.183594 19.066406 28.367188 L 19.066406 30.355469 C 19.066406 32.195312 17.5625 33.699219 15.71875 33.699219 L 7.667969 33.699219 C 5.824219 33.699219 4.320312 32.195312 4.320312 30.355469 L 4.320312 20.304688 C 4.320312 19.167969 4.734375 18.441406 5.5625 17.726562 C 5.644531 17.652344 5.96875 17.382812 6.042969 17.316406 C 6.34375 17.054688 6.441406 16.898438 6.441406 16.710938 C 6.441406 16.546875 6.371094 16.386719 6.199219 16.160156 C 6.085938 16.011719 5.546875 15.417969 5.519531 15.382812 C 4.714844 14.453125 4.316406 13.542969 4.339844 12.222656 C 4.390625 9.808594 6.105469 7.710938 8.675781 6.773438 C 8.699219 6.453125 8.679688 6.136719 8.621094 5.824219 C 8.554688 5.5 8.800781 5.199219 9.132812 5.199219 L 14.296875 5.199219 C 14.636719 5.199219 14.886719 5.519531 14.804688 5.847656 C 14.722656 6.175781 14.699219 6.496094 14.734375 6.808594 C 17.28125 7.769531 18.972656 9.859375 18.972656 12.230469 Z M 20 12.238281 C 18.316406 14.179688 17.089844 15.84375 16.257812 17.417969 C 15.507812 18.828125 15.117188 20.105469 15.117188 21.242188 C 15.117188 31.542969 30.8125 31.542969 30.8125 21.242188 C 30.8125 20.105469 30.421875 18.828125 29.675781 17.417969 C 28.839844 15.84375 27.613281 14.179688 25.929688 12.234375 C 25.324219 11.535156 23.714844 9.761719 22.964844 8.9375 C 22.214844 9.765625 20.605469 11.535156 20 12.238281 Z M 31.855469 21.242188 C 31.855469 32.9375 14.074219 32.9375 14.074219 21.242188 C 14.074219 19.914062 14.511719 18.480469 15.332031 16.929688 C 16.210938 15.273438 17.480469 13.550781 19.207031 11.554688 C 20.003906 10.632812 22.457031 7.945312 22.574219 7.8125 C 22.78125 7.578125 23.148438 7.578125 23.355469 7.8125 C 23.472656 7.945312 25.925781 10.632812 26.722656 11.554688 C 28.449219 13.550781 29.71875 15.273438 30.597656 16.929688 C 31.417969 18.480469 31.855469 19.914062 31.855469 21.242188 Z M 23.300781 25.199219 C 23.589844 25.1875 23.835938 25.410156 23.847656 25.699219 C 23.859375 25.988281 23.636719 26.230469 23.347656 26.242188 C 20.050781 26.390625 17.765625 24.296875 17.945312 20.875 C 17.960938 20.585938 18.207031 20.367188 18.496094 20.382812 C 18.785156 20.398438 19.003906 20.644531 18.988281 20.929688 C 18.84375 23.710938 20.597656 25.320312 23.300781 25.199219 Z M 11.507812 24.8125 L 4.84375 24.8125 C 4.148438 24.8125 4.148438 23.765625 4.84375 23.765625 L 11.507812 23.765625 C 12.203125 23.765625 12.203125 24.8125 11.507812 24.8125 Z M 11.507812 28.761719 L 4.84375 28.761719 C 4.148438 28.761719 4.148438 27.71875 4.84375 27.71875 L 11.507812 27.71875 C 12.203125 27.71875 12.203125 28.761719 11.507812 28.761719 Z M 11.507812 23.765625 L 11.507812 24.8125 L 4.84375 24.8125 L 4.84375 23.765625 Z M 11.507812 21.152344 L 4.84375 21.152344 C 4.148438 21.152344 4.148438 20.105469 4.84375 20.105469 L 11.507812 20.105469 C 12.203125 20.105469 12.203125 21.152344 11.507812 21.152344 Z M 11.507812 21.152344 " fill-opacity="1" fill-rule="nonzero"/></g></svg>