<svg xmlns="http://www.w3.org/2000/svg" xmlns:xlink="http://www.w3.org/1999/xlink" width="48" zoomAndPan="magnify" viewBox="0 0 36 36.000001" height="48" preserveAspectRatio="xMidYMid meet" version="1.0"><defs><clipPath id="ba35d3aacc"><path d="M 0.902344 2.035156 L 35.199219 2.035156 L 35.199219 32.683594 L 0.902344 32.683594 Z M 0.902344 2.035156 " clip-rule="nonzero"/></clipPath></defs><g clip-path="url(#ba35d3aacc)"><path fill="#ff00de" d="M 31.015625 2.046875 L 4.972656 2.046875 C 4.707031 2.046875 4.441406 2.074219 4.179688 2.125 C 3.917969 2.179688 3.664062 2.257812 3.417969 2.359375 C 3.167969 2.460938 2.933594 2.585938 2.714844 2.734375 C 2.492188 2.882812 2.285156 3.050781 2.097656 3.242188 C 1.90625 3.429688 1.738281 3.636719 1.589844 3.859375 C 1.441406 4.078125 1.316406 4.3125 1.214844 4.5625 C 1.113281 4.808594 1.035156 5.0625 0.984375 5.324219 C 0.929688 5.585938 0.902344 5.851562 0.902344 6.117188 L 0.902344 32.160156 C 0.902344 32.523438 1.070312 32.773438 1.40625 32.914062 C 1.742188 33.050781 2.035156 32.992188 2.292969 32.738281 L 8.566406 26.464844 L 31.015625 26.464844 C 31.285156 26.464844 31.550781 26.4375 31.8125 26.386719 C 32.074219 26.332031 32.328125 26.253906 32.574219 26.152344 C 32.820312 26.050781 33.054688 25.925781 33.277344 25.777344 C 33.5 25.628906 33.703125 25.460938 33.894531 25.269531 C 34.082031 25.082031 34.25 24.875 34.398438 24.65625 C 34.546875 24.433594 34.671875 24.199219 34.777344 23.953125 C 34.878906 23.703125 34.957031 23.449219 35.007812 23.1875 C 35.058594 22.925781 35.085938 22.660156 35.085938 22.394531 L 35.085938 6.117188 C 35.085938 5.851562 35.058594 5.585938 35.007812 5.324219 C 34.957031 5.0625 34.878906 4.808594 34.777344 4.5625 C 34.671875 4.3125 34.546875 4.078125 34.398438 3.859375 C 34.25 3.636719 34.082031 3.429688 33.894531 3.242188 C 33.703125 3.050781 33.5 2.882812 33.277344 2.734375 C 33.054688 2.585938 32.820312 2.460938 32.574219 2.359375 C 32.328125 2.257812 32.074219 2.179688 31.8125 2.125 C 31.550781 2.074219 31.285156 2.046875 31.015625 2.046875 Z M 33.457031 22.394531 C 33.457031 22.71875 33.394531 23.03125 33.273438 23.328125 C 33.148438 23.628906 32.972656 23.890625 32.742188 24.121094 C 32.515625 24.347656 32.25 24.527344 31.953125 24.648438 C 31.652344 24.773438 31.339844 24.835938 31.015625 24.835938 L 8.226562 24.835938 C 8.003906 24.835938 7.8125 24.917969 7.652344 25.074219 L 2.53125 30.195312 L 2.53125 6.117188 C 2.53125 5.792969 2.59375 5.480469 2.71875 5.183594 C 2.84375 4.882812 3.019531 4.621094 3.246094 4.390625 C 3.476562 4.164062 3.738281 3.984375 4.039062 3.863281 C 4.339844 3.738281 4.648438 3.675781 4.972656 3.675781 L 31.015625 3.675781 C 31.339844 3.675781 31.652344 3.738281 31.953125 3.863281 C 32.25 3.984375 32.515625 4.164062 32.742188 4.390625 C 32.972656 4.621094 33.148438 4.882812 33.273438 5.183594 C 33.394531 5.480469 33.457031 5.792969 33.457031 6.117188 Z M 28.574219 9.371094 C 28.574219 9.597656 28.496094 9.789062 28.335938 9.949219 C 28.179688 10.105469 27.988281 10.1875 27.761719 10.1875 L 8.226562 10.1875 C 8.003906 10.1875 7.8125 10.105469 7.652344 9.949219 C 7.492188 9.789062 7.414062 9.597656 7.414062 9.371094 C 7.414062 9.148438 7.492188 8.957031 7.652344 8.796875 C 7.8125 8.636719 8.003906 8.558594 8.226562 8.558594 L 27.761719 8.558594 C 27.988281 8.558594 28.179688 8.636719 28.335938 8.796875 C 28.496094 8.957031 28.574219 9.148438 28.574219 9.371094 Z M 28.574219 14.257812 C 28.574219 14.480469 28.496094 14.671875 28.335938 14.832031 C 28.179688 14.992188 27.988281 15.070312 27.761719 15.070312 L 8.226562 15.070312 C 8.003906 15.070312 7.8125 14.992188 7.652344 14.832031 C 7.492188 14.671875 7.414062 14.480469 7.414062 14.257812 C 7.414062 14.03125 7.492188 13.839844 7.652344 13.679688 C 7.8125 13.523438 8.003906 13.441406 8.226562 13.441406 L 27.761719 13.441406 C 27.988281 13.441406 28.179688 13.523438 28.335938 13.679688 C 28.496094 13.839844 28.574219 14.03125 28.574219 14.257812 Z M 28.574219 19.140625 C 28.574219 19.363281 28.496094 19.554688 28.335938 19.714844 C 28.179688 19.875 27.988281 19.953125 27.761719 19.953125 L 8.226562 19.953125 C 8.003906 19.953125 7.8125 19.875 7.652344 19.714844 C 7.492188 19.554688 7.414062 19.363281 7.414062 19.140625 C 7.414062 18.914062 7.492188 18.722656 7.652344 18.5625 C 7.8125 18.40625 8.003906 18.324219 8.226562 18.324219 L 27.761719 18.324219 C 27.988281 18.324219 28.179688 18.40625 28.335938 18.5625 C 28.496094 18.722656 28.574219 18.914062 28.574219 19.140625 Z M 28.574219 19.140625 " fill-opacity="1" fill-rule="nonzero"/></g></svg>