<svg xmlns="http://www.w3.org/2000/svg" xmlns:xlink="http://www.w3.org/1999/xlink" width="48" zoomAndPan="magnify" viewBox="0 0 36 36.000001" height="48" preserveAspectRatio="xMidYMid meet" version="1.0"><defs><clipPath id="9728a146ee"><path d="M 13 5.355469 L 23 5.355469 L 23 17 L 13 17 Z M 13 5.355469 " clip-rule="nonzero"/></clipPath><clipPath id="ef4d09daaa"><path d="M 8 16 L 28 16 L 28 29.433594 L 8 29.433594 Z M 8 16 " clip-rule="nonzero"/></clipPath><clipPath id="2e2196f0df"><path d="M 27 16 L 35.199219 16 L 35.199219 27 L 27 27 Z M 27 16 " clip-rule="nonzero"/></clipPath><clipPath id="1c350e3603"><path d="M 0.902344 16 L 9 16 L 9 27 L 0.902344 27 Z M 0.902344 16 " clip-rule="nonzero"/></clipPath></defs><g clip-path="url(#9728a146ee)"><path fill="#ff00de" d="M 17.996094 16.734375 C 18.753906 16.726562 20.582031 16.011719 21.820312 12.515625 C 22.226562 11.363281 22.382812 10.132812 22.222656 8.917969 C 21.832031 5.992188 19.945312 5.367188 17.996094 5.363281 C 16.042969 5.367188 14.160156 5.992188 13.769531 8.917969 C 13.605469 10.132812 13.765625 11.363281 14.171875 12.515625 C 15.410156 16.011719 17.238281 16.726562 17.996094 16.734375 " fill-opacity="1" fill-rule="nonzero"/></g><g clip-path="url(#ef4d09daaa)"><path fill="#ff00de" d="M 25.023438 16.925781 L 20.40625 16.925781 C 19.644531 17.554688 18.777344 17.921875 18.007812 17.929688 L 17.980469 17.929688 C 17.214844 17.921875 16.347656 17.554688 15.585938 16.925781 L 10.964844 16.925781 C 10.519531 16.925781 10.121094 17.203125 9.96875 17.625 C 9.09375 20.023438 8.644531 27.03125 8.644531 27.03125 C 8.644531 27.453125 8.890625 27.832031 9.277344 28.003906 C 11.597656 29.027344 14.648438 29.648438 17.996094 29.648438 C 21.339844 29.648438 24.394531 29.027344 26.710938 28.003906 C 27.097656 27.832031 27.347656 27.453125 27.347656 27.03125 C 27.347656 27.03125 26.898438 20.023438 26.023438 17.625 C 25.871094 17.203125 25.472656 16.925781 25.023438 16.925781 " fill-opacity="1" fill-rule="nonzero"/></g><path fill="#ff00de" d="M 27.039062 15.84375 C 27.6875 15.835938 29.261719 15.21875 30.328125 12.214844 C 30.679688 11.222656 30.8125 10.160156 30.675781 9.117188 C 30.339844 6.597656 28.714844 6.058594 27.039062 6.058594 C 25.359375 6.058594 23.738281 6.597656 23.398438 9.117188 C 23.261719 10.160156 23.394531 11.222656 23.746094 12.214844 C 24.8125 15.21875 26.386719 15.835938 27.039062 15.84375 " fill-opacity="1" fill-rule="nonzero"/><path fill="#ff00de" d="M 8.953125 15.84375 C 9.605469 15.835938 11.175781 15.21875 12.242188 12.214844 C 12.59375 11.222656 12.730469 10.160156 12.589844 9.117188 C 12.253906 6.597656 10.632812 6.058594 8.953125 6.058594 C 7.273438 6.058594 5.652344 6.597656 5.316406 9.117188 C 5.175781 10.160156 5.3125 11.222656 5.664062 12.214844 C 6.730469 15.21875 8.300781 15.835938 8.953125 15.84375 " fill-opacity="1" fill-rule="nonzero"/><g clip-path="url(#2e2196f0df)"><path fill="#ff00de" d="M 33.945312 16.609375 C 33.8125 16.246094 33.46875 16.007812 33.085938 16.007812 L 29.367188 16.007812 C 29.347656 16.023438 29.332031 16.039062 29.3125 16.054688 C 28.613281 16.664062 27.796875 17.023438 27.074219 17.039062 C 27.101562 17.097656 27.125 17.152344 27.144531 17.214844 C 27.542969 18.296875 27.898438 20.277344 28.203125 23.097656 C 28.40625 24.988281 28.519531 26.605469 28.539062 26.90625 C 30.824219 26.753906 32.894531 26.265625 34.539062 25.539062 C 34.871094 25.394531 35.085938 25.066406 35.085938 24.703125 C 35.085938 24.703125 34.699219 18.671875 33.945312 16.609375 " fill-opacity="1" fill-rule="nonzero"/></g><g clip-path="url(#1c350e3603)"><path fill="#ff00de" d="M 8.917969 17.039062 C 8.191406 17.023438 7.375 16.664062 6.675781 16.054688 C 6.660156 16.039062 6.640625 16.023438 6.625 16.007812 L 2.902344 16.007812 C 2.519531 16.007812 2.175781 16.246094 2.046875 16.609375 C 1.292969 18.671875 0.90625 24.703125 0.90625 24.703125 C 0.90625 25.066406 1.121094 25.394531 1.453125 25.539062 C 3.09375 26.265625 5.164062 26.753906 7.453125 26.90625 C 7.472656 26.605469 7.582031 24.988281 7.789062 23.097656 C 8.09375 20.277344 8.449219 18.296875 8.84375 17.214844 C 8.867188 17.152344 8.890625 17.097656 8.917969 17.039062 " fill-opacity="1" fill-rule="nonzero"/></g></svg>