<svg xmlns="http://www.w3.org/2000/svg" xmlns:xlink="http://www.w3.org/1999/xlink" width="48" zoomAndPan="magnify" viewBox="0 0 36 36.000001" height="48" preserveAspectRatio="xMidYMid meet" version="1.0"><defs><clipPath id="034aea6ced"><path d="M 1.070312 4 L 21 4 L 21 27 L 1.070312 27 Z M 1.070312 4 " clip-rule="nonzero"/></clipPath><clipPath id="8c9c461d1e"><path d="M 15 10 L 34.636719 10 L 34.636719 30.949219 L 15 30.949219 Z M 15 10 " clip-rule="nonzero"/></clipPath></defs><g clip-path="url(#034aea6ced)"><path fill="#ff00de" d="M 17.957031 4.046875 C 18.359375 3.953125 18.847656 4.09375 19.0625 4.457031 C 19.214844 4.722656 19.257812 5.03125 19.355469 5.320312 C 20.148438 7.75 20.660156 10.285156 20.730469 12.84375 C 20.828125 15.445312 20.53125 18.097656 19.585938 20.539062 C 18.914062 22.289062 17.875 23.933594 16.414062 25.128906 C 15.601562 25.796875 14.628906 26.304688 13.570312 26.425781 C 12.609375 26.519531 11.640625 26.316406 10.742188 25.984375 C 9.742188 25.574219 8.78125 25.054688 7.953125 24.355469 C 6.429688 23.136719 5.195312 21.585938 4.222656 19.902344 C 3.511719 18.660156 2.925781 17.347656 2.480469 15.988281 C 1.691406 13.691406 1.265625 11.28125 1.097656 8.863281 C 1.082031 8.648438 1.070312 8.425781 1.078125 8.203125 C 1.113281 7.675781 1.644531 7.261719 2.164062 7.308594 C 2.3125 7.320312 2.457031 7.351562 2.605469 7.375 C 5.074219 7.804688 7.621094 7.847656 10.085938 7.375 C 12.640625 6.886719 15.066406 5.828125 17.246094 4.421875 C 17.476562 4.289062 17.691406 4.113281 17.957031 4.046875 Z M 15.097656 10.59375 C 14.363281 10.761719 13.714844 11.273438 13.394531 11.957031 C 13.167969 12.449219 13.046875 13.035156 13.230469 13.558594 C 13.855469 12.988281 14.597656 12.53125 15.414062 12.296875 C 16.4375 11.992188 17.5625 11.96875 18.582031 12.316406 C 18.324219 11.816406 17.90625 11.410156 17.449219 11.089844 C 16.78125 10.609375 15.90625 10.398438 15.097656 10.59375 Z M 5.761719 12.941406 C 5.046875 13.527344 4.621094 14.4375 4.609375 15.359375 C 4.628906 15.34375 4.667969 15.320312 4.6875 15.304688 C 6.058594 14.027344 8.152344 13.644531 9.910156 14.261719 C 9.902344 13.929688 9.742188 13.628906 9.550781 13.367188 C 9.105469 12.757812 8.378906 12.371094 7.628906 12.328125 C 6.957031 12.277344 6.273438 12.507812 5.761719 12.941406 Z M 16.707031 17.359375 C 16.085938 17.894531 15.429688 18.402344 14.695312 18.777344 C 13.914062 19.164062 13.082031 19.480469 12.210938 19.597656 C 10.878906 19.824219 9.5 19.683594 8.222656 19.261719 C 8.105469 19.21875 7.972656 19.207031 7.882812 19.324219 C 7.804688 19.417969 7.859375 19.519531 7.898438 19.605469 C 8.605469 20.894531 9.855469 21.867188 11.277344 22.226562 C 11.953125 22.410156 12.675781 22.441406 13.355469 22.277344 C 14.242188 22.0625 15.058594 21.5625 15.652344 20.867188 C 16.382812 20.046875 16.828125 18.996094 17.011719 17.921875 C 17.03125 17.765625 17.09375 17.597656 17.039062 17.449219 C 16.992188 17.335938 16.8125 17.269531 16.707031 17.359375 Z M 16.707031 17.359375 " fill-opacity="1" fill-rule="nonzero"/></g><g clip-path="url(#8c9c461d1e)"><path fill="#ff00de" d="M 21.441406 10.367188 C 23.671875 11.609375 26.140625 12.421875 28.664062 12.777344 C 30.167969 12.996094 31.6875 13.054688 33.203125 12.984375 C 33.578125 12.980469 33.992188 12.929688 34.328125 13.132812 C 34.695312 13.34375 34.921875 13.789062 34.832031 14.207031 C 34.585938 15.453125 34.292969 16.691406 33.894531 17.902344 C 33.570312 18.96875 33.144531 20 32.695312 21.019531 C 31.882812 22.804688 30.882812 24.511719 29.652344 26.042969 C 28.386719 27.609375 26.824219 28.941406 25.050781 29.898438 C 24.152344 30.367188 23.1875 30.71875 22.1875 30.875 C 21.0625 31.070312 19.859375 30.925781 18.851562 30.371094 C 17.402344 29.566406 16.375 28.195312 15.609375 26.757812 C 16.320312 26.382812 16.988281 25.917969 17.566406 25.355469 C 17.773438 25.15625 17.972656 24.945312 18.171875 24.742188 C 18.609375 25.402344 19.140625 26.015625 19.796875 26.464844 C 20.664062 27.050781 21.742188 27.300781 22.777344 27.179688 C 24.316406 27.019531 25.722656 26.078125 26.554688 24.789062 C 26.628906 24.6875 26.65625 24.523438 26.539062 24.453125 C 26.410156 24.375 26.25 24.445312 26.113281 24.457031 C 24.71875 24.679688 23.28125 24.6875 21.902344 24.363281 C 20.960938 24.15625 20.085938 23.734375 19.242188 23.28125 C 19.507812 22.808594 19.796875 22.347656 20.023438 21.851562 C 20.683594 20.429688 21.109375 18.90625 21.375 17.363281 C 21.558594 17.574219 21.726562 17.8125 21.953125 17.984375 C 22.191406 17.371094 22.085938 16.675781 21.816406 16.089844 C 21.753906 15.9375 21.601562 15.804688 21.625 15.625 C 21.734375 13.871094 21.707031 12.109375 21.441406 10.367188 Z M 26.117188 17.761719 C 25.683594 18.0625 25.339844 18.515625 25.242188 19.042969 C 26.589844 18.730469 28.058594 18.9375 29.261719 19.617188 C 29.726562 19.875 30.125 20.234375 30.496094 20.605469 C 30.589844 19.183594 29.574219 17.769531 28.191406 17.421875 C 27.496094 17.234375 26.71875 17.359375 26.117188 17.761719 Z M 26.117188 17.761719 " fill-opacity="1" fill-rule="nonzero"/></g></svg>