<svg xmlns="http://www.w3.org/2000/svg" xmlns:xlink="http://www.w3.org/1999/xlink" width="48" zoomAndPan="magnify" viewBox="0 0 36 36.000001" height="48" preserveAspectRatio="xMidYMid meet" version="1.0"><defs><clipPath id="b44fd52a9c"><path d="M 0.863281 0.375 L 35.160156 0.375 L 35.160156 34.671875 L 0.863281 34.671875 Z M 0.863281 0.375 " clip-rule="nonzero"/></clipPath></defs><g clip-path="url(#b44fd52a9c)"><path fill="#ff00de" d="M 33.886719 20.191406 C 34.558594 20.191406 35.109375 19.644531 35.109375 18.96875 L 35.109375 16.015625 C 35.109375 15.339844 34.558594 14.792969 33.886719 14.792969 L 32.617188 14.792969 C 31.945312 14.792969 31.234375 14.265625 31.035156 13.621094 L 29.953125 10.992188 C 29.636719 10.398438 29.765625 9.527344 30.238281 9.050781 L 31.136719 8.152344 C 31.613281 7.675781 31.613281 6.898438 31.136719 6.421875 L 29.046875 4.332031 C 28.570312 3.855469 27.792969 3.855469 27.316406 4.332031 L 26.417969 5.230469 C 25.945312 5.707031 25.070312 5.835938 24.476562 5.515625 L 21.847656 4.433594 C 21.207031 4.238281 20.679688 3.523438 20.679688 2.851562 L 20.679688 1.582031 C 20.679688 0.910156 20.128906 0.359375 19.457031 0.359375 L 16.5 0.359375 C 15.828125 0.359375 15.277344 0.910156 15.277344 1.582031 L 15.277344 2.851562 C 15.277344 3.523438 14.75 4.238281 14.109375 4.433594 L 11.480469 5.515625 C 10.886719 5.835938 10.011719 5.707031 9.539062 5.230469 L 8.640625 4.332031 C 8.164062 3.855469 7.386719 3.855469 6.910156 4.332031 L 4.820312 6.421875 C 4.34375 6.898438 4.34375 7.675781 4.820312 8.152344 L 5.71875 9.050781 C 6.195312 9.527344 6.324219 10.398438 6.003906 10.992188 L 4.921875 13.621094 C 4.722656 14.265625 4.011719 14.789062 3.339844 14.789062 L 2.070312 14.789062 C 1.398438 14.789062 0.847656 15.339844 0.847656 16.011719 L 0.847656 18.96875 C 0.847656 19.644531 1.398438 20.191406 2.070312 20.191406 L 3.339844 20.191406 C 4.011719 20.191406 4.722656 20.71875 4.921875 21.363281 L 6.003906 23.992188 C 6.324219 24.582031 6.195312 25.457031 5.71875 25.933594 L 4.820312 26.832031 C 4.34375 27.308594 4.34375 28.085938 4.820312 28.5625 L 6.910156 30.652344 C 7.386719 31.128906 8.164062 31.125 8.640625 30.652344 L 9.539062 29.753906 C 10.015625 29.277344 10.886719 29.148438 11.480469 29.464844 L 14.109375 30.550781 C 14.753906 30.746094 15.277344 31.460938 15.277344 32.132812 L 15.277344 33.402344 C 15.277344 34.074219 15.828125 34.625 16.5 34.625 L 19.457031 34.625 C 20.128906 34.625 20.679688 34.074219 20.679688 33.402344 L 20.679688 32.132812 C 20.679688 31.460938 21.207031 30.746094 21.847656 30.550781 L 24.476562 29.464844 C 25.070312 29.148438 25.945312 29.277344 26.417969 29.753906 L 27.320312 30.652344 C 27.792969 31.128906 28.574219 31.125 29.046875 30.652344 L 31.136719 28.5625 C 31.613281 28.085938 31.613281 27.308594 31.136719 26.832031 L 30.238281 25.933594 C 29.765625 25.457031 29.636719 24.582031 29.953125 23.992188 L 31.035156 21.363281 C 31.234375 20.71875 31.945312 20.191406 32.617188 20.191406 Z M 17.980469 24.539062 C 14.085938 24.539062 10.929688 21.382812 10.929688 17.492188 C 10.929688 13.597656 14.085938 10.445312 17.980469 10.445312 C 21.871094 10.445312 25.027344 13.597656 25.027344 17.492188 C 25.027344 21.382812 21.871094 24.539062 17.980469 24.539062 Z M 17.980469 24.539062 " fill-opacity="1" fill-rule="nonzero"/></g></svg>