<svg xmlns="http://www.w3.org/2000/svg" xmlns:xlink="http://www.w3.org/1999/xlink" width="48" zoomAndPan="magnify" viewBox="0 0 36 36.000001" height="48" preserveAspectRatio="xMidYMid meet" version="1.0"><defs><clipPath id="1d2ee7ed4b"><path d="M 2.707031 0.199219 L 33.355469 0.199219 L 33.355469 34.496094 L 2.707031 34.496094 Z M 2.707031 0.199219 " clip-rule="nonzero"/></clipPath></defs><g clip-path="url(#1d2ee7ed4b)"><path fill="#ff00de" d="M 19.265625 6.019531 C 19.859375 5.855469 20.414062 5.714844 20.980469 5.613281 C 26.003906 4.6875 30.621094 7.285156 32.417969 12.058594 C 33.1875 14.105469 33.394531 16.230469 33.230469 18.398438 C 33.035156 20.996094 32.4375 23.503906 31.429688 25.910156 C 30.519531 28.085938 29.382812 30.125 27.777344 31.875 C 26.703125 33.046875 25.496094 34.03125 23.960938 34.546875 C 22.75 34.953125 21.554688 34.917969 20.378906 34.410156 C 19.785156 34.15625 19.214844 33.851562 18.566406 33.75 C 17.722656 33.621094 16.9375 33.78125 16.179688 34.140625 C 15.648438 34.394531 15.117188 34.640625 14.535156 34.738281 C 13.273438 34.949219 12.101562 34.6875 10.988281 34.09375 C 9.460938 33.273438 8.265625 32.074219 7.238281 30.699219 C 5.074219 27.800781 3.792969 24.519531 3.09375 20.996094 C 2.769531 19.371094 2.640625 17.730469 2.734375 16.078125 C 2.890625 13.257812 3.734375 10.699219 5.6875 8.585938 C 7.238281 6.910156 9.160156 5.9375 11.40625 5.566406 C 13.222656 5.265625 14.980469 5.515625 16.71875 6.03125 C 16.910156 6.085938 16.988281 6.09375 17.039062 5.859375 C 17.476562 3.707031 18.574219 1.929688 20.148438 0.425781 C 20.441406 0.140625 20.546875 0.132812 20.894531 0.347656 C 21.214844 0.542969 21.484375 0.796875 21.710938 1.09375 C 22 1.472656 22.050781 1.804688 21.640625 2.179688 C 20.546875 3.175781 19.777344 4.386719 19.328125 5.796875 C 19.308594 5.855469 19.292969 5.914062 19.265625 6.019531 Z M 30.949219 18.207031 C 31 15.710938 30.765625 14 30.046875 12.375 C 28.460938 8.796875 25.019531 7.355469 21.757812 7.785156 C 20.867188 7.90625 20.019531 8.207031 19.148438 8.417969 C 19.023438 8.449219 19.039062 8.523438 19.039062 8.609375 C 19.035156 9.070312 19.105469 9.519531 19.164062 9.972656 C 19.191406 10.171875 19.261719 10.195312 19.445312 10.164062 C 20.394531 10.007812 21.296875 9.699219 22.199219 9.378906 C 22.433594 9.296875 22.667969 9.203125 22.925781 9.207031 C 23.097656 9.210938 23.246094 9.269531 23.320312 9.441406 C 23.394531 9.609375 23.328125 9.742188 23.210938 9.863281 C 22.996094 10.089844 22.746094 10.273438 22.484375 10.441406 C 20.382812 11.765625 18.125 12.074219 15.734375 11.449219 C 14.6875 11.171875 13.738281 10.699219 12.90625 9.996094 C 12.730469 9.84375 12.570312 9.664062 12.703125 9.417969 C 12.835938 9.171875 13.082031 9.171875 13.320312 9.234375 C 13.601562 9.308594 13.882812 9.394531 14.15625 9.492188 C 15.027344 9.796875 15.898438 10.097656 16.824219 10.207031 C 16.910156 10.214844 17.003906 10.257812 16.96875 10.101562 C 16.855469 9.601562 16.816406 9.09375 16.816406 8.585938 C 16.816406 8.464844 16.765625 8.421875 16.660156 8.390625 C 15.695312 8.101562 14.734375 7.789062 13.71875 7.738281 C 10.449219 7.566406 7.933594 8.847656 6.265625 11.679688 C 5.351562 13.230469 5.050781 14.949219 5.011719 16.722656 C 4.957031 19.199219 5.417969 21.59375 6.246094 23.921875 C 7.039062 26.148438 8.089844 28.230469 9.632812 30.039062 C 10.347656 30.878906 11.144531 31.628906 12.144531 32.128906 C 13.113281 32.613281 14.078125 32.667969 15.070312 32.160156 C 16.988281 31.175781 18.933594 31.175781 20.855469 32.152344 C 21.863281 32.667969 22.839844 32.625 23.828125 32.125 C 24.878906 31.589844 25.722656 30.800781 26.449219 29.890625 C 29.339844 26.261719 30.730469 22.074219 30.949219 18.207031 Z M 30.949219 18.207031 " fill-opacity="1" fill-rule="evenodd"/></g></svg>