<svg xmlns="http://www.w3.org/2000/svg" xmlns:xlink="http://www.w3.org/1999/xlink" width="48" zoomAndPan="magnify" viewBox="0 0 36 36.000001" height="48" preserveAspectRatio="xMidYMid meet" version="1.0"><defs><clipPath id="414e6a2de3"><path d="M 10.996094 10.738281 L 24.859375 10.738281 L 24.859375 24.601562 L 10.996094 24.601562 Z M 10.996094 10.738281 " clip-rule="nonzero"/></clipPath><clipPath id="bef9ca61cf"><path d="M 0.902344 2.253906 L 35.199219 2.253906 L 35.199219 32.902344 L 0.902344 32.902344 Z M 0.902344 2.253906 " clip-rule="nonzero"/></clipPath></defs><g clip-path="url(#414e6a2de3)"><path fill="#000000" d="M 24.058594 12.332031 L 22.839844 11.335938 C 22.347656 10.9375 21.710938 10.78125 21.101562 10.914062 L 14.855469 12.273438 L 12.621094 12.273438 C 11.726562 12.273438 10.996094 13.027344 10.996094 13.957031 L 10.996094 19.515625 C 10.996094 20.445312 11.726562 21.199219 12.621094 21.199219 L 15.902344 21.199219 C 15.992188 21.199219 16.078125 21.242188 16.132812 21.316406 L 17.96875 23.878906 C 18.285156 24.320312 18.761719 24.5625 19.265625 24.5625 C 19.4375 24.5625 19.613281 24.535156 19.785156 24.476562 C 20.464844 24.246094 20.90625 23.617188 20.90625 22.878906 L 20.90625 21.492188 C 20.90625 21.332031 21.03125 21.199219 21.191406 21.199219 L 22.753906 21.199219 C 23.914062 21.199219 24.859375 20.222656 24.859375 19.023438 L 24.859375 14.039062 C 24.859375 13.371094 24.566406 12.746094 24.058594 12.332031 Z M 14.253906 19.8125 L 12.621094 19.8125 C 12.464844 19.8125 12.335938 19.679688 12.335938 19.515625 L 12.335938 13.957031 C 12.335938 13.792969 12.464844 13.660156 12.621094 13.660156 L 14.253906 13.660156 Z M 23.519531 19.023438 C 23.519531 19.457031 23.175781 19.8125 22.753906 19.8125 L 21.191406 19.8125 C 20.292969 19.8125 19.5625 20.566406 19.5625 21.492188 L 19.5625 22.878906 C 19.5625 23.066406 19.441406 23.132812 19.367188 23.160156 C 19.292969 23.183594 19.15625 23.203125 19.046875 23.054688 L 17.210938 20.492188 C 16.90625 20.066406 16.417969 19.8125 15.902344 19.8125 L 15.597656 19.8125 L 15.597656 13.53125 L 21.375 12.273438 C 21.597656 12.222656 21.828125 12.28125 22.007812 12.425781 L 23.226562 13.421875 C 23.410156 13.570312 23.519531 13.796875 23.519531 14.039062 Z M 23.519531 19.023438 " fill-opacity="1" fill-rule="nonzero"/></g><g clip-path="url(#bef9ca61cf)"><path fill="#ff00de" d="M 35.066406 19.148438 C 35.066406 20.96875 33.585938 22.449219 31.769531 22.449219 L 24.195312 22.554688 L 24.890625 28.140625 C 24.890625 30.027344 23.65625 32.769531 21.710938 32.769531 L 19.644531 32.769531 L 18.589844 27.144531 L 13.816406 19.746094 C 13.304688 19.039062 12.945312 18.445312 12.683594 17.914062 C 12.238281 18.402344 11.59375 18.714844 10.878906 18.714844 L 3.367188 18.714844 C 2.019531 18.714844 0.925781 17.621094 0.925781 16.277344 L 0.925781 4.699219 C 0.925781 3.351562 2.019531 2.253906 3.367188 2.253906 L 10.878906 2.253906 C 11.867188 2.253906 12.722656 2.851562 13.105469 3.695312 C 13.832031 2.921875 14.867188 2.433594 16.015625 2.433594 L 28.441406 2.433594 C 30.261719 2.433594 31.738281 3.914062 31.738281 5.730469 C 31.738281 6.144531 31.667969 6.539062 31.519531 6.914062 C 32.921875 7.3125 33.921875 8.609375 33.921875 10.089844 C 33.921875 10.605469 33.796875 11.117188 33.558594 11.574219 C 34.492188 12.1875 35.066406 13.226562 35.066406 14.339844 C 35.066406 15.257812 34.6875 16.125 34.019531 16.742188 C 34.6875 17.363281 35.066406 18.230469 35.066406 19.148438 Z M 35.066406 19.148438 " fill-opacity="1" fill-rule="nonzero"/></g></svg>