<svg xmlns="http://www.w3.org/2000/svg" xmlns:xlink="http://www.w3.org/1999/xlink" width="48" zoomAndPan="magnify" viewBox="0 0 36 36.000001" height="48" preserveAspectRatio="xMidYMid meet" version="1.0"><defs><clipPath id="601e73e5a7"><path d="M 3 15 L 33 15 L 33 33.960938 L 3 33.960938 Z M 3 15 " clip-rule="nonzero"/></clipPath><clipPath id="e88956c0e6"><path d="M 0.902344 1.121094 L 35.199219 1.121094 L 35.199219 16 L 0.902344 16 Z M 0.902344 1.121094 " clip-rule="nonzero"/></clipPath></defs><g clip-path="url(#601e73e5a7)"><path fill="#ff00de" d="M 31.097656 16.800781 C 29.902344 16.800781 28.753906 16.402344 27.824219 15.695312 C 26.890625 16.402344 25.742188 16.800781 24.546875 16.800781 C 23.347656 16.800781 22.199219 16.402344 21.269531 15.695312 C 20.339844 16.402344 19.191406 16.800781 17.992188 16.800781 C 16.796875 16.800781 15.648438 16.402344 14.71875 15.695312 C 13.789062 16.402344 12.640625 16.800781 11.441406 16.800781 C 10.242188 16.800781 9.097656 16.402344 8.164062 15.695312 C 7.234375 16.402344 6.085938 16.800781 4.890625 16.800781 C 4.496094 16.800781 4.117188 16.753906 3.75 16.675781 L 3.75 31.753906 C 3.75 32.933594 4.707031 33.890625 5.886719 33.890625 L 8.023438 33.890625 L 8.023438 20.359375 C 8.023438 19.96875 8.339844 19.648438 8.734375 19.648438 L 15.855469 19.648438 C 16.25 19.648438 16.566406 19.96875 16.566406 20.359375 L 16.566406 33.890625 L 30.097656 33.890625 C 31.277344 33.890625 32.234375 32.933594 32.234375 31.753906 L 32.234375 16.675781 C 31.867188 16.753906 31.488281 16.800781 31.097656 16.800781 Z M 27.964844 27.484375 C 27.964844 27.875 27.644531 28.195312 27.253906 28.195312 L 18.707031 28.195312 C 18.3125 28.195312 17.996094 27.875 17.996094 27.484375 L 17.996094 20.359375 C 17.996094 19.96875 18.3125 19.648438 18.707031 19.648438 L 27.253906 19.648438 C 27.644531 19.648438 27.964844 19.96875 27.964844 20.359375 Z M 27.964844 27.484375 " fill-opacity="1" fill-rule="nonzero"/></g><g clip-path="url(#e88956c0e6)"><path fill="#ff00de" d="M 35.050781 10.167969 L 32.527344 2.59375 C 32.238281 1.722656 31.421875 1.132812 30.5 1.132812 L 5.492188 1.132812 C 4.570312 1.132812 3.753906 1.722656 3.464844 2.59375 L 0.9375 10.167969 C 0.914062 10.238281 0.902344 10.3125 0.902344 10.390625 L 0.902344 11.386719 C 0.902344 13.585938 2.691406 15.375 4.890625 15.375 C 6.246094 15.375 7.445312 14.695312 8.167969 13.660156 C 8.890625 14.695312 10.089844 15.375 11.445312 15.375 C 12.800781 15.375 14 14.695312 14.71875 13.660156 C 15.441406 14.695312 16.640625 15.375 17.996094 15.375 C 19.351562 15.375 20.550781 14.695312 21.273438 13.660156 C 21.992188 14.695312 23.195312 15.375 24.546875 15.375 C 25.902344 15.375 27.105469 14.695312 27.824219 13.660156 C 28.546875 14.695312 29.746094 15.375 31.101562 15.375 C 33.300781 15.375 35.089844 13.585938 35.089844 11.386719 L 35.089844 10.390625 C 35.089844 10.3125 35.078125 10.238281 35.054688 10.167969 Z M 35.050781 10.167969 " fill-opacity="1" fill-rule="nonzero"/></g></svg>