<svg xmlns="http://www.w3.org/2000/svg" xmlns:xlink="http://www.w3.org/1999/xlink" width="48" zoomAndPan="magnify" viewBox="0 0 36 36.000001" height="48" preserveAspectRatio="xMidYMid meet" version="1.0"><defs><clipPath id="8fa1a9ce49"><path d="M 1.515625 1 L 34.355469 1 L 34.355469 34.714844 L 1.515625 34.714844 Z M 1.515625 1 " clip-rule="nonzero"/></clipPath></defs><g clip-path="url(#8fa1a9ce49)"><path fill="#ff00de" d="M 31.546875 28.160156 L 30.394531 28.160156 L 30.394531 14.789062 C 30.394531 12.964844 28.910156 11.480469 27.085938 11.480469 L 18.898438 11.480469 L 18.898438 9.476562 C 20.082031 9.09375 20.949219 7.992188 20.949219 6.679688 C 20.949219 5.410156 19.289062 2.40625 18.78125 1.515625 C 18.457031 0.953125 17.535156 0.953125 17.214844 1.515625 C 16.703125 2.40625 15.046875 5.410156 15.046875 6.679688 C 15.046875 7.992188 15.910156 9.09375 17.09375 9.476562 L 17.09375 11.480469 L 8.910156 11.480469 C 7.085938 11.480469 5.601562 12.964844 5.601562 14.789062 L 5.601562 28.160156 L 4.445312 28.160156 C 2.816406 28.160156 1.488281 29.488281 1.488281 31.117188 C 1.488281 32.75 2.816406 34.078125 4.445312 34.078125 L 31.546875 34.078125 C 33.179688 34.078125 34.507812 32.75 34.507812 31.117188 C 34.507812 29.488281 33.179688 28.160156 31.546875 28.160156 Z M 16.851562 6.679688 C 16.851562 6.300781 17.363281 5.109375 17.996094 3.863281 C 18.632812 5.109375 19.144531 6.296875 19.144531 6.679688 C 19.144531 7.3125 18.628906 7.828125 17.996094 7.828125 C 17.367188 7.828125 16.851562 7.3125 16.851562 6.679688 Z M 7.40625 14.789062 C 7.40625 13.960938 8.082031 13.285156 8.910156 13.285156 L 27.082031 13.285156 C 27.910156 13.285156 28.585938 13.960938 28.585938 14.789062 L 28.585938 19.28125 C 25.816406 20.59375 22.648438 20.945312 19.804688 20.21875 C 18.875 19.984375 17.976562 19.644531 17.023438 19.285156 C 16.113281 18.945312 15.175781 18.589844 14.199219 18.332031 C 12.003906 17.746094 9.679688 17.683594 7.40625 18.085938 Z M 7.40625 19.917969 C 9.519531 19.496094 11.691406 19.53125 13.738281 20.078125 C 14.625 20.3125 15.480469 20.632812 16.386719 20.976562 C 17.34375 21.335938 18.335938 21.710938 19.363281 21.96875 C 20.492188 22.253906 21.660156 22.398438 22.839844 22.398438 C 24.785156 22.398438 26.75 21.996094 28.589844 21.242188 L 28.589844 28.160156 L 7.40625 28.160156 Z M 31.546875 32.273438 L 4.449219 32.273438 C 3.8125 32.273438 3.292969 31.753906 3.292969 31.117188 C 3.292969 30.480469 3.8125 29.964844 4.449219 29.964844 L 31.546875 29.964844 C 32.183594 29.964844 32.703125 30.480469 32.703125 31.117188 C 32.703125 31.753906 32.183594 32.273438 31.546875 32.273438 Z M 31.546875 32.273438 " fill-opacity="1" fill-rule="nonzero"/></g></svg>