<svg xmlns="http://www.w3.org/2000/svg" xmlns:xlink="http://www.w3.org/1999/xlink" width="48" zoomAndPan="magnify" viewBox="0 0 36 36.000001" height="48" preserveAspectRatio="xMidYMid meet" version="1.0"><defs><clipPath id="8be43df371"><path d="M 3.714844 0.832031 L 32.171875 0.832031 L 32.171875 34.402344 L 3.714844 34.402344 Z M 3.714844 0.832031 " clip-rule="nonzero"/></clipPath></defs><path fill="#000000" d="M 12.070312 8.4375 L 12.179688 8.4375 L 12.179688 8.519531 L 12.070312 8.519531 Z M 12.070312 8.4375 " fill-opacity="1" fill-rule="evenodd"/><g clip-path="url(#8be43df371)"><path fill="#ff00de" d="M 9.328125 0.851562 C 7.027344 0.988281 4.265625 4.0625 4.6875 6.605469 C 5.027344 8.65625 6.542969 10.085938 8.453125 11.097656 L 3.714844 11.097656 L 3.714844 17.832031 L 16.648438 17.800781 C 16.648438 17.800781 16.558594 14.574219 16.558594 11.128906 L 19.304688 11.128906 L 19.367188 17.875 C 19.367188 17.875 27.273438 17.832031 32.273438 17.832031 L 32.273438 11.097656 L 28.308594 11.097656 C 29.765625 10.222656 30.859375 9.199219 31.1875 8.269531 C 31.878906 5.972656 30.171875 2.304688 27.808594 1.921875 C 23.40625 1.207031 19.679688 7.652344 17.886719 11.097656 L 17.476562 11.097656 C 17.136719 6.53125 11.957031 0.835938 9.328125 0.851562 Z M 19.328125 34.1875 L 31.425781 34.1875 L 31.425781 18.367188 L 19.414062 18.378906 C 19.414062 18.378906 19.328125 29.921875 19.328125 34.1875 Z M 4.621094 18.367188 L 4.621094 34.1875 L 16.71875 34.1875 L 16.707031 18.433594 C 16.707031 18.433594 10.503906 18.367188 4.621094 18.367188 Z M 28.4375 3.25 C 30.980469 3.226562 24.421875 8.246094 21.609375 10.34375 L 20.171875 11.03125 L 19.554688 11.121094 C 21.042969 9.832031 21.101562 4.105469 28.1875 3.265625 C 28.277344 3.257812 28.363281 3.25 28.4375 3.25 Z M 6.007812 4.8125 C 7.777344 4.851562 14.582031 10.234375 15.714844 11.097656 L 11.394531 11.097656 C 9.484375 10.558594 7.363281 9.289062 5.78125 5.726562 C 5.488281 5.070312 5.609375 4.804688 6.007812 4.8125 Z M 6.007812 4.8125 " fill-opacity="1" fill-rule="evenodd"/></g></svg>