<svg xmlns="http://www.w3.org/2000/svg" xmlns:xlink="http://www.w3.org/1999/xlink" width="48" zoomAndPan="magnify" viewBox="0 0 36 36.000001" height="48" preserveAspectRatio="xMidYMid meet" version="1.0"><defs><clipPath id="da562e7a0c"><path d="M 1 0.183594 L 34.964844 0.183594 L 34.964844 34 L 1 34 Z M 1 0.183594 " clip-rule="nonzero"/></clipPath><clipPath id="a725aa5ad2"><path d="M 1 0.183594 L 34.964844 0.183594 L 34.964844 34.480469 L 1 34.480469 Z M 1 0.183594 " clip-rule="nonzero"/></clipPath></defs><g clip-path="url(#da562e7a0c)"><path fill="#ff00de" d="M 17.960938 33.066406 C 26.640625 33.066406 33.695312 26.007812 33.695312 17.335938 C 33.695312 8.65625 26.640625 1.597656 17.960938 1.597656 C 9.289062 1.597656 2.230469 8.65625 2.230469 17.335938 C 2.230469 26.007812 9.289062 33.066406 17.960938 33.066406 Z M 17.960938 0.695312 C 27.136719 0.695312 34.601562 8.160156 34.601562 17.335938 C 34.601562 26.507812 27.136719 33.96875 17.960938 33.96875 C 8.789062 33.96875 1.328125 26.507812 1.328125 17.335938 C 1.328125 8.160156 8.789062 0.695312 17.960938 0.695312 Z M 17.960938 0.695312 " fill-opacity="1" fill-rule="nonzero"/></g><g clip-path="url(#a725aa5ad2)"><path fill="#ff00de" d="M 12.269531 2.980469 C 10.261719 3.75 8.921875 4.867188 7.074219 6.644531 C 5.328125 8.523438 4.90625 8.773438 3.691406 11.5 C 2.851562 13.5625 2.503906 15.789062 2.519531 17.335938 C 2.515625 17.867188 2.550781 18.3125 2.59375 18.648438 C 2.800781 19.957031 2.601562 20.144531 3.160156 21.960938 C 3.789062 23.75 4.308594 24.785156 5.191406 26.195312 C 5.921875 27.742188 9.902344 31.160156 11.769531 31.640625 C 13.496094 32.335938 15.570312 32.867188 16.855469 32.96875 C 17.257812 33.003906 17.570312 33.023438 17.8125 33.039062 C 17.914062 33.046875 17.960938 33.058594 17.960938 33.070312 C 17.960938 33.085938 17.886719 33.097656 17.757812 33.097656 C 17.117188 33.101562 16.152344 33.070312 15.019531 32.910156 C 12.933594 32.527344 12.683594 32.433594 10.117188 31.148438 C 7.648438 29.707031 6.167969 28.582031 4.355469 25.699219 C 2.847656 22.757812 2.039062 22.003906 1.929688 17.335938 C 1.929688 17.273438 1.933594 17.210938 1.9375 17.148438 C 2.476562 12.414062 2.421875 11.695312 5.015625 7.613281 C 7.804688 3.457031 13.980469 1.25 16.867188 1.277344 C 17.21875 1.253906 17.582031 1.238281 17.960938 1.234375 C 20.710938 1.195312 24.25 2.007812 27.203125 4.152344 C 30.605469 6.46875 33.652344 11.058594 33.96875 15.660156 C 34.015625 16.191406 34.039062 16.753906 34.03125 17.335938 C 34.144531 21.761719 31.363281 26.59375 29.4375 28.304688 C 27.296875 30.296875 26.664062 30.699219 24.140625 31.929688 C 22.667969 32.601562 20.453125 33.125 18.574219 33.097656 C 17.625 33.078125 17.847656 33.035156 18.785156 32.976562 C 20.164062 32.871094 21.277344 32.648438 21.945312 32.40625 C 23.269531 31.894531 23.808594 31.664062 25.410156 30.90625 C 26.996094 30.09375 27.535156 29.398438 28.316406 28.738281 C 28.953125 27.96875 29.59375 28.425781 32.015625 23.757812 C 33.144531 21.167969 33.339844 18.996094 33.332031 17.335938 C 33.3125 15.890625 33.125 14.796875 32.914062 13.910156 C 32.5625 11.984375 30.832031 8.078125 28.320312 5.980469 C 26.320312 3.878906 21.054688 1.730469 17.960938 2 C 17.574219 2.003906 17.234375 2.023438 16.933594 2.046875 C 14.332031 2.375 14.304688 2.332031 12.269531 2.980469 Z M 11.71875 33.066406 C 9.59375 32.117188 7.804688 31.378906 5.761719 29.308594 C 3.863281 27.140625 3.671875 26.703125 2.273438 23.746094 C 1.304688 21.496094 1.023438 19.019531 1.039062 17.335938 C 1.042969 16.75 1.066406 16.261719 1.082031 15.886719 C 1.1875 14.429688 1.34375 14.289062 1.867188 12.300781 C 2.472656 10.328125 3.09375 9.203125 4.148438 7.746094 C 5.054688 6.136719 9.351562 2.589844 11.296875 1.933594 C 13.109375 1.035156 15.421875 0.71875 16.785156 0.675781 C 17.210938 0.65625 17.542969 0.660156 17.804688 0.671875 C 17.914062 0.675781 17.960938 0.6875 17.960938 0.699219 C 17.960938 0.714844 17.882812 0.726562 17.746094 0.730469 C 17.070312 0.746094 16.054688 0.828125 14.898438 1.097656 C 12.773438 1.691406 12.453125 1.582031 9.828125 3.003906 C 7.3125 4.597656 5.964844 5.875 4 8.75 C 2.324219 11.742188 2.023438 12.632812 1.628906 17.335938 C 1.628906 17.398438 1.625 17.460938 1.625 17.523438 C 1.867188 22.410156 2.394531 23.042969 5.03125 27.035156 C 7.847656 31.117188 13.894531 33.617188 16.855469 33.574219 C 17.210938 33.597656 17.578125 33.609375 17.960938 33.605469 C 20.746094 33.617188 24.28125 32.761719 27.296875 30.652344 C 30.800781 28.347656 33.710938 23.636719 34.15625 19.027344 C 34.21875 18.492188 34.257812 17.921875 34.269531 17.335938 C 34.515625 12.851562 31.808594 7.800781 29.875 5.945312 C 27.734375 3.792969 27.066406 3.332031 24.402344 2.117188 C 22.851562 1.453125 20.578125 0.875 18.605469 0.75 C 17.613281 0.695312 17.835938 0.632812 18.839844 0.648438 C 20.316406 0.6875 21.5 0.972656 22.25 1.105469 C 23.746094 1.398438 24.410156 1.566406 26.085938 2.53125 C 27.726562 3.546875 28.519531 4.015625 29.359375 4.78125 C 30.039062 5.660156 30.566406 5.28125 33.351562 10.300781 C 34.667969 13.101562 34.941406 15.496094 34.964844 17.335938 C 34.976562 18.929688 34.785156 20.144531 34.570312 21.136719 C 34.210938 23.300781 32.136719 27.535156 29.414062 29.882812 C 27.242188 32.253906 21.386719 34.605469 17.960938 34.371094 C 17.53125 34.375 17.152344 34.363281 16.816406 34.347656 C 13.90625 34.089844 13.902344 33.898438 11.71875 33.066406 Z M 11.71875 33.066406 " fill-opacity="1" fill-rule="nonzero"/></g><path fill="#ff00de" d="M 22.257812 23.679688 L 22.257812 10.988281 L 11.40625 17.335938 Z M 22.710938 9.75 L 22.933594 9.808594 C 23.074219 9.886719 23.164062 10.039062 23.164062 10.199219 L 23.164062 24.46875 C 23.164062 24.628906 23.074219 24.777344 22.933594 24.859375 L 22.480469 24.859375 L 10.285156 17.722656 C 10.144531 17.644531 10.058594 17.492188 10.058594 17.335938 C 10.058594 17.171875 10.144531 17.023438 10.285156 16.945312 L 22.480469 9.8125 Z M 22.710938 9.75 " fill-opacity="1" fill-rule="nonzero"/><path fill="#ff00de" d="M 15.066406 15.53125 C 14.316406 15.898438 13.886719 16.46875 12.988281 16.949219 C 12.339844 17.296875 12.050781 17.367188 11.570312 17.613281 L 11.570312 17.058594 C 11.742188 17.171875 11.949219 17.300781 12.234375 17.457031 C 13.257812 18.015625 14.210938 18.691406 14.691406 18.902344 C 15.167969 19.109375 15.125 19.296875 15.78125 19.632812 C 16.4375 19.96875 16.8125 20.214844 17.339844 20.59375 C 17.863281 20.96875 19.550781 22.011719 20.207031 22.3125 C 20.867188 22.613281 21.511719 23.136719 21.921875 23.414062 C 22.050781 23.5 22.148438 23.570312 22.222656 23.628906 C 22.25 23.652344 22.261719 23.671875 22.257812 23.679688 C 22.257812 23.679688 22.257812 23.679688 22.261719 23.679688 C 22.246094 23.695312 22.214844 23.691406 22.171875 23.667969 C 21.957031 23.554688 21.628906 23.386719 21.230469 23.214844 C 20.480469 22.890625 20.460938 22.753906 19.492188 22.246094 C 18.527344 21.738281 17.910156 21.496094 16.835938 20.792969 C 15.761719 20.089844 15.367188 20.175781 13.882812 19.125 C 12.636719 18.25 12.21875 18.210938 11.191406 17.707031 L 10.558594 17.316406 L 11.191406 16.964844 C 11.371094 16.839844 11.582031 16.703125 11.832031 16.546875 C 13.371094 15.605469 15.417969 14.589844 16.351562 14.027344 C 17.28125 13.46875 18.527344 12.703125 19.878906 11.957031 C 20.558594 11.578125 21.304688 11.125 22.070312 10.664062 L 22.644531 10.34375 L 22.628906 10.988281 C 22.640625 11.859375 22.648438 12.75 22.613281 13.59375 C 22.546875 15.296875 22.464844 17.703125 22.40625 18.816406 C 22.351562 19.925781 22.335938 20.199219 22.371094 21.269531 C 22.390625 21.882812 22.371094 22.730469 22.300781 23.449219 C 22.261719 23.808594 22.210938 23.726562 22.1875 23.363281 C 22.152344 22.832031 22.175781 22.398438 22.109375 22.125 C 21.984375 21.578125 21.933594 21.347656 22.007812 20.65625 C 22.082031 19.96875 21.914062 19.644531 21.933594 19.242188 C 21.953125 18.839844 22.050781 18.847656 21.976562 16.804688 C 21.898438 14.761719 21.878906 13.640625 21.859375 12.867188 C 21.847656 12.433594 21.871094 11.738281 21.886719 10.988281 L 22.445312 11.304688 C 21.925781 11.59375 21.382812 11.902344 20.910156 12.191406 C 19.839844 12.855469 17.609375 14.125 16.746094 14.691406 C 15.878906 15.257812 15.820312 15.164062 15.066406 15.53125 Z M 14.136719 20.316406 C 13.304688 19.757812 12.488281 19.597656 11.453125 18.949219 C 10.804688 18.539062 10.53125 18.304688 10.113281 18.015625 C 9.90625 17.882812 9.746094 17.640625 9.746094 17.335938 C 9.75 17.101562 9.871094 16.828125 10.128906 16.675781 C 10.191406 16.640625 10.257812 16.597656 10.324219 16.558594 C 11.515625 15.824219 12.769531 15.203125 13.277344 14.839844 C 13.785156 14.472656 13.933594 14.597656 14.675781 14.117188 C 15.417969 13.636719 15.890625 13.386719 16.585938 13.046875 C 17.285156 12.707031 19.359375 11.554688 20.066406 11.054688 C 20.773438 10.554688 21.6875 10.167969 22.214844 9.894531 C 22.304688 9.847656 22.386719 9.808594 22.460938 9.773438 L 22.46875 9.769531 C 22.53125 9.757812 22.585938 9.75 22.636719 9.742188 C 22.683594 9.734375 22.707031 9.738281 22.710938 9.75 C 22.714844 9.765625 22.683594 9.789062 22.628906 9.804688 C 22.585938 9.816406 22.539062 9.832031 22.492188 9.847656 L 22.5 9.84375 C 22.261719 9.996094 21.941406 10.210938 21.582031 10.472656 C 20.796875 11.046875 20.652344 11.007812 19.546875 11.710938 C 18.445312 12.414062 17.816406 12.894531 16.457031 13.617188 C 15.097656 14.335938 14.929688 14.75 12.976562 15.710938 C 11.652344 16.363281 11.203125 16.742188 10.472656 17.265625 C 10.457031 17.292969 10.460938 17.320312 10.472656 17.335938 C 10.484375 17.34375 10.5 17.347656 10.507812 17.34375 C 10.6875 17.4375 10.882812 17.542969 11.097656 17.664062 C 12.984375 18.722656 15.261719 20.238281 16.394531 20.882812 C 17.527344 21.53125 19.054688 22.386719 20.632812 23.351562 C 21.257812 23.734375 21.949219 24.132812 22.667969 24.542969 L 22.484375 24.492188 C 22.632812 24.492188 22.785156 24.488281 22.933594 24.488281 L 22.75 24.539062 C 22.777344 24.519531 22.789062 24.492188 22.785156 24.46875 C 22.777344 23.5 22.773438 22.515625 22.804688 21.582031 C 22.871094 19.539062 22.957031 16.65625 23.011719 15.324219 C 23.070312 13.992188 23.082031 13.664062 23.046875 12.382812 C 23.03125 11.765625 23.042969 10.953125 23.089844 10.199219 C 23.097656 10.078125 23.046875 9.949219 22.949219 9.867188 C 22.9375 9.859375 22.925781 9.847656 22.914062 9.839844 L 22.925781 9.84375 C 22.613281 9.730469 22.664062 9.699219 22.949219 9.75 L 22.964844 9.757812 C 23.007812 9.777344 23.058594 9.808594 23.101562 9.851562 C 23.195312 9.945312 23.246094 10.074219 23.246094 10.199219 C 23.261719 10.6875 23.257812 11.085938 23.308594 11.355469 C 23.4375 12.011719 23.488281 12.289062 23.410156 13.117188 C 23.335938 13.941406 23.507812 14.332031 23.488281 14.8125 C 23.46875 15.292969 23.367188 15.285156 23.445312 17.734375 C 23.523438 20.183594 23.542969 21.523438 23.558594 22.453125 C 23.570312 22.925781 23.550781 23.660156 23.535156 24.46875 C 23.535156 24.753906 23.367188 25.039062 23.117188 25.175781 L 23.039062 25.222656 L 22.933594 25.222656 C 22.785156 25.222656 22.632812 25.21875 22.480469 25.214844 L 22.390625 25.21875 L 22.300781 25.167969 C 21.882812 24.914062 21.457031 24.667969 21.0625 24.445312 C 19.742188 23.710938 17.105469 22.136719 16.011719 21.554688 C 14.917969 20.972656 14.972656 20.875 14.136719 20.316406 Z M 14.136719 20.316406 " fill-opacity="1" fill-rule="nonzero"/></svg>