<svg xmlns="http://www.w3.org/2000/svg" xmlns:xlink="http://www.w3.org/1999/xlink" width="48" zoomAndPan="magnify" viewBox="0 0 36 36.000001" height="48" preserveAspectRatio="xMidYMid meet" version="1.0"><defs><clipPath id="cb199e74c8"><path d="M 2.3125 0.128906 L 33.6875 0.128906 L 33.6875 35.027344 L 2.3125 35.027344 Z M 2.3125 0.128906 " clip-rule="nonzero"/></clipPath><clipPath id="822f4a50b1"><path d="M 2.3125 0.128906 L 33.6875 0.128906 L 33.6875 35 L 2.3125 35 Z M 2.3125 0.128906 " clip-rule="nonzero"/></clipPath><clipPath id="1563b299c1"><path d="M 3 0.128906 L 33 0.128906 L 33 35 L 3 35 Z M 3 0.128906 " clip-rule="nonzero"/></clipPath><clipPath id="7b3835e514"><path d="M 3 0.128906 L 33 0.128906 L 33 29 L 3 29 Z M 3 0.128906 " clip-rule="nonzero"/></clipPath><clipPath id="b2ea3502b1"><path d="M 3 0.128906 L 33 0.128906 L 33 24 L 3 24 Z M 3 0.128906 " clip-rule="nonzero"/></clipPath><clipPath id="6fba690de0"><path d="M 3 0.128906 L 33 0.128906 L 33 18 L 3 18 Z M 3 0.128906 " clip-rule="nonzero"/></clipPath><clipPath id="b2fcadaa04"><path d="M 3 0.128906 L 33 0.128906 L 33 12 L 3 12 Z M 3 0.128906 " clip-rule="nonzero"/></clipPath><clipPath id="a457a3f497"><path d="M 3 0.128906 L 14 0.128906 L 14 7 L 3 7 Z M 3 0.128906 " clip-rule="nonzero"/></clipPath><clipPath id="ff363583a8"><path d="M 22 0.128906 L 33 0.128906 L 33 7 L 22 7 Z M 22 0.128906 " clip-rule="nonzero"/></clipPath><clipPath id="6264ec1119"><path d="M 2.3125 0.128906 L 33 0.128906 L 33 35 L 2.3125 35 Z M 2.3125 0.128906 " clip-rule="nonzero"/></clipPath></defs><g clip-path="url(#cb199e74c8)"><path fill="#d5d5f7" d="M 18.207031 35.15625 C 16.890625 35.15625 15.820312 34.078125 15.820312 32.753906 L 15.820312 32.277344 L 15.695312 32.277344 C 14.378906 32.277344 13.308594 31.199219 13.308594 29.875 C 13.308594 29.398438 13.445312 28.941406 13.707031 28.546875 C 14.148438 27.875 14.894531 27.46875 15.695312 27.46875 L 15.820312 27.46875 L 15.820312 25.480469 C 14.726562 25.183594 13.714844 24.691406 12.796875 24.007812 C 10.851562 22.554688 9.542969 20.34375 9.203125 17.933594 C 9.144531 17.507812 9.113281 17.074219 9.113281 16.640625 C 9.113281 15.128906 9.488281 13.640625 10.195312 12.3125 C 9.859375 12.488281 9.484375 12.582031 9.089844 12.582031 C 8.46875 12.582031 7.878906 12.339844 7.433594 11.90625 C 7.144531 11.625 6.9375 11.285156 6.820312 10.914062 C 6.371094 11.363281 5.777344 11.609375 5.148438 11.613281 C 3.832031 11.613281 2.757812 10.539062 2.753906 9.21875 L 2.730469 2.933594 C 2.730469 2.867188 2.734375 2.808594 2.738281 2.761719 C 2.738281 2.761719 2.738281 2.734375 2.738281 2.730469 C 2.746094 2.660156 2.753906 2.59375 2.765625 2.527344 C 2.765625 2.523438 2.765625 2.507812 2.765625 2.507812 C 2.78125 2.429688 2.796875 2.363281 2.8125 2.296875 C 2.816406 2.289062 2.816406 2.28125 2.820312 2.269531 C 2.839844 2.203125 2.859375 2.136719 2.882812 2.074219 C 2.886719 2.074219 2.890625 2.058594 2.890625 2.058594 C 2.917969 1.992188 2.945312 1.925781 2.976562 1.863281 L 2.984375 1.84375 C 3.023438 1.769531 3.054688 1.710938 3.09375 1.652344 C 3.09375 1.648438 3.105469 1.628906 3.105469 1.628906 C 3.140625 1.578125 3.175781 1.523438 3.21875 1.464844 C 3.222656 1.457031 3.246094 1.433594 3.246094 1.433594 C 3.28125 1.386719 3.320312 1.339844 3.371094 1.285156 C 3.371094 1.285156 3.371094 1.285156 3.375 1.28125 C 3.386719 1.265625 3.402344 1.25 3.421875 1.230469 C 3.464844 1.1875 3.511719 1.144531 3.558594 1.101562 L 3.574219 1.085938 C 3.625 1.042969 3.683594 1 3.746094 0.953125 L 3.761719 0.945312 C 3.816406 0.90625 3.875 0.867188 3.941406 0.832031 L 3.941406 0.828125 C 3.953125 0.824219 3.960938 0.816406 3.972656 0.8125 C 4.03125 0.78125 4.089844 0.75 4.148438 0.722656 C 4.160156 0.71875 4.171875 0.714844 4.183594 0.707031 C 4.246094 0.683594 4.3125 0.65625 4.382812 0.632812 C 4.453125 0.609375 4.527344 0.589844 4.605469 0.574219 C 4.609375 0.570312 4.613281 0.570312 4.613281 0.570312 C 4.683594 0.554688 4.75 0.542969 4.820312 0.535156 C 4.820312 0.535156 4.832031 0.535156 4.835938 0.535156 C 4.90625 0.527344 4.972656 0.519531 5.046875 0.519531 L 5.058594 0.519531 C 5.085938 0.515625 5.101562 0.515625 5.113281 0.515625 L 11.535156 0.492188 C 12.851562 0.492188 13.921875 1.570312 13.929688 2.890625 C 13.929688 3.464844 13.730469 4.011719 13.367188 4.445312 C 13.644531 4.558594 13.902344 4.730469 14.125 4.945312 C 14.582031 5.394531 14.839844 5.992188 14.851562 6.636719 C 14.851562 6.636719 14.851562 6.683594 14.851562 6.683594 C 14.847656 7.304688 14.613281 7.886719 14.191406 8.332031 L 14.253906 8.390625 C 15.480469 7.789062 16.839844 7.476562 18.210938 7.476562 C 19.582031 7.476562 20.953125 7.792969 22.1875 8.398438 L 25.378906 5.300781 L 24.878906 5.300781 C 23.5625 5.300781 22.492188 4.222656 22.492188 2.898438 C 22.492188 1.570312 23.5625 0.492188 24.878906 0.492188 L 31.339844 0.492188 C 31.34375 0.492188 31.351562 0.492188 31.359375 0.492188 C 31.433594 0.496094 31.5 0.5 31.566406 0.507812 C 31.570312 0.507812 31.585938 0.511719 31.589844 0.511719 C 31.625 0.515625 31.660156 0.519531 31.691406 0.523438 C 31.722656 0.53125 31.753906 0.535156 31.78125 0.542969 C 31.789062 0.542969 31.796875 0.546875 31.804688 0.546875 C 31.84375 0.554688 31.878906 0.5625 31.917969 0.574219 C 31.949219 0.582031 31.976562 0.589844 32.007812 0.601562 C 32.019531 0.605469 32.03125 0.609375 32.042969 0.613281 C 32.113281 0.636719 32.175781 0.660156 32.238281 0.6875 C 32.238281 0.6875 32.246094 0.691406 32.25 0.691406 C 32.316406 0.71875 32.378906 0.75 32.441406 0.785156 C 32.453125 0.789062 32.472656 0.800781 32.472656 0.800781 C 32.53125 0.835938 32.585938 0.871094 32.640625 0.90625 C 32.640625 0.90625 32.664062 0.925781 32.667969 0.925781 C 32.714844 0.960938 32.753906 0.988281 32.792969 1.019531 C 32.808594 1.03125 32.820312 1.042969 32.835938 1.054688 C 32.839844 1.058594 32.855469 1.074219 32.855469 1.074219 C 32.882812 1.097656 32.910156 1.121094 32.933594 1.144531 C 32.953125 1.164062 32.972656 1.179688 32.992188 1.199219 C 32.996094 1.207031 33.003906 1.210938 33.011719 1.21875 C 33.019531 1.226562 33.03125 1.242188 33.046875 1.253906 C 33.085938 1.300781 33.128906 1.351562 33.167969 1.402344 C 33.167969 1.402344 33.1875 1.425781 33.191406 1.429688 C 33.238281 1.488281 33.277344 1.546875 33.308594 1.597656 C 33.308594 1.597656 33.328125 1.625 33.332031 1.632812 C 33.34375 1.652344 33.355469 1.675781 33.367188 1.695312 L 33.382812 1.722656 C 33.398438 1.746094 33.410156 1.773438 33.425781 1.800781 C 33.429688 1.804688 33.441406 1.835938 33.441406 1.835938 C 33.453125 1.859375 33.46875 1.890625 33.484375 1.921875 C 33.496094 1.949219 33.507812 1.980469 33.519531 2.011719 L 33.523438 2.015625 C 33.527344 2.027344 33.53125 2.035156 33.535156 2.046875 C 33.558594 2.109375 33.582031 2.179688 33.597656 2.242188 C 33.597656 2.242188 33.605469 2.261719 33.605469 2.269531 C 33.621094 2.335938 33.636719 2.402344 33.648438 2.46875 C 33.652344 2.472656 33.65625 2.5 33.65625 2.5 C 33.664062 2.554688 33.671875 2.617188 33.679688 2.6875 C 33.679688 2.695312 33.683594 2.734375 33.683594 2.734375 C 33.683594 2.769531 33.6875 2.828125 33.6875 2.894531 L 33.6875 9.183594 C 33.6875 10.511719 32.617188 11.589844 31.300781 11.589844 C 31.179688 11.589844 31.058594 11.578125 30.9375 11.5625 C 30.824219 11.542969 30.707031 11.515625 30.59375 11.480469 C 30.445312 11.433594 30.300781 11.371094 30.164062 11.296875 C 29.996094 11.207031 29.839844 11.09375 29.699219 10.964844 C 29.667969 10.9375 29.640625 10.910156 29.613281 10.882812 C 29.535156 10.800781 29.457031 10.714844 29.390625 10.621094 C 29.273438 10.46875 29.179688 10.296875 29.101562 10.121094 C 29.074219 10.046875 29.046875 9.972656 29.023438 9.898438 C 28.953125 9.667969 28.914062 9.425781 28.914062 9.183594 L 28.914062 8.546875 L 25.789062 11.578125 C 25.851562 11.671875 25.910156 11.765625 25.964844 11.859375 C 26.839844 13.300781 27.304688 14.953125 27.304688 16.636719 C 27.304688 17.070312 27.273438 17.507812 27.214844 17.933594 C 26.875 20.339844 25.566406 22.554688 23.621094 24.003906 C 22.707031 24.6875 21.691406 25.183594 20.597656 25.480469 L 20.597656 27.46875 L 20.722656 27.46875 C 21.523438 27.46875 22.269531 27.871094 22.710938 28.546875 C 22.972656 28.941406 23.109375 29.398438 23.109375 29.871094 C 23.109375 31.199219 22.039062 32.277344 20.722656 32.277344 L 20.597656 32.277344 L 20.597656 32.753906 C 20.597656 34.078125 19.527344 35.15625 18.210938 35.15625 Z M 18.207031 12.285156 C 17.421875 12.285156 16.65625 12.5 15.988281 12.90625 C 14.691406 13.691406 13.886719 15.121094 13.886719 16.640625 C 13.886719 16.980469 13.925781 17.320312 14.003906 17.648438 C 14.46875 19.609375 16.183594 20.980469 18.179688 20.992188 C 18.191406 20.992188 18.199219 20.992188 18.210938 20.992188 C 20.21875 20.992188 21.945312 19.617188 22.410156 17.652344 C 22.488281 17.320312 22.53125 16.980469 22.53125 16.640625 C 22.53125 15.121094 21.722656 13.691406 20.425781 12.90625 C 19.757812 12.5 18.992188 12.285156 18.207031 12.285156 Z M 32.234375 0.6875 Z M 32.234375 0.6875 " fill-opacity="1" fill-rule="nonzero"/></g><g clip-path="url(#822f4a50b1)"><path fill="#ffffff" d="M 17.789062 34.792969 C 16.472656 34.792969 15.402344 33.714844 15.402344 32.390625 L 15.402344 31.914062 L 15.273438 31.914062 C 13.960938 31.914062 12.890625 30.835938 12.890625 29.511719 C 12.890625 29.035156 13.027344 28.578125 13.285156 28.183594 C 13.726562 27.511719 14.472656 27.105469 15.273438 27.105469 L 15.402344 27.105469 L 15.402344 25.117188 C 14.308594 24.820312 13.292969 24.328125 12.378906 23.644531 C 10.433594 22.191406 9.121094 19.980469 8.785156 17.570312 C 8.722656 17.144531 8.691406 16.710938 8.691406 16.277344 C 8.691406 14.765625 9.066406 13.277344 9.773438 11.949219 C 9.4375 12.125 9.0625 12.21875 8.671875 12.21875 C 8.046875 12.21875 7.457031 11.976562 7.011719 11.542969 C 6.726562 11.261719 6.515625 10.921875 6.398438 10.550781 C 5.949219 11 5.359375 11.246094 4.726562 11.25 C 3.410156 11.25 2.335938 10.175781 2.332031 8.855469 L 2.3125 2.570312 C 2.308594 2.503906 2.3125 2.445312 2.316406 2.398438 C 2.316406 2.398438 2.316406 2.371094 2.316406 2.367188 C 2.324219 2.296875 2.332031 2.230469 2.34375 2.164062 C 2.34375 2.160156 2.347656 2.144531 2.347656 2.144531 C 2.359375 2.066406 2.375 2 2.390625 1.933594 C 2.394531 1.925781 2.398438 1.917969 2.402344 1.90625 C 2.417969 1.839844 2.441406 1.773438 2.464844 1.710938 C 2.464844 1.710938 2.472656 1.695312 2.472656 1.695312 C 2.496094 1.628906 2.523438 1.5625 2.554688 1.5 L 2.566406 1.480469 C 2.601562 1.40625 2.636719 1.347656 2.671875 1.289062 C 2.671875 1.285156 2.6875 1.265625 2.6875 1.265625 C 2.71875 1.214844 2.753906 1.160156 2.800781 1.101562 C 2.804688 1.097656 2.824219 1.070312 2.824219 1.070312 C 2.859375 1.023438 2.902344 0.976562 2.949219 0.921875 C 2.949219 0.921875 2.953125 0.921875 2.953125 0.917969 C 2.96875 0.902344 2.984375 0.886719 3 0.871094 C 3.042969 0.824219 3.089844 0.78125 3.136719 0.738281 L 3.15625 0.722656 C 3.203125 0.679688 3.261719 0.636719 3.328125 0.589844 L 3.339844 0.582031 C 3.394531 0.542969 3.453125 0.503906 3.519531 0.46875 L 3.523438 0.464844 C 3.53125 0.460938 3.539062 0.453125 3.550781 0.449219 C 3.609375 0.417969 3.671875 0.386719 3.730469 0.359375 C 3.738281 0.355469 3.75 0.351562 3.761719 0.34375 C 3.824219 0.320312 3.890625 0.292969 3.960938 0.269531 C 4.035156 0.246094 4.105469 0.226562 4.183594 0.210938 C 4.1875 0.207031 4.191406 0.207031 4.195312 0.207031 C 4.261719 0.191406 4.332031 0.179688 4.402344 0.171875 C 4.402344 0.171875 4.414062 0.171875 4.417969 0.171875 C 4.484375 0.164062 4.554688 0.15625 4.628906 0.15625 L 4.636719 0.15625 C 4.664062 0.152344 4.679688 0.152344 4.695312 0.152344 L 11.113281 0.132812 C 12.429688 0.132812 13.503906 1.207031 13.507812 2.527344 C 13.507812 3.101562 13.3125 3.648438 12.945312 4.082031 C 13.226562 4.195312 13.484375 4.367188 13.703125 4.582031 C 14.164062 5.03125 14.421875 5.628906 14.429688 6.273438 C 14.429688 6.277344 14.429688 6.320312 14.429688 6.320312 C 14.425781 6.941406 14.191406 7.523438 13.773438 7.96875 L 13.832031 8.027344 C 15.0625 7.425781 16.417969 7.113281 17.789062 7.113281 C 19.160156 7.113281 20.53125 7.429688 21.765625 8.035156 L 24.960938 4.9375 L 24.457031 4.9375 C 23.140625 4.9375 22.070312 3.859375 22.070312 2.535156 C 22.070312 1.210938 23.140625 0.128906 24.457031 0.128906 L 30.917969 0.128906 C 30.921875 0.128906 30.929688 0.132812 30.933594 0.132812 C 31.007812 0.132812 31.078125 0.136719 31.144531 0.144531 C 31.148438 0.144531 31.164062 0.148438 31.167969 0.148438 C 31.203125 0.152344 31.234375 0.15625 31.265625 0.160156 C 31.296875 0.167969 31.328125 0.171875 31.359375 0.179688 C 31.367188 0.179688 31.375 0.183594 31.382812 0.183594 C 31.417969 0.191406 31.457031 0.199219 31.492188 0.210938 C 31.523438 0.21875 31.554688 0.226562 31.585938 0.238281 C 31.597656 0.242188 31.609375 0.246094 31.621094 0.25 C 31.6875 0.273438 31.753906 0.296875 31.816406 0.324219 C 31.816406 0.324219 31.824219 0.328125 31.828125 0.328125 C 31.890625 0.355469 31.957031 0.386719 32.019531 0.421875 C 32.027344 0.425781 32.050781 0.4375 32.050781 0.4375 C 32.109375 0.472656 32.164062 0.507812 32.214844 0.542969 C 32.21875 0.542969 32.242188 0.5625 32.246094 0.5625 C 32.289062 0.597656 32.332031 0.625 32.367188 0.65625 C 32.386719 0.671875 32.398438 0.679688 32.410156 0.691406 C 32.414062 0.695312 32.433594 0.710938 32.433594 0.710938 C 32.460938 0.734375 32.484375 0.757812 32.511719 0.78125 C 32.53125 0.800781 32.550781 0.816406 32.566406 0.835938 C 32.574219 0.84375 32.582031 0.847656 32.585938 0.855469 C 32.597656 0.863281 32.609375 0.878906 32.621094 0.894531 C 32.664062 0.9375 32.707031 0.988281 32.746094 1.039062 C 32.746094 1.039062 32.765625 1.0625 32.769531 1.066406 C 32.816406 1.125 32.851562 1.183594 32.886719 1.234375 C 32.886719 1.234375 32.902344 1.261719 32.90625 1.269531 C 32.921875 1.289062 32.933594 1.3125 32.945312 1.332031 L 32.960938 1.359375 C 32.972656 1.386719 32.988281 1.410156 33.003906 1.4375 C 33.003906 1.441406 33.019531 1.472656 33.019531 1.472656 C 33.03125 1.496094 33.046875 1.527344 33.058594 1.558594 C 33.074219 1.589844 33.085938 1.617188 33.097656 1.648438 L 33.097656 1.652344 C 33.101562 1.664062 33.105469 1.671875 33.109375 1.683594 C 33.136719 1.746094 33.15625 1.816406 33.175781 1.878906 C 33.175781 1.878906 33.179688 1.898438 33.183594 1.90625 C 33.199219 1.972656 33.214844 2.039062 33.226562 2.105469 C 33.226562 2.109375 33.230469 2.136719 33.230469 2.136719 C 33.242188 2.191406 33.25 2.253906 33.257812 2.324219 C 33.257812 2.332031 33.257812 2.371094 33.257812 2.371094 C 33.261719 2.40625 33.265625 2.464844 33.265625 2.53125 L 33.265625 8.820312 C 33.265625 10.148438 32.195312 11.226562 30.878906 11.226562 C 30.757812 11.226562 30.636719 11.214844 30.515625 11.199219 C 30.398438 11.179688 30.28125 11.152344 30.167969 11.117188 C 30.019531 11.070312 29.875 11.007812 29.742188 10.933594 C 29.574219 10.84375 29.417969 10.730469 29.273438 10.601562 C 29.246094 10.574219 29.21875 10.546875 29.191406 10.519531 C 29.109375 10.4375 29.035156 10.351562 28.96875 10.257812 C 28.851562 10.105469 28.753906 9.9375 28.679688 9.757812 C 28.648438 9.6875 28.621094 9.609375 28.601562 9.535156 C 28.527344 9.304688 28.492188 9.0625 28.492188 8.820312 L 28.492188 8.183594 L 25.367188 11.214844 C 25.425781 11.308594 25.484375 11.402344 25.542969 11.496094 C 26.417969 12.9375 26.882812 14.589844 26.882812 16.273438 C 26.882812 16.707031 26.851562 17.144531 26.789062 17.570312 C 26.453125 19.976562 25.144531 22.191406 23.199219 23.640625 C 22.28125 24.324219 21.265625 24.820312 20.171875 25.117188 L 20.171875 27.105469 L 20.300781 27.105469 C 21.101562 27.105469 21.847656 27.507812 22.289062 28.183594 C 22.546875 28.578125 22.683594 29.035156 22.683594 29.507812 C 22.683594 30.835938 21.613281 31.914062 20.300781 31.914062 L 20.171875 31.914062 L 20.171875 32.390625 C 20.171875 33.714844 19.101562 34.792969 17.789062 34.792969 Z M 17.785156 11.921875 C 17.003906 11.921875 16.234375 12.136719 15.566406 12.542969 C 14.269531 13.328125 13.464844 14.757812 13.464844 16.277344 C 13.464844 16.617188 13.503906 16.957031 13.582031 17.285156 C 14.046875 19.246094 15.761719 20.617188 17.757812 20.628906 C 17.769531 20.628906 17.777344 20.628906 17.789062 20.628906 C 19.796875 20.628906 21.523438 19.253906 21.992188 17.289062 C 22.070312 16.957031 22.109375 16.617188 22.109375 16.277344 C 22.109375 14.757812 21.304688 13.328125 20.007812 12.542969 C 19.339844 12.136719 18.570312 11.921875 17.785156 11.921875 Z M 31.816406 0.324219 Z M 31.816406 0.324219 " fill-opacity="1" fill-rule="nonzero"/></g><g clip-path="url(#1563b299c1)"><path fill="#8528e1" d="M 32.503906 2.417969 L 32.503906 2.398438 C 32.5 2.351562 32.496094 2.304688 32.488281 2.257812 L 32.484375 2.242188 C 32.476562 2.195312 32.464844 2.148438 32.453125 2.101562 L 32.449219 2.085938 C 32.4375 2.039062 32.421875 1.996094 32.40625 1.949219 L 32.398438 1.933594 C 32.378906 1.890625 32.359375 1.847656 32.339844 1.804688 L 32.332031 1.785156 C 32.308594 1.746094 32.285156 1.703125 32.261719 1.664062 L 32.25 1.644531 C 32.226562 1.605469 32.199219 1.566406 32.167969 1.527344 L 32.15625 1.511719 C 32.125 1.476562 32.09375 1.4375 32.0625 1.402344 C 32.058594 1.402344 32.054688 1.394531 32.054688 1.394531 C 32.050781 1.390625 32.046875 1.386719 32.042969 1.386719 C 32.011719 1.351562 31.976562 1.316406 31.941406 1.285156 L 31.9375 1.28125 L 31.925781 1.273438 C 31.890625 1.242188 31.851562 1.214844 31.808594 1.183594 L 31.796875 1.175781 C 31.757812 1.148438 31.71875 1.121094 31.671875 1.097656 L 31.660156 1.089844 C 31.617188 1.066406 31.574219 1.046875 31.527344 1.023438 C 31.523438 1.023438 31.519531 1.023438 31.519531 1.019531 C 31.472656 1 31.425781 0.984375 31.375 0.96875 C 31.375 0.96875 31.371094 0.964844 31.371094 0.964844 C 31.324219 0.949219 31.273438 0.9375 31.222656 0.925781 C 31.222656 0.925781 31.21875 0.925781 31.21875 0.925781 C 31.171875 0.914062 31.125 0.90625 31.070312 0.902344 L 31.058594 0.898438 C 31.015625 0.894531 30.96875 0.890625 30.917969 0.890625 L 24.457031 0.890625 C 23.554688 0.890625 22.824219 1.628906 22.824219 2.535156 C 22.824219 3.441406 23.554688 4.179688 24.457031 4.179688 L 26.828125 4.179688 L 24.621094 6.320312 L 21.894531 8.964844 C 20.644531 8.25 19.230469 7.871094 17.785156 7.871094 C 16.34375 7.871094 14.945312 8.246094 13.699219 8.953125 L 12.699219 7.988281 L 13.214844 7.453125 C 13.507812 7.148438 13.671875 6.746094 13.675781 6.320312 L 13.675781 6.285156 C 13.667969 5.84375 13.492188 5.433594 13.175781 5.128906 C 12.863281 4.820312 12.453125 4.65625 12.015625 4.664062 C 11.578125 4.671875 11.171875 4.847656 10.867188 5.164062 L 10.339844 5.714844 L 8.753906 4.1875 L 11.125 4.179688 C 12.023438 4.175781 12.753906 3.433594 12.75 2.527344 C 12.746094 1.625 12.015625 0.890625 11.113281 0.890625 L 4.691406 0.914062 C 4.6875 0.914062 4.679688 0.914062 4.667969 0.914062 L 4.648438 0.914062 C 4.601562 0.914062 4.550781 0.917969 4.507812 0.921875 L 4.496094 0.925781 C 4.445312 0.929688 4.398438 0.941406 4.347656 0.949219 C 4.296875 0.960938 4.246094 0.976562 4.195312 0.992188 C 4.144531 1.007812 4.097656 1.027344 4.050781 1.046875 C 4.050781 1.046875 4.042969 1.050781 4.042969 1.050781 C 3.996094 1.070312 3.953125 1.09375 3.910156 1.117188 L 3.894531 1.125 C 3.855469 1.148438 3.8125 1.171875 3.773438 1.199219 L 3.757812 1.210938 C 3.71875 1.238281 3.679688 1.269531 3.644531 1.300781 L 3.628906 1.3125 C 3.59375 1.34375 3.558594 1.378906 3.523438 1.414062 C 3.523438 1.414062 3.519531 1.417969 3.515625 1.417969 C 3.515625 1.421875 3.511719 1.425781 3.507812 1.429688 C 3.476562 1.464844 3.441406 1.503906 3.414062 1.539062 L 3.402344 1.554688 C 3.375 1.59375 3.34375 1.632812 3.320312 1.675781 L 3.308594 1.691406 C 3.285156 1.730469 3.261719 1.773438 3.238281 1.820312 L 3.230469 1.832031 C 3.210938 1.875 3.191406 1.917969 3.171875 1.96875 L 3.167969 1.980469 C 3.152344 2.023438 3.136719 2.070312 3.121094 2.121094 L 3.121094 2.128906 C 3.109375 2.175781 3.097656 2.222656 3.089844 2.277344 L 3.085938 2.285156 C 3.078125 2.332031 3.074219 2.378906 3.070312 2.425781 L 3.066406 2.445312 C 3.066406 2.484375 3.0625 2.523438 3.0625 2.5625 L 3.078125 6.320312 L 3.085938 8.851562 C 3.089844 9.753906 3.820312 10.492188 4.726562 10.492188 C 5.625 10.488281 6.355469 9.746094 6.351562 8.839844 L 6.34375 6.417969 L 8.066406 8.078125 L 7.5 8.667969 C 7.195312 8.984375 7.03125 9.398438 7.039062 9.839844 C 7.046875 10.277344 7.222656 10.691406 7.535156 10.996094 C 7.839844 11.292969 8.246094 11.460938 8.671875 11.460938 C 9.097656 11.460938 9.535156 11.28125 9.84375 10.957031 L 10.429688 10.351562 L 11.214844 11.105469 C 11.019531 11.359375 10.839844 11.621094 10.675781 11.890625 C 9.878906 13.203125 9.445312 14.726562 9.445312 16.277344 C 9.445312 16.679688 9.476562 17.074219 9.53125 17.460938 C 9.847656 19.722656 11.058594 21.714844 12.824219 23.035156 C 13.789062 23.753906 14.917969 24.269531 16.15625 24.515625 L 16.15625 27.863281 L 15.273438 27.863281 C 14.707031 27.863281 14.207031 28.160156 13.914062 28.605469 C 13.742188 28.863281 13.644531 29.175781 13.644531 29.511719 C 13.644531 30.417969 14.375 31.15625 15.273438 31.15625 L 16.15625 31.15625 L 16.15625 32.390625 C 16.15625 33.296875 16.886719 34.035156 17.789062 34.035156 C 18.6875 34.035156 19.417969 33.296875 19.417969 32.390625 L 19.417969 31.15625 L 20.300781 31.15625 C 21.199219 31.15625 21.929688 30.417969 21.929688 29.511719 C 21.929688 29.175781 21.832031 28.863281 21.660156 28.605469 C 21.367188 28.160156 20.867188 27.863281 20.300781 27.863281 L 19.417969 27.863281 L 19.417969 24.515625 C 20.65625 24.269531 21.785156 23.753906 22.75 23.035156 C 24.515625 21.714844 25.726562 19.722656 26.042969 17.460938 C 26.101562 17.074219 26.128906 16.679688 26.128906 16.277344 C 26.128906 14.726562 25.695312 13.203125 24.898438 11.890625 C 24.738281 11.625 24.5625 11.371094 24.371094 11.125 L 29.246094 6.402344 L 29.246094 8.824219 C 29.246094 9.730469 29.976562 10.46875 30.878906 10.46875 C 31.777344 10.46875 32.511719 9.730469 32.511719 8.824219 L 32.511719 2.535156 C 32.511719 2.496094 32.507812 2.457031 32.503906 2.417969 Z M 22.863281 16.277344 C 22.863281 16.683594 22.816406 17.082031 22.726562 17.460938 C 22.191406 19.710938 20.179688 21.386719 17.789062 21.390625 C 17.789062 21.390625 17.785156 21.390625 17.785156 21.390625 C 15.394531 21.386719 13.382812 19.710938 12.851562 17.460938 C 12.761719 17.082031 12.710938 16.683594 12.710938 16.277344 C 12.710938 14.417969 13.703125 12.785156 15.179688 11.890625 C 15.941406 11.429688 16.832031 11.164062 17.785156 11.164062 C 18.738281 11.164062 19.632812 11.429688 20.394531 11.890625 C 21.871094 12.785156 22.863281 14.417969 22.863281 16.277344 Z M 22.863281 16.277344 " fill-opacity="1" fill-rule="nonzero"/></g><g clip-path="url(#7b3835e514)"><path fill="#0d7ad3" d="M 32.503906 2.417969 L 32.503906 2.398438 C 32.5 2.351562 32.496094 2.304688 32.488281 2.257812 L 32.484375 2.242188 C 32.476562 2.195312 32.464844 2.148438 32.453125 2.101562 L 32.449219 2.085938 C 32.4375 2.039062 32.421875 1.996094 32.40625 1.949219 L 32.398438 1.933594 C 32.378906 1.890625 32.359375 1.847656 32.339844 1.804688 L 32.332031 1.785156 C 32.308594 1.746094 32.285156 1.703125 32.261719 1.664062 L 32.25 1.644531 C 32.226562 1.605469 32.199219 1.566406 32.167969 1.527344 L 32.15625 1.511719 C 32.125 1.476562 32.09375 1.4375 32.0625 1.402344 C 32.058594 1.402344 32.054688 1.394531 32.054688 1.394531 C 32.050781 1.390625 32.046875 1.386719 32.042969 1.386719 C 32.011719 1.351562 31.976562 1.316406 31.941406 1.285156 L 31.9375 1.28125 L 31.925781 1.273438 C 31.890625 1.242188 31.851562 1.214844 31.808594 1.183594 L 31.796875 1.175781 C 31.757812 1.148438 31.71875 1.121094 31.671875 1.097656 L 31.660156 1.089844 C 31.617188 1.066406 31.574219 1.046875 31.527344 1.023438 C 31.523438 1.023438 31.519531 1.023438 31.519531 1.019531 C 31.472656 1 31.425781 0.984375 31.375 0.96875 C 31.375 0.96875 31.371094 0.964844 31.371094 0.964844 C 31.324219 0.949219 31.273438 0.9375 31.222656 0.925781 C 31.222656 0.925781 31.21875 0.925781 31.21875 0.925781 C 31.171875 0.914062 31.125 0.90625 31.070312 0.902344 L 31.058594 0.898438 C 31.015625 0.894531 30.96875 0.890625 30.917969 0.890625 L 24.457031 0.890625 C 23.554688 0.890625 22.824219 1.628906 22.824219 2.535156 C 22.824219 3.441406 23.554688 4.179688 24.457031 4.179688 L 26.828125 4.179688 L 24.621094 6.320312 L 21.894531 8.964844 C 20.644531 8.25 19.230469 7.871094 17.785156 7.871094 C 16.34375 7.871094 14.945312 8.246094 13.699219 8.953125 L 12.699219 7.988281 L 13.214844 7.453125 C 13.507812 7.148438 13.671875 6.746094 13.675781 6.320312 L 13.675781 6.285156 C 13.667969 5.84375 13.492188 5.433594 13.175781 5.128906 C 12.863281 4.820312 12.453125 4.65625 12.015625 4.664062 C 11.578125 4.671875 11.171875 4.847656 10.867188 5.164062 L 10.339844 5.714844 L 8.753906 4.1875 L 11.125 4.179688 C 12.023438 4.175781 12.753906 3.433594 12.75 2.527344 C 12.746094 1.625 12.015625 0.890625 11.113281 0.890625 L 4.691406 0.914062 C 4.6875 0.914062 4.679688 0.914062 4.667969 0.914062 L 4.648438 0.914062 C 4.601562 0.914062 4.550781 0.917969 4.507812 0.921875 L 4.496094 0.925781 C 4.445312 0.929688 4.398438 0.941406 4.347656 0.949219 C 4.296875 0.960938 4.246094 0.976562 4.195312 0.992188 C 4.144531 1.007812 4.097656 1.027344 4.050781 1.046875 C 4.050781 1.046875 4.042969 1.050781 4.042969 1.050781 C 3.996094 1.070312 3.953125 1.09375 3.910156 1.117188 L 3.894531 1.125 C 3.855469 1.148438 3.8125 1.171875 3.773438 1.199219 L 3.757812 1.210938 C 3.71875 1.238281 3.679688 1.269531 3.644531 1.300781 L 3.628906 1.3125 C 3.59375 1.34375 3.558594 1.378906 3.523438 1.414062 C 3.523438 1.414062 3.519531 1.417969 3.515625 1.417969 C 3.515625 1.421875 3.511719 1.425781 3.507812 1.429688 C 3.476562 1.464844 3.441406 1.503906 3.414062 1.539062 L 3.402344 1.554688 C 3.375 1.59375 3.34375 1.632812 3.320312 1.675781 L 3.308594 1.691406 C 3.285156 1.730469 3.261719 1.773438 3.238281 1.820312 L 3.230469 1.832031 C 3.210938 1.875 3.191406 1.917969 3.171875 1.96875 L 3.167969 1.980469 C 3.152344 2.023438 3.136719 2.070312 3.121094 2.121094 L 3.121094 2.128906 C 3.109375 2.175781 3.097656 2.222656 3.089844 2.277344 L 3.085938 2.285156 C 3.078125 2.332031 3.074219 2.378906 3.070312 2.425781 L 3.066406 2.445312 C 3.066406 2.484375 3.0625 2.523438 3.0625 2.5625 L 3.078125 6.320312 L 3.085938 8.851562 C 3.089844 9.753906 3.820312 10.492188 4.726562 10.492188 C 5.625 10.488281 6.355469 9.746094 6.351562 8.839844 L 6.34375 6.417969 L 8.066406 8.078125 L 7.5 8.667969 C 7.195312 8.984375 7.03125 9.398438 7.039062 9.839844 C 7.046875 10.277344 7.222656 10.691406 7.535156 10.996094 C 7.839844 11.292969 8.246094 11.460938 8.671875 11.460938 C 9.097656 11.460938 9.535156 11.28125 9.84375 10.957031 L 10.429688 10.351562 L 11.214844 11.105469 C 11.019531 11.359375 10.839844 11.621094 10.675781 11.890625 C 9.878906 13.203125 9.445312 14.726562 9.445312 16.277344 C 9.445312 16.679688 9.476562 17.074219 9.53125 17.460938 C 9.847656 19.722656 11.058594 21.714844 12.824219 23.035156 C 13.789062 23.753906 14.917969 24.269531 16.15625 24.515625 L 16.15625 27.863281 L 15.273438 27.863281 C 14.707031 27.863281 14.207031 28.160156 13.914062 28.605469 L 21.660156 28.605469 C 21.367188 28.160156 20.867188 27.863281 20.300781 27.863281 L 19.417969 27.863281 L 19.417969 24.515625 C 20.65625 24.269531 21.785156 23.753906 22.75 23.035156 C 24.515625 21.714844 25.726562 19.722656 26.042969 17.460938 C 26.101562 17.074219 26.128906 16.679688 26.128906 16.277344 C 26.128906 14.726562 25.695312 13.203125 24.898438 11.890625 C 24.738281 11.625 24.5625 11.371094 24.371094 11.125 L 29.246094 6.402344 L 29.246094 8.824219 C 29.246094 9.730469 29.976562 10.46875 30.878906 10.46875 C 31.777344 10.46875 32.511719 9.730469 32.511719 8.824219 L 32.511719 2.535156 C 32.511719 2.496094 32.507812 2.457031 32.503906 2.417969 Z M 22.863281 16.277344 C 22.863281 16.683594 22.816406 17.082031 22.726562 17.460938 C 22.191406 19.710938 20.179688 21.386719 17.789062 21.390625 C 17.789062 21.390625 17.785156 21.390625 17.785156 21.390625 C 15.394531 21.386719 13.382812 19.710938 12.851562 17.460938 C 12.761719 17.082031 12.710938 16.683594 12.710938 16.277344 C 12.710938 14.417969 13.703125 12.785156 15.179688 11.890625 C 15.941406 11.429688 16.832031 11.164062 17.785156 11.164062 C 18.738281 11.164062 19.632812 11.429688 20.394531 11.890625 C 21.871094 12.785156 22.863281 14.417969 22.863281 16.277344 Z M 22.863281 16.277344 " fill-opacity="1" fill-rule="nonzero"/></g><g clip-path="url(#b2ea3502b1)"><path fill="#1fb23b" d="M 32.503906 2.417969 L 32.503906 2.398438 C 32.5 2.351562 32.496094 2.304688 32.488281 2.257812 L 32.484375 2.242188 C 32.476562 2.195312 32.464844 2.148438 32.453125 2.101562 L 32.449219 2.085938 C 32.4375 2.039062 32.421875 1.996094 32.40625 1.949219 L 32.398438 1.933594 C 32.378906 1.890625 32.359375 1.847656 32.339844 1.804688 L 32.332031 1.785156 C 32.308594 1.746094 32.285156 1.703125 32.261719 1.664062 L 32.25 1.644531 C 32.226562 1.605469 32.199219 1.566406 32.167969 1.527344 L 32.15625 1.511719 C 32.125 1.476562 32.09375 1.4375 32.0625 1.402344 C 32.058594 1.402344 32.054688 1.394531 32.054688 1.394531 C 32.050781 1.390625 32.046875 1.386719 32.042969 1.386719 C 32.011719 1.351562 31.976562 1.316406 31.941406 1.285156 L 31.9375 1.28125 L 31.925781 1.273438 C 31.890625 1.242188 31.851562 1.214844 31.808594 1.183594 L 31.796875 1.175781 C 31.757812 1.148438 31.71875 1.121094 31.671875 1.097656 L 31.660156 1.089844 C 31.617188 1.066406 31.574219 1.046875 31.527344 1.023438 C 31.523438 1.023438 31.519531 1.023438 31.519531 1.019531 C 31.472656 1 31.425781 0.984375 31.375 0.96875 C 31.375 0.96875 31.371094 0.964844 31.371094 0.964844 C 31.324219 0.949219 31.273438 0.9375 31.222656 0.925781 C 31.222656 0.925781 31.21875 0.925781 31.21875 0.925781 C 31.171875 0.914062 31.125 0.90625 31.070312 0.902344 L 31.058594 0.898438 C 31.015625 0.894531 30.96875 0.890625 30.917969 0.890625 L 24.457031 0.890625 C 23.554688 0.890625 22.824219 1.628906 22.824219 2.535156 C 22.824219 3.441406 23.554688 4.179688 24.457031 4.179688 L 26.828125 4.179688 L 24.621094 6.320312 L 21.894531 8.964844 C 20.644531 8.25 19.230469 7.871094 17.785156 7.871094 C 16.34375 7.871094 14.945312 8.246094 13.699219 8.953125 L 12.699219 7.988281 L 13.214844 7.453125 C 13.507812 7.148438 13.671875 6.746094 13.675781 6.320312 L 13.675781 6.285156 C 13.667969 5.84375 13.492188 5.433594 13.175781 5.128906 C 12.863281 4.820312 12.453125 4.65625 12.015625 4.664062 C 11.578125 4.671875 11.171875 4.847656 10.867188 5.164062 L 10.339844 5.714844 L 8.753906 4.1875 L 11.125 4.179688 C 12.023438 4.175781 12.753906 3.433594 12.75 2.527344 C 12.746094 1.625 12.015625 0.890625 11.113281 0.890625 L 4.691406 0.914062 C 4.6875 0.914062 4.679688 0.914062 4.667969 0.914062 L 4.648438 0.914062 C 4.601562 0.914062 4.550781 0.917969 4.507812 0.921875 L 4.496094 0.925781 C 4.445312 0.929688 4.398438 0.941406 4.347656 0.949219 C 4.296875 0.960938 4.246094 0.976562 4.195312 0.992188 C 4.144531 1.007812 4.097656 1.027344 4.050781 1.046875 C 4.050781 1.046875 4.042969 1.050781 4.042969 1.050781 C 3.996094 1.070312 3.953125 1.09375 3.910156 1.117188 L 3.894531 1.125 C 3.855469 1.148438 3.8125 1.171875 3.773438 1.199219 L 3.757812 1.210938 C 3.71875 1.238281 3.679688 1.269531 3.644531 1.300781 L 3.628906 1.3125 C 3.59375 1.34375 3.558594 1.378906 3.523438 1.414062 C 3.523438 1.414062 3.519531 1.417969 3.515625 1.417969 C 3.515625 1.421875 3.511719 1.425781 3.507812 1.429688 C 3.476562 1.464844 3.441406 1.503906 3.414062 1.539062 L 3.402344 1.554688 C 3.375 1.59375 3.34375 1.632812 3.320312 1.675781 L 3.308594 1.691406 C 3.285156 1.730469 3.261719 1.773438 3.238281 1.820312 L 3.230469 1.832031 C 3.210938 1.875 3.191406 1.917969 3.171875 1.96875 L 3.167969 1.980469 C 3.152344 2.023438 3.136719 2.070312 3.121094 2.121094 L 3.121094 2.128906 C 3.109375 2.175781 3.097656 2.222656 3.089844 2.277344 L 3.085938 2.285156 C 3.078125 2.332031 3.074219 2.378906 3.070312 2.425781 L 3.066406 2.445312 C 3.066406 2.484375 3.0625 2.523438 3.0625 2.5625 L 3.078125 6.320312 L 3.085938 8.851562 C 3.089844 9.753906 3.820312 10.492188 4.726562 10.492188 C 5.625 10.488281 6.355469 9.746094 6.351562 8.839844 L 6.34375 6.417969 L 8.066406 8.078125 L 7.5 8.667969 C 7.195312 8.984375 7.03125 9.398438 7.039062 9.839844 C 7.046875 10.277344 7.222656 10.691406 7.535156 10.996094 C 7.839844 11.292969 8.246094 11.460938 8.671875 11.460938 C 9.097656 11.460938 9.535156 11.28125 9.84375 10.957031 L 10.429688 10.351562 L 11.214844 11.105469 C 11.019531 11.359375 10.839844 11.621094 10.675781 11.890625 C 9.878906 13.203125 9.445312 14.726562 9.445312 16.277344 C 9.445312 16.679688 9.476562 17.074219 9.53125 17.460938 C 9.847656 19.722656 11.058594 21.714844 12.824219 23.035156 L 22.75 23.035156 C 24.515625 21.714844 25.726562 19.722656 26.042969 17.460938 C 26.101562 17.074219 26.128906 16.679688 26.128906 16.277344 C 26.128906 14.726562 25.695312 13.203125 24.898438 11.890625 C 24.738281 11.625 24.5625 11.371094 24.371094 11.125 L 29.246094 6.402344 L 29.246094 8.824219 C 29.246094 9.730469 29.976562 10.46875 30.878906 10.46875 C 31.777344 10.46875 32.511719 9.730469 32.511719 8.824219 L 32.511719 2.535156 C 32.511719 2.496094 32.507812 2.457031 32.503906 2.417969 Z M 22.863281 16.277344 C 22.863281 16.683594 22.816406 17.082031 22.726562 17.460938 C 22.191406 19.710938 20.179688 21.386719 17.789062 21.390625 C 17.789062 21.390625 17.785156 21.390625 17.785156 21.390625 C 15.394531 21.386719 13.382812 19.710938 12.851562 17.460938 C 12.761719 17.082031 12.710938 16.683594 12.710938 16.277344 C 12.710938 14.417969 13.703125 12.785156 15.179688 11.890625 C 15.941406 11.429688 16.832031 11.164062 17.785156 11.164062 C 18.738281 11.164062 19.632812 11.429688 20.394531 11.890625 C 21.871094 12.785156 22.863281 14.417969 22.863281 16.277344 Z M 22.863281 16.277344 " fill-opacity="1" fill-rule="nonzero"/></g><g clip-path="url(#6fba690de0)"><path fill="#f9c900" d="M 32.511719 2.535156 L 32.511719 8.824219 C 32.511719 9.730469 31.777344 10.46875 30.878906 10.46875 C 29.976562 10.46875 29.246094 9.730469 29.246094 8.824219 L 29.246094 6.402344 L 24.371094 11.125 C 24.5625 11.371094 24.738281 11.625 24.898438 11.890625 C 25.695312 13.203125 26.128906 14.726562 26.128906 16.277344 C 26.128906 16.679688 26.101562 17.074219 26.042969 17.460938 L 22.726562 17.460938 C 22.816406 17.082031 22.863281 16.683594 22.863281 16.277344 C 22.863281 14.417969 21.871094 12.785156 20.394531 11.890625 C 19.632812 11.429688 18.738281 11.164062 17.785156 11.164062 C 16.832031 11.164062 15.941406 11.429688 15.179688 11.890625 C 13.703125 12.785156 12.710938 14.417969 12.710938 16.277344 C 12.710938 16.683594 12.761719 17.082031 12.851562 17.460938 L 9.53125 17.460938 C 9.476562 17.074219 9.445312 16.679688 9.445312 16.277344 C 9.445312 14.726562 9.878906 13.203125 10.675781 11.890625 C 10.839844 11.621094 11.019531 11.359375 11.214844 11.105469 L 10.429688 10.351562 L 9.84375 10.957031 C 9.535156 11.28125 9.117188 11.460938 8.671875 11.460938 C 8.222656 11.460938 7.839844 11.292969 7.535156 10.996094 C 7.222656 10.691406 7.046875 10.277344 7.039062 9.839844 C 7.03125 9.398438 7.195312 8.984375 7.5 8.667969 L 8.066406 8.078125 L 6.34375 6.417969 L 6.351562 8.839844 C 6.355469 9.746094 5.625 10.488281 4.726562 10.492188 C 3.820312 10.492188 3.089844 9.753906 3.085938 8.851562 L 3.078125 6.320312 L 3.0625 2.5625 C 3.0625 2.523438 3.066406 2.484375 3.066406 2.445312 L 3.070312 2.425781 C 3.074219 2.378906 3.078125 2.332031 3.085938 2.285156 L 3.089844 2.277344 C 3.097656 2.222656 3.109375 2.175781 3.121094 2.128906 L 3.121094 2.121094 C 3.136719 2.070312 3.152344 2.023438 3.167969 1.980469 L 3.171875 1.96875 C 3.191406 1.917969 3.210938 1.875 3.230469 1.832031 L 3.238281 1.820312 C 3.261719 1.773438 3.285156 1.730469 3.308594 1.691406 L 3.320312 1.675781 C 3.34375 1.632812 3.375 1.59375 3.402344 1.554688 L 3.414062 1.539062 C 3.441406 1.503906 3.476562 1.464844 3.507812 1.429688 C 3.511719 1.425781 3.515625 1.421875 3.515625 1.417969 C 3.519531 1.417969 3.523438 1.414062 3.523438 1.414062 C 3.558594 1.378906 3.59375 1.34375 3.628906 1.3125 L 3.644531 1.300781 C 3.679688 1.269531 3.71875 1.238281 3.757812 1.210938 L 3.773438 1.199219 C 3.8125 1.171875 3.855469 1.148438 3.894531 1.125 L 3.910156 1.117188 C 3.953125 1.09375 3.996094 1.070312 4.042969 1.050781 C 4.042969 1.050781 4.050781 1.046875 4.050781 1.046875 C 4.097656 1.027344 4.144531 1.007812 4.195312 0.992188 C 4.246094 0.976562 4.296875 0.960938 4.347656 0.949219 C 4.398438 0.941406 4.445312 0.929688 4.496094 0.925781 L 4.507812 0.921875 C 4.550781 0.917969 4.601562 0.914062 4.648438 0.914062 L 4.667969 0.914062 C 4.679688 0.914062 4.6875 0.914062 4.691406 0.914062 L 11.113281 0.890625 C 12.015625 0.890625 12.746094 1.625 12.75 2.527344 C 12.753906 3.433594 12.023438 4.175781 11.125 4.179688 L 8.753906 4.1875 L 10.339844 5.714844 L 10.867188 5.164062 C 11.171875 4.847656 11.578125 4.671875 12.015625 4.664062 C 12.453125 4.65625 12.863281 4.820312 13.175781 5.128906 C 13.492188 5.433594 13.667969 5.84375 13.675781 6.285156 L 13.675781 6.320312 C 13.671875 6.746094 13.507812 7.148438 13.214844 7.453125 L 12.699219 7.988281 L 13.699219 8.953125 C 14.945312 8.246094 16.355469 7.871094 17.785156 7.871094 C 19.21875 7.871094 20.644531 8.25 21.894531 8.964844 L 24.621094 6.320312 L 26.828125 4.179688 L 24.457031 4.179688 C 23.554688 4.179688 22.824219 3.441406 22.824219 2.535156 C 22.824219 1.628906 23.554688 0.890625 24.457031 0.890625 L 30.917969 0.890625 C 30.96875 0.890625 31.015625 0.894531 31.058594 0.898438 L 31.070312 0.902344 C 31.125 0.90625 31.171875 0.914062 31.21875 0.925781 C 31.21875 0.925781 31.222656 0.925781 31.222656 0.925781 C 31.273438 0.9375 31.324219 0.949219 31.371094 0.964844 C 31.371094 0.964844 31.375 0.96875 31.375 0.96875 C 31.425781 0.984375 31.472656 1 31.519531 1.019531 C 31.519531 1.019531 31.523438 1.023438 31.527344 1.023438 C 31.574219 1.046875 31.617188 1.066406 31.660156 1.089844 L 31.671875 1.097656 C 31.71875 1.121094 31.757812 1.148438 31.796875 1.175781 L 31.808594 1.183594 C 31.851562 1.214844 31.890625 1.242188 31.925781 1.273438 L 31.9375 1.28125 L 31.941406 1.285156 C 31.976562 1.316406 32.011719 1.351562 32.042969 1.386719 C 32.046875 1.386719 32.050781 1.390625 32.054688 1.394531 C 32.054688 1.394531 32.058594 1.402344 32.0625 1.402344 C 32.09375 1.4375 32.125 1.476562 32.15625 1.511719 L 32.167969 1.527344 C 32.199219 1.566406 32.226562 1.605469 32.25 1.644531 L 32.261719 1.664062 C 32.285156 1.703125 32.308594 1.746094 32.332031 1.785156 L 32.339844 1.804688 C 32.359375 1.847656 32.378906 1.890625 32.398438 1.933594 L 32.40625 1.949219 C 32.421875 1.996094 32.4375 2.039062 32.449219 2.085938 L 32.453125 2.101562 C 32.464844 2.148438 32.476562 2.195312 32.484375 2.242188 L 32.488281 2.257812 C 32.496094 2.304688 32.5 2.351562 32.503906 2.398438 L 32.503906 2.417969 C 32.507812 2.457031 32.511719 2.496094 32.511719 2.535156 Z M 32.511719 2.535156 " fill-opacity="1" fill-rule="nonzero"/></g><g clip-path="url(#b2fcadaa04)"><path fill="#f46f0c" d="M 32.511719 2.535156 L 32.511719 8.824219 C 32.511719 9.730469 31.777344 10.46875 30.878906 10.46875 C 29.976562 10.46875 29.246094 9.730469 29.246094 8.824219 L 29.246094 6.402344 L 24.371094 11.125 C 24.5625 11.371094 24.738281 11.625 24.898438 11.890625 L 20.394531 11.890625 C 19.632812 11.429688 18.738281 11.164062 17.785156 11.164062 C 16.832031 11.164062 15.941406 11.429688 15.179688 11.890625 L 10.675781 11.890625 C 10.839844 11.621094 11.019531 11.359375 11.214844 11.105469 L 10.429688 10.351562 L 9.84375 10.957031 C 9.535156 11.28125 9.117188 11.460938 8.671875 11.460938 C 8.222656 11.460938 7.839844 11.292969 7.535156 10.996094 C 7.222656 10.691406 7.046875 10.277344 7.039062 9.839844 C 7.03125 9.398438 7.195312 8.984375 7.5 8.667969 L 8.066406 8.078125 L 6.34375 6.417969 L 6.351562 8.839844 C 6.355469 9.746094 5.625 10.488281 4.726562 10.492188 C 3.820312 10.492188 3.089844 9.753906 3.085938 8.851562 L 3.078125 6.320312 L 3.0625 2.5625 C 3.0625 2.523438 3.066406 2.484375 3.066406 2.445312 L 3.070312 2.425781 C 3.074219 2.378906 3.078125 2.332031 3.085938 2.285156 L 3.089844 2.277344 C 3.097656 2.222656 3.109375 2.175781 3.121094 2.128906 L 3.121094 2.121094 C 3.136719 2.070312 3.152344 2.023438 3.167969 1.980469 L 3.171875 1.96875 C 3.191406 1.917969 3.210938 1.875 3.230469 1.832031 L 3.238281 1.820312 C 3.261719 1.773438 3.285156 1.730469 3.308594 1.691406 L 3.320312 1.675781 C 3.34375 1.632812 3.375 1.59375 3.402344 1.554688 L 3.414062 1.539062 C 3.441406 1.503906 3.476562 1.464844 3.507812 1.429688 C 3.511719 1.425781 3.515625 1.421875 3.515625 1.417969 C 3.519531 1.417969 3.523438 1.414062 3.523438 1.414062 C 3.558594 1.378906 3.59375 1.34375 3.628906 1.3125 L 3.644531 1.300781 C 3.679688 1.269531 3.71875 1.238281 3.757812 1.210938 L 3.773438 1.199219 C 3.8125 1.171875 3.855469 1.148438 3.894531 1.125 L 3.910156 1.117188 C 3.953125 1.09375 3.996094 1.070312 4.042969 1.050781 C 4.042969 1.050781 4.050781 1.046875 4.050781 1.046875 C 4.097656 1.027344 4.144531 1.007812 4.195312 0.992188 C 4.246094 0.976562 4.296875 0.960938 4.347656 0.949219 C 4.398438 0.941406 4.445312 0.929688 4.496094 0.925781 L 4.507812 0.921875 C 4.550781 0.917969 4.601562 0.914062 4.648438 0.914062 L 4.667969 0.914062 C 4.679688 0.914062 4.6875 0.914062 4.691406 0.914062 L 11.113281 0.890625 C 12.015625 0.890625 12.746094 1.625 12.75 2.527344 C 12.753906 3.433594 12.023438 4.175781 11.125 4.179688 L 8.753906 4.1875 L 10.339844 5.714844 L 10.867188 5.164062 C 11.171875 4.847656 11.578125 4.671875 12.015625 4.664062 C 12.453125 4.65625 12.863281 4.820312 13.175781 5.128906 C 13.492188 5.433594 13.667969 5.84375 13.675781 6.285156 L 13.675781 6.320312 C 13.671875 6.746094 13.507812 7.148438 13.214844 7.453125 L 12.699219 7.988281 L 13.699219 8.953125 C 14.945312 8.246094 16.355469 7.871094 17.785156 7.871094 C 19.21875 7.871094 20.644531 8.25 21.894531 8.964844 L 24.621094 6.320312 L 26.828125 4.179688 L 24.457031 4.179688 C 23.554688 4.179688 22.824219 3.441406 22.824219 2.535156 C 22.824219 1.628906 23.554688 0.890625 24.457031 0.890625 L 30.917969 0.890625 C 30.96875 0.890625 31.015625 0.894531 31.058594 0.898438 L 31.070312 0.902344 C 31.125 0.90625 31.171875 0.914062 31.21875 0.925781 C 31.21875 0.925781 31.222656 0.925781 31.222656 0.925781 C 31.273438 0.9375 31.324219 0.949219 31.371094 0.964844 C 31.371094 0.964844 31.375 0.96875 31.375 0.96875 C 31.425781 0.984375 31.472656 1 31.519531 1.019531 C 31.519531 1.019531 31.523438 1.023438 31.527344 1.023438 C 31.574219 1.046875 31.617188 1.066406 31.660156 1.089844 L 31.671875 1.097656 C 31.71875 1.121094 31.757812 1.148438 31.796875 1.175781 L 31.808594 1.183594 C 31.851562 1.214844 31.890625 1.242188 31.925781 1.273438 L 31.9375 1.28125 L 31.941406 1.285156 C 31.976562 1.316406 32.011719 1.351562 32.042969 1.386719 C 32.046875 1.386719 32.050781 1.390625 32.054688 1.394531 C 32.054688 1.394531 32.058594 1.402344 32.0625 1.402344 C 32.09375 1.4375 32.125 1.476562 32.15625 1.511719 L 32.167969 1.527344 C 32.199219 1.566406 32.226562 1.605469 32.25 1.644531 L 32.261719 1.664062 C 32.285156 1.703125 32.308594 1.746094 32.332031 1.785156 L 32.339844 1.804688 C 32.359375 1.847656 32.378906 1.890625 32.398438 1.933594 L 32.40625 1.949219 C 32.421875 1.996094 32.4375 2.039062 32.449219 2.085938 L 32.453125 2.101562 C 32.464844 2.148438 32.476562 2.195312 32.484375 2.242188 L 32.488281 2.257812 C 32.496094 2.304688 32.5 2.351562 32.503906 2.398438 L 32.503906 2.417969 C 32.507812 2.457031 32.511719 2.496094 32.511719 2.535156 Z M 32.511719 2.535156 " fill-opacity="1" fill-rule="nonzero"/></g><g clip-path="url(#a457a3f497)"><path fill="#ed2656" d="M 13.175781 5.128906 C 13.492188 5.433594 13.667969 5.84375 13.675781 6.285156 L 13.675781 6.320312 L 3.078125 6.320312 L 3.0625 2.5625 C 3.0625 2.523438 3.066406 2.484375 3.066406 2.445312 L 3.070312 2.425781 C 3.074219 2.378906 3.078125 2.332031 3.085938 2.285156 L 3.089844 2.277344 C 3.097656 2.222656 3.109375 2.175781 3.121094 2.128906 L 3.121094 2.121094 C 3.136719 2.070312 3.152344 2.023438 3.167969 1.980469 L 3.171875 1.96875 C 3.191406 1.917969 3.210938 1.875 3.230469 1.832031 L 3.238281 1.820312 C 3.261719 1.773438 3.285156 1.730469 3.308594 1.691406 L 3.320312 1.675781 C 3.34375 1.632812 3.375 1.59375 3.402344 1.554688 L 3.414062 1.539062 C 3.441406 1.503906 3.476562 1.464844 3.507812 1.429688 C 3.511719 1.425781 3.515625 1.421875 3.515625 1.417969 C 3.519531 1.417969 3.523438 1.414062 3.523438 1.414062 C 3.558594 1.378906 3.59375 1.34375 3.628906 1.3125 L 3.644531 1.300781 C 3.679688 1.269531 3.71875 1.238281 3.757812 1.210938 L 3.773438 1.199219 C 3.8125 1.171875 3.855469 1.148438 3.894531 1.125 L 3.910156 1.117188 C 3.953125 1.09375 3.996094 1.070312 4.042969 1.050781 C 4.042969 1.050781 4.050781 1.046875 4.050781 1.046875 C 4.097656 1.027344 4.144531 1.007812 4.195312 0.992188 C 4.246094 0.976562 4.296875 0.960938 4.347656 0.949219 C 4.398438 0.941406 4.445312 0.929688 4.496094 0.925781 L 4.507812 0.921875 C 4.550781 0.917969 4.601562 0.914062 4.648438 0.914062 L 4.667969 0.914062 C 4.679688 0.914062 4.6875 0.914062 4.691406 0.914062 L 11.113281 0.890625 C 12.015625 0.890625 12.746094 1.625 12.75 2.527344 C 12.753906 3.433594 12.023438 4.175781 11.125 4.179688 L 8.753906 4.1875 L 10.339844 5.714844 L 10.867188 5.164062 C 11.171875 4.847656 11.578125 4.671875 12.015625 4.664062 C 12.453125 4.65625 12.863281 4.820312 13.175781 5.128906 Z M 13.175781 5.128906 " fill-opacity="1" fill-rule="nonzero"/></g><g clip-path="url(#ff363583a8)"><path fill="#ed2656" d="M 32.511719 2.535156 L 32.511719 6.320312 L 24.621094 6.320312 L 26.828125 4.179688 L 24.457031 4.179688 C 23.554688 4.179688 22.824219 3.441406 22.824219 2.535156 C 22.824219 1.628906 23.554688 0.890625 24.457031 0.890625 L 30.917969 0.890625 C 30.96875 0.890625 31.015625 0.894531 31.058594 0.898438 L 31.070312 0.902344 C 31.125 0.90625 31.171875 0.914062 31.21875 0.925781 C 31.21875 0.925781 31.222656 0.925781 31.222656 0.925781 C 31.273438 0.9375 31.324219 0.949219 31.371094 0.964844 C 31.371094 0.964844 31.375 0.96875 31.375 0.96875 C 31.425781 0.984375 31.472656 1 31.519531 1.019531 C 31.519531 1.019531 31.523438 1.023438 31.527344 1.023438 C 31.574219 1.046875 31.617188 1.066406 31.660156 1.089844 L 31.671875 1.097656 C 31.71875 1.121094 31.757812 1.148438 31.796875 1.175781 L 31.808594 1.183594 C 31.851562 1.214844 31.890625 1.242188 31.925781 1.273438 L 31.9375 1.28125 L 31.941406 1.285156 C 31.976562 1.316406 32.011719 1.351562 32.042969 1.386719 C 32.046875 1.386719 32.050781 1.390625 32.054688 1.394531 C 32.054688 1.394531 32.058594 1.402344 32.0625 1.402344 C 32.09375 1.4375 32.125 1.476562 32.15625 1.511719 L 32.167969 1.527344 C 32.199219 1.566406 32.226562 1.605469 32.25 1.644531 L 32.261719 1.664062 C 32.285156 1.703125 32.308594 1.746094 32.332031 1.785156 L 32.339844 1.804688 C 32.359375 1.847656 32.378906 1.890625 32.398438 1.933594 L 32.40625 1.949219 C 32.421875 1.996094 32.4375 2.039062 32.449219 2.085938 L 32.453125 2.101562 C 32.464844 2.148438 32.476562 2.195312 32.484375 2.242188 L 32.488281 2.257812 C 32.496094 2.304688 32.5 2.351562 32.503906 2.398438 L 32.503906 2.417969 C 32.507812 2.457031 32.511719 2.496094 32.511719 2.535156 Z M 32.511719 2.535156 " fill-opacity="1" fill-rule="nonzero"/></g><g clip-path="url(#6264ec1119)"><path fill="#221e38" d="M 17.789062 34.226562 C 16.78125 34.226562 15.964844 33.402344 15.964844 32.390625 L 15.964844 31.34375 L 15.273438 31.34375 C 14.269531 31.34375 13.453125 30.523438 13.453125 29.511719 C 13.453125 29.148438 13.558594 28.800781 13.757812 28.5 C 14.09375 27.984375 14.664062 27.675781 15.273438 27.675781 L 15.964844 27.675781 L 15.964844 24.671875 C 14.78125 24.410156 13.6875 23.914062 12.714844 23.1875 C 10.890625 21.824219 9.660156 19.75 9.34375 17.488281 C 9.289062 17.089844 9.257812 16.683594 9.257812 16.277344 C 9.257812 14.695312 9.691406 13.144531 10.515625 11.792969 C 10.652344 11.566406 10.800781 11.34375 10.960938 11.125 L 10.433594 10.617188 L 9.980469 11.089844 C 9.632812 11.449219 9.167969 11.648438 8.671875 11.648438 C 8.171875 11.648438 7.746094 11.464844 7.402344 11.132812 C 7.054688 10.789062 6.859375 10.332031 6.851562 9.84375 C 6.84375 9.351562 7.023438 8.890625 7.363281 8.539062 L 7.800781 8.082031 L 6.53125 6.863281 L 6.539062 8.839844 C 6.542969 9.328125 6.351562 9.789062 6.011719 10.136719 C 5.667969 10.484375 5.210938 10.679688 4.726562 10.679688 C 3.71875 10.679688 2.902344 9.859375 2.898438 8.851562 L 2.875 2.5625 C 2.875 2.519531 2.878906 2.472656 2.878906 2.433594 L 2.882812 2.414062 C 2.886719 2.359375 2.890625 2.308594 2.902344 2.257812 L 2.902344 2.242188 C 2.914062 2.179688 2.925781 2.128906 2.9375 2.082031 C 2.9375 2.078125 2.9375 2.078125 2.941406 2.074219 L 2.941406 2.066406 C 2.957031 2.015625 2.972656 1.964844 2.992188 1.914062 L 2.996094 1.898438 C 3.015625 1.847656 3.039062 1.800781 3.0625 1.75 L 3.070312 1.734375 C 3.097656 1.679688 3.121094 1.632812 3.148438 1.589844 L 3.160156 1.574219 C 3.183594 1.53125 3.214844 1.492188 3.25 1.441406 L 3.265625 1.425781 C 3.292969 1.386719 3.328125 1.347656 3.367188 1.304688 C 3.367188 1.300781 3.371094 1.300781 3.371094 1.296875 C 3.378906 1.289062 3.386719 1.285156 3.394531 1.277344 C 3.429688 1.242188 3.464844 1.203125 3.507812 1.167969 L 3.519531 1.15625 C 3.558594 1.125 3.601562 1.089844 3.648438 1.054688 L 3.664062 1.046875 C 3.707031 1.015625 3.753906 0.988281 3.804688 0.957031 L 3.8125 0.953125 C 3.8125 0.953125 3.816406 0.953125 3.820312 0.949219 C 3.867188 0.921875 3.917969 0.898438 3.964844 0.878906 C 3.96875 0.875 3.972656 0.875 3.980469 0.871094 C 4.027344 0.851562 4.082031 0.828125 4.136719 0.8125 C 4.191406 0.792969 4.246094 0.78125 4.304688 0.765625 C 4.363281 0.753906 4.417969 0.746094 4.472656 0.738281 L 4.480469 0.734375 C 4.535156 0.730469 4.585938 0.726562 4.644531 0.722656 L 4.660156 0.722656 C 4.675781 0.722656 4.683594 0.722656 4.691406 0.722656 L 11.113281 0.699219 C 12.117188 0.699219 12.9375 1.519531 12.941406 2.527344 C 12.941406 3.015625 12.753906 3.476562 12.410156 3.828125 C 12.066406 4.175781 11.609375 4.367188 11.125 4.371094 L 9.222656 4.375 L 10.335938 5.449219 L 10.734375 5.03125 C 11.070312 4.679688 11.527344 4.484375 12.011719 4.476562 C 12.5 4.46875 12.960938 4.648438 13.308594 4.992188 C 13.660156 5.332031 13.855469 5.792969 13.863281 6.28125 L 13.863281 6.320312 C 13.859375 6.796875 13.679688 7.246094 13.347656 7.585938 L 12.96875 7.984375 L 13.730469 8.71875 C 14.972656 8.042969 16.371094 7.683594 17.785156 7.683594 C 19.203125 7.683594 20.621094 8.042969 21.863281 8.730469 L 26.359375 4.371094 L 24.457031 4.371094 C 23.453125 4.371094 22.632812 3.546875 22.632812 2.535156 C 22.632812 1.523438 23.453125 0.699219 24.457031 0.699219 L 30.917969 0.699219 C 30.976562 0.703125 31.03125 0.707031 31.082031 0.710938 L 31.09375 0.714844 C 31.15625 0.722656 31.207031 0.730469 31.253906 0.738281 C 31.257812 0.738281 31.257812 0.742188 31.261719 0.742188 C 31.316406 0.753906 31.367188 0.765625 31.417969 0.78125 C 31.425781 0.785156 31.433594 0.785156 31.4375 0.789062 C 31.492188 0.808594 31.542969 0.828125 31.589844 0.847656 C 31.59375 0.847656 31.59375 0.847656 31.59375 0.847656 C 31.59375 0.847656 31.597656 0.851562 31.597656 0.851562 C 31.648438 0.871094 31.699219 0.898438 31.75 0.921875 L 31.765625 0.933594 C 31.8125 0.960938 31.859375 0.988281 31.898438 1.015625 L 31.914062 1.027344 C 31.96875 1.066406 32.007812 1.097656 32.046875 1.128906 L 32.058594 1.140625 C 32.101562 1.175781 32.136719 1.210938 32.171875 1.246094 C 32.175781 1.25 32.183594 1.253906 32.1875 1.257812 C 32.191406 1.261719 32.195312 1.269531 32.203125 1.277344 C 32.238281 1.316406 32.269531 1.355469 32.304688 1.394531 L 32.316406 1.410156 C 32.355469 1.460938 32.382812 1.503906 32.410156 1.542969 L 32.421875 1.5625 C 32.453125 1.613281 32.476562 1.65625 32.5 1.699219 L 32.511719 1.722656 C 32.535156 1.769531 32.554688 1.816406 32.570312 1.863281 L 32.578125 1.878906 C 32.578125 1.878906 32.578125 1.882812 32.582031 1.882812 C 32.601562 1.933594 32.617188 1.988281 32.628906 2.039062 L 32.632812 2.050781 C 32.648438 2.105469 32.660156 2.15625 32.671875 2.207031 L 32.671875 2.226562 C 32.679688 2.273438 32.6875 2.324219 32.691406 2.378906 C 32.691406 2.382812 32.691406 2.382812 32.691406 2.386719 L 32.691406 2.40625 C 32.695312 2.457031 32.699219 2.496094 32.699219 2.535156 L 32.699219 8.820312 C 32.699219 9.832031 31.882812 10.65625 30.878906 10.65625 C 29.875 10.65625 29.054688 9.832031 29.054688 8.820312 L 29.054688 6.847656 L 24.625 11.144531 C 24.78125 11.351562 24.925781 11.570312 25.058594 11.792969 C 25.882812 13.144531 26.316406 14.695312 26.316406 16.273438 C 26.316406 16.683594 26.289062 17.089844 26.230469 17.488281 C 25.914062 19.75 24.6875 21.824219 22.863281 23.1875 C 21.886719 23.914062 20.792969 24.410156 19.609375 24.671875 L 19.609375 27.675781 L 20.300781 27.675781 C 20.910156 27.675781 21.480469 27.984375 21.816406 28.5 C 22.015625 28.800781 22.121094 29.148438 22.121094 29.511719 C 22.121094 30.523438 21.304688 31.34375 20.300781 31.34375 L 19.609375 31.34375 L 19.609375 32.390625 C 19.609375 33.402344 18.792969 34.226562 17.789062 34.226562 Z M 15.273438 28.054688 C 14.789062 28.054688 14.339844 28.300781 14.070312 28.710938 C 13.914062 28.945312 13.832031 29.222656 13.832031 29.511719 C 13.832031 30.3125 14.480469 30.964844 15.273438 30.964844 L 16.15625 30.964844 C 16.257812 30.964844 16.34375 31.050781 16.34375 31.15625 L 16.34375 32.390625 C 16.34375 33.191406 16.992188 33.847656 17.789062 33.847656 C 18.582031 33.847656 19.230469 33.191406 19.230469 32.390625 L 19.230469 31.15625 C 19.230469 31.050781 19.316406 30.964844 19.417969 30.964844 L 20.300781 30.964844 C 21.09375 30.964844 21.742188 30.3125 21.742188 29.511719 C 21.742188 29.222656 21.660156 28.945312 21.503906 28.710938 C 21.234375 28.300781 20.785156 28.054688 20.300781 28.054688 L 19.417969 28.054688 C 19.316406 28.054688 19.230469 27.96875 19.230469 27.863281 L 19.230469 24.515625 C 19.230469 24.425781 19.292969 24.347656 19.382812 24.332031 C 20.570312 24.09375 21.667969 23.605469 22.636719 22.878906 C 24.382812 21.582031 25.554688 19.597656 25.859375 17.4375 C 25.910156 17.054688 25.941406 16.664062 25.941406 16.277344 C 25.941406 14.765625 25.523438 13.285156 24.738281 11.992188 C 24.582031 11.734375 24.410156 11.480469 24.222656 11.242188 C 24.164062 11.164062 24.171875 11.054688 24.242188 10.988281 L 29.113281 6.265625 C 29.167969 6.210938 29.25 6.195312 29.316406 6.226562 C 29.386719 6.257812 29.433594 6.324219 29.433594 6.402344 L 29.433594 8.824219 C 29.433594 9.625 30.082031 10.277344 30.878906 10.277344 C 31.671875 10.277344 32.320312 9.625 32.320312 8.824219 L 32.320312 2.535156 C 32.320312 2.5 32.320312 2.464844 32.316406 2.429688 L 32.316406 2.414062 C 32.3125 2.367188 32.308594 2.328125 32.300781 2.289062 L 32.296875 2.273438 C 32.292969 2.238281 32.28125 2.195312 32.269531 2.152344 L 32.265625 2.140625 C 32.257812 2.101562 32.246094 2.0625 32.230469 2.019531 L 32.226562 2.007812 C 32.226562 2.007812 32.222656 2.003906 32.222656 2.003906 C 32.210938 1.96875 32.191406 1.929688 32.171875 1.890625 L 32.164062 1.867188 C 32.148438 1.839844 32.128906 1.804688 32.101562 1.765625 L 32.09375 1.746094 C 32.074219 1.714844 32.050781 1.683594 32.019531 1.644531 L 32.011719 1.632812 C 31.984375 1.597656 31.953125 1.5625 31.925781 1.535156 C 31.925781 1.53125 31.921875 1.527344 31.917969 1.523438 C 31.917969 1.523438 31.914062 1.519531 31.910156 1.519531 C 31.882812 1.488281 31.851562 1.457031 31.820312 1.429688 C 31.820312 1.429688 31.8125 1.425781 31.8125 1.425781 L 31.804688 1.417969 C 31.777344 1.394531 31.742188 1.367188 31.699219 1.335938 L 31.691406 1.332031 C 31.65625 1.308594 31.621094 1.285156 31.578125 1.261719 L 31.566406 1.253906 C 31.53125 1.234375 31.492188 1.214844 31.453125 1.199219 C 31.449219 1.195312 31.445312 1.195312 31.445312 1.195312 C 31.40625 1.179688 31.367188 1.164062 31.320312 1.148438 C 31.316406 1.148438 31.316406 1.148438 31.3125 1.144531 C 31.273438 1.132812 31.234375 1.121094 31.191406 1.113281 C 31.191406 1.113281 31.191406 1.113281 31.1875 1.113281 C 31.1875 1.113281 31.179688 1.113281 31.175781 1.109375 C 31.140625 1.101562 31.101562 1.097656 31.046875 1.089844 L 31.039062 1.085938 C 31 1.082031 30.957031 1.082031 30.914062 1.078125 L 24.457031 1.078125 C 23.660156 1.078125 23.011719 1.730469 23.011719 2.535156 C 23.011719 3.335938 23.660156 3.988281 24.457031 3.988281 L 26.828125 3.988281 C 26.902344 3.988281 26.972656 4.035156 27.003906 4.109375 C 27.03125 4.179688 27.011719 4.261719 26.957031 4.316406 L 22.023438 9.097656 C 21.964844 9.15625 21.875 9.167969 21.800781 9.128906 C 20.585938 8.429688 19.195312 8.0625 17.789062 8.0625 C 16.378906 8.0625 15.007812 8.425781 13.792969 9.117188 C 13.722656 9.15625 13.632812 9.144531 13.570312 9.089844 L 12.570312 8.125 C 12.535156 8.089844 12.511719 8.042969 12.511719 7.992188 C 12.511719 7.941406 12.53125 7.890625 12.566406 7.855469 L 13.078125 7.320312 C 13.339844 7.050781 13.484375 6.695312 13.488281 6.316406 L 13.488281 6.28125 C 13.480469 5.898438 13.324219 5.535156 13.046875 5.261719 C 12.769531 4.992188 12.40625 4.847656 12.019531 4.855469 C 11.632812 4.859375 11.273438 5.015625 11.003906 5.296875 L 10.476562 5.847656 C 10.402344 5.921875 10.285156 5.921875 10.210938 5.851562 L 8.625 4.324219 C 8.566406 4.269531 8.550781 4.1875 8.578125 4.117188 C 8.605469 4.042969 8.675781 3.996094 8.753906 3.996094 L 11.125 3.988281 C 11.507812 3.988281 11.871094 3.835938 12.144531 3.558594 C 12.414062 3.28125 12.566406 2.917969 12.5625 2.527344 C 12.5625 1.730469 11.910156 1.078125 11.113281 1.078125 L 4.691406 1.101562 C 4.6875 1.101562 4.683594 1.101562 4.675781 1.101562 L 4.65625 1.101562 C 4.609375 1.101562 4.566406 1.105469 4.53125 1.109375 L 4.523438 1.113281 C 4.476562 1.117188 4.429688 1.125 4.386719 1.136719 C 4.339844 1.144531 4.296875 1.15625 4.253906 1.171875 C 4.207031 1.1875 4.164062 1.203125 4.125 1.21875 C 4.121094 1.222656 4.121094 1.222656 4.117188 1.222656 C 4.082031 1.238281 4.042969 1.257812 4.003906 1.28125 L 3.992188 1.285156 C 3.949219 1.3125 3.910156 1.332031 3.882812 1.355469 L 3.867188 1.367188 C 3.828125 1.394531 3.792969 1.417969 3.765625 1.445312 L 3.753906 1.457031 C 3.71875 1.484375 3.6875 1.511719 3.660156 1.542969 C 3.65625 1.546875 3.65625 1.546875 3.652344 1.550781 C 3.648438 1.554688 3.648438 1.554688 3.644531 1.558594 C 3.613281 1.59375 3.585938 1.625 3.5625 1.65625 L 3.546875 1.671875 C 3.523438 1.707031 3.5 1.742188 3.476562 1.777344 L 3.464844 1.792969 C 3.445312 1.824219 3.425781 1.859375 3.40625 1.90625 L 3.398438 1.917969 C 3.378906 1.953125 3.363281 1.996094 3.347656 2.035156 L 3.34375 2.046875 C 3.328125 2.085938 3.3125 2.128906 3.304688 2.167969 C 3.300781 2.171875 3.300781 2.175781 3.300781 2.175781 L 3.300781 2.183594 C 3.289062 2.21875 3.28125 2.261719 3.273438 2.308594 L 3.269531 2.320312 C 3.265625 2.355469 3.257812 2.398438 3.257812 2.441406 L 3.253906 2.457031 C 3.253906 2.488281 3.25 2.523438 3.25 2.558594 L 3.273438 8.851562 C 3.277344 9.648438 3.925781 10.300781 4.722656 10.300781 C 5.519531 10.296875 6.164062 9.640625 6.160156 8.839844 L 6.152344 6.417969 C 6.152344 6.34375 6.199219 6.273438 6.265625 6.242188 C 6.335938 6.210938 6.417969 6.226562 6.472656 6.28125 L 8.195312 7.941406 C 8.234375 7.976562 8.253906 8.023438 8.253906 8.074219 C 8.257812 8.125 8.238281 8.171875 8.203125 8.210938 L 7.632812 8.800781 C 7.363281 9.078125 7.21875 9.449219 7.226562 9.835938 C 7.234375 10.226562 7.386719 10.585938 7.664062 10.859375 C 7.9375 11.121094 8.292969 11.269531 8.671875 11.269531 C 9.046875 11.269531 9.433594 11.109375 9.707031 10.824219 L 10.292969 10.21875 C 10.363281 10.140625 10.484375 10.140625 10.558594 10.210938 L 11.34375 10.96875 C 11.414062 11.035156 11.421875 11.144531 11.363281 11.222656 C 11.171875 11.46875 10.992188 11.726562 10.835938 11.988281 C 10.050781 13.28125 9.632812 14.765625 9.632812 16.273438 C 9.632812 16.664062 9.664062 17.054688 9.714844 17.433594 C 10.019531 19.59375 11.191406 21.578125 12.9375 22.878906 C 13.90625 23.601562 15 24.089844 16.191406 24.328125 C 16.277344 24.347656 16.339844 24.425781 16.339844 24.515625 L 16.339844 27.863281 C 16.339844 27.96875 16.257812 28.054688 16.152344 28.054688 Z M 31.929688 1.535156 Z M 32.195312 1.269531 C 32.195312 1.269531 32.199219 1.273438 32.203125 1.277344 C 32.199219 1.273438 32.199219 1.273438 32.195312 1.269531 Z M 3.414062 1.261719 Z M 4.113281 1.226562 C 4.09375 1.230469 4.070312 1.234375 4.050781 1.234375 C 4.074219 1.234375 4.09375 1.230469 4.113281 1.226562 Z M 4.175781 1.183594 C 4.164062 1.195312 4.152344 1.203125 4.140625 1.210938 C 4.152344 1.203125 4.164062 1.195312 4.175781 1.183594 Z M 31.371094 1.15625 Z M 31.367188 1.15625 Z M 31.367188 1.15625 Z M 31.351562 1.15625 C 31.355469 1.15625 31.363281 1.15625 31.367188 1.15625 C 31.363281 1.15625 31.355469 1.15625 31.351562 1.15625 Z M 31.292969 1.136719 Z M 17.789062 21.578125 C 16.597656 21.578125 15.429688 21.164062 14.503906 20.417969 C 13.589844 19.679688 12.9375 18.644531 12.667969 17.507812 C 12.570312 17.105469 12.523438 16.691406 12.523438 16.277344 C 12.523438 14.425781 13.503906 12.683594 15.082031 11.730469 C 15.894531 11.234375 16.832031 10.972656 17.785156 10.972656 C 18.742188 10.972656 19.679688 11.234375 20.492188 11.730469 C 22.070312 12.683594 23.050781 14.425781 23.050781 16.277344 C 23.050781 16.691406 23.003906 17.105469 22.90625 17.507812 C 22.636719 18.644531 21.984375 19.679688 21.070312 20.417969 C 20.148438 21.164062 18.988281 21.574219 17.804688 21.578125 C 17.800781 21.578125 17.792969 21.578125 17.789062 21.578125 Z M 17.789062 21.390625 Z M 17.785156 11.351562 C 16.898438 11.351562 16.03125 11.59375 15.277344 12.054688 C 13.8125 12.941406 12.902344 14.558594 12.902344 16.277344 C 12.902344 16.664062 12.945312 17.046875 13.035156 17.417969 C 13.558594 19.640625 15.507812 21.195312 17.773438 21.199219 C 17.777344 21.199219 17.785156 21.199219 17.789062 21.199219 C 20.058594 21.199219 22.015625 19.644531 22.542969 17.417969 C 22.628906 17.046875 22.675781 16.664062 22.675781 16.277344 C 22.675781 14.558594 21.765625 12.941406 20.296875 12.054688 C 19.542969 11.59375 18.671875 11.351562 17.785156 11.351562 Z M 17.785156 11.351562 " fill-opacity="1" fill-rule="nonzero"/></g></svg>