<svg xmlns="http://www.w3.org/2000/svg" xmlns:xlink="http://www.w3.org/1999/xlink" width="48" zoomAndPan="magnify" viewBox="0 0 36 36.000001" height="48" preserveAspectRatio="xMidYMid meet" version="1.0"><defs><clipPath id="379604a4d1"><path d="M 5.378906 0.417969 L 30.921875 0.417969 L 30.921875 34.714844 L 5.378906 34.714844 Z M 5.378906 0.417969 " clip-rule="nonzero"/></clipPath></defs><g clip-path="url(#379604a4d1)"><path fill="#ff00de" d="M 29.347656 14.273438 L 27.605469 14.273438 L 27.605469 10.035156 C 27.613281 4.730469 23.296875 0.417969 17.992188 0.417969 C 12.6875 0.417969 8.375 4.730469 8.375 10.035156 L 8.375 14.273438 L 6.636719 14.273438 C 5.945312 14.273438 5.386719 14.835938 5.386719 15.527344 L 5.386719 33.355469 C 5.386719 34.039062 5.945312 34.601562 6.636719 34.601562 L 29.355469 34.601562 C 30.046875 34.601562 30.605469 34.039062 30.605469 33.347656 L 30.605469 15.527344 C 30.597656 14.835938 30.039062 14.273438 29.347656 14.273438 Z M 10.875 10.035156 C 10.875 6.113281 14.066406 2.917969 17.992188 2.917969 C 21.917969 2.917969 25.109375 6.113281 25.109375 10.035156 L 25.109375 14.273438 L 10.875 14.273438 Z M 19.242188 25.335938 L 19.242188 28.625 C 19.242188 29.316406 18.683594 29.875 17.992188 29.875 C 17.300781 29.875 16.742188 29.316406 16.742188 28.625 L 16.742188 25.335938 C 15.878906 24.886719 15.292969 23.984375 15.292969 22.949219 C 15.292969 21.460938 16.503906 20.257812 17.984375 20.257812 C 19.476562 20.257812 20.679688 21.46875 20.679688 22.949219 C 20.691406 23.984375 20.105469 24.886719 19.242188 25.335938 Z M 19.242188 25.335938 " fill-opacity="1" fill-rule="nonzero"/></g></svg>