<svg xmlns="http://www.w3.org/2000/svg" xmlns:xlink="http://www.w3.org/1999/xlink" width="48" zoomAndPan="magnify" viewBox="0 0 36 36.000001" height="48" preserveAspectRatio="xMidYMid meet" version="1.0"><defs><clipPath id="21ee604d68"><path d="M 10.996094 10.738281 L 24.859375 10.738281 L 24.859375 24.601562 L 10.996094 24.601562 Z M 10.996094 10.738281 " clip-rule="nonzero"/></clipPath><clipPath id="3a659f0df2"><path d="M 0.902344 2.253906 L 35.199219 2.253906 L 35.199219 32.902344 L 0.902344 32.902344 Z M 0.902344 2.253906 " clip-rule="nonzero"/></clipPath><clipPath id="bab451cc48"><path d="M 0.902344 0.253906 L 35.199219 0.253906 L 35.199219 30.765625 L 0.902344 30.765625 Z M 0.902344 0.253906 " clip-rule="nonzero"/></clipPath><clipPath id="cd1cce2903"><rect x="0" width="36" y="0" height="31"/></clipPath></defs><g clip-path="url(#21ee604d68)"><path fill="#000000" d="M 24.058594 12.332031 L 22.839844 11.335938 C 22.347656 10.9375 21.710938 10.78125 21.101562 10.914062 L 14.855469 12.273438 L 12.621094 12.273438 C 11.726562 12.273438 10.996094 13.027344 10.996094 13.957031 L 10.996094 19.515625 C 10.996094 20.445312 11.726562 21.199219 12.621094 21.199219 L 15.902344 21.199219 C 15.992188 21.199219 16.078125 21.242188 16.132812 21.316406 L 17.96875 23.878906 C 18.285156 24.320312 18.761719 24.5625 19.265625 24.5625 C 19.4375 24.5625 19.613281 24.535156 19.785156 24.476562 C 20.464844 24.246094 20.90625 23.617188 20.90625 22.878906 L 20.90625 21.492188 C 20.90625 21.332031 21.03125 21.199219 21.191406 21.199219 L 22.753906 21.199219 C 23.914062 21.199219 24.859375 20.222656 24.859375 19.023438 L 24.859375 14.039062 C 24.859375 13.371094 24.566406 12.746094 24.058594 12.332031 Z M 14.253906 19.8125 L 12.621094 19.8125 C 12.464844 19.8125 12.335938 19.679688 12.335938 19.515625 L 12.335938 13.957031 C 12.335938 13.792969 12.464844 13.660156 12.621094 13.660156 L 14.253906 13.660156 Z M 23.519531 19.023438 C 23.519531 19.457031 23.175781 19.8125 22.753906 19.8125 L 21.191406 19.8125 C 20.292969 19.8125 19.5625 20.566406 19.5625 21.492188 L 19.5625 22.878906 C 19.5625 23.066406 19.441406 23.132812 19.367188 23.160156 C 19.292969 23.183594 19.15625 23.203125 19.046875 23.054688 L 17.210938 20.492188 C 16.90625 20.066406 16.417969 19.8125 15.902344 19.8125 L 15.597656 19.8125 L 15.597656 13.53125 L 21.375 12.273438 C 21.597656 12.222656 21.828125 12.28125 22.007812 12.425781 L 23.226562 13.421875 C 23.410156 13.570312 23.519531 13.796875 23.519531 14.039062 Z M 23.519531 19.023438 " fill-opacity="1" fill-rule="nonzero"/></g><g clip-path="url(#3a659f0df2)"><g transform="matrix(1, 0, 0, 1, 0.000000000000000111, 2)"><g clip-path="url(#cd1cce2903)"><g clip-path="url(#bab451cc48)"><path fill="#ff00de" d="M 35.066406 13.875 C 35.066406 12.054688 33.585938 10.574219 31.769531 10.574219 L 24.195312 10.46875 L 24.890625 4.878906 C 24.890625 2.992188 23.65625 0.25 21.710938 0.25 L 19.644531 0.25 L 18.589844 5.878906 L 13.816406 13.273438 C 13.304688 13.984375 12.945312 14.574219 12.683594 15.105469 C 12.238281 14.617188 11.59375 14.304688 10.878906 14.304688 L 3.367188 14.304688 C 2.019531 14.304688 0.925781 15.398438 0.925781 16.746094 L 0.925781 28.324219 C 0.925781 29.671875 2.019531 30.765625 3.367188 30.765625 L 10.878906 30.765625 C 11.867188 30.765625 12.722656 30.171875 13.105469 29.324219 C 13.832031 30.097656 14.867188 30.589844 16.015625 30.589844 L 28.441406 30.589844 C 30.261719 30.589844 31.738281 29.109375 31.738281 27.292969 C 31.738281 26.878906 31.667969 26.484375 31.519531 26.109375 C 32.921875 25.710938 33.921875 24.414062 33.921875 22.933594 C 33.921875 22.417969 33.796875 21.90625 33.558594 21.445312 C 34.492188 20.835938 35.066406 19.796875 35.066406 18.679688 C 35.066406 17.761719 34.6875 16.898438 34.019531 16.277344 C 34.6875 15.65625 35.066406 14.792969 35.066406 13.875 Z M 35.066406 13.875 " fill-opacity="1" fill-rule="nonzero"/></g></g></g></g></svg>