<svg xmlns="http://www.w3.org/2000/svg" xmlns:xlink="http://www.w3.org/1999/xlink" width="48" zoomAndPan="magnify" viewBox="0 0 36 36.000001" height="48" preserveAspectRatio="xMidYMid meet" version="1.0"><defs><clipPath id="73f393a532"><path d="M 1 1.765625 L 35.226562 1.765625 L 35.226562 33.144531 L 1 33.144531 Z M 1 1.765625 " clip-rule="nonzero"/></clipPath></defs><g clip-path="url(#73f393a532)"><path fill="#ff00de" d="M 1.941406 33.03125 C 2.996094 32.597656 4.453125 32.023438 6.320312 31.308594 C 6.734375 31.148438 7.25 30.835938 7.539062 30.578125 C 8.066406 30.105469 8.695312 29.488281 9.425781 28.722656 C 9.4375 28.710938 9.453125 28.703125 9.46875 28.695312 C 9.523438 28.675781 9.582031 28.703125 9.601562 28.757812 C 9.921875 29.632812 10.667969 30.40625 11.546875 30.707031 C 12.867188 31.160156 14.007812 30.792969 14.976562 29.609375 C 14.980469 29.601562 14.984375 29.597656 14.988281 29.59375 C 15.03125 29.5625 15.089844 29.566406 15.125 29.609375 C 16.074219 30.765625 17.695312 31.0625 18.941406 30.210938 C 19.953125 29.519531 20.527344 28.601562 20.660156 27.460938 C 20.664062 27.445312 20.667969 27.433594 20.671875 27.421875 C 20.699219 27.371094 20.761719 27.355469 20.808594 27.382812 C 21.652344 27.839844 22.472656 28.257812 23.277344 28.632812 C 25.144531 29.503906 27.0625 29.722656 29.03125 29.289062 C 29.878906 29.101562 30.808594 28.640625 31.523438 28.515625 C 31.941406 28.441406 32.339844 28.378906 32.8125 28.375 C 33.546875 28.359375 34.085938 28.410156 34.550781 28.226562 C 34.898438 28.089844 35.070312 27.742188 35.070312 27.1875 C 35.066406 20.246094 35.0625 16.304688 35.066406 15.359375 C 35.066406 14.910156 34.828125 14.660156 34.34375 14.609375 C 33.769531 14.554688 32.9375 14.660156 32.28125 14.511719 C 31.691406 14.375 31.078125 14.042969 30.445312 13.511719 C 28.910156 12.226562 27.9375 11.347656 27.523438 10.878906 C 27.503906 10.855469 27.503906 10.820312 27.527344 10.796875 C 29.265625 9.0625 30.5 7.847656 31.226562 7.148438 C 31.675781 6.71875 31.945312 6.367188 32.03125 6.097656 C 32.355469 5.101562 32.101562 4.363281 31.355469 3.566406 C 30.535156 2.691406 29.9375 1.785156 28.636719 1.929688 C 28.121094 1.988281 27.703125 2.179688 27.375 2.5 C 25.589844 4.273438 23.929688 5.929688 22.402344 7.472656 C 22.316406 7.554688 22.199219 7.589844 22.085938 7.570312 C 20.476562 7.257812 19.308594 7.042969 18.582031 6.921875 C 17.132812 6.679688 15.804688 6.636719 14.570312 7.339844 C 14.210938 7.542969 13.664062 8.007812 12.929688 8.730469 C 10.855469 10.773438 8.683594 12.90625 6.417969 15.132812 C 5.878906 15.664062 5.5 16.21875 5.289062 16.800781 C 5.089844 17.34375 4.644531 18.789062 3.953125 21.140625 C 3.566406 22.460938 3.335938 24.101562 4.683594 24.925781 C 4.691406 24.929688 4.699219 24.933594 4.703125 24.941406 C 4.742188 24.980469 4.742188 25.042969 4.703125 25.078125 C 3.941406 25.839844 2.980469 26.582031 2.617188 27.648438 C 2.042969 29.363281 1.542969 30.898438 1.117188 32.257812 C 0.929688 32.84375 1.421875 33.246094 1.941406 33.03125 Z M 12.9375 29.414062 C 11.71875 29.785156 10.40625 28.507812 11.023438 27.292969 C 11.203125 26.945312 11.449219 26.867188 11.847656 26.863281 C 12.746094 26.851562 13.539062 26.847656 14.222656 26.855469 C 14.277344 26.859375 14.324219 26.902344 14.324219 26.960938 C 14.3125 28.027344 14.015625 29.085938 12.9375 29.414062 Z M 18.253906 28.902344 C 17.507812 29.449219 16.808594 29.375 16.15625 28.671875 C 15.683594 28.164062 15.808594 27.578125 15.714844 26.953125 C 15.707031 26.90625 15.738281 26.863281 15.78125 26.855469 C 15.789062 26.855469 15.792969 26.855469 15.796875 26.855469 L 19.039062 26.855469 C 19.117188 26.855469 19.1875 26.917969 19.191406 27 C 19.257812 27.757812 18.941406 28.394531 18.253906 28.902344 Z M 29.257812 14.292969 C 30.1875 15.074219 31.015625 15.695312 32.195312 15.9375 C 32.382812 15.976562 32.839844 15.992188 33.5625 15.988281 C 33.613281 15.988281 33.65625 16.027344 33.660156 16.082031 L 33.660156 26.902344 C 33.660156 26.929688 33.636719 26.953125 33.609375 26.953125 C 33.609375 26.953125 33.609375 26.953125 33.605469 26.953125 C 32.636719 26.941406 31.535156 26.957031 30.605469 27.277344 C 30.429688 27.339844 30.050781 27.472656 29.472656 27.679688 C 26.851562 28.613281 24.425781 27.707031 22.113281 26.449219 C 21.476562 26.101562 20.554688 25.648438 20.015625 25.523438 C 19.597656 25.429688 19.097656 25.386719 18.515625 25.390625 C 14.378906 25.429688 12.007812 25.429688 11.390625 25.398438 C 10.910156 25.375 10.445312 25.144531 10 24.703125 C 9.53125 24.242188 8.875 23.164062 9.261719 22.476562 C 9.390625 22.246094 9.613281 21.984375 9.929688 21.695312 C 10.707031 20.976562 11.324219 21.015625 12.488281 21.019531 C 15.71875 21.035156 19.148438 21.035156 22.78125 21.019531 C 23.175781 21.019531 23.496094 20.703125 23.503906 20.3125 L 23.507812 20.273438 C 23.523438 19.914062 23.246094 19.609375 22.886719 19.589844 C 22.875 19.589844 22.867188 19.589844 22.855469 19.589844 L 18.71875 19.589844 C 18.695312 19.589844 18.675781 19.574219 18.675781 19.550781 C 18.675781 19.539062 18.679688 19.523438 18.6875 19.515625 L 26.410156 11.914062 C 26.480469 11.84375 26.589844 11.84375 26.660156 11.914062 C 27.476562 12.730469 28.34375 13.523438 29.257812 14.292969 Z M 27.484375 4.300781 C 27.484375 4.300781 27.484375 4.296875 27.484375 4.296875 L 28.285156 3.523438 C 28.601562 3.21875 29.097656 3.21875 29.394531 3.527344 L 30.589844 4.761719 C 30.886719 5.070312 30.871094 5.566406 30.554688 5.875 L 29.75 6.648438 C 29.679688 6.714844 29.570312 6.714844 29.5 6.644531 L 27.480469 4.550781 C 27.410156 4.480469 27.414062 4.367188 27.484375 4.300781 Z M 26.289062 5.457031 C 26.320312 5.425781 26.371094 5.425781 26.402344 5.457031 L 28.589844 7.644531 C 28.621094 7.675781 28.621094 7.726562 28.589844 7.757812 L 16.769531 19.574219 C 16.757812 19.589844 16.734375 19.597656 16.714844 19.597656 L 12.339844 19.597656 C 12.296875 19.597656 12.261719 19.5625 12.261719 19.519531 C 12.261719 19.5 12.269531 19.480469 12.285156 19.464844 Z M 5.253906 21.628906 C 5.816406 19.789062 6.226562 18.441406 6.480469 17.589844 C 6.675781 16.941406 6.960938 16.5 7.476562 16 C 9.039062 14.476562 11.257812 12.289062 14.136719 9.445312 C 15.070312 8.523438 16.136719 8.0625 17.402344 8.21875 C 18.546875 8.359375 19.726562 8.554688 20.941406 8.8125 C 20.953125 8.8125 20.957031 8.824219 20.957031 8.835938 C 20.957031 8.839844 20.953125 8.839844 20.949219 8.84375 L 6.074219 23.71875 C 5.984375 23.808594 5.855469 23.84375 5.734375 23.8125 C 4.777344 23.554688 5.027344 22.375 5.253906 21.628906 Z M 4.460938 27.238281 L 7.777344 23.921875 C 7.800781 23.898438 7.84375 23.898438 7.871094 23.925781 C 7.875 23.929688 7.878906 23.9375 7.882812 23.945312 C 8.261719 24.902344 8.882812 25.6875 9.746094 26.300781 C 9.773438 26.320312 9.78125 26.355469 9.761719 26.382812 C 9.757812 26.386719 9.757812 26.390625 9.753906 26.390625 L 6.683594 29.460938 C 6.628906 29.515625 6.542969 29.515625 6.488281 29.460938 L 4.460938 27.4375 C 4.40625 27.382812 4.40625 27.292969 4.460938 27.238281 Z M 2.980469 30.957031 L 3.722656 28.742188 C 3.734375 28.707031 3.773438 28.6875 3.808594 28.699219 C 3.820312 28.703125 3.828125 28.707031 3.835938 28.714844 L 5.222656 30.101562 C 5.25 30.128906 5.25 30.171875 5.222656 30.199219 C 5.214844 30.207031 5.207031 30.210938 5.199219 30.214844 L 3.070312 31.046875 C 3.035156 31.058594 2.996094 31.042969 2.980469 31.007812 C 2.972656 30.992188 2.972656 30.976562 2.980469 30.957031 Z M 2.980469 30.957031 " fill-opacity="1" fill-rule="nonzero"/></g></svg>