<svg xmlns="http://www.w3.org/2000/svg" xmlns:xlink="http://www.w3.org/1999/xlink" width="48" zoomAndPan="magnify" viewBox="0 0 36 36.000001" height="48" preserveAspectRatio="xMidYMid meet" version="1.0"><defs><clipPath id="3055915e19"><path d="M 0.902344 0.417969 L 35.199219 0.417969 L 35.199219 34.714844 L 0.902344 34.714844 Z M 0.902344 0.417969 " clip-rule="nonzero"/></clipPath><clipPath id="ba16c3d6f4"><path d="M 4.324219 3.835938 L 31.324219 3.835938 L 31.324219 30.835938 L 4.324219 30.835938 Z M 4.324219 3.835938 " clip-rule="nonzero"/></clipPath><clipPath id="7d48bc75a8"><path d="M 6.070312 15.277344 L 30.148438 15.277344 L 30.148438 19.65625 L 6.070312 19.65625 Z M 6.070312 15.277344 " clip-rule="nonzero"/></clipPath></defs><g clip-path="url(#3055915e19)"><path fill="#ff00de" d="M 26.6875 0.457031 L 9.292969 0.457031 C 8.742188 0.457031 8.195312 0.511719 7.65625 0.621094 C 7.117188 0.726562 6.589844 0.886719 6.082031 1.097656 C 5.574219 1.308594 5.089844 1.566406 4.632812 1.871094 C 4.171875 2.179688 3.75 2.527344 3.359375 2.914062 C 2.972656 3.304688 2.625 3.730469 2.316406 4.1875 C 2.011719 4.644531 1.753906 5.128906 1.542969 5.636719 C 1.332031 6.144531 1.171875 6.671875 1.066406 7.210938 C 0.957031 7.75 0.902344 8.296875 0.902344 8.847656 L 0.902344 26.210938 C 0.902344 26.761719 0.957031 27.308594 1.066406 27.847656 C 1.171875 28.386719 1.332031 28.914062 1.542969 29.421875 C 1.753906 29.929688 2.011719 30.414062 2.316406 30.871094 C 2.625 31.332031 2.972656 31.753906 3.359375 32.144531 C 3.75 32.53125 4.171875 32.878906 4.632812 33.1875 C 5.089844 33.492188 5.574219 33.75 6.082031 33.960938 C 6.589844 34.171875 7.117188 34.332031 7.65625 34.4375 C 8.195312 34.546875 8.742188 34.601562 9.292969 34.601562 L 26.6875 34.601562 C 27.238281 34.601562 27.785156 34.546875 28.324219 34.4375 C 28.863281 34.332031 29.390625 34.171875 29.898438 33.960938 C 30.40625 33.75 30.890625 33.492188 31.347656 33.1875 C 31.804688 32.878906 32.230469 32.53125 32.621094 32.144531 C 33.007812 31.753906 33.355469 31.332031 33.664062 30.871094 C 33.96875 30.414062 34.226562 29.929688 34.4375 29.421875 C 34.648438 28.914062 34.808594 28.386719 34.914062 27.847656 C 35.023438 27.308594 35.078125 26.761719 35.078125 26.210938 L 35.078125 8.804688 C 35.074219 8.257812 35.015625 7.714844 34.90625 7.175781 C 34.796875 6.636719 34.636719 6.113281 34.425781 5.609375 C 34.214844 5.101562 33.953125 4.621094 33.648438 4.164062 C 33.339844 3.710938 32.992188 3.289062 32.605469 2.902344 C 32.214844 2.515625 31.792969 2.167969 31.335938 1.863281 C 30.878906 1.558594 30.394531 1.304688 29.886719 1.09375 C 29.378906 0.882812 28.859375 0.726562 28.320312 0.617188 C 27.78125 0.511719 27.238281 0.457031 26.6875 0.457031 Z M 28 19.605469 L 20.09375 19.605469 L 20.09375 27.523438 C 20.09375 27.800781 20.039062 28.066406 19.933594 28.324219 C 19.828125 28.582031 19.675781 28.808594 19.476562 29.003906 C 19.28125 29.203125 19.054688 29.351562 18.796875 29.460938 C 18.539062 29.566406 18.273438 29.621094 17.996094 29.621094 C 17.71875 29.621094 17.449219 29.566406 17.191406 29.460938 C 16.9375 29.351562 16.707031 29.203125 16.511719 29.003906 C 16.316406 28.808594 16.164062 28.582031 16.058594 28.324219 C 15.953125 28.066406 15.898438 27.800781 15.898438 27.523438 L 15.898438 19.605469 L 7.980469 19.605469 C 7.703125 19.605469 7.4375 19.550781 7.179688 19.445312 C 6.921875 19.339844 6.695312 19.1875 6.5 18.992188 C 6.300781 18.792969 6.148438 18.566406 6.042969 18.3125 C 5.9375 18.054688 5.882812 17.785156 5.882812 17.507812 C 5.882812 17.230469 5.9375 16.964844 6.042969 16.707031 C 6.148438 16.449219 6.300781 16.222656 6.5 16.027344 C 6.695312 15.828125 6.921875 15.675781 7.179688 15.570312 C 7.4375 15.464844 7.703125 15.410156 7.980469 15.410156 L 15.898438 15.410156 L 15.898438 7.496094 C 15.898438 7.214844 15.953125 6.949219 16.058594 6.691406 C 16.164062 6.433594 16.316406 6.207031 16.511719 6.011719 C 16.707031 5.816406 16.9375 5.664062 17.191406 5.558594 C 17.449219 5.449219 17.71875 5.398438 17.996094 5.398438 C 18.273438 5.398438 18.539062 5.449219 18.796875 5.558594 C 19.054688 5.664062 19.28125 5.816406 19.476562 6.011719 C 19.675781 6.207031 19.828125 6.433594 19.933594 6.691406 C 20.039062 6.949219 20.09375 7.214844 20.09375 7.496094 L 20.09375 15.410156 L 28 15.410156 C 28.277344 15.410156 28.542969 15.464844 28.800781 15.570312 C 29.058594 15.675781 29.285156 15.828125 29.480469 16.027344 C 29.679688 16.222656 29.828125 16.449219 29.9375 16.707031 C 30.042969 16.964844 30.09375 17.230469 30.09375 17.507812 C 30.09375 17.785156 30.042969 18.054688 29.9375 18.3125 C 29.828125 18.566406 29.679688 18.792969 29.480469 18.992188 C 29.285156 19.1875 29.058594 19.339844 28.800781 19.445312 C 28.542969 19.550781 28.277344 19.605469 28 19.605469 Z M 28 19.605469 " fill-opacity="1" fill-rule="nonzero"/></g><g clip-path="url(#ba16c3d6f4)"><path fill="#ff00de" d="M 25.386719 18.355469 L 10.613281 18.355469 C 10.148438 18.355469 9.769531 17.976562 9.769531 17.511719 C 9.769531 17.046875 10.148438 16.671875 10.613281 16.671875 L 25.386719 16.671875 C 25.851562 16.671875 26.230469 17.046875 26.230469 17.511719 C 26.230469 17.976562 25.851562 18.355469 25.386719 18.355469 Z M 27.660156 7.851562 C 25.082031 5.269531 21.648438 3.847656 18 3.847656 C 14.351562 3.847656 10.917969 5.269531 8.335938 7.851562 C 5.757812 10.433594 4.335938 13.863281 4.335938 17.511719 C 4.335938 21.164062 5.757812 24.59375 8.335938 27.175781 C 10.917969 29.753906 14.351562 31.175781 18 31.175781 C 21.648438 31.175781 25.082031 29.753906 27.660156 27.175781 C 30.242188 24.59375 31.664062 21.164062 31.664062 17.511719 C 31.664062 13.863281 30.242188 10.433594 27.660156 7.851562 " fill-opacity="1" fill-rule="nonzero"/><path stroke-linecap="butt" transform="matrix(0.00248442, 0, 0, -0.00248442, 4.322779, 31.189758)" fill="none" stroke-linejoin="miter" d="M 8478.413957 5165.910188 L 2531.980249 5165.910188 C 2344.876703 5165.910188 2192.363729 5318.423163 2192.363729 5505.526709 C 2192.363729 5692.630255 2344.876703 5843.570931 2531.980249 5843.570931 L 8478.413957 5843.570931 C 8665.517503 5843.570931 8818.030477 5692.630255 8818.030477 5505.526709 C 8818.030477 5318.423163 8665.517503 5165.910188 8478.413957 5165.910188 Z M 9393.491804 9393.82141 C 8355.774657 10433.110854 6973.724095 11005.427584 5505.197103 11005.427584 C 4036.670111 11005.427584 2654.619548 10433.110854 1615.330103 9393.82141 C 577.612957 8354.531965 5.296228 6974.0537 5.296228 5505.526709 C 5.296228 4035.427418 577.612957 2654.949154 1615.330103 1615.659709 C 2654.619548 577.942563 4036.670111 5.625834 5505.197103 5.625834 C 6973.724095 5.625834 8355.774657 577.942563 9393.491804 1615.659709 C 10432.781249 2654.949154 11005.097978 4035.427418 11005.097978 5505.526709 C 11005.097978 6974.0537 10432.781249 8354.531965 9393.491804 9393.82141 Z M 9393.491804 9393.82141 " stroke="#12110f" stroke-width="10" stroke-opacity="1" stroke-miterlimit="10"/></g><g clip-path="url(#7d48bc75a8)"><path fill="#292f33" d="M 30.113281 17.46875 C 30.113281 18.675781 29.105469 19.65625 27.859375 19.65625 L 8.359375 19.65625 C 7.113281 19.65625 6.105469 18.675781 6.105469 17.46875 C 6.105469 16.257812 7.113281 15.277344 8.359375 15.277344 L 27.859375 15.277344 C 29.105469 15.277344 30.113281 16.257812 30.113281 17.46875 Z M 30.113281 17.46875 " fill-opacity="1" fill-rule="nonzero"/></g></svg>