<svg xmlns="http://www.w3.org/2000/svg" xmlns:xlink="http://www.w3.org/1999/xlink" width="48" zoomAndPan="magnify" viewBox="0 0 36 36.000001" height="48" preserveAspectRatio="xMidYMid meet" version="1.0"><defs><clipPath id="5cec4b5161"><path d="M 12 0.554688 L 19 0.554688 L 19 7 L 12 7 Z M 12 0.554688 " clip-rule="nonzero"/></clipPath><clipPath id="08bda8e7bb"><path d="M 11.640625 7 L 19 7 L 19 34.125 L 11.640625 34.125 Z M 11.640625 7 " clip-rule="nonzero"/></clipPath></defs><path fill="#ff00de" d="M 18.921875 17.882812 C 18.871094 19.253906 19.027344 19.78125 18.761719 20.679688 L 20.085938 19.625 L 19.765625 23.425781 C 19.714844 24.273438 20.347656 25.0625 21.246094 25.117188 C 21.300781 25.117188 21.351562 25.117188 21.351562 25.117188 C 22.144531 25.117188 22.882812 24.484375 22.9375 23.636719 L 23.304688 19.097656 C 23.09375 19.203125 22.882812 19.253906 22.621094 19.253906 C 21.878906 19.308594 19.554688 18.25 18.921875 17.882812 Z M 18.921875 17.882812 " fill-opacity="1" fill-rule="nonzero"/><path fill="#ff00de" d="M 23.464844 16.402344 C 23.464844 16.347656 23.675781 15.1875 22.621094 14.660156 C 21.457031 14.023438 20.664062 15.082031 20.507812 15.132812 C 22.089844 15.980469 23.148438 16.136719 23.464844 16.402344 Z M 23.464844 16.402344 " fill-opacity="1" fill-rule="nonzero"/><g clip-path="url(#5cec4b5161)"><path fill="#ff00de" d="M 18.289062 3.621094 C 18.289062 4.027344 18.210938 4.417969 18.054688 4.792969 C 17.898438 5.167969 17.679688 5.5 17.390625 5.785156 C 17.105469 6.074219 16.773438 6.292969 16.398438 6.449219 C 16.023438 6.605469 15.632812 6.683594 15.226562 6.683594 C 14.820312 6.683594 14.425781 6.605469 14.050781 6.449219 C 13.675781 6.292969 13.347656 6.074219 13.058594 5.785156 C 12.769531 5.5 12.550781 5.167969 12.394531 4.792969 C 12.238281 4.417969 12.160156 4.027344 12.160156 3.621094 C 12.160156 3.214844 12.238281 2.824219 12.394531 2.449219 C 12.550781 2.070312 12.769531 1.742188 13.058594 1.453125 C 13.347656 1.167969 13.675781 0.945312 14.050781 0.789062 C 14.425781 0.632812 14.820312 0.554688 15.226562 0.554688 C 15.632812 0.554688 16.023438 0.632812 16.398438 0.789062 C 16.773438 0.945312 17.105469 1.167969 17.390625 1.453125 C 17.679688 1.742188 17.898438 2.070312 18.054688 2.449219 C 18.210938 2.824219 18.289062 3.214844 18.289062 3.621094 Z M 18.289062 3.621094 " fill-opacity="1" fill-rule="nonzero"/></g><g clip-path="url(#08bda8e7bb)"><path fill="#ff00de" d="M 13.585938 10.484375 C 13.691406 9.695312 14.378906 9.007812 15.332031 9.113281 C 16.175781 9.21875 16.808594 10.011719 16.703125 10.855469 C 16.703125 10.855469 16.652344 12.230469 18.394531 13.761719 L 18.394531 10.59375 C 18.394531 8.847656 16.96875 7.421875 15.226562 7.421875 C 13.480469 7.421875 12.054688 8.847656 12.054688 10.59375 L 12.054688 19.570312 C 12.054688 20.046875 12.160156 20.523438 12.371094 20.945312 L 12.582031 25.488281 L 11.84375 32.617188 C 11.738281 33.460938 12.371094 34.253906 13.269531 34.359375 C 14.117188 34.464844 14.90625 33.832031 15.011719 32.933594 C 15.859375 24.484375 15.859375 26.277344 15.648438 22.6875 C 17.230469 22.476562 18.394531 21.15625 18.394531 19.570312 L 18.394531 17.617188 C 15.753906 16.085938 13.269531 13.234375 13.585938 10.484375 Z M 13.585938 10.484375 " fill-opacity="1" fill-rule="nonzero"/></g><path fill="#ff00de" d="M 22.9375 16.71875 C 16.015625 14.394531 16.175781 10.960938 16.175781 10.75 C 16.226562 10.167969 15.804688 9.640625 15.226562 9.589844 C 14.644531 9.535156 14.117188 9.957031 14.0625 10.539062 C 14.0625 10.75 13.535156 15.820312 22.195312 18.726562 C 23.570312 19.148438 24.257812 17.195312 22.9375 16.71875 Z M 22.9375 16.71875 " fill-opacity="1" fill-rule="nonzero"/></svg>