<svg xmlns="http://www.w3.org/2000/svg" xmlns:xlink="http://www.w3.org/1999/xlink" width="48" zoomAndPan="magnify" viewBox="0 0 36 36.000001" height="48" preserveAspectRatio="xMidYMid meet" version="1.0"><defs><clipPath id="4ef41843ee"><path d="M 0.902344 2.839844 L 35.199219 2.839844 L 35.199219 32.03125 L 0.902344 32.03125 Z M 0.902344 2.839844 " clip-rule="nonzero"/></clipPath></defs><g clip-path="url(#4ef41843ee)"><path fill="#ff00de" d="M 17.777344 2.84375 C 17.445312 2.84375 17.125 2.894531 16.808594 2.996094 C 16.492188 3.097656 16.199219 3.242188 15.929688 3.433594 C 15.660156 3.625 15.425781 3.851562 15.226562 4.117188 C 15.027344 4.378906 14.875 4.667969 14.761719 4.976562 L 6.042969 4.976562 L 6.042969 7.113281 L 7.023438 7.113281 C 7.25 7.117188 7.363281 7.125 7.394531 7.148438 L 2.726562 17.578125 C 2.71875 17.585938 2.707031 17.589844 2.6875 17.59375 L 0.953125 17.59375 C 0.953125 17.953125 1.039062 18.304688 1.207031 18.652344 C 1.378906 18.996094 1.625 19.324219 1.953125 19.636719 C 2.28125 19.945312 2.675781 20.226562 3.140625 20.480469 C 3.605469 20.734375 4.121094 20.949219 4.6875 21.128906 C 5.84375 21.492188 7.085938 21.675781 8.421875 21.675781 C 9.753906 21.675781 11 21.492188 12.15625 21.128906 C 12.710938 20.953125 13.214844 20.742188 13.671875 20.496094 C 14.128906 20.25 14.519531 19.972656 14.84375 19.671875 C 15.171875 19.371094 15.421875 19.050781 15.597656 18.714844 C 15.773438 18.375 15.867188 18.03125 15.878906 17.679688 L 15.886719 17.636719 C 15.886719 17.621094 15.886719 17.609375 15.886719 17.59375 L 14.121094 17.59375 L 9.445312 7.148438 C 9.472656 7.128906 10.394531 7.113281 11.585938 7.113281 L 14.761719 7.113281 C 14.925781 7.566406 15.175781 7.964844 15.515625 8.304688 C 15.855469 8.644531 16.253906 8.898438 16.710938 9.058594 L 16.710938 27.914062 L 2.839844 27.914062 L 2.839844 32.183594 L 32.710938 32.183594 L 32.710938 27.914062 L 18.84375 27.914062 L 18.84375 9.058594 C 19.296875 8.898438 19.695312 8.644531 20.035156 8.304688 C 20.378906 7.964844 20.628906 7.566406 20.789062 7.113281 L 24.472656 7.113281 C 25.683594 7.117188 26.601562 7.128906 26.640625 7.144531 L 21.914062 17.707031 L 21.59375 17.710938 L 20.101562 17.710938 C 20.101562 18.070312 20.1875 18.421875 20.355469 18.769531 C 20.527344 19.113281 20.773438 19.441406 21.101562 19.753906 C 21.429688 20.0625 21.824219 20.34375 22.289062 20.597656 C 22.753906 20.851562 23.269531 21.066406 23.835938 21.246094 C 24.992188 21.609375 26.234375 21.792969 27.570312 21.792969 C 28.902344 21.792969 30.148438 21.609375 31.304688 21.246094 C 31.871094 21.066406 32.386719 20.851562 32.851562 20.597656 C 33.3125 20.34375 33.710938 20.0625 34.035156 19.753906 C 34.363281 19.441406 34.613281 19.113281 34.78125 18.769531 C 34.953125 18.421875 35.039062 18.070312 35.039062 17.710938 L 33.082031 17.710938 L 28.347656 7.132812 L 28.914062 7.121094 L 29.265625 7.113281 L 29.511719 7.113281 L 29.511719 4.976562 L 20.789062 4.976562 C 20.679688 4.667969 20.523438 4.378906 20.324219 4.113281 C 20.125 3.851562 19.890625 3.625 19.621094 3.433594 C 19.351562 3.242188 19.058594 3.097656 18.746094 2.996094 C 18.429688 2.894531 18.105469 2.84375 17.777344 2.84375 Z M 8.40625 7.5 C 8.425781 7.523438 8.675781 8.058594 9.042969 8.863281 L 12.945312 17.582031 C 12.929688 17.585938 12.894531 17.589844 12.855469 17.59375 L 3.980469 17.59375 C 3.933594 17.585938 3.910156 17.578125 3.902344 17.570312 Z M 27.496094 7.847656 C 27.496094 7.847656 27.5 7.851562 27.5 7.851562 L 31.90625 17.691406 C 31.890625 17.699219 31.566406 17.707031 31.121094 17.710938 L 23.582031 17.710938 C 23.289062 17.703125 23.140625 17.695312 23.09375 17.683594 Z M 27.496094 7.847656 " fill-opacity="1" fill-rule="nonzero"/></g></svg>