<svg xmlns="http://www.w3.org/2000/svg" xmlns:xlink="http://www.w3.org/1999/xlink" width="48" zoomAndPan="magnify" viewBox="0 0 36 36.000001" height="48" preserveAspectRatio="xMidYMid meet" version="1.0"><defs><clipPath id="116870fd7a"><path d="M 6 4 L 29.925781 4 L 29.925781 34 L 6 34 Z M 6 4 " clip-rule="nonzero"/></clipPath><clipPath id="a153854a29"><path d="M 5.84375 3 L 29.925781 3 L 29.925781 34 L 5.84375 34 Z M 5.84375 3 " clip-rule="nonzero"/></clipPath><clipPath id="0272ec02dd"><path d="M 13 1.25 L 23 1.25 L 23 7 L 13 7 Z M 13 1.25 " clip-rule="nonzero"/></clipPath></defs><g clip-path="url(#116870fd7a)"><path fill="#ff00de" d="M 28.445312 33.597656 L 7.5625 33.597656 C 6.730469 33.597656 6.054688 32.921875 6.054688 32.09375 L 6.054688 5.550781 C 6.054688 4.71875 6.730469 4.042969 7.5625 4.042969 L 28.429688 4.042969 C 29.257812 4.042969 29.933594 4.71875 29.933594 5.550781 L 29.933594 32.105469 C 29.941406 32.921875 29.257812 33.597656 28.445312 33.597656 Z M 28.445312 33.597656 " fill-opacity="1" fill-rule="nonzero"/></g><g clip-path="url(#a153854a29)"><path fill="#ff00de" d="M 28.445312 33.769531 L 7.5625 33.769531 C 6.632812 33.769531 5.882812 33.019531 5.882812 32.09375 L 5.882812 5.550781 C 5.882812 4.628906 6.632812 3.871094 7.5625 3.871094 L 28.429688 3.871094 C 29.347656 3.871094 30.105469 4.621094 30.105469 5.550781 L 30.105469 32.105469 C 30.113281 32.542969 29.949219 32.953125 29.632812 33.269531 C 29.320312 33.582031 28.886719 33.769531 28.445312 33.769531 Z M 7.5625 4.214844 C 6.828125 4.214844 6.226562 4.816406 6.226562 5.550781 L 6.226562 32.09375 C 6.226562 32.824219 6.828125 33.425781 7.5625 33.425781 L 28.445312 33.425781 C 28.796875 33.425781 29.140625 33.28125 29.386719 33.027344 C 29.632812 32.78125 29.761719 32.453125 29.761719 32.105469 L 29.761719 5.550781 C 29.761719 4.816406 29.164062 4.214844 28.429688 4.214844 Z M 7.5625 4.214844 " fill-opacity="1" fill-rule="nonzero"/></g><path fill="#ff00de" d="M 7.574219 5.550781 L 28.445312 5.550781 L 28.445312 32.105469 L 7.574219 32.105469 Z M 7.574219 5.550781 " fill-opacity="1" fill-rule="nonzero"/><path fill="#ff00de" d="M 28.445312 32.28125 L 7.574219 32.28125 C 7.476562 32.28125 7.402344 32.203125 7.402344 32.105469 L 7.402344 5.550781 C 7.402344 5.453125 7.476562 5.375 7.574219 5.375 L 28.445312 5.375 C 28.539062 5.375 28.617188 5.453125 28.617188 5.550781 L 28.617188 32.105469 C 28.617188 32.203125 28.539062 32.28125 28.445312 32.28125 Z M 7.742188 31.933594 L 28.269531 31.933594 L 28.269531 5.722656 L 7.742188 5.722656 Z M 7.742188 31.933594 " fill-opacity="1" fill-rule="nonzero"/><g clip-path="url(#0272ec02dd)"><path fill="#ffffff" d="M 19.773438 3.496094 C 19.789062 3.398438 19.796875 3.308594 19.796875 3.210938 C 19.796875 2.21875 18.988281 1.414062 18 1.414062 C 17.011719 1.414062 16.203125 2.222656 16.203125 3.210938 C 16.203125 3.308594 16.214844 3.414062 16.222656 3.496094 L 14.679688 3.496094 C 14.210938 3.496094 13.828125 3.878906 13.828125 4.351562 L 13.828125 6.515625 L 22.167969 6.515625 L 22.167969 4.359375 C 22.167969 3.886719 21.785156 3.503906 21.316406 3.503906 L 19.773438 3.503906 Z M 18 2.449219 C 18.417969 2.449219 18.769531 2.792969 18.769531 3.21875 C 18.769531 3.316406 18.746094 3.421875 18.710938 3.503906 C 18.710938 3.519531 18.695312 3.527344 18.695312 3.542969 C 18.679688 3.566406 18.671875 3.59375 18.640625 3.617188 C 18.628906 3.632812 18.621094 3.640625 18.621094 3.667969 C 18.605469 3.691406 18.582031 3.722656 18.566406 3.730469 C 18.550781 3.738281 18.542969 3.75 18.53125 3.765625 C 18.507812 3.789062 18.46875 3.828125 18.433594 3.855469 L 18.417969 3.871094 C 18.378906 3.894531 18.359375 3.910156 18.320312 3.925781 C 18.304688 3.925781 18.296875 3.9375 18.28125 3.9375 C 18.261719 3.953125 18.222656 3.960938 18.183594 3.960938 C 18.171875 3.960938 18.164062 3.976562 18.148438 3.976562 C 18.09375 3.992188 18.058594 3.992188 18.011719 3.992188 C 17.960938 3.992188 17.914062 3.992188 17.878906 3.976562 C 17.863281 3.976562 17.855469 3.960938 17.839844 3.960938 C 17.804688 3.945312 17.78125 3.945312 17.742188 3.9375 C 17.730469 3.9375 17.722656 3.925781 17.707031 3.925781 C 17.667969 3.910156 17.644531 3.886719 17.609375 3.871094 L 17.59375 3.855469 C 17.554688 3.835938 17.535156 3.804688 17.496094 3.765625 C 17.480469 3.75 17.472656 3.746094 17.460938 3.730469 C 17.4375 3.707031 17.421875 3.691406 17.40625 3.667969 C 17.390625 3.65625 17.382812 3.648438 17.382812 3.617188 C 17.371094 3.59375 17.363281 3.566406 17.332031 3.542969 C 17.332031 3.527344 17.316406 3.519531 17.316406 3.503906 C 17.28125 3.414062 17.257812 3.316406 17.257812 3.21875 C 17.226562 2.792969 17.578125 2.449219 18 2.449219 Z M 18 2.449219 " fill-opacity="1" fill-rule="nonzero"/><path fill="#ff00de" d="M 22.167969 6.6875 L 13.828125 6.6875 C 13.730469 6.6875 13.65625 6.613281 13.65625 6.515625 L 13.65625 4.359375 C 13.65625 3.789062 14.121094 3.332031 14.679688 3.332031 L 16.027344 3.332031 C 16.027344 3.296875 16.023438 3.257812 16.023438 3.21875 C 16.023438 2.132812 16.90625 1.25 17.992188 1.25 C 19.078125 1.25 19.960938 2.132812 19.960938 3.21875 C 19.960938 3.257812 19.960938 3.296875 19.953125 3.332031 L 21.300781 3.332031 C 21.871094 3.332031 22.324219 3.796875 22.324219 4.359375 L 22.324219 6.523438 C 22.339844 6.613281 22.265625 6.6875 22.167969 6.6875 Z M 14 6.351562 L 21.996094 6.351562 L 21.996094 4.359375 C 21.996094 3.984375 21.691406 3.675781 21.316406 3.675781 L 19.773438 3.675781 C 19.71875 3.675781 19.675781 3.65625 19.644531 3.617188 C 19.617188 3.578125 19.601562 3.535156 19.601562 3.480469 L 19.609375 3.453125 C 19.617188 3.371094 19.628906 3.296875 19.628906 3.21875 C 19.628906 2.320312 18.898438 1.589844 18 1.589844 C 17.101562 1.589844 16.367188 2.320312 16.367188 3.21875 C 16.367188 3.308594 16.375 3.398438 16.386719 3.480469 C 16.394531 3.535156 16.382812 3.578125 16.351562 3.617188 C 16.320312 3.65625 16.269531 3.675781 16.222656 3.675781 L 14.679688 3.675781 C 14.308594 3.675781 14 3.984375 14 4.359375 Z M 18.011719 4.140625 C 17.960938 4.140625 17.902344 4.140625 17.839844 4.125 C 17.820312 4.117188 17.804688 4.117188 17.796875 4.109375 C 17.796875 4.109375 17.789062 4.109375 17.789062 4.109375 C 17.78125 4.109375 17.765625 4.105469 17.757812 4.105469 C 17.742188 4.105469 17.722656 4.097656 17.707031 4.089844 C 17.683594 4.082031 17.667969 4.082031 17.660156 4.074219 C 17.660156 4.074219 17.652344 4.074219 17.652344 4.074219 C 17.617188 4.058594 17.585938 4.042969 17.570312 4.035156 C 17.5625 4.035156 17.5625 4.027344 17.554688 4.027344 C 17.535156 4.019531 17.511719 4.007812 17.488281 3.992188 C 17.445312 3.960938 17.414062 3.929688 17.375 3.894531 L 17.339844 3.855469 C 17.316406 3.835938 17.292969 3.8125 17.273438 3.773438 C 17.257812 3.75 17.234375 3.722656 17.21875 3.675781 C 17.21875 3.675781 17.21875 3.667969 17.210938 3.667969 C 17.191406 3.648438 17.175781 3.625 17.167969 3.59375 C 17.160156 3.585938 17.160156 3.570312 17.152344 3.558594 C 17.105469 3.445312 17.085938 3.332031 17.085938 3.226562 C 17.070312 2.980469 17.160156 2.75 17.324219 2.570312 C 17.496094 2.382812 17.742188 2.277344 18 2.277344 C 18.515625 2.277344 18.941406 2.695312 18.941406 3.21875 C 18.941406 3.332031 18.917969 3.445312 18.875 3.558594 C 18.875 3.570312 18.867188 3.578125 18.859375 3.59375 C 18.859375 3.601562 18.851562 3.617188 18.84375 3.625 C 18.828125 3.648438 18.8125 3.683594 18.777344 3.722656 C 18.777344 3.730469 18.769531 3.738281 18.769531 3.746094 C 18.746094 3.789062 18.71875 3.820312 18.6875 3.847656 L 18.648438 3.886719 C 18.621094 3.917969 18.582031 3.953125 18.539062 3.984375 C 18.53125 3.992188 18.523438 4 18.507812 4.007812 C 18.453125 4.035156 18.417969 4.058594 18.363281 4.074219 C 18.363281 4.074219 18.359375 4.074219 18.359375 4.074219 C 18.351562 4.074219 18.34375 4.082031 18.328125 4.082031 C 18.296875 4.097656 18.261719 4.105469 18.207031 4.109375 C 18.191406 4.117188 18.183594 4.117188 18.164062 4.125 C 18.109375 4.140625 18.066406 4.140625 18.011719 4.140625 Z M 17.921875 3.796875 C 17.945312 3.804688 17.984375 3.804688 18.011719 3.804688 C 18.058594 3.804688 18.082031 3.804688 18.101562 3.796875 C 18.117188 3.789062 18.148438 3.78125 18.183594 3.78125 C 18.191406 3.78125 18.199219 3.78125 18.207031 3.773438 C 18.214844 3.765625 18.230469 3.765625 18.238281 3.757812 C 18.246094 3.75 18.261719 3.75 18.273438 3.746094 C 18.289062 3.738281 18.296875 3.738281 18.3125 3.730469 C 18.320312 3.722656 18.328125 3.714844 18.335938 3.707031 C 18.359375 3.691406 18.386719 3.660156 18.410156 3.640625 L 18.449219 3.601562 C 18.449219 3.601562 18.453125 3.59375 18.453125 3.59375 C 18.46875 3.542969 18.507812 3.503906 18.523438 3.488281 C 18.523438 3.488281 18.53125 3.480469 18.53125 3.476562 C 18.53125 3.46875 18.539062 3.460938 18.539062 3.453125 C 18.539062 3.445312 18.542969 3.4375 18.542969 3.429688 C 18.574219 3.355469 18.589844 3.28125 18.589844 3.210938 C 18.589844 2.882812 18.320312 2.613281 17.992188 2.613281 C 17.832031 2.613281 17.675781 2.679688 17.5625 2.792969 C 17.460938 2.90625 17.40625 3.046875 17.414062 3.199219 C 17.414062 3.199219 17.414062 3.207031 17.414062 3.207031 C 17.414062 3.273438 17.429688 3.347656 17.460938 3.421875 C 17.460938 3.429688 17.464844 3.4375 17.464844 3.4375 C 17.488281 3.46875 17.503906 3.496094 17.519531 3.519531 C 17.527344 3.527344 17.527344 3.535156 17.527344 3.550781 C 17.535156 3.558594 17.535156 3.566406 17.542969 3.570312 C 17.542969 3.578125 17.550781 3.578125 17.554688 3.585938 L 17.59375 3.625 C 17.632812 3.660156 17.644531 3.675781 17.667969 3.691406 C 17.675781 3.691406 17.675781 3.699219 17.683594 3.699219 C 17.699219 3.707031 17.714844 3.714844 17.730469 3.722656 C 17.734375 3.722656 17.734375 3.730469 17.742188 3.730469 C 17.757812 3.730469 17.765625 3.738281 17.78125 3.746094 C 17.78125 3.746094 17.789062 3.746094 17.789062 3.746094 C 17.796875 3.746094 17.8125 3.75 17.820312 3.75 C 17.832031 3.75 17.855469 3.757812 17.871094 3.765625 C 17.894531 3.78125 17.910156 3.789062 17.921875 3.796875 Z M 17.921875 3.796875 " fill-opacity="1" fill-rule="nonzero"/></g></svg>