<svg xmlns="http://www.w3.org/2000/svg" xmlns:xlink="http://www.w3.org/1999/xlink" width="48" zoomAndPan="magnify" viewBox="0 0 36 36.000001" height="48" preserveAspectRatio="xMidYMid meet" version="1.0"><defs><clipPath id="5d3240c9af"><path d="M 4.867188 1.25 L 31.136719 1.25 L 31.136719 34 L 4.867188 34 Z M 4.867188 1.25 " clip-rule="nonzero"/></clipPath><clipPath id="bed8bccae0"><path d="M 6.65625 8.75 L 29.28125 8.75 L 29.28125 27.722656 L 6.65625 27.722656 Z M 6.65625 8.75 " clip-rule="nonzero"/></clipPath></defs><g clip-path="url(#5d3240c9af)"><path fill="#ff00de" d="M 17.996094 1.261719 C 15.285156 4.339844 8.96875 6.503906 4.867188 6.503906 L 4.867188 14.265625 C 4.867188 23.597656 10.402344 31.050781 17.996094 33.761719 C 25.601562 31.050781 31.125 23.597656 31.125 14.265625 L 31.125 6.503906 C 27.035156 6.503906 20.714844 4.339844 17.996094 1.261719 Z M 17.996094 1.261719 " fill-opacity="1" fill-rule="nonzero"/></g><g clip-path="url(#bed8bccae0)"><path fill="#000000" d="M 14.46875 27.9375 C 14.460938 27.9375 14.453125 27.9375 14.445312 27.9375 L 14.441406 27.9375 C 14.359375 27.933594 14.277344 27.917969 14.199219 27.890625 C 13.113281 27.511719 12.367188 26.882812 11.441406 25.921875 C 10.867188 25.332031 10.34375 24.738281 9.875 24.160156 L 9.871094 24.15625 C 8.773438 22.882812 7.933594 21.785156 6.972656 20.371094 C 6.679688 19.9375 6.722656 19.390625 7.097656 18.734375 L 7.101562 18.730469 C 7.238281 18.472656 7.367188 18.28125 7.515625 18.117188 L 7.617188 18 L 7.609375 17.988281 C 8.0625 17.394531 8.738281 16.644531 9.523438 16.644531 C 9.621094 16.644531 9.722656 16.65625 9.816406 16.679688 C 10.125 16.753906 10.425781 16.960938 10.617188 17.234375 L 10.625 17.246094 L 10.632812 17.253906 C 11.007812 17.675781 11.367188 18.128906 11.714844 18.570312 C 12.210938 19.195312 12.722656 19.839844 13.289062 20.414062 C 13.3125 20.441406 13.390625 20.519531 13.449219 20.570312 C 13.636719 20.714844 13.808594 20.835938 14.027344 20.835938 C 14.273438 20.835938 14.519531 20.695312 14.945312 20.3125 C 16 19.371094 17.054688 18.308594 18.074219 17.285156 C 18.84375 16.507812 19.644531 15.707031 20.441406 14.953125 C 21.441406 14.007812 24.175781 11.617188 25.257812 10.714844 C 26.136719 9.976562 26.9375 9.324219 27.796875 8.792969 C 27.84375 8.765625 27.90625 8.75 27.980469 8.75 C 28.25 8.75 28.609375 8.941406 28.773438 9.125 C 28.992188 9.359375 29.101562 9.480469 29.164062 9.613281 C 29.226562 9.746094 29.25 9.914062 29.296875 10.25 C 29.316406 10.402344 29.269531 10.5625 29.164062 10.679688 C 28.0625 11.914062 26.160156 14.09375 24.480469 16.019531 L 24.476562 16.023438 C 23.617188 17.003906 22.808594 17.933594 22.230469 18.589844 C 20.777344 20.246094 19.738281 21.664062 18.539062 23.304688 C 17.945312 24.113281 17.328125 24.953125 16.597656 25.910156 L 16.59375 25.917969 C 16.085938 26.65625 15.609375 27.21875 15.136719 27.636719 C 15.042969 27.71875 14.941406 27.789062 14.832031 27.847656 C 14.722656 27.90625 14.597656 27.9375 14.46875 27.9375 " fill-opacity="1" fill-rule="nonzero"/></g></svg>