<svg xmlns="http://www.w3.org/2000/svg" xmlns:xlink="http://www.w3.org/1999/xlink" width="48" zoomAndPan="magnify" viewBox="0 0 36 36.000001" height="48" preserveAspectRatio="xMidYMid meet" version="1.0"><defs><clipPath id="5fb34b6dbf"><path d="M 20 12.054688 L 30 12.054688 L 30 22 L 20 22 Z M 20 12.054688 " clip-rule="nonzero"/></clipPath><clipPath id="87d4be0e07"><path d="M 26 12.054688 L 34.902344 12.054688 L 34.902344 21 L 26 21 Z M 26 12.054688 " clip-rule="nonzero"/></clipPath><clipPath id="0aba47244f"><path d="M 1.335938 14 L 8 14 L 8 21 L 1.335938 21 Z M 1.335938 14 " clip-rule="nonzero"/></clipPath><clipPath id="c7a9f26b36"><path d="M 13 12.054688 L 21 12.054688 L 21 18 L 13 18 Z M 13 12.054688 " clip-rule="nonzero"/></clipPath><clipPath id="739f50e7b5"><path d="M 13 12.054688 L 20 12.054688 L 20 18 L 13 18 Z M 13 12.054688 " clip-rule="nonzero"/></clipPath></defs><g clip-path="url(#5fb34b6dbf)"><path fill="#ff00de" d="M 21.3125 20.726562 C 21.902344 21.316406 22.855469 21.316406 23.441406 20.726562 L 28.824219 15.34375 C 29.414062 14.757812 29.414062 13.804688 28.824219 13.21875 C 28.238281 12.628906 27.285156 12.628906 26.695312 13.21875 L 21.3125 18.601562 C 20.726562 19.1875 20.726562 20.140625 21.3125 20.726562 " fill-opacity="1" fill-rule="nonzero"/></g><g clip-path="url(#87d4be0e07)"><path fill="#ff00de" d="M 26.800781 13.21875 C 26.210938 13.804688 26.210938 14.757812 26.800781 15.34375 L 31.929688 20.472656 C 32.515625 21.0625 33.46875 21.058594 34.054688 20.472656 C 34.644531 19.886719 34.644531 18.933594 34.058594 18.34375 L 28.925781 13.21875 C 28.339844 12.628906 27.386719 12.628906 26.800781 13.21875 " fill-opacity="1" fill-rule="nonzero"/></g><g clip-path="url(#0aba47244f)"><path fill="#ff00de" d="M 4.308594 14.054688 C 5.960938 14 7.347656 15.296875 7.402344 16.953125 C 7.457031 18.609375 6.160156 19.996094 4.503906 20.050781 C 2.851562 20.105469 1.460938 18.804688 1.410156 17.152344 C 1.355469 15.496094 2.652344 14.109375 4.308594 14.054688 " fill-opacity="1" fill-rule="nonzero"/></g><path fill="#ff00de" d="M 21.238281 17.75 C 22.402344 17.710938 23.367188 18.382812 23.398438 19.253906 C 23.398438 19.253906 23.671875 20.3125 22.789062 21.246094 C 21.570312 22.53125 8.636719 22.96875 7.742188 21.328125 C 7.246094 20.421875 7.4375 19.96875 7.4375 19.96875 C 7.40625 19.097656 8.582031 18.167969 9.746094 18.128906 L 21.238281 17.75 " fill-opacity="1" fill-rule="nonzero"/><g clip-path="url(#c7a9f26b36)"><path fill="#000000" d="M 19.652344 12.882812 C 19.414062 12.539062 18.941406 12.453125 18.597656 12.691406 L 13.984375 15.890625 C 13.640625 16.128906 13.554688 16.601562 13.792969 16.945312 L 13.652344 17.042969 L 13.792969 16.945312 C 13.910156 17.113281 14.082031 17.222656 14.28125 17.261719 C 14.480469 17.296875 14.683594 17.25 14.847656 17.136719 L 19.460938 13.9375 C 19.804688 13.699219 19.890625 13.226562 19.652344 12.882812 Z M 13.507812 17.144531 C 13.160156 16.640625 13.285156 15.953125 13.785156 15.605469 L 18.398438 12.40625 C 18.898438 12.058594 19.589844 12.183594 19.9375 12.683594 C 20.285156 13.183594 20.160156 13.875 19.660156 14.222656 L 15.046875 17.421875 C 14.804688 17.589844 14.511719 17.652344 14.21875 17.601562 C 13.929688 17.550781 13.675781 17.386719 13.507812 17.144531 " fill-opacity="1" fill-rule="nonzero"/></g><path fill="#000000" d="M 14.808594 16.242188 C 14.691406 16.074219 14.519531 15.964844 14.316406 15.929688 C 14.121094 15.890625 13.917969 15.933594 13.75 16.050781 L 9.136719 19.25 C 8.972656 19.367188 8.859375 19.539062 8.824219 19.738281 C 8.789062 19.9375 8.832031 20.140625 8.945312 20.304688 L 8.804688 20.40625 L 8.949219 20.304688 C 9.183594 20.648438 9.660156 20.734375 10.003906 20.496094 L 14.617188 17.296875 C 14.960938 17.058594 15.046875 16.585938 14.808594 16.242188 Z M 8.664062 20.503906 C 8.492188 20.261719 8.429688 19.964844 8.480469 19.675781 C 8.535156 19.386719 8.699219 19.132812 8.941406 18.964844 L 13.554688 15.765625 C 13.796875 15.597656 14.089844 15.535156 14.378906 15.585938 C 14.671875 15.636719 14.925781 15.800781 15.09375 16.042969 C 15.441406 16.542969 15.3125 17.234375 14.8125 17.582031 L 10.199219 20.78125 C 9.699219 21.128906 9.007812 21.003906 8.664062 20.503906 " fill-opacity="1" fill-rule="nonzero"/><g clip-path="url(#739f50e7b5)"><path fill="#ff00de" d="M 19.796875 12.78125 C 20.089844 13.207031 19.984375 13.785156 19.5625 14.078125 L 14.949219 17.28125 C 14.523438 17.574219 13.941406 17.46875 13.652344 17.042969 C 13.355469 16.621094 13.460938 16.039062 13.886719 15.746094 L 18.5 12.546875 C 18.921875 12.253906 19.503906 12.359375 19.796875 12.78125 " fill-opacity="1" fill-rule="nonzero"/></g><path fill="#ff00de" d="M 14.949219 16.144531 C 15.242188 16.566406 15.136719 17.144531 14.714844 17.441406 L 10.101562 20.640625 C 9.679688 20.933594 9.097656 20.828125 8.804688 20.40625 C 8.511719 19.980469 8.617188 19.402344 9.039062 19.109375 L 13.652344 15.90625 C 14.074219 15.613281 14.65625 15.71875 14.949219 16.144531 " fill-opacity="1" fill-rule="nonzero"/></svg>