<svg xmlns="http://www.w3.org/2000/svg" xmlns:xlink="http://www.w3.org/1999/xlink" width="48" zoomAndPan="magnify" viewBox="0 0 36 36.000001" height="48" preserveAspectRatio="xMidYMid meet" version="1.0"><defs><clipPath id="603f1be666"><path d="M 2.835938 0.832031 L 33.484375 0.832031 L 33.484375 34.402344 L 2.835938 34.402344 Z M 2.835938 0.832031 " clip-rule="nonzero"/></clipPath></defs><path fill="#ff00de" d="M 11.847656 5.382812 C 11.207031 5.382812 10.582031 5.382812 10.066406 5.453125 C 9.484375 5.53125 8.820312 5.71875 8.269531 6.269531 C 7.71875 6.820312 7.53125 7.484375 7.453125 8.066406 C 7.382812 8.578125 7.382812 9.203125 7.382812 9.847656 L 7.382812 10.011719 C 7.382812 10.65625 7.382812 11.28125 7.453125 11.796875 C 7.53125 12.375 7.71875 13.039062 8.269531 13.589844 C 8.820312 14.140625 9.484375 14.332031 10.066406 14.410156 C 10.582031 14.476562 11.207031 14.476562 11.847656 14.476562 L 24.140625 14.476562 C 24.785156 14.476562 25.40625 14.476562 25.921875 14.410156 C 26.503906 14.332031 27.167969 14.140625 27.71875 13.589844 C 28.269531 13.039062 28.457031 12.375 28.535156 11.796875 C 28.605469 11.28125 28.605469 10.65625 28.605469 10.011719 L 28.605469 9.847656 C 28.605469 9.203125 28.605469 8.578125 28.535156 8.066406 C 28.457031 7.484375 28.269531 6.820312 27.71875 6.269531 C 27.167969 5.71875 26.503906 5.53125 25.921875 5.453125 C 25.40625 5.382812 24.785156 5.382812 24.140625 5.382812 Z M 10.457031 8.46875 L 10.457031 8.457031 L 10.46875 8.457031 C 10.757812 8.417969 11.171875 8.414062 11.929688 8.414062 L 24.058594 8.414062 C 24.816406 8.414062 25.230469 8.417969 25.519531 8.457031 L 25.53125 8.457031 L 25.53125 8.46875 C 25.570312 8.757812 25.574219 9.171875 25.574219 9.929688 C 25.574219 10.6875 25.570312 11.101562 25.53125 11.390625 L 25.53125 11.402344 L 25.519531 11.402344 C 25.230469 11.441406 24.816406 11.445312 24.058594 11.445312 L 11.929688 11.445312 C 11.171875 11.445312 10.757812 11.441406 10.46875 11.402344 L 10.457031 11.402344 L 10.457031 11.390625 C 10.417969 11.101562 10.414062 10.6875 10.414062 9.929688 C 10.414062 9.171875 10.417969 8.757812 10.457031 8.46875 Z M 10.457031 8.46875 " fill-opacity="1" fill-rule="evenodd"/><path fill="#ff00de" d="M 7.382812 17.507812 C 7.382812 16.671875 8.0625 15.992188 8.898438 15.992188 L 11.929688 15.992188 C 12.769531 15.992188 13.445312 16.671875 13.445312 17.507812 L 13.445312 20.542969 C 13.445312 21.378906 12.769531 22.058594 11.929688 22.058594 L 8.898438 22.058594 C 8.0625 22.058594 7.382812 21.378906 7.382812 20.542969 Z M 7.382812 17.507812 " fill-opacity="1" fill-rule="nonzero"/><path fill="#ff00de" d="M 8.898438 23.574219 C 8.0625 23.574219 7.382812 24.25 7.382812 25.089844 L 7.382812 28.121094 C 7.382812 28.957031 8.0625 29.636719 8.898438 29.636719 L 11.929688 29.636719 C 12.769531 29.636719 13.445312 28.957031 13.445312 28.121094 L 13.445312 25.089844 C 13.445312 24.25 12.769531 23.574219 11.929688 23.574219 Z M 8.898438 23.574219 " fill-opacity="1" fill-rule="nonzero"/><path fill="#ff00de" d="M 14.960938 17.507812 C 14.960938 16.671875 15.640625 15.992188 16.480469 15.992188 L 19.511719 15.992188 C 20.347656 15.992188 21.027344 16.671875 21.027344 17.507812 L 21.027344 20.542969 C 21.027344 21.378906 20.347656 22.058594 19.511719 22.058594 L 16.480469 22.058594 C 15.640625 22.058594 14.960938 21.378906 14.960938 20.542969 Z M 14.960938 17.507812 " fill-opacity="1" fill-rule="nonzero"/><path fill="#ff00de" d="M 24.058594 15.992188 C 23.222656 15.992188 22.542969 16.671875 22.542969 17.507812 L 22.542969 20.542969 C 22.542969 21.378906 23.222656 22.058594 24.058594 22.058594 L 27.089844 22.058594 C 27.925781 22.058594 28.605469 21.378906 28.605469 20.542969 L 28.605469 17.507812 C 28.605469 16.671875 27.925781 15.992188 27.089844 15.992188 Z M 24.058594 15.992188 " fill-opacity="1" fill-rule="nonzero"/><path fill="#ff00de" d="M 14.960938 25.089844 C 14.960938 24.25 15.640625 23.574219 16.480469 23.574219 L 19.511719 23.574219 C 20.347656 23.574219 21.027344 24.25 21.027344 25.089844 L 21.027344 28.121094 C 21.027344 28.957031 20.347656 29.636719 19.511719 29.636719 L 16.480469 29.636719 C 15.640625 29.636719 14.960938 28.957031 14.960938 28.121094 Z M 14.960938 25.089844 " fill-opacity="1" fill-rule="nonzero"/><path fill="#ff00de" d="M 24.058594 23.574219 C 23.222656 23.574219 22.542969 24.25 22.542969 25.089844 L 22.542969 28.121094 C 22.542969 28.957031 23.222656 29.636719 24.058594 29.636719 L 27.089844 29.636719 C 27.925781 29.636719 28.605469 28.957031 28.605469 28.121094 L 28.605469 25.089844 C 28.605469 24.25 27.925781 23.574219 27.089844 23.574219 Z M 24.058594 23.574219 " fill-opacity="1" fill-rule="nonzero"/><g clip-path="url(#603f1be666)"><path fill="#ff00de" d="M 19.621094 0.835938 L 16.367188 0.835938 C 13.605469 0.835938 11.375 0.835938 9.625 1.070312 C 7.804688 1.316406 6.273438 1.839844 5.054688 3.054688 C 3.839844 4.269531 3.316406 5.804688 3.070312 7.621094 C 2.835938 9.375 2.835938 11.601562 2.835938 14.367188 L 2.835938 20.652344 C 2.835938 23.417969 2.835938 25.644531 3.070312 27.398438 C 3.316406 29.214844 3.839844 30.746094 5.054688 31.964844 C 6.273438 33.179688 7.804688 33.703125 9.625 33.949219 C 11.375 34.183594 13.605469 34.183594 16.367188 34.183594 L 19.621094 34.183594 C 22.386719 34.183594 24.613281 34.183594 26.367188 33.949219 C 28.183594 33.703125 29.71875 33.179688 30.933594 31.964844 C 32.148438 30.746094 32.671875 29.214844 32.917969 27.398438 C 33.152344 25.644531 33.152344 23.417969 33.152344 20.652344 L 33.152344 14.367188 C 33.152344 11.601562 33.152344 9.375 32.917969 7.621094 C 32.671875 5.804688 32.148438 4.269531 30.933594 3.054688 C 29.71875 1.839844 28.183594 1.316406 26.367188 1.070312 C 24.613281 0.835938 22.386719 0.835938 19.621094 0.835938 Z M 7.199219 5.199219 C 7.757812 4.640625 8.542969 4.273438 10.027344 4.074219 C 11.554688 3.871094 13.578125 3.867188 16.480469 3.867188 L 19.511719 3.867188 C 22.410156 3.867188 24.433594 3.871094 25.960938 4.074219 C 27.445312 4.273438 28.230469 4.640625 28.789062 5.199219 C 29.347656 5.757812 29.714844 6.542969 29.914062 8.027344 C 30.117188 9.554688 30.121094 11.578125 30.121094 14.476562 L 30.121094 20.542969 C 30.121094 23.441406 30.117188 25.464844 29.914062 26.992188 C 29.714844 28.476562 29.347656 29.261719 28.789062 29.820312 C 28.230469 30.378906 27.445312 30.746094 25.960938 30.945312 C 24.433594 31.148438 22.410156 31.152344 19.511719 31.152344 L 16.480469 31.152344 C 13.578125 31.152344 11.554688 31.148438 10.027344 30.945312 C 8.542969 30.746094 7.757812 30.378906 7.199219 29.820312 C 6.640625 29.261719 6.273438 28.476562 6.074219 26.992188 C 5.871094 25.464844 5.867188 23.441406 5.867188 20.542969 L 5.867188 14.476562 C 5.867188 11.578125 5.871094 9.554688 6.074219 8.027344 C 6.273438 6.542969 6.640625 5.757812 7.199219 5.199219 Z M 7.199219 5.199219 " fill-opacity="1" fill-rule="evenodd"/></g></svg>