<svg xmlns="http://www.w3.org/2000/svg" xmlns:xlink="http://www.w3.org/1999/xlink" width="48" zoomAndPan="magnify" viewBox="0 0 36 36.000001" height="48" preserveAspectRatio="xMidYMid meet" version="1.0"><defs><clipPath id="ea8f9acafd"><path d="M 3.863281 0.15625 L 32.320312 0.15625 L 32.320312 35 L 3.863281 35 Z M 3.863281 0.15625 " clip-rule="nonzero"/></clipPath></defs><g clip-path="url(#ea8f9acafd)"><path fill="#ff00de" d="M 31.960938 32.539062 L 30.414062 30.992188 C 30.121094 30.699219 29.957031 30.296875 29.957031 29.882812 L 29.957031 23.71875 C 29.957031 23.609375 29.925781 23.507812 29.863281 23.417969 L 26.011719 17.640625 L 26.671875 14.1875 C 27.332031 11.902344 27.644531 10.128906 27.773438 9.265625 C 27.839844 8.75 27.675781 8.253906 27.328125 7.902344 C 27.324219 7.898438 27.316406 7.894531 27.3125 7.890625 C 27.058594 7.652344 26.777344 7.507812 26.472656 7.460938 C 25.667969 7.304688 24.898438 7.75 24.632812 8.527344 L 23.671875 11.425781 L 25.476562 4.222656 C 25.613281 3.671875 25.445312 3.078125 25.039062 2.671875 C 24.871094 2.5 24.667969 2.371094 24.414062 2.269531 C 24.402344 2.265625 24.390625 2.261719 24.378906 2.257812 C 23.515625 1.984375 22.589844 2.46875 22.3125 3.332031 C 22.308594 3.339844 22.308594 3.347656 22.304688 3.359375 L 20.304688 10.816406 L 20.28125 10.8125 L 20.867188 2.015625 C 20.898438 1.519531 20.71875 1.058594 20.363281 0.714844 C 20.128906 0.464844 19.832031 0.300781 19.5 0.238281 C 19.039062 0.15625 18.558594 0.265625 18.179688 0.542969 C 17.796875 0.820312 17.554688 1.230469 17.492188 1.707031 L 16.722656 8.734375 L 16.46875 2.40625 C 16.46875 2.40625 16.46875 2.394531 16.46875 2.390625 C 16.4375 1.957031 16.269531 1.566406 15.984375 1.265625 C 15.980469 1.257812 15.972656 1.25 15.964844 1.242188 C 15.640625 0.933594 15.199219 0.757812 14.75 0.757812 C 13.804688 0.757812 13.039062 1.527344 13.039062 2.46875 C 13.039062 9.367188 12.902344 14.15625 12.675781 15.308594 C 12.664062 15.359375 12.65625 15.40625 12.652344 15.441406 C 12.519531 15.949219 12.128906 16.335938 11.601562 16.480469 C 11.035156 16.636719 10.433594 16.480469 10.035156 16.070312 L 7.308594 12.71875 C 7.296875 12.703125 7.285156 12.691406 7.273438 12.679688 C 6.914062 12.316406 6.429688 12.117188 5.914062 12.117188 C 5.207031 12.117188 4.550781 12.503906 4.207031 13.125 C 3.863281 13.738281 3.882812 14.464844 4.253906 15.058594 C 4.988281 16.25 5.882812 17.800781 6.828125 19.445312 C 8.679688 22.667969 10.429688 25.710938 11.292969 26.558594 C 11.832031 27.097656 12.417969 27.527344 13.007812 27.820312 L 12.632812 32.105469 C 12.621094 32.242188 12.660156 32.378906 12.742188 32.484375 C 12.816406 32.582031 14.597656 34.816406 18.035156 34.859375 C 18.101562 34.859375 18.164062 34.859375 18.226562 34.859375 C 21.449219 34.859375 23.148438 33.730469 23.222656 33.683594 C 23.234375 33.675781 23.246094 33.664062 23.257812 33.65625 C 23.539062 34.054688 23.753906 34.277344 23.785156 34.308594 C 23.847656 34.375 23.929688 34.421875 24.019531 34.445312 C 24.125 34.476562 25.503906 34.863281 27.199219 34.863281 C 28.757812 34.863281 30.582031 34.539062 31.941406 33.320312 C 32.050781 33.222656 32.117188 33.082031 32.121094 32.933594 C 32.125 32.785156 32.066406 32.640625 31.960938 32.535156 Z M 22.34375 32.941406 C 21.78125 33.226562 20.34375 33.8125 18.050781 33.777344 C 15.601562 33.746094 14.15625 32.429688 13.730469 31.972656 L 14.0625 28.191406 C 14.304688 28.238281 14.496094 28.25 14.625 28.25 C 14.71875 28.25 14.777344 28.242188 14.792969 28.242188 C 15.089844 28.207031 15.304688 27.9375 15.269531 27.640625 C 15.234375 27.34375 14.96875 27.128906 14.675781 27.164062 C 14.671875 27.164062 14.316406 27.195312 13.78125 26.984375 C 13.378906 26.824219 12.753906 26.488281 12.054688 25.789062 C 11.292969 25.042969 9.417969 21.78125 7.765625 18.90625 C 6.816406 17.253906 5.917969 15.695312 5.171875 14.484375 C 5.007812 14.226562 5.003906 13.917969 5.152344 13.648438 C 5.308594 13.367188 5.59375 13.203125 5.914062 13.203125 C 6.128906 13.203125 6.332031 13.28125 6.488281 13.425781 L 9.207031 16.769531 C 9.214844 16.78125 9.226562 16.792969 9.234375 16.800781 C 9.910156 17.511719 10.929688 17.789062 11.886719 17.527344 C 12.820312 17.269531 13.503906 16.566406 13.71875 15.640625 C 13.722656 15.621094 13.726562 15.597656 13.726562 15.578125 C 13.726562 15.574219 13.726562 15.570312 13.730469 15.566406 C 14.082031 13.890625 14.121094 5.847656 14.121094 2.46875 C 14.121094 2.117188 14.398438 1.84375 14.75 1.84375 C 14.917969 1.84375 15.085938 1.90625 15.210938 2.019531 C 15.316406 2.132812 15.375 2.28125 15.390625 2.457031 L 15.722656 10.882812 C 15.738281 11.175781 15.976562 11.40625 16.265625 11.40625 L 17.035156 11.40625 C 17.3125 11.40625 17.542969 11.195312 17.574219 10.921875 L 18.570312 1.835938 C 18.589844 1.667969 18.679688 1.515625 18.820312 1.414062 C 18.960938 1.3125 19.136719 1.273438 19.304688 1.300781 C 19.40625 1.324219 19.503906 1.375 19.585938 1.464844 C 19.59375 1.472656 19.601562 1.480469 19.605469 1.484375 C 19.734375 1.609375 19.796875 1.769531 19.785156 1.945312 L 19.167969 11.207031 C 19.152344 11.472656 19.332031 11.714844 19.59375 11.769531 L 20.578125 11.988281 C 20.863281 12.046875 21.144531 11.875 21.21875 11.597656 L 23.347656 3.652344 C 23.445312 3.367188 23.746094 3.203125 24.035156 3.285156 C 24.136719 3.328125 24.214844 3.375 24.277344 3.4375 C 24.414062 3.574219 24.472656 3.777344 24.425781 3.960938 L 22.25 12.648438 C 22.203125 12.832031 22.257812 13.03125 22.394531 13.164062 L 23.164062 13.921875 C 23.296875 14.054688 23.488281 14.105469 23.671875 14.0625 C 23.851562 14.019531 24 13.882812 24.058594 13.707031 L 25.660156 8.871094 C 25.746094 8.613281 26.003906 8.46875 26.273438 8.523438 C 26.28125 8.523438 26.292969 8.523438 26.300781 8.527344 C 26.355469 8.535156 26.441406 8.558594 26.566406 8.671875 C 26.671875 8.78125 26.722656 8.949219 26.703125 9.113281 C 26.578125 9.945312 26.273438 11.667969 25.625 13.90625 C 25.617188 13.921875 25.613281 13.9375 25.613281 13.953125 L 24.90625 17.660156 L 24.503906 19.804688 C 24.214844 19.167969 23.933594 18.464844 23.660156 17.710938 C 23.433594 17.089844 22.84375 16.675781 22.183594 16.675781 C 21.375 16.675781 20.703125 17.277344 20.621094 18.078125 C 20.53125 18.964844 20.480469 20.304688 20.761719 21.660156 C 21.152344 23.542969 21.683594 25.441406 21.820312 25.917969 L 21.726562 26.585938 C 21.394531 28.707031 21.734375 30.433594 22.222656 31.710938 L 22.34375 32.9375 Z M 24.460938 33.445312 C 24.242188 33.195312 23.707031 32.511719 23.277344 31.441406 C 23.265625 31.386719 23.246094 31.332031 23.214844 31.285156 C 22.792969 30.15625 22.503906 28.632812 22.796875 26.75 L 22.910156 25.960938 C 22.917969 25.882812 22.914062 25.804688 22.890625 25.730469 C 22.886719 25.710938 22.261719 23.5625 21.820312 21.441406 C 21.566406 20.226562 21.613281 19.003906 21.695312 18.191406 C 21.722656 17.945312 21.929688 17.761719 22.179688 17.761719 C 22.386719 17.761719 22.570312 17.886719 22.640625 18.085938 C 23.011719 19.113281 23.558594 20.476562 24.234375 21.714844 C 24.246094 21.738281 24.261719 21.765625 24.273438 21.785156 C 25.070312 23.222656 26.035156 24.472656 27.09375 24.78125 C 27.378906 24.863281 27.679688 24.703125 27.765625 24.414062 C 27.847656 24.128906 27.683594 23.828125 27.398438 23.742188 C 26.78125 23.5625 26.046875 22.726562 25.300781 21.410156 L 25.722656 19.167969 L 28.871094 23.886719 L 28.871094 29.886719 C 28.871094 30.59375 29.144531 31.257812 29.644531 31.757812 L 30.761719 32.875 C 28.566406 34.34375 25.1875 33.628906 24.457031 33.449219 Z M 24.460938 33.445312 " fill-opacity="1" fill-rule="nonzero"/></g><path fill="#ff00de" d="M 20.246094 15.632812 C 18.386719 15.0625 16.679688 15.007812 16.609375 15.007812 C 16.3125 15 16.058594 15.234375 16.050781 15.53125 C 16.042969 15.832031 16.28125 16.082031 16.578125 16.089844 C 16.59375 16.089844 18.214844 16.140625 19.925781 16.667969 C 19.976562 16.683594 20.03125 16.691406 20.085938 16.691406 C 20.316406 16.691406 20.53125 16.542969 20.601562 16.3125 C 20.691406 16.027344 20.53125 15.722656 20.242188 15.632812 Z M 20.246094 15.632812 " fill-opacity="1" fill-rule="nonzero"/><path fill="#ff00de" d="M 15.578125 17.039062 C 15.390625 16.808594 15.050781 16.769531 14.816406 16.957031 C 14.582031 17.144531 14.546875 17.484375 14.730469 17.71875 C 14.753906 17.746094 16.894531 20.464844 17.644531 25.039062 C 17.6875 25.304688 17.917969 25.496094 18.175781 25.496094 C 18.203125 25.496094 18.234375 25.492188 18.265625 25.488281 C 18.558594 25.4375 18.757812 25.160156 18.710938 24.867188 C 17.914062 19.992188 15.671875 17.160156 15.578125 17.039062 Z M 15.578125 17.039062 " fill-opacity="1" fill-rule="nonzero"/></svg>