<svg xmlns="http://www.w3.org/2000/svg" xmlns:xlink="http://www.w3.org/1999/xlink" width="48" zoomAndPan="magnify" viewBox="0 0 36 36.000001" height="48" preserveAspectRatio="xMidYMid meet" version="1.0"><defs><clipPath id="f8820731a2"><path d="M 1.070312 0.582031 L 34.636719 0.582031 L 34.636719 34.152344 L 1.070312 34.152344 Z M 1.070312 0.582031 " clip-rule="nonzero"/></clipPath><clipPath id="ca8765cb76"><path d="M 0.355469 0.867188 L 33.636719 0.867188 L 33.636719 34.152344 L 0.355469 34.152344 Z M 0.355469 0.867188 " clip-rule="nonzero"/></clipPath><clipPath id="d80b8a1253"><rect x="0" width="34" y="0" height="35"/></clipPath></defs><g clip-path="url(#f8820731a2)"><g transform="matrix(1, 0, 0, 1, 1, 0.000000000000010603)"><g clip-path="url(#d80b8a1253)"><g clip-path="url(#ca8765cb76)"><path fill="#ff00de" d="M 0.0742188 17.511719 C 0.0742188 26.84375 7.667969 34.4375 16.996094 34.4375 C 26.324219 34.4375 33.921875 26.84375 33.921875 17.511719 C 33.921875 8.175781 26.328125 0.589844 16.996094 0.589844 C 7.664062 0.589844 0.0703125 8.183594 0.0703125 17.511719 Z M 32.503906 17.511719 C 32.503906 26.0625 25.550781 33.019531 16.996094 33.019531 C 8.445312 33.019531 1.488281 26.0625 1.488281 17.511719 C 1.488281 8.957031 8.445312 2.007812 16.996094 2.007812 C 25.550781 2.007812 32.503906 8.960938 32.503906 17.511719 Z M 32.503906 17.511719 " fill-opacity="1" fill-rule="nonzero"/></g><path fill="#ff00de" d="M 9.191406 17.121094 C 9.191406 17.300781 9.261719 17.488281 9.398438 17.625 C 9.675781 17.902344 10.125 17.902344 10.402344 17.625 L 16.585938 11.4375 L 22.769531 17.625 C 23.046875 17.902344 23.496094 17.902344 23.773438 17.625 C 24.050781 17.34375 24.050781 16.894531 23.773438 16.621094 L 17.390625 10.238281 C 17.171875 10.019531 16.886719 9.902344 16.585938 9.902344 C 16.28125 9.902344 15.996094 10.019531 15.78125 10.238281 L 9.398438 16.621094 C 9.261719 16.757812 9.191406 16.941406 9.191406 17.121094 Z M 16.390625 11.242188 Z M 16.390625 11.242188 " fill-opacity="1" fill-rule="nonzero"/><path fill="#ff00de" d="M 15.875 10.621094 L 15.875 24.292969 C 15.875 24.6875 16.191406 25.003906 16.585938 25.003906 C 16.976562 25.003906 17.292969 24.6875 17.292969 24.292969 L 17.292969 10.621094 C 17.292969 10.230469 16.976562 9.914062 16.585938 9.914062 C 16.191406 9.914062 15.875 10.230469 15.875 10.621094 Z M 15.875 10.621094 " fill-opacity="1" fill-rule="nonzero"/></g></g></g></svg>