<svg xmlns="http://www.w3.org/2000/svg" xmlns:xlink="http://www.w3.org/1999/xlink" width="48" zoomAndPan="magnify" viewBox="0 0 36 36.000001" height="48" preserveAspectRatio="xMidYMid meet" version="1.0"><defs><clipPath id="f1d56a7d57"><path d="M 0.488281 0 L 35 0 L 35 35.027344 L 0.488281 35.027344 Z M 0.488281 0 " clip-rule="nonzero"/></clipPath><clipPath id="48a40d2805"><path d="M 0.488281 0 L 34.8125 0 L 34.8125 35 L 0.488281 35 Z M 0.488281 0 " clip-rule="nonzero"/></clipPath><clipPath id="5035b48522"><rect x="0" width="35" y="0" height="36"/></clipPath></defs><g clip-path="url(#f1d56a7d57)"><g transform="matrix(1, 0, 0, 1, 0.000000000000000056, 0.000000000000010582)"><g clip-path="url(#5035b48522)"><path fill="#ff00de" d="M 18.175781 13.910156 C 18.175781 13.910156 18.191406 13.886719 18.203125 13.871094 C 18.234375 13.839844 18.253906 13.800781 18.273438 13.761719 C 18.292969 13.730469 18.3125 13.6875 18.328125 13.648438 C 18.339844 13.609375 18.347656 13.570312 18.355469 13.527344 C 18.355469 13.488281 18.367188 13.445312 18.359375 13.402344 C 18.359375 13.363281 18.347656 13.324219 18.332031 13.285156 C 18.320312 13.238281 18.3125 13.199219 18.289062 13.160156 C 18.28125 13.144531 18.28125 13.125 18.273438 13.113281 C 16.410156 9.929688 16.925781 5.898438 19.527344 3.300781 C 22.675781 0.148438 27.792969 0.148438 30.945312 3.300781 C 34.09375 6.449219 34.09375 11.566406 30.945312 14.71875 C 28.34375 17.316406 24.3125 17.828125 21.128906 15.96875 C 21.117188 15.960938 21.097656 15.960938 21.082031 15.953125 C 21.042969 15.933594 21.003906 15.921875 20.960938 15.910156 C 20.921875 15.894531 20.878906 15.890625 20.839844 15.882812 C 20.800781 15.882812 20.761719 15.882812 20.71875 15.890625 C 20.671875 15.890625 20.632812 15.902344 20.59375 15.914062 C 20.554688 15.929688 20.519531 15.949219 20.488281 15.96875 C 20.449219 15.988281 20.410156 16.011719 20.375 16.039062 C 20.363281 16.054688 20.351562 16.054688 20.335938 16.066406 L 13.972656 22.429688 C 13.84375 22.5625 13.785156 22.722656 13.785156 22.894531 C 13.785156 23.066406 13.847656 23.230469 13.972656 23.359375 L 16.285156 25.671875 C 16.878906 26.265625 16.878906 27.234375 16.285156 27.832031 C 15.6875 28.425781 14.71875 28.425781 14.125 27.832031 L 11.8125 25.511719 C 11.558594 25.257812 11.144531 25.257812 10.890625 25.511719 L 8.570312 27.832031 C 8.441406 27.960938 8.382812 28.125 8.382812 28.296875 C 8.382812 28.464844 8.449219 28.628906 8.570312 28.761719 L 10.890625 31.070312 C 11.484375 31.667969 11.484375 32.636719 10.890625 33.234375 C 10.292969 33.828125 9.324219 33.828125 8.730469 33.234375 L 6.417969 30.921875 C 6.164062 30.667969 5.75 30.667969 5.496094 30.921875 L 4.722656 31.695312 C 4.125 32.289062 3.15625 32.289062 2.5625 31.695312 C 1.964844 31.097656 1.964844 30.128906 2.5625 29.535156 L 18.183594 13.910156 Z M 21.6875 12.558594 C 22.660156 13.53125 23.953125 14.023438 25.234375 14.023438 C 26.519531 14.023438 27.808594 13.53125 28.78125 12.558594 C 29.730469 11.605469 30.257812 10.351562 30.257812 9.007812 C 30.257812 7.667969 29.730469 6.410156 28.78125 5.460938 C 26.824219 3.503906 23.644531 3.503906 21.6875 5.460938 C 19.726562 7.417969 19.726562 10.597656 21.6875 12.558594 Z M 21.6875 12.558594 " fill-opacity="1" fill-rule="nonzero"/><path fill="#000000" d="M 28.78125 5.460938 C 29.730469 6.410156 30.257812 7.667969 30.257812 9.007812 C 30.257812 10.351562 29.730469 11.605469 28.78125 12.558594 C 27.808594 13.53125 26.519531 14.023438 25.234375 14.023438 C 23.953125 14.023438 22.660156 13.53125 21.6875 12.558594 C 19.726562 10.597656 19.726562 7.417969 21.6875 5.460938 C 23.644531 3.503906 26.824219 3.503906 28.78125 5.460938 Z M 22.609375 11.632812 C 24.054688 13.082031 26.40625 13.082031 27.851562 11.632812 C 28.554688 10.933594 28.941406 10.003906 28.941406 9.007812 C 28.941406 8.011719 28.554688 7.082031 27.851562 6.382812 C 27.132812 5.664062 26.175781 5.296875 25.226562 5.296875 C 24.277344 5.296875 23.328125 5.65625 22.601562 6.382812 C 21.15625 7.828125 21.15625 10.179688 22.601562 11.628906 Z M 22.609375 11.632812 " fill-opacity="1" fill-rule="nonzero"/><g clip-path="url(#48a40d2805)"><path fill="#000000" d="M 16.90625 13.324219 C 15.039062 9.703125 15.703125 5.269531 18.597656 2.375 C 22.253906 -1.285156 28.207031 -1.285156 31.867188 2.375 C 35.527344 6.035156 35.527344 11.988281 31.867188 15.648438 C 30.058594 17.453125 27.65625 18.390625 25.226562 18.390625 C 23.761719 18.390625 22.28125 18.042969 20.914062 17.34375 L 15.355469 22.902344 L 17.207031 24.753906 C 18.3125 25.859375 18.3125 27.660156 17.207031 28.765625 C 16.65625 29.316406 15.929688 29.597656 15.203125 29.597656 C 14.476562 29.597656 13.75 29.324219 13.199219 28.765625 L 11.347656 26.914062 L 9.960938 28.300781 L 11.8125 30.15625 C 12.917969 31.261719 12.917969 33.0625 11.8125 34.167969 C 11.261719 34.71875 10.535156 35 9.808594 35 C 9.082031 35 8.355469 34.726562 7.804688 34.167969 L 5.953125 32.316406 L 5.644531 32.625 C 5.109375 33.160156 4.402344 33.457031 3.640625 33.457031 C 2.882812 33.457031 2.167969 33.160156 1.640625 32.625 C 0.53125 31.515625 0.53125 29.714844 1.640625 28.609375 L 16.917969 13.328125 Z M 2.554688 31.6875 C 3.152344 32.28125 4.121094 32.28125 4.714844 31.6875 L 5.488281 30.914062 C 5.742188 30.660156 6.15625 30.660156 6.410156 30.914062 L 8.722656 33.226562 C 9.320312 33.820312 10.289062 33.820312 10.882812 33.226562 C 11.480469 32.628906 11.480469 31.660156 10.882812 31.066406 L 8.566406 28.753906 C 8.433594 28.625 8.375 28.460938 8.375 28.289062 C 8.375 28.121094 8.441406 27.957031 8.566406 27.824219 L 10.882812 25.507812 C 11.136719 25.25 11.550781 25.25 11.804688 25.507812 L 14.117188 27.824219 C 14.714844 28.421875 15.683594 28.421875 16.277344 27.824219 C 16.875 27.230469 16.875 26.261719 16.277344 25.664062 L 13.96875 23.351562 C 13.835938 23.222656 13.777344 23.058594 13.777344 22.886719 C 13.777344 22.71875 13.84375 22.554688 13.96875 22.421875 L 20.332031 16.058594 C 20.332031 16.058594 20.355469 16.046875 20.371094 16.035156 C 20.402344 16 20.441406 15.980469 20.480469 15.960938 C 20.515625 15.941406 20.554688 15.921875 20.585938 15.910156 C 20.625 15.894531 20.664062 15.890625 20.710938 15.882812 C 20.75 15.882812 20.789062 15.871094 20.835938 15.875 C 20.875 15.875 20.914062 15.890625 20.953125 15.902344 C 21 15.914062 21.039062 15.921875 21.078125 15.949219 C 21.089844 15.953125 21.109375 15.953125 21.121094 15.960938 C 24.304688 17.828125 28.335938 17.308594 30.9375 14.710938 C 34.085938 11.5625 34.085938 6.441406 30.9375 3.292969 C 27.789062 0.144531 22.667969 0.144531 19.519531 3.292969 C 16.917969 5.890625 16.410156 9.925781 18.269531 13.105469 C 18.273438 13.121094 18.273438 13.140625 18.28125 13.152344 C 18.300781 13.191406 18.3125 13.238281 18.328125 13.277344 C 18.339844 13.316406 18.347656 13.355469 18.355469 13.394531 C 18.355469 13.433594 18.355469 13.472656 18.347656 13.519531 C 18.347656 13.558594 18.332031 13.597656 18.320312 13.644531 C 18.308594 13.683594 18.289062 13.714844 18.269531 13.753906 C 18.25 13.792969 18.222656 13.832031 18.195312 13.867188 C 18.183594 13.878906 18.183594 13.890625 18.171875 13.90625 L 2.546875 29.527344 C 1.953125 30.121094 1.953125 31.089844 2.546875 31.6875 Z M 2.554688 31.6875 " fill-opacity="1" fill-rule="nonzero"/></g></g></g></g></svg>