<svg xmlns="http://www.w3.org/2000/svg" xmlns:xlink="http://www.w3.org/1999/xlink" width="48" zoomAndPan="magnify" viewBox="0 0 36 36.000001" height="48" preserveAspectRatio="xMidYMid meet" version="1.0"><defs><clipPath id="34cbef0832"><path d="M 0.964844 3 L 21 3 L 21 33.394531 L 0.964844 33.394531 Z M 0.964844 3 " clip-rule="nonzero"/></clipPath><clipPath id="a45a921989"><path d="M 26 1.285156 L 33 1.285156 L 33 7 L 26 7 Z M 26 1.285156 " clip-rule="nonzero"/></clipPath><clipPath id="11f86f75c5"><path d="M 24 6 L 35.261719 6 L 35.261719 33.394531 L 24 33.394531 Z M 24 6 " clip-rule="nonzero"/></clipPath><clipPath id="2e8c5d31fb"><path d="M 17 22 L 28 22 L 28 33.394531 L 17 33.394531 Z M 17 22 " clip-rule="nonzero"/></clipPath></defs><g clip-path="url(#34cbef0832)"><path fill="#ff00de" d="M 3.136719 33.726562 L 15.046875 33.726562 C 15.300781 33.726562 15.515625 33.511719 15.515625 33.253906 C 15.515625 33 15.300781 32.785156 15.046875 32.785156 L 3.136719 32.785156 C 2.460938 32.785156 1.914062 32.234375 1.914062 31.5625 L 1.914062 26.109375 L 16.066406 26.109375 C 16.324219 26.109375 16.535156 25.894531 16.535156 25.636719 C 16.535156 25.382812 16.324219 25.167969 16.066406 25.167969 L 1.914062 25.167969 L 1.914062 15.140625 L 19.753906 15.140625 L 19.753906 16.238281 C 19.753906 16.496094 19.96875 16.707031 20.222656 16.707031 C 20.480469 16.707031 20.695312 16.496094 20.695312 16.238281 L 20.695312 14.234375 C 20.695312 11.175781 18.449219 8.628906 15.515625 8.167969 L 15.515625 5.09375 C 15.515625 4.242188 14.824219 3.550781 13.972656 3.550781 L 7.683594 3.550781 C 6.832031 3.550781 6.140625 4.242188 6.140625 5.09375 L 6.140625 8.167969 C 3.214844 8.640625 0.964844 11.175781 0.964844 14.234375 L 0.964844 31.554688 C 0.964844 32.75 1.9375 33.726562 3.136719 33.726562 Z M 7.089844 5.082031 C 7.089844 4.753906 7.355469 4.480469 7.695312 4.480469 L 13.980469 4.480469 C 14.308594 4.480469 14.585938 4.746094 14.585938 5.082031 L 14.585938 8.082031 L 7.089844 8.082031 Z M 7.117188 9.03125 L 14.558594 9.03125 C 17.414062 9.03125 19.734375 11.34375 19.753906 14.191406 L 1.914062 14.191406 C 1.9375 11.34375 4.261719 9.03125 7.117188 9.03125 Z M 7.117188 9.03125 " fill-opacity="1" fill-rule="nonzero"/></g><g clip-path="url(#a45a921989)"><path fill="#ff00de" d="M 27.183594 5.269531 L 27.707031 5.269531 L 27.707031 5.8125 C 27.707031 6.066406 27.921875 6.28125 28.179688 6.28125 C 28.433594 6.28125 28.648438 6.066406 28.648438 5.8125 L 28.648438 5.269531 L 30.589844 5.269531 L 30.589844 5.8125 C 30.589844 6.066406 30.804688 6.28125 31.058594 6.28125 C 31.316406 6.28125 31.53125 6.066406 31.53125 5.8125 L 31.53125 5.269531 L 32.054688 5.269531 C 32.308594 5.269531 32.523438 5.058594 32.523438 4.800781 L 32.523438 2.636719 C 32.523438 1.898438 31.921875 1.296875 31.183594 1.296875 L 28.027344 1.296875 C 27.292969 1.296875 26.6875 1.898438 26.6875 2.636719 L 26.6875 4.808594 C 26.714844 5.066406 26.917969 5.269531 27.183594 5.269531 Z M 27.65625 2.636719 C 27.65625 2.414062 27.832031 2.246094 28.046875 2.246094 L 31.203125 2.246094 C 31.421875 2.246094 31.59375 2.421875 31.59375 2.636719 L 31.59375 4.328125 L 27.65625 4.328125 Z M 27.65625 2.636719 " fill-opacity="1" fill-rule="nonzero"/></g><g clip-path="url(#11f86f75c5)"><path fill="#ff00de" d="M 24.703125 16.636719 C 24.960938 16.636719 25.171875 16.425781 25.171875 16.167969 L 25.171875 15.140625 L 34.085938 15.140625 L 34.085938 20.734375 L 29.5 20.734375 C 29.242188 20.734375 29.03125 20.949219 29.03125 21.203125 C 29.03125 21.460938 29.242188 21.675781 29.5 21.675781 L 34.085938 21.675781 L 34.085938 31.402344 C 34.085938 32.15625 33.472656 32.769531 32.71875 32.769531 L 29.5 32.769531 C 29.242188 32.769531 29.03125 32.980469 29.03125 33.238281 C 29.03125 33.496094 29.242188 33.707031 29.5 33.707031 L 32.71875 33.707031 C 33.996094 33.707031 35.03125 32.671875 35.03125 31.394531 L 35.03125 11.363281 C 35.03125 8.886719 33.019531 6.875 30.546875 6.875 L 28.71875 6.875 C 26.246094 6.875 24.230469 8.886719 24.230469 11.363281 L 24.230469 16.148438 C 24.222656 16.425781 24.4375 16.636719 24.703125 16.636719 Z M 25.171875 11.378906 C 25.171875 9.429688 26.757812 7.839844 28.710938 7.839844 L 30.535156 7.839844 C 32.488281 7.839844 34.074219 9.429688 34.074219 11.378906 L 34.074219 14.191406 L 25.171875 14.191406 Z M 25.171875 11.378906 " fill-opacity="1" fill-rule="nonzero"/></g><path fill="#ff00de" d="M 28.1875 19.574219 C 28.265625 19.742188 28.433594 19.839844 28.613281 19.839844 C 28.683594 19.839844 28.753906 19.820312 28.824219 19.792969 L 30.128906 19.15625 C 30.351562 19.050781 30.449219 18.785156 30.359375 18.554688 L 29.953125 17.558594 L 30.855469 17.117188 C 31.085938 17 31.183594 16.71875 31.070312 16.488281 C 30.953125 16.257812 30.671875 16.160156 30.441406 16.273438 L 29.136719 16.914062 C 28.914062 17.019531 28.816406 17.285156 28.90625 17.515625 L 29.3125 18.507812 L 28.410156 18.953125 C 28.167969 19.058594 28.070312 19.34375 28.1875 19.574219 Z M 28.1875 19.574219 " fill-opacity="1" fill-rule="nonzero"/><path fill="#ff00de" d="M 12.953125 7.292969 C 13.210938 7.292969 13.421875 7.078125 13.421875 6.820312 L 13.421875 5.757812 C 13.421875 5.5 13.210938 5.289062 12.953125 5.289062 C 12.695312 5.289062 12.484375 5.5 12.484375 5.757812 L 12.484375 6.820312 C 12.484375 7.078125 12.695312 7.292969 12.953125 7.292969 Z M 12.953125 7.292969 " fill-opacity="1" fill-rule="nonzero"/><path fill="#ff00de" d="M 10.832031 7.292969 C 11.089844 7.292969 11.304688 7.078125 11.304688 6.820312 L 11.304688 5.757812 C 11.304688 5.5 11.089844 5.289062 10.832031 5.289062 C 10.574219 5.289062 10.363281 5.5 10.363281 5.757812 L 10.363281 6.820312 C 10.363281 7.078125 10.566406 7.292969 10.832031 7.292969 Z M 10.832031 7.292969 " fill-opacity="1" fill-rule="nonzero"/><path fill="#ff00de" d="M 8.703125 7.292969 C 8.960938 7.292969 9.175781 7.078125 9.175781 6.820312 L 9.175781 5.757812 C 9.175781 5.5 8.960938 5.289062 8.703125 5.289062 C 8.449219 5.289062 8.234375 5.5 8.234375 5.757812 L 8.234375 6.820312 C 8.234375 7.078125 8.449219 7.292969 8.703125 7.292969 Z M 8.703125 7.292969 " fill-opacity="1" fill-rule="nonzero"/><path fill="#ff00de" d="M 11.230469 20.195312 C 11.453125 20.335938 11.746094 20.273438 11.886719 20.050781 L 13.625 17.339844 C 13.742188 17.160156 13.722656 16.929688 13.589844 16.769531 C 13.457031 16.613281 13.226562 16.558594 13.042969 16.648438 L 8.28125 18.765625 C 8.136719 18.828125 8.039062 18.953125 8.011719 19.101562 C 7.976562 19.253906 8.023438 19.40625 8.128906 19.519531 L 9.128906 20.628906 L 7.332031 22.738281 C 7.1875 22.898438 7.179688 23.136719 7.304688 23.316406 C 7.394531 23.449219 7.542969 23.519531 7.695312 23.519531 C 7.746094 23.519531 7.800781 23.511719 7.84375 23.492188 L 13.09375 21.703125 C 13.246094 21.648438 13.359375 21.523438 13.40625 21.363281 C 13.441406 21.203125 13.394531 21.035156 13.28125 20.921875 L 12.996094 20.636719 C 12.8125 20.449219 12.519531 20.449219 12.332031 20.628906 C 12.226562 20.734375 12.179688 20.875 12.191406 21.007812 L 9.167969 22.039062 L 10.113281 20.921875 C 10.265625 20.742188 10.265625 20.46875 10.105469 20.300781 L 9.265625 19.371094 L 11.976562 18.15625 L 11.089844 19.527344 C 10.949219 19.757812 11.019531 20.050781 11.230469 20.195312 Z M 11.230469 20.195312 " fill-opacity="1" fill-rule="nonzero"/><path fill="#ff00de" d="M 27.378906 20.972656 L 27.378906 19.429688 C 27.378906 18.597656 26.707031 17.921875 25.871094 17.921875 L 18.789062 17.921875 C 17.953125 17.921875 17.28125 18.597656 17.28125 19.429688 L 17.28125 20.972656 C 17.28125 21.230469 17.492188 21.445312 17.75 21.445312 L 18.972656 21.445312 L 18.972656 21.984375 C 18.972656 22.242188 19.1875 22.457031 19.445312 22.457031 C 19.699219 22.457031 19.914062 22.242188 19.914062 21.984375 L 19.914062 21.445312 L 24.71875 21.445312 L 24.71875 21.984375 C 24.71875 22.242188 24.933594 22.457031 25.191406 22.457031 C 25.445312 22.457031 25.660156 22.242188 25.660156 21.984375 L 25.660156 21.445312 L 26.890625 21.445312 C 27.167969 21.445312 27.378906 21.230469 27.378906 20.972656 Z M 26.429688 20.496094 L 18.210938 20.496094 L 18.210938 19.429688 C 18.210938 19.121094 18.46875 18.863281 18.777344 18.863281 L 25.863281 18.863281 C 26.175781 18.863281 26.429688 19.121094 26.429688 19.429688 Z M 26.429688 20.496094 " fill-opacity="1" fill-rule="nonzero"/><g clip-path="url(#2e8c5d31fb)"><path fill="#ff00de" d="M 19.445312 23.9375 L 21.882812 23.9375 C 22.140625 23.9375 22.351562 23.722656 22.351562 23.464844 C 22.351562 23.207031 22.140625 22.996094 21.882812 22.996094 L 19.445312 22.996094 C 18.40625 22.996094 17.5625 23.839844 17.5625 24.875 L 17.5625 33.257812 C 17.5625 33.511719 17.777344 33.726562 18.035156 33.726562 L 26.601562 33.726562 C 26.855469 33.726562 27.070312 33.511719 27.070312 33.257812 L 27.070312 24.867188 C 27.070312 23.828125 26.226562 22.988281 25.191406 22.988281 L 24.382812 22.988281 C 24.125 22.988281 23.914062 23.199219 23.914062 23.457031 C 23.914062 23.714844 24.125 23.925781 24.382812 23.925781 L 25.199219 23.925781 C 25.714844 23.925781 26.128906 24.34375 26.128906 24.859375 L 26.128906 25.140625 L 21.582031 25.140625 C 21.324219 25.140625 21.109375 25.355469 21.109375 25.613281 C 21.109375 25.871094 21.324219 26.082031 21.582031 26.082031 L 26.128906 26.082031 L 26.128906 30.605469 L 18.511719 30.605469 L 18.511719 26.082031 L 19.585938 26.082031 C 19.84375 26.082031 20.054688 25.871094 20.054688 25.613281 C 20.054688 25.355469 19.84375 25.140625 19.585938 25.140625 L 18.511719 25.140625 L 18.511719 24.867188 C 18.511719 24.363281 18.9375 23.9375 19.445312 23.9375 Z M 26.128906 31.5625 L 26.128906 32.777344 L 18.511719 32.777344 L 18.511719 31.5625 Z M 26.128906 31.5625 " fill-opacity="1" fill-rule="nonzero"/></g><path fill="#ff00de" d="M 21.351562 29.691406 C 21.4375 29.84375 21.597656 29.929688 21.757812 29.929688 C 21.839844 29.929688 21.917969 29.914062 21.996094 29.867188 L 22.902344 29.34375 C 23.097656 29.230469 23.1875 29 23.113281 28.777344 L 22.847656 27.996094 L 23.417969 27.667969 C 23.636719 27.535156 23.71875 27.253906 23.585938 27.023438 C 23.453125 26.800781 23.167969 26.71875 22.9375 26.851562 L 22.03125 27.375 C 21.839844 27.492188 21.75 27.722656 21.820312 27.945312 L 22.085938 28.722656 L 21.519531 29.050781 C 21.296875 29.175781 21.21875 29.46875 21.351562 29.691406 Z M 21.351562 29.691406 " fill-opacity="1" fill-rule="nonzero"/></svg>