<svg xmlns="http://www.w3.org/2000/svg" xmlns:xlink="http://www.w3.org/1999/xlink" width="48" zoomAndPan="magnify" viewBox="0 0 36 36.000001" height="48" preserveAspectRatio="xMidYMid meet" version="1.0"><defs><clipPath id="dbea767e16"><path d="M 4.867188 1.25 L 31.136719 1.25 L 31.136719 34 L 4.867188 34 Z M 4.867188 1.25 " clip-rule="nonzero"/></clipPath><clipPath id="7a49780c2b"><path d="M 10.058594 8.476562 L 26 8.476562 L 26 26.722656 L 10.058594 26.722656 Z M 10.058594 8.476562 " clip-rule="nonzero"/></clipPath></defs><g clip-path="url(#dbea767e16)"><path fill="#ff00de" d="M 17.996094 1.261719 C 15.285156 4.339844 8.96875 6.503906 4.867188 6.503906 L 4.867188 14.265625 C 4.867188 23.597656 10.402344 31.050781 17.996094 33.761719 C 25.601562 31.050781 31.125 23.597656 31.125 14.265625 L 31.125 6.503906 C 27.035156 6.503906 20.714844 4.339844 17.996094 1.261719 Z M 17.996094 1.261719 " fill-opacity="1" fill-rule="nonzero"/></g><g clip-path="url(#7a49780c2b)"><path fill="#000000" d="M 17.816406 14.140625 C 19.253906 12.824219 20.6875 11.507812 22.125 10.195312 C 22.378906 9.957031 22.648438 9.714844 22.984375 9.613281 C 23.941406 9.320312 24.785156 10.273438 25.339844 11.105469 C 25.542969 11.410156 25.75 11.738281 25.753906 12.105469 C 25.757812 12.59375 25.398438 13.003906 25.058594 13.359375 C 23.6875 14.789062 22.320312 16.21875 20.949219 17.652344 C 22.292969 18.953125 23.636719 20.257812 24.980469 21.558594 C 25.265625 21.835938 25.558594 22.125 25.675781 22.507812 C 25.917969 23.300781 25.296875 24.078125 24.722656 24.679688 C 24.355469 25.066406 23.921875 25.480469 23.382812 25.476562 C 22.929688 25.472656 22.542969 25.164062 22.199219 24.867188 C 20.699219 23.5625 19.277344 22.175781 17.9375 20.710938 C 16.765625 22.214844 15.597656 23.722656 14.429688 25.230469 C 14.027344 25.75 13.550781 26.3125 12.894531 26.386719 C 11.476562 26.542969 10.0625 24.398438 10.441406 23.144531 C 10.632812 22.511719 11.0625 21.988281 11.480469 21.480469 C 12.445312 20.3125 13.410156 19.144531 14.375 17.976562 C 14.496094 17.828125 14.625 17.660156 14.613281 17.46875 C 14.605469 17.308594 14.496094 17.167969 14.394531 17.042969 C 13.351562 15.777344 12.308594 14.507812 11.261719 13.238281 C 10.820312 12.703125 10.359375 12.117188 10.324219 11.421875 C 10.277344 10.417969 11.125 9.621094 11.902344 8.984375 C 12.207031 8.738281 12.550781 8.480469 12.941406 8.503906 C 13.382812 8.53125 13.707031 8.910156 13.980469 9.257812 C 15.257812 10.886719 16.535156 12.515625 17.8125 14.148438 C 17.8125 14.144531 17.816406 14.144531 17.816406 14.140625 " fill-opacity="1" fill-rule="nonzero"/></g></svg>