<svg xmlns="http://www.w3.org/2000/svg" xmlns:xlink="http://www.w3.org/1999/xlink" width="48" zoomAndPan="magnify" viewBox="0 0 36 36.000001" height="48" preserveAspectRatio="xMidYMid meet" version="1.0"><defs><clipPath id="884f611d7c"><path d="M 0.902344 5.296875 L 35.199219 5.296875 L 35.199219 29.378906 L 0.902344 29.378906 Z M 0.902344 5.296875 " clip-rule="nonzero"/></clipPath></defs><g clip-path="url(#884f611d7c)"><path fill="#ff00de" d="M 4.566406 5.300781 C 2.542969 5.300781 0.902344 6.9375 0.902344 8.964844 C 0.949219 14.515625 0.902344 20.394531 0.902344 26.054688 C 0.902344 28.003906 2.417969 29.582031 4.335938 29.699219 L 31.578125 29.71875 C 33.53125 29.636719 35.085938 28.03125 35.085938 26.054688 L 35.085938 8.332031 C 34.789062 6.605469 33.292969 5.300781 31.480469 5.300781 C 22.515625 5.304688 13.535156 5.300781 4.566406 5.300781 Z M 4.507812 7.226562 L 31.597656 7.226562 L 18.492188 20.332031 C 18.25 20.570312 17.871094 20.570312 17.632812 20.332031 Z M 33.253906 8.160156 L 33.253906 25.921875 C 33.253906 26.980469 32.875 27.578125 32.109375 27.789062 L 22.878906 18.539062 Z M 2.945312 8.238281 L 13.152344 18.445312 L 3.824219 27.769531 C 3.183594 27.554688 2.960938 27.042969 2.945312 26.339844 Z M 14.449219 19.722656 L 17.632812 22.925781 C 17.871094 23.164062 18.253906 23.164062 18.492188 22.925781 L 21.582031 19.835938 L 29.632812 27.886719 L 6.285156 27.886719 Z M 14.449219 19.722656 " fill-opacity="1" fill-rule="nonzero"/></g></svg>