<svg xmlns="http://www.w3.org/2000/svg" xmlns:xlink="http://www.w3.org/1999/xlink" width="48" zoomAndPan="magnify" viewBox="0 0 36 36.000001" height="48" preserveAspectRatio="xMidYMid meet" version="1.0"><defs><clipPath id="7a825ab505"><path d="M 12 20 L 24 20 L 24 31.90625 L 12 31.90625 Z M 12 20 " clip-rule="nonzero"/></clipPath><clipPath id="8d40ec7399"><path d="M 1.214844 3.445312 L 34.785156 3.445312 L 34.785156 13 L 1.214844 13 Z M 1.214844 3.445312 " clip-rule="nonzero"/></clipPath></defs><g clip-path="url(#7a825ab505)"><path fill="#ff00de" d="M 12.554688 26.257812 C 12.554688 29.230469 14.972656 31.648438 17.945312 31.648438 C 20.917969 31.648438 23.335938 29.230469 23.335938 26.257812 C 23.335938 23.296875 20.917969 20.878906 17.945312 20.878906 C 14.972656 20.878906 12.554688 23.296875 12.554688 26.257812 Z M 12.554688 26.257812 " fill-opacity="1" fill-rule="nonzero"/></g><path fill="#ff00de" d="M 24.722656 21.089844 C 25.132812 21.089844 25.546875 20.929688 25.863281 20.613281 C 26.484375 19.984375 26.480469 18.96875 25.851562 18.34375 C 23.730469 16.238281 20.921875 15.082031 17.945312 15.082031 C 14.972656 15.082031 12.164062 16.238281 10.039062 18.34375 C 9.414062 18.96875 9.40625 19.984375 10.03125 20.613281 C 10.65625 21.242188 11.671875 21.246094 12.300781 20.621094 C 13.816406 19.117188 15.824219 18.289062 17.945312 18.289062 C 20.070312 18.289062 22.074219 19.117188 23.59375 20.621094 C 23.90625 20.933594 24.3125 21.089844 24.722656 21.089844 Z M 24.722656 21.089844 " fill-opacity="1" fill-rule="nonzero"/><path fill="#ff00de" d="M 28.820312 16.988281 C 29.230469 16.988281 29.640625 16.832031 29.957031 16.519531 C 30.582031 15.890625 30.582031 14.875 29.957031 14.25 C 26.746094 11.039062 22.480469 9.273438 17.945312 9.273438 C 13.414062 9.273438 9.148438 11.039062 5.9375 14.25 C 5.308594 14.875 5.308594 15.890625 5.9375 16.519531 C 6.5625 17.144531 7.578125 17.144531 8.207031 16.519531 C 10.808594 13.914062 14.269531 12.480469 17.945312 12.480469 C 21.621094 12.480469 25.082031 13.914062 27.6875 16.519531 C 28 16.832031 28.410156 16.988281 28.820312 16.988281 Z M 28.820312 16.988281 " fill-opacity="1" fill-rule="nonzero"/><g clip-path="url(#8d40ec7399)"><path fill="#ff00de" d="M 17.945312 3.480469 C 11.878906 3.480469 6.160156 5.847656 1.839844 10.148438 C 1.214844 10.773438 1.210938 11.789062 1.835938 12.417969 C 2.460938 13.046875 3.476562 13.046875 4.105469 12.421875 C 7.816406 8.726562 12.734375 6.691406 17.945312 6.691406 C 23.160156 6.691406 28.074219 8.726562 31.789062 12.421875 C 32.101562 12.734375 32.511719 12.890625 32.921875 12.890625 C 33.332031 12.890625 33.742188 12.734375 34.054688 12.417969 C 34.683594 11.789062 34.679688 10.773438 34.050781 10.148438 C 29.734375 5.847656 24.015625 3.480469 17.945312 3.480469 Z M 17.945312 3.480469 " fill-opacity="1" fill-rule="nonzero"/></g></svg>