<svg xmlns="http://www.w3.org/2000/svg" xmlns:xlink="http://www.w3.org/1999/xlink" width="48" zoomAndPan="magnify" viewBox="0 0 36 36.000001" height="48" preserveAspectRatio="xMidYMid meet" version="1.0"><defs><clipPath id="a10497c3c2"><path d="M 1 1.25 L 35 1.25 L 35 34 L 1 34 Z M 1 1.25 " clip-rule="nonzero"/></clipPath></defs><g clip-path="url(#a10497c3c2)"><path fill="#ff00de" d="M 16.113281 1.890625 C 15.4375 1.25 14.382812 1.25 13.707031 1.890625 C 13.066406 2.566406 13.066406 3.585938 13.707031 4.261719 L 29.851562 20.410156 C 30.90625 21.539062 31.546875 23.042969 31.546875 24.546875 C 31.546875 26.128906 30.941406 27.597656 29.851562 28.765625 C 27.519531 31.058594 23.753906 31.058594 21.496094 28.765625 L 5.386719 12.617188 C 4.785156 11.976562 4.410156 11.113281 4.410156 10.246094 C 4.410156 9.378906 4.785156 8.515625 5.386719 7.875 C 6.667969 6.59375 8.886719 6.59375 10.242188 7.875 L 26.3125 23.984375 C 26.613281 24.246094 26.613281 24.8125 26.3125 25.152344 C 25.898438 25.527344 25.410156 25.527344 25.070312 25.152344 L 14.910156 15.027344 C 14.308594 14.3125 13.179688 14.3125 12.539062 15.027344 C 11.898438 15.667969 11.898438 16.757812 12.539062 17.359375 L 22.664062 27.558594 C 24.28125 29.179688 26.953125 29.179688 28.570312 27.558594 C 30.265625 25.828125 30.265625 23.269531 28.570312 21.574219 L 12.574219 5.429688 C 11.257812 4.1875 9.640625 3.472656 7.796875 3.472656 C 5.988281 3.472656 4.296875 4.1875 3.015625 5.429688 C 1.773438 6.746094 1.058594 8.441406 1.058594 10.207031 C 1.058594 12.015625 1.773438 13.707031 3.015625 14.988281 L 19.125 31.058594 C 20.929688 32.867188 23.339844 33.769531 25.675781 33.769531 C 28.046875 33.769531 30.453125 32.867188 32.222656 31.058594 C 33.917969 29.328125 34.933594 26.996094 34.933594 24.511719 C 34.933594 22.027344 33.917969 19.691406 32.222656 18 Z M 16.113281 1.890625 " fill-opacity="1" fill-rule="nonzero"/></g></svg>