<svg xmlns="http://www.w3.org/2000/svg" xmlns:xlink="http://www.w3.org/1999/xlink" width="48" zoomAndPan="magnify" viewBox="0 0 36 36.000001" height="48" preserveAspectRatio="xMidYMid meet" version="1.0"><defs><clipPath id="b71c243896"><path d="M 34.640625 34 L 35.511719 34 L 35.511719 35.027344 L 34.640625 35.027344 Z M 34.640625 34 " clip-rule="nonzero"/></clipPath><clipPath id="ea5fb1ba24"><path d="M 3.3125 0.730469 L 32.503906 0.730469 L 32.503906 34.296875 L 3.3125 34.296875 Z M 3.3125 0.730469 " clip-rule="nonzero"/></clipPath></defs><g clip-path="url(#b71c243896)"><path fill="#000000" d="M 46.980469 42.375 L 45.871094 40.101562 C 45.851562 40.058594 45.832031 40.015625 45.832031 39.972656 C 45.851562 36.960938 43.613281 34.414062 40.746094 34.15625 C 37.378906 33.859375 34.640625 36.578125 34.640625 39.824219 C 34.640625 43.691406 37.671875 43.773438 37.671875 47.511719 C 37.671875 47.617188 37.777344 47.722656 37.882812 47.722656 L 44.242188 47.722656 C 44.34375 47.722656 44.449219 47.617188 44.449219 47.511719 L 44.449219 45.007812 L 45.328125 45.007812 C 45.621094 45.007812 45.851562 44.773438 45.851562 44.476562 L 45.851562 43.054688 C 45.851562 42.988281 45.894531 42.96875 45.957031 42.96875 L 46.648438 42.96875 C 46.792969 42.96875 46.917969 42.902344 46.980469 42.777344 C 47.042969 42.648438 47.042969 42.5 46.980469 42.375 Z M 43.71875 40.015625 C 43.71875 40.125 43.632812 40.207031 43.53125 40.230469 L 42.734375 40.335938 C 42.691406 40.484375 42.628906 40.613281 42.566406 40.738281 L 43.046875 41.398438 C 43.113281 41.480469 43.113281 41.609375 43.027344 41.671875 L 42.273438 42.4375 C 42.191406 42.5 42.085938 42.523438 42.003906 42.457031 L 41.355469 41.96875 C 41.230469 42.035156 41.082031 42.097656 40.957031 42.140625 L 40.851562 42.945312 C 40.832031 43.054688 40.746094 43.136719 40.644531 43.136719 L 39.574219 43.136719 C 39.472656 43.136719 39.386719 43.054688 39.367188 42.945312 L 39.261719 42.140625 C 39.117188 42.097656 38.988281 42.035156 38.863281 41.96875 L 38.214844 42.457031 C 38.132812 42.523438 38.007812 42.523438 37.945312 42.4375 L 37.191406 41.671875 C 37.128906 41.609375 37.109375 41.480469 37.171875 41.398438 L 37.652344 40.738281 C 37.589844 40.613281 37.527344 40.460938 37.484375 40.335938 L 36.6875 40.230469 C 36.585938 40.207031 36.5 40.125 36.5 40.015625 L 36.5 38.933594 C 36.5 38.828125 36.585938 38.742188 36.6875 38.722656 L 37.484375 38.617188 C 37.527344 38.46875 37.589844 38.339844 37.652344 38.210938 L 37.148438 37.53125 C 37.085938 37.449219 37.085938 37.320312 37.171875 37.257812 L 37.921875 36.492188 C 38.007812 36.40625 38.113281 36.40625 38.195312 36.472656 L 38.84375 36.960938 C 38.96875 36.894531 39.117188 36.832031 39.242188 36.789062 L 39.367188 35.984375 C 39.386719 35.878906 39.472656 35.792969 39.574219 35.792969 L 40.644531 35.792969 C 40.746094 35.792969 40.832031 35.878906 40.851562 35.984375 L 40.957031 36.789062 C 41.101562 36.832031 41.230469 36.894531 41.355469 36.960938 L 42.003906 36.472656 C 42.085938 36.40625 42.210938 36.40625 42.273438 36.492188 L 43.027344 37.257812 C 43.113281 37.34375 43.113281 37.449219 43.046875 37.53125 L 42.566406 38.191406 C 42.628906 38.320312 42.691406 38.46875 42.734375 38.59375 L 43.53125 38.699219 C 43.632812 38.722656 43.71875 38.808594 43.71875 38.914062 Z M 43.71875 40.015625 " fill-opacity="1" fill-rule="nonzero"/></g><g clip-path="url(#ea5fb1ba24)"><path fill="#ff00de" d="M 19.984375 0.910156 C 16.355469 0.742188 12.921875 2.023438 10.304688 4.523438 C 7.683594 7.023438 6.242188 10.394531 6.242188 14.011719 C 6.242188 14.464844 6.265625 14.878906 6.308594 15.277344 C 6.324219 15.441406 6.304688 15.597656 6.25 15.742188 L 3.671875 22.488281 C 3.503906 22.921875 3.5625 23.410156 3.824219 23.792969 C 4.089844 24.175781 4.523438 24.402344 4.988281 24.402344 L 5.503906 24.402344 C 6.066406 24.402344 6.523438 24.859375 6.523438 25.421875 L 6.523438 30.253906 C 6.523438 31.03125 7.15625 31.664062 7.933594 31.664062 L 12.5 31.664062 C 13.0625 31.664062 13.519531 32.121094 13.519531 32.683594 C 13.519531 33.566406 14.238281 34.289062 15.125 34.289062 L 27.640625 34.289062 C 28.121094 34.289062 28.570312 34.078125 28.875 33.707031 C 29.183594 33.335938 29.304688 32.855469 29.214844 32.382812 L 28.578125 29.023438 C 28.320312 27.679688 28.460938 26.296875 28.988281 25.03125 L 31.335938 19.355469 L 31.574219 18.808594 C 31.574219 18.804688 31.589844 18.761719 31.589844 18.757812 C 32.195312 17.199219 32.492188 15.550781 32.472656 13.855469 C 32.394531 6.917969 26.90625 1.230469 19.984375 0.910156 M 28.246094 14.859375 C 28.246094 15.214844 28.003906 15.527344 27.664062 15.617188 L 25.734375 16.132812 C 25.609375 16.167969 25.511719 16.261719 25.464844 16.390625 C 25.410156 16.539062 25.347656 16.6875 25.28125 16.832031 C 25.222656 16.957031 25.226562 17.09375 25.289062 17.207031 L 26.289062 18.929688 C 26.46875 19.238281 26.417969 19.628906 26.164062 19.878906 L 25.195312 20.847656 C 24.945312 21.101562 24.554688 21.148438 24.246094 20.972656 L 22.523438 19.976562 C 22.414062 19.910156 22.28125 19.902344 22.171875 19.957031 C 22.011719 20.03125 21.847656 20.097656 21.683594 20.15625 C 21.570312 20.199219 21.484375 20.296875 21.449219 20.421875 L 20.933594 22.347656 C 20.84375 22.6875 20.53125 22.929688 20.175781 22.929688 L 18.804688 22.929688 C 18.449219 22.929688 18.140625 22.6875 18.046875 22.34375 L 17.535156 20.421875 C 17.5 20.300781 17.40625 20.199219 17.277344 20.152344 C 17.128906 20.09375 16.976562 20.035156 16.832031 19.964844 C 16.707031 19.90625 16.570312 19.910156 16.457031 19.976562 L 14.734375 20.972656 C 14.425781 21.152344 14.039062 21.101562 13.785156 20.847656 L 12.816406 19.878906 C 12.566406 19.628906 12.515625 19.238281 12.691406 18.929688 L 13.691406 17.207031 C 13.753906 17.097656 13.757812 16.957031 13.699219 16.832031 C 13.632812 16.6875 13.570312 16.539062 13.515625 16.386719 C 13.46875 16.261719 13.367188 16.164062 13.246094 16.132812 L 11.320312 15.617188 C 10.976562 15.527344 10.738281 15.214844 10.738281 14.859375 L 10.738281 13.488281 C 10.738281 13.136719 10.976562 12.824219 11.320312 12.730469 L 13.246094 12.21875 C 13.367188 12.183594 13.46875 12.089844 13.515625 11.960938 C 13.570312 11.808594 13.632812 11.664062 13.699219 11.515625 C 13.757812 11.390625 13.753906 11.253906 13.691406 11.140625 L 12.695312 9.417969 C 12.515625 9.109375 12.570312 8.722656 12.820312 8.46875 L 13.789062 7.5 C 14.039062 7.25 14.429688 7.199219 14.738281 7.378906 L 16.457031 8.375 C 16.570312 8.4375 16.707031 8.441406 16.832031 8.382812 C 16.976562 8.316406 17.128906 8.253906 17.277344 8.199219 C 17.40625 8.152344 17.5 8.050781 17.535156 7.929688 L 18.046875 6.003906 C 18.140625 5.660156 18.449219 5.421875 18.804688 5.421875 L 20.175781 5.421875 C 20.53125 5.421875 20.84375 5.660156 20.933594 6.003906 L 21.449219 7.929688 C 21.484375 8.050781 21.570312 8.152344 21.683594 8.191406 C 21.847656 8.253906 22.011719 8.320312 22.171875 8.394531 C 22.28125 8.445312 22.414062 8.4375 22.523438 8.375 L 24.246094 7.375 C 24.554688 7.199219 24.945312 7.25 25.195312 7.5 L 26.164062 8.46875 C 26.417969 8.722656 26.46875 9.109375 26.289062 9.417969 L 25.289062 11.144531 C 25.226562 11.253906 25.222656 11.390625 25.28125 11.515625 C 25.347656 11.660156 25.410156 11.808594 25.464844 11.960938 C 25.511719 12.089844 25.609375 12.183594 25.734375 12.214844 L 27.664062 12.730469 C 28.003906 12.824219 28.246094 13.136719 28.246094 13.488281 Z M 28.246094 14.859375 " fill-opacity="1" fill-rule="nonzero"/></g><path fill="#ff00de" d="M 19.492188 10.933594 C 17.703125 10.933594 16.25 12.386719 16.25 14.175781 C 16.25 15.964844 17.703125 17.414062 19.492188 17.414062 C 21.28125 17.414062 22.730469 15.964844 22.730469 14.175781 C 22.730469 12.386719 21.28125 10.933594 19.492188 10.933594 " fill-opacity="1" fill-rule="nonzero"/></svg>