<svg xmlns="http://www.w3.org/2000/svg" xmlns:xlink="http://www.w3.org/1999/xlink" width="48" zoomAndPan="magnify" viewBox="0 0 36 36.000001" height="48" preserveAspectRatio="xMidYMid meet" version="1.0"><defs><clipPath id="fff3bf506d"><path d="M 1.214844 0.773438 L 34.785156 0.773438 L 34.785156 34.339844 L 1.214844 34.339844 Z M 1.214844 0.773438 " clip-rule="nonzero"/></clipPath></defs><g clip-path="url(#fff3bf506d)"><path fill="#5170ff" d="M 14.320312 30.765625 C 9.023438 30.765625 4.714844 26.457031 4.714844 21.160156 C 4.714844 15.863281 9.023438 11.554688 14.320312 11.554688 C 19.617188 11.554688 23.925781 15.863281 23.925781 21.160156 C 23.925781 26.457031 19.617188 30.765625 14.320312 30.765625 Z M 33.023438 0.773438 L 25.101562 0.773438 C 24.140625 0.773438 23.363281 1.550781 23.363281 2.511719 C 23.363281 3.476562 24.140625 4.253906 25.101562 4.253906 L 28.8125 4.253906 L 22.292969 10.777344 C 21.410156 10.097656 20.449219 9.535156 19.414062 9.097656 C 17.800781 8.417969 16.085938 8.070312 14.320312 8.070312 C 12.554688 8.070312 10.839844 8.417969 9.226562 9.097656 C 7.667969 9.757812 6.265625 10.703125 5.066406 11.902344 C 3.863281 13.105469 2.921875 14.503906 2.261719 16.0625 C 1.578125 17.679688 1.230469 19.394531 1.230469 21.160156 C 1.230469 22.925781 1.578125 24.640625 2.261719 26.253906 C 2.921875 27.8125 3.863281 29.210938 5.066406 30.414062 C 6.265625 31.617188 7.667969 32.558594 9.226562 33.21875 C 10.839844 33.902344 12.554688 34.246094 14.320312 34.246094 C 16.085938 34.246094 17.800781 33.902344 19.414062 33.21875 C 20.976562 32.558594 22.375 31.617188 23.574219 30.414062 C 24.777344 29.210938 25.722656 27.8125 26.378906 26.253906 C 27.0625 24.640625 27.410156 22.925781 27.410156 21.160156 C 27.410156 19.394531 27.0625 17.679688 26.378906 16.0625 C 25.953125 15.054688 25.40625 14.109375 24.746094 13.246094 L 31.285156 6.710938 L 31.285156 10.421875 C 31.285156 11.382812 32.0625 12.160156 33.023438 12.160156 C 33.988281 12.160156 34.765625 11.382812 34.765625 10.421875 L 34.765625 2.511719 C 34.765625 1.550781 33.988281 0.773438 33.023438 0.773438 " fill-opacity="1" fill-rule="nonzero"/></g></svg>