<svg xmlns="http://www.w3.org/2000/svg" xmlns:xlink="http://www.w3.org/1999/xlink" width="48" zoomAndPan="magnify" viewBox="0 0 36 36.000001" height="48" preserveAspectRatio="xMidYMid meet" version="1.0"><defs><clipPath id="f2252fbbd8"><path d="M 1.582031 1.15625 L 34.417969 1.15625 L 34.417969 33.992188 L 1.582031 33.992188 Z M 1.582031 1.15625 " clip-rule="nonzero"/></clipPath></defs><g clip-path="url(#f2252fbbd8)"><path fill="#ff00de" d="M 28.105469 14.773438 L 28.207031 12.988281 L 21.109375 12.988281 L 21.109375 15.269531 L 28.0625 15.269531 C 28.078125 15.105469 28.089844 14.941406 28.105469 14.773438 Z M 29.269531 14.199219 L 32.445312 14.199219 C 33.234375 14.199219 33.949219 14.683594 34.128906 15.464844 C 34.300781 16.125 34.394531 16.792969 34.410156 17.460938 C 34.472656 20.160156 33.300781 22.625 31.386719 24.4375 C 29.949219 25.804688 28.121094 26.789062 26.171875 27.316406 C 25.507812 28.445312 24.742188 29.351562 23.875 30.035156 C 23.832031 30.066406 23.796875 30.097656 23.753906 30.125 L 28.140625 30.125 C 28.453125 30.125 28.703125 30.378906 28.703125 30.691406 L 28.703125 31.996094 C 28.703125 33.023438 27.863281 33.863281 26.835938 33.863281 L 4.101562 33.863281 C 3.074219 33.863281 2.230469 33.023438 2.230469 31.996094 L 2.230469 30.691406 C 2.230469 30.378906 2.484375 30.125 2.796875 30.125 L 7.183594 30.125 C 5.4375 28.820312 4.105469 26.601562 3.179688 23.597656 C 2.167969 20.292969 1.71875 16.210938 1.578125 12.445312 C 1.566406 12.128906 1.8125 11.871094 2.140625 11.863281 L 2.140625 11.859375 L 28.796875 11.859375 C 29.125 11.859375 29.382812 12.132812 29.355469 12.496094 C 29.332031 13.074219 29.300781 13.644531 29.269531 14.199219 Z M 25.292969 26.589844 C 25.304688 26.566406 25.316406 26.542969 25.332031 26.523438 C 25.71875 25.832031 26.0625 25.054688 26.375 24.1875 C 26.382812 24.15625 26.394531 24.128906 26.40625 24.101562 C 26.5 23.832031 26.59375 23.554688 26.679688 23.265625 C 27.273438 21.335938 27.703125 18.980469 27.960938 16.398438 L 21.648438 16.398438 L 23.753906 17.945312 C 23.914062 18.042969 24.015625 18.21875 24.015625 18.421875 L 24.015625 24.292969 C 24.015625 24.605469 23.765625 24.859375 23.453125 24.859375 L 17.640625 24.859375 C 17.328125 24.859375 17.074219 24.605469 17.074219 24.292969 L 17.074219 18.421875 L 17.078125 18.421875 C 17.078125 18.242188 17.164062 18.070312 17.320312 17.960938 L 19.550781 16.398438 L 2.972656 16.398438 C 3.425781 20.921875 4.5625 26.632812 7.757812 29.148438 C 8.601562 29.816406 9.496094 30.125 10.570312 30.125 L 20.367188 30.125 C 21.441406 30.125 22.332031 29.816406 23.179688 29.148438 C 23.976562 28.523438 24.679688 27.667969 25.292969 26.589844 Z M 26.898438 25.902344 C 29.886719 24.796875 32.441406 22.460938 33.121094 19.246094 C 33.367188 18.078125 33.34375 16.894531 33.039062 15.738281 L 33.042969 15.738281 C 33.011719 15.621094 33 15.550781 32.863281 15.453125 C 32.757812 15.375 32.613281 15.328125 32.445312 15.328125 L 29.1875 15.328125 L 29.117188 16.164062 L 31.484375 16.164062 C 31.761719 16.164062 32 16.363281 32.042969 16.644531 C 32.296875 18.375 31.90625 20.003906 31.070312 21.394531 C 30.222656 22.808594 28.914062 23.972656 27.371094 24.742188 C 27.21875 25.148438 27.0625 25.535156 26.898438 25.902344 Z M 27.890625 23.132812 C 28.800781 22.511719 29.5625 21.722656 30.105469 20.820312 C 30.734375 19.773438 31.066406 18.570312 30.980469 17.289062 L 28.996094 17.289062 C 28.742188 19.496094 28.375 21.445312 27.890625 23.132812 Z M 18.203125 23.730469 L 22.886719 23.730469 L 22.886719 18.703125 L 20.605469 17.027344 L 18.203125 18.710938 Z M 19.980469 15.269531 L 19.980469 12.988281 L 2.726562 12.988281 C 2.761719 13.777344 2.8125 14.535156 2.871094 15.269531 Z M 7.667969 1.355469 C 7.875 1.121094 8.226562 1.097656 8.460938 1.304688 C 8.695312 1.507812 8.71875 1.863281 8.515625 2.09375 C 7.726562 2.996094 7.726562 4.359375 8.515625 5.265625 C 9.679688 6.597656 9.675781 8.578125 8.515625 9.910156 C 8.308594 10.144531 7.953125 10.167969 7.722656 9.964844 C 7.488281 9.761719 7.464844 9.40625 7.667969 9.171875 C 8.457031 8.269531 8.457031 6.910156 7.667969 6.003906 C 6.503906 4.667969 6.503906 2.691406 7.667969 1.355469 Z M 24.726562 1.355469 C 24.929688 1.121094 25.285156 1.097656 25.519531 1.304688 C 25.753906 1.507812 25.777344 1.863281 25.574219 2.09375 C 24.785156 2.996094 24.785156 4.359375 25.574219 5.265625 C 26.734375 6.597656 26.734375 8.578125 25.574219 9.910156 C 25.367188 10.144531 25.011719 10.167969 24.78125 9.964844 C 24.546875 9.761719 24.523438 9.40625 24.726562 9.171875 C 25.515625 8.269531 25.515625 6.910156 24.726562 6.003906 C 23.5625 4.667969 23.5625 2.691406 24.726562 1.355469 Z M 19.042969 1.355469 C 19.246094 1.121094 19.601562 1.097656 19.832031 1.304688 C 20.066406 1.507812 20.089844 1.863281 19.886719 2.09375 C 19.097656 2.996094 19.097656 4.359375 19.886719 5.265625 C 21.050781 6.597656 21.050781 8.578125 19.886719 9.910156 C 19.683594 10.144531 19.328125 10.167969 19.09375 9.964844 C 18.859375 9.761719 18.835938 9.40625 19.042969 9.171875 C 19.828125 8.269531 19.828125 6.910156 19.042969 6.003906 C 17.875 4.667969 17.875 2.691406 19.042969 1.355469 Z M 13.355469 1.355469 C 13.558594 1.121094 13.914062 1.097656 14.148438 1.304688 C 14.378906 1.507812 14.40625 1.863281 14.199219 2.09375 C 13.410156 2.996094 13.410156 4.359375 14.199219 5.265625 C 15.363281 6.597656 15.363281 8.578125 14.199219 9.910156 C 13.996094 10.144531 13.640625 10.167969 13.40625 9.964844 C 13.171875 9.761719 13.152344 9.40625 13.355469 9.171875 C 14.144531 8.269531 14.144531 6.910156 13.355469 6.003906 C 12.191406 4.667969 12.191406 2.691406 13.355469 1.355469 Z M 27.578125 31.253906 L 3.359375 31.253906 L 3.359375 31.996094 C 3.359375 32.402344 3.695312 32.738281 4.101562 32.738281 L 26.835938 32.738281 C 27.242188 32.738281 27.578125 32.402344 27.578125 31.996094 Z M 27.578125 31.253906 " fill-opacity="1" fill-rule="nonzero"/></g></svg>