<svg xmlns="http://www.w3.org/2000/svg" xmlns:xlink="http://www.w3.org/1999/xlink" width="48" zoomAndPan="magnify" viewBox="0 0 36 36.000001" height="48" preserveAspectRatio="xMidYMid meet" version="1.0"><defs><clipPath id="95d77836c6"><path d="M 15 0.5 L 25 0.5 L 25 10 L 15 10 Z M 15 0.5 " clip-rule="nonzero"/></clipPath><clipPath id="c2bf7dca68"><path d="M 1.128906 8 L 34.695312 8 L 34.695312 34.796875 L 1.128906 34.796875 Z M 1.128906 8 " clip-rule="nonzero"/></clipPath></defs><g clip-path="url(#95d77836c6)"><path fill="#ff00de" d="M 19.773438 9.382812 C 22.226562 9.382812 24.214844 7.394531 24.214844 4.941406 C 24.214844 2.492188 22.226562 0.503906 19.773438 0.503906 C 17.324219 0.503906 15.335938 2.492188 15.335938 4.941406 C 15.335938 7.394531 17.324219 9.382812 19.773438 9.382812 Z M 19.773438 8.496094 C 21.734375 8.496094 23.324219 6.90625 23.324219 4.941406 C 23.324219 2.980469 21.734375 1.390625 19.773438 1.390625 C 17.8125 1.390625 16.222656 2.980469 16.222656 4.941406 C 16.222656 6.90625 17.8125 8.496094 19.773438 8.496094 Z M 19.773438 8.496094 " fill-opacity="1" fill-rule="evenodd"/></g><path fill="#ff00de" d="M 5.125 8.496094 L 15.777344 8.496094 C 16.023438 8.496094 16.222656 8.691406 16.222656 8.9375 C 16.222656 9.183594 16.023438 9.382812 15.777344 9.382812 L 5.125 9.382812 C 4.390625 9.382812 3.792969 9.980469 3.792969 10.714844 C 3.792969 11.449219 4.390625 12.046875 5.125 12.046875 L 14.003906 12.046875 C 14.25 12.046875 14.445312 12.246094 14.445312 12.488281 C 14.445312 12.734375 14.25 12.933594 14.003906 12.933594 L 5.125 12.933594 C 3.898438 12.933594 2.90625 11.941406 2.90625 10.714844 C 2.90625 9.488281 3.898438 8.496094 5.125 8.496094 Z M 5.125 8.496094 " fill-opacity="1" fill-rule="nonzero"/><g clip-path="url(#c2bf7dca68)"><path fill="#ff00de" d="M 16.421875 9.492188 C 16.695312 9.222656 17.109375 9.453125 17.109375 9.835938 C 17.109375 9.980469 17.046875 10.113281 16.949219 10.214844 C 16.5 10.695312 16.222656 11.335938 16.222656 12.046875 L 16.222656 21.625 C 16.222656 22.074219 16.050781 22.511719 15.738281 22.839844 L 11.28125 27.574219 C 11.1875 27.675781 11.074219 27.75 10.945312 27.800781 L 2.847656 30.824219 C 2.347656 31.011719 2.015625 31.488281 2.015625 32.023438 C 2.015625 32.882812 2.851562 33.5 3.671875 33.246094 L 11.957031 30.699219 C 12.15625 30.636719 12.34375 30.539062 12.511719 30.414062 L 12.523438 30.402344 L 19.144531 25.535156 C 19.296875 25.425781 19.480469 25.363281 19.671875 25.363281 C 21.660156 25.363281 23.597656 25.234375 25.578125 25.105469 C 26.574219 25.039062 27.578125 24.972656 28.609375 24.921875 C 28.851562 24.910156 29.089844 24.996094 29.265625 25.164062 C 29.441406 25.332031 29.539062 25.566406 29.539062 25.808594 L 29.539062 32.023438 C 29.539062 32.757812 30.136719 33.355469 30.871094 33.355469 C 31.609375 33.355469 32.203125 32.757812 32.203125 32.023438 L 32.203125 23.589844 C 32.203125 22.605469 31.410156 21.8125 30.429688 21.8125 L 24.214844 21.8125 C 23.722656 21.8125 23.324219 21.414062 23.324219 20.925781 L 23.324219 12.933594 C 23.324219 12.445312 23.722656 12.046875 24.214844 12.046875 L 32.648438 12.046875 C 33.382812 12.046875 33.980469 11.449219 33.980469 10.714844 C 33.980469 9.980469 33.382812 9.382812 32.648438 9.382812 L 22.882812 9.382812 C 22.636719 9.382812 22.4375 9.183594 22.4375 8.9375 C 22.4375 8.691406 22.636719 8.496094 22.882812 8.496094 L 32.648438 8.496094 C 33.875 8.496094 34.867188 9.488281 34.867188 10.714844 C 34.867188 11.941406 33.875 12.933594 32.648438 12.933594 L 24.214844 12.933594 L 24.214844 20.925781 L 30.429688 20.925781 C 31.898438 20.925781 33.09375 22.117188 33.09375 23.589844 L 33.09375 32.023438 C 33.09375 33.25 32.097656 34.242188 30.871094 34.242188 C 29.648438 34.242188 28.652344 33.25 28.652344 32.023438 L 28.652344 25.808594 C 28.355469 25.824219 28.058594 25.839844 27.765625 25.855469 C 27.066406 25.894531 26.371094 25.941406 25.675781 25.988281 C 23.675781 26.121094 21.691406 26.25 19.671875 26.25 L 13.046875 31.121094 C 12.800781 31.308594 12.519531 31.453125 12.21875 31.546875 L 3.933594 34.09375 C 2.539062 34.523438 1.128906 33.480469 1.128906 32.023438 C 1.128906 31.117188 1.691406 30.308594 2.539062 29.992188 L 10.632812 26.96875 L 15.09375 22.230469 C 15.25 22.066406 15.335938 21.851562 15.335938 21.625 L 15.335938 12.046875 C 15.335938 11.042969 15.75 10.136719 16.421875 9.492188 Z M 16.421875 9.492188 " fill-opacity="1" fill-rule="nonzero"/></g><path fill="#ff00de" d="M 19.964844 15.519531 C 19.855469 15.625 19.671875 15.621094 19.5625 15.519531 L 17.480469 13.574219 L 17.484375 13.570312 C 16.953125 12.992188 16.988281 12.132812 17.585938 11.589844 C 18.183594 11.046875 19.132812 11.015625 19.769531 11.5 L 19.773438 11.496094 L 19.777344 11.5 C 20.414062 11.015625 21.363281 11.046875 21.964844 11.589844 C 22.5625 12.132812 22.59375 12.992188 22.0625 13.570312 L 22.066406 13.574219 Z M 19.964844 15.519531 " fill-opacity="1" fill-rule="nonzero"/></svg>