<svg xmlns="http://www.w3.org/2000/svg" xmlns:xlink="http://www.w3.org/1999/xlink" width="48" zoomAndPan="magnify" viewBox="0 0 36 36.000001" height="48" preserveAspectRatio="xMidYMid meet" version="1.0"><defs><clipPath id="6f6cab6367"><path d="M 5 27 L 14 27 L 14 29.375 L 5 29.375 Z M 5 27 " clip-rule="nonzero"/></clipPath><clipPath id="dc1aeb4b06"><path d="M 15 5.296875 L 32 5.296875 L 32 11 L 15 11 Z M 15 5.296875 " clip-rule="nonzero"/></clipPath><clipPath id="f7f5bfc1d0"><path d="M 33 17 L 34.886719 17 L 34.886719 21 L 33 21 Z M 33 17 " clip-rule="nonzero"/></clipPath><clipPath id="783ce16d9e"><path d="M 1.320312 14 L 3 14 L 3 18 L 1.320312 18 Z M 1.320312 14 " clip-rule="nonzero"/></clipPath></defs><path fill="#ff00de" d="M 17.09375 16.59375 C 17.21875 16.503906 17.367188 16.445312 17.539062 16.410156 L 17.539062 17.816406 C 17.539062 17.816406 17.535156 17.816406 17.53125 17.8125 C 17.410156 17.777344 17.292969 17.726562 17.171875 17.660156 C 17.054688 17.59375 16.957031 17.519531 16.890625 17.429688 C 16.824219 17.339844 16.792969 17.230469 16.792969 17.105469 C 16.796875 16.910156 16.894531 16.738281 17.09375 16.59375 Z M 17.09375 16.59375 " fill-opacity="1" fill-rule="nonzero"/><path fill="#ff00de" d="M 19.007812 19.566406 C 19.136719 19.695312 19.199219 19.863281 19.199219 20.066406 C 19.199219 20.328125 19.082031 20.542969 18.851562 20.714844 C 18.722656 20.808594 18.578125 20.878906 18.40625 20.921875 L 18.40625 19.238281 C 18.449219 19.25 18.488281 19.261719 18.523438 19.273438 C 18.722656 19.339844 18.886719 19.4375 19.007812 19.566406 Z M 19.007812 19.566406 " fill-opacity="1" fill-rule="nonzero"/><path fill="#ff00de" d="M 27.699219 13.753906 L 8.253906 13.753906 C 8.203125 14.015625 8.117188 14.261719 7.996094 14.488281 C 7.625 15.207031 6.949219 15.742188 6.144531 15.921875 C 6.121094 15.929688 6.097656 15.933594 6.074219 15.9375 L 6.074219 21.449219 C 6.347656 21.503906 6.609375 21.601562 6.851562 21.730469 C 7.566406 22.113281 8.089844 22.808594 8.253906 23.628906 L 27.699219 23.628906 C 27.710938 23.558594 27.730469 23.484375 27.75 23.414062 C 27.839844 23.105469 27.976562 22.820312 28.15625 22.566406 C 28.558594 22 29.171875 21.589844 29.878906 21.449219 L 29.878906 15.9375 C 28.78125 15.722656 27.914062 14.855469 27.699219 13.753906 Z M 20.148438 20.941406 C 19.953125 21.242188 19.671875 21.472656 19.300781 21.644531 C 19.035156 21.761719 18.742188 21.839844 18.40625 21.875 L 18.40625 22.5 C 18.40625 22.738281 18.214844 22.933594 17.976562 22.933594 C 17.738281 22.933594 17.542969 22.738281 17.542969 22.5 L 17.542969 21.875 C 17.125 21.832031 16.765625 21.722656 16.46875 21.550781 C 16.183594 21.382812 15.953125 21.160156 15.777344 20.886719 C 15.601562 20.605469 15.515625 20.339844 15.515625 20.078125 C 15.515625 19.925781 15.570312 19.796875 15.675781 19.683594 C 15.78125 19.574219 15.914062 19.523438 16.078125 19.523438 C 16.210938 19.523438 16.324219 19.566406 16.414062 19.648438 C 16.503906 19.730469 16.582031 19.859375 16.644531 20.023438 C 16.726562 20.21875 16.808594 20.386719 16.902344 20.519531 C 16.992188 20.652344 17.121094 20.761719 17.289062 20.847656 C 17.359375 20.886719 17.449219 20.914062 17.539062 20.9375 L 17.539062 19.011719 C 17.175781 18.917969 16.867188 18.8125 16.609375 18.691406 C 16.3125 18.550781 16.070312 18.363281 15.894531 18.121094 C 15.71875 17.878906 15.632812 17.578125 15.632812 17.222656 C 15.632812 16.882812 15.726562 16.582031 15.910156 16.316406 C 16.097656 16.046875 16.367188 15.847656 16.71875 15.703125 C 16.964844 15.601562 17.238281 15.539062 17.542969 15.511719 L 17.542969 14.890625 C 17.542969 14.648438 17.738281 14.457031 17.976562 14.457031 C 18.214844 14.457031 18.40625 14.648438 18.40625 14.890625 L 18.40625 15.515625 C 18.605469 15.539062 18.785156 15.578125 18.945312 15.632812 C 19.226562 15.726562 19.457031 15.851562 19.636719 16.007812 C 19.820312 16.164062 19.953125 16.328125 20.039062 16.5 C 20.125 16.671875 20.167969 16.839844 20.167969 17.003906 C 20.167969 17.152344 20.113281 17.285156 20.007812 17.410156 C 19.902344 17.527344 19.769531 17.585938 19.613281 17.585938 C 19.46875 17.585938 19.359375 17.550781 19.28125 17.480469 C 19.207031 17.410156 19.125 17.292969 19.039062 17.128906 C 18.925781 16.894531 18.789062 16.714844 18.632812 16.582031 C 18.574219 16.535156 18.496094 16.492188 18.40625 16.460938 L 18.40625 18.050781 C 18.652344 18.113281 18.875 18.179688 19.082031 18.253906 C 19.367188 18.351562 19.609375 18.46875 19.804688 18.613281 C 20.003906 18.75 20.15625 18.929688 20.269531 19.148438 C 20.378906 19.363281 20.4375 19.625 20.4375 19.9375 C 20.4375 20.304688 20.339844 20.640625 20.148438 20.941406 Z M 20.148438 20.941406 " fill-opacity="1" fill-rule="nonzero"/><path fill="#ff00de" d="M 32.53125 10.714844 L 3.421875 10.714844 C 3.179688 10.714844 2.984375 10.90625 2.984375 11.148438 L 2.984375 26.238281 C 2.984375 26.480469 3.175781 26.675781 3.421875 26.675781 L 32.527344 26.675781 C 32.769531 26.675781 32.964844 26.484375 32.964844 26.238281 L 32.964844 11.148438 C 32.964844 10.90625 32.769531 10.714844 32.53125 10.714844 Z M 30.949219 21.933594 C 30.949219 22.226562 30.710938 22.46875 30.414062 22.46875 C 29.976562 22.46875 29.574219 22.636719 29.269531 22.910156 C 28.933594 23.222656 28.714844 23.667969 28.714844 24.164062 C 28.714844 24.457031 28.476562 24.699219 28.179688 24.699219 L 7.769531 24.699219 C 7.472656 24.699219 7.234375 24.457031 7.234375 24.164062 C 7.234375 23.382812 6.703125 22.722656 5.988281 22.527344 C 5.84375 22.488281 5.691406 22.46875 5.535156 22.46875 C 5.238281 22.46875 5 22.226562 5 21.933594 L 5 15.453125 C 5 15.15625 5.238281 14.917969 5.535156 14.917969 C 6.414062 14.917969 7.144531 14.242188 7.222656 13.378906 C 7.230469 13.328125 7.230469 13.273438 7.230469 13.21875 C 7.230469 12.925781 7.46875 12.683594 7.765625 12.683594 L 28.175781 12.683594 C 28.472656 12.683594 28.710938 12.925781 28.710938 13.21875 C 28.710938 13.863281 29.070312 14.425781 29.601562 14.710938 C 29.84375 14.84375 30.117188 14.917969 30.410156 14.917969 C 30.648438 14.917969 30.851562 15.074219 30.917969 15.289062 L 30.921875 15.296875 C 30.941406 15.347656 30.945312 15.402344 30.945312 15.453125 L 30.945312 21.933594 Z M 30.949219 21.933594 " fill-opacity="1" fill-rule="nonzero"/><g clip-path="url(#6f6cab6367)"><path fill="#ff00de" d="M 6.171875 27.351562 L 5.457031 27.351562 L 6.125 29.378906 C 6.203125 29.605469 6.445312 29.730469 6.675781 29.652344 L 13.65625 27.351562 Z M 6.171875 27.351562 " fill-opacity="1" fill-rule="nonzero"/></g><g clip-path="url(#dc1aeb4b06)"><path fill="#ff00de" d="M 25.808594 8.609375 C 26.085938 8.515625 26.390625 8.667969 26.480469 8.949219 C 26.660156 9.484375 27.078125 9.871094 27.574219 10.03125 L 28.613281 10.03125 C 28.617188 10.03125 28.621094 10.027344 28.625 10.027344 C 28.742188 9.988281 28.867188 9.992188 28.972656 10.03125 L 31.3125 10.03125 L 29.867188 5.648438 C 29.789062 5.421875 29.546875 5.296875 29.316406 5.371094 L 15.195312 10.035156 L 21.488281 10.035156 Z M 25.808594 8.609375 " fill-opacity="1" fill-rule="nonzero"/></g><g clip-path="url(#f7f5bfc1d0)"><path fill="#ff00de" d="M 34.59375 19.980469 L 33.640625 17.097656 L 33.640625 20.753906 L 34.316406 20.53125 C 34.546875 20.457031 34.667969 20.210938 34.59375 19.980469 Z M 34.59375 19.980469 " fill-opacity="1" fill-rule="nonzero"/></g><g clip-path="url(#783ce16d9e)"><path fill="#ff00de" d="M 1.398438 15.046875 L 2.308594 17.808594 L 2.308594 14.289062 L 1.675781 14.5 C 1.445312 14.574219 1.324219 14.820312 1.398438 15.046875 Z M 1.398438 15.046875 " fill-opacity="1" fill-rule="nonzero"/></g></svg>