<svg xmlns="http://www.w3.org/2000/svg" xmlns:xlink="http://www.w3.org/1999/xlink" width="48" zoomAndPan="magnify" viewBox="0 0 36 36.000001" height="48" preserveAspectRatio="xMidYMid meet" version="1.0"><defs><clipPath id="f61a6b6069"><path d="M 0.902344 0.417969 L 35.199219 0.417969 L 35.199219 34.714844 L 0.902344 34.714844 Z M 0.902344 0.417969 " clip-rule="nonzero"/></clipPath><clipPath id="088cfa3909"><path d="M 4.324219 3.835938 L 31.324219 3.835938 L 31.324219 30.835938 L 4.324219 30.835938 Z M 4.324219 3.835938 " clip-rule="nonzero"/></clipPath><clipPath id="e8efb0580b"><path d="M 6.070312 15.277344 L 30 15.277344 L 30 19.65625 L 6.070312 19.65625 Z M 6.070312 15.277344 " clip-rule="nonzero"/></clipPath><clipPath id="792014b71c"><path d="M 7.054688 2.117188 L 28.945312 2.117188 L 28.945312 32.765625 L 7.054688 32.765625 Z M 7.054688 2.117188 " clip-rule="nonzero"/></clipPath></defs><g clip-path="url(#f61a6b6069)"><path fill="#ff00de" d="M 26.6875 0.457031 L 9.292969 0.457031 C 8.742188 0.457031 8.195312 0.511719 7.65625 0.621094 C 7.117188 0.726562 6.589844 0.886719 6.082031 1.097656 C 5.574219 1.308594 5.089844 1.566406 4.632812 1.871094 C 4.171875 2.179688 3.75 2.527344 3.359375 2.914062 C 2.972656 3.304688 2.625 3.730469 2.316406 4.1875 C 2.011719 4.644531 1.753906 5.128906 1.542969 5.636719 C 1.332031 6.144531 1.171875 6.671875 1.066406 7.210938 C 0.957031 7.75 0.902344 8.296875 0.902344 8.847656 L 0.902344 26.210938 C 0.902344 26.761719 0.957031 27.308594 1.066406 27.847656 C 1.171875 28.386719 1.332031 28.914062 1.542969 29.421875 C 1.753906 29.929688 2.011719 30.414062 2.316406 30.871094 C 2.625 31.332031 2.972656 31.753906 3.359375 32.144531 C 3.75 32.53125 4.171875 32.878906 4.632812 33.1875 C 5.089844 33.492188 5.574219 33.75 6.082031 33.960938 C 6.589844 34.171875 7.117188 34.332031 7.65625 34.4375 C 8.195312 34.546875 8.742188 34.601562 9.292969 34.601562 L 26.6875 34.601562 C 27.238281 34.601562 27.785156 34.546875 28.324219 34.4375 C 28.863281 34.332031 29.390625 34.171875 29.898438 33.960938 C 30.40625 33.75 30.890625 33.492188 31.347656 33.1875 C 31.804688 32.878906 32.230469 32.53125 32.621094 32.144531 C 33.007812 31.753906 33.355469 31.332031 33.664062 30.871094 C 33.96875 30.414062 34.226562 29.929688 34.4375 29.421875 C 34.648438 28.914062 34.808594 28.386719 34.914062 27.847656 C 35.023438 27.308594 35.078125 26.761719 35.078125 26.210938 L 35.078125 8.804688 C 35.074219 8.257812 35.015625 7.714844 34.90625 7.175781 C 34.796875 6.636719 34.636719 6.113281 34.425781 5.609375 C 34.214844 5.101562 33.953125 4.621094 33.648438 4.164062 C 33.339844 3.710938 32.992188 3.289062 32.605469 2.902344 C 32.214844 2.515625 31.792969 2.167969 31.335938 1.863281 C 30.878906 1.558594 30.394531 1.304688 29.886719 1.09375 C 29.378906 0.882812 28.859375 0.726562 28.320312 0.617188 C 27.78125 0.511719 27.238281 0.457031 26.6875 0.457031 Z M 28 19.605469 L 20.09375 19.605469 L 20.09375 27.523438 C 20.09375 27.800781 20.039062 28.066406 19.933594 28.324219 C 19.828125 28.582031 19.675781 28.808594 19.476562 29.003906 C 19.28125 29.203125 19.054688 29.351562 18.796875 29.460938 C 18.539062 29.566406 18.273438 29.621094 17.996094 29.621094 C 17.71875 29.621094 17.449219 29.566406 17.191406 29.460938 C 16.9375 29.351562 16.707031 29.203125 16.511719 29.003906 C 16.316406 28.808594 16.164062 28.582031 16.058594 28.324219 C 15.953125 28.066406 15.898438 27.800781 15.898438 27.523438 L 15.898438 19.605469 L 7.980469 19.605469 C 7.703125 19.605469 7.4375 19.550781 7.179688 19.445312 C 6.921875 19.339844 6.695312 19.1875 6.5 18.992188 C 6.300781 18.792969 6.148438 18.566406 6.042969 18.3125 C 5.9375 18.054688 5.882812 17.785156 5.882812 17.507812 C 5.882812 17.230469 5.9375 16.964844 6.042969 16.707031 C 6.148438 16.449219 6.300781 16.222656 6.5 16.027344 C 6.695312 15.828125 6.921875 15.675781 7.179688 15.570312 C 7.4375 15.464844 7.703125 15.410156 7.980469 15.410156 L 15.898438 15.410156 L 15.898438 7.496094 C 15.898438 7.214844 15.953125 6.949219 16.058594 6.691406 C 16.164062 6.433594 16.316406 6.207031 16.511719 6.011719 C 16.707031 5.816406 16.9375 5.664062 17.191406 5.558594 C 17.449219 5.449219 17.71875 5.398438 17.996094 5.398438 C 18.273438 5.398438 18.539062 5.449219 18.796875 5.558594 C 19.054688 5.664062 19.28125 5.816406 19.476562 6.011719 C 19.675781 6.207031 19.828125 6.433594 19.933594 6.691406 C 20.039062 6.949219 20.09375 7.214844 20.09375 7.496094 L 20.09375 15.410156 L 28 15.410156 C 28.277344 15.410156 28.542969 15.464844 28.800781 15.570312 C 29.058594 15.675781 29.285156 15.828125 29.480469 16.027344 C 29.679688 16.222656 29.828125 16.449219 29.9375 16.707031 C 30.042969 16.964844 30.09375 17.230469 30.09375 17.507812 C 30.09375 17.785156 30.042969 18.054688 29.9375 18.3125 C 29.828125 18.566406 29.679688 18.792969 29.480469 18.992188 C 29.285156 19.1875 29.058594 19.339844 28.800781 19.445312 C 28.542969 19.550781 28.277344 19.605469 28 19.605469 Z M 28 19.605469 " fill-opacity="1" fill-rule="nonzero"/></g><g clip-path="url(#088cfa3909)"><path fill="#ff00de" d="M 25.386719 18.355469 L 10.613281 18.355469 C 10.148438 18.355469 9.769531 17.976562 9.769531 17.511719 C 9.769531 17.046875 10.148438 16.671875 10.613281 16.671875 L 25.386719 16.671875 C 25.851562 16.671875 26.230469 17.046875 26.230469 17.511719 C 26.230469 17.976562 25.851562 18.355469 25.386719 18.355469 Z M 27.660156 7.851562 C 25.082031 5.269531 21.648438 3.847656 18 3.847656 C 14.351562 3.847656 10.917969 5.269531 8.335938 7.851562 C 5.757812 10.433594 4.335938 13.863281 4.335938 17.511719 C 4.335938 21.164062 5.757812 24.59375 8.335938 27.175781 C 10.917969 29.753906 14.351562 31.175781 18 31.175781 C 21.648438 31.175781 25.082031 29.753906 27.660156 27.175781 C 30.242188 24.59375 31.664062 21.164062 31.664062 17.511719 C 31.664062 13.863281 30.242188 10.433594 27.660156 7.851562 " fill-opacity="1" fill-rule="nonzero"/><path stroke-linecap="butt" transform="matrix(0.00248442, 0, 0, -0.00248442, 4.322779, 31.189755)" fill="none" stroke-linejoin="miter" d="M 8478.413957 5165.908778 L 2531.980249 5165.908778 C 2344.876703 5165.908778 2192.363729 5318.421753 2192.363729 5505.525299 C 2192.363729 5692.628845 2344.876703 5843.569521 2531.980249 5843.569521 L 8478.413957 5843.569521 C 8665.517503 5843.569521 8818.030477 5692.628845 8818.030477 5505.525299 C 8818.030477 5318.421753 8665.517503 5165.908778 8478.413957 5165.908778 Z M 9393.491804 9393.82 C 8355.774657 10433.109445 6973.724095 11005.426174 5505.197103 11005.426174 C 4036.670111 11005.426174 2654.619548 10433.109445 1615.330103 9393.82 C 577.612957 8354.530555 5.296228 6974.052291 5.296228 5505.525299 C 5.296228 4035.426008 577.612957 2654.947744 1615.330103 1615.658299 C 2654.619548 577.941153 4036.670111 5.624424 5505.197103 5.624424 C 6973.724095 5.624424 8355.774657 577.941153 9393.491804 1615.658299 C 10432.781249 2654.947744 11005.097978 4035.426008 11005.097978 5505.525299 C 11005.097978 6974.052291 10432.781249 8354.530555 9393.491804 9393.82 Z M 9393.491804 9393.82 " stroke="#12110f" stroke-width="10" stroke-opacity="1" stroke-miterlimit="10"/></g><g clip-path="url(#e8efb0580b)"><path fill="#ff00de" d="M 29.882812 17.507812 C 29.882812 18.738281 28.886719 19.738281 27.65625 19.738281 L 8.335938 19.738281 C 7.105469 19.738281 6.105469 18.738281 6.105469 17.507812 C 6.105469 16.277344 7.105469 15.277344 8.335938 15.277344 L 27.65625 15.277344 C 28.886719 15.277344 29.882812 16.277344 29.882812 17.507812 Z M 29.882812 17.507812 " fill-opacity="1" fill-rule="nonzero"/></g><path fill="#000000" d="M 17.878906 16.066406 C 17.65625 16.066406 17.445312 15.976562 17.289062 15.824219 L 14.050781 12.601562 C 13.894531 12.445312 13.804688 12.234375 13.804688 12.015625 C 13.804688 11.792969 13.894531 11.582031 14.050781 11.425781 L 15.578125 9.90625 C 15.902344 9.582031 16.429688 9.582031 16.753906 9.90625 L 17.878906 11.023438 L 21.4375 7.480469 C 21.59375 7.328125 21.804688 7.238281 22.027344 7.238281 C 22.25 7.238281 22.460938 7.328125 22.617188 7.480469 L 24.144531 9 C 24.46875 9.324219 24.46875 9.851562 24.144531 10.175781 L 18.46875 15.824219 C 18.3125 15.976562 18.097656 16.066406 17.878906 16.066406 Z M 15.816406 12.015625 L 17.878906 14.0625 L 22.375 9.589844 L 22.027344 9.242188 L 18.464844 12.785156 C 18.140625 13.109375 17.613281 13.109375 17.289062 12.785156 L 16.164062 11.667969 Z M 15.816406 12.015625 " fill-opacity="1" fill-rule="nonzero"/><path fill="#000000" d="M 17.292969 19.054688 C 16.410156 19.054688 15.550781 18.886719 14.738281 18.558594 C 13.894531 18.21875 13.140625 17.71875 12.492188 17.074219 C 11.84375 16.429688 11.34375 15.679688 11.003906 14.839844 C 10.671875 14.03125 10.503906 13.175781 10.503906 12.300781 C 10.503906 11.425781 10.671875 10.570312 11.003906 9.761719 C 11.34375 8.921875 11.84375 8.171875 12.492188 7.527344 C 13.058594 6.960938 13.710938 6.507812 14.433594 6.175781 C 15.132812 5.851562 15.875 5.652344 16.640625 5.578125 C 18.183594 5.433594 19.738281 5.816406 21.027344 6.660156 L 20.105469 8.046875 C 18.089844 6.722656 15.382812 6.996094 13.671875 8.699219 C 11.675781 10.683594 11.675781 13.917969 13.671875 15.902344 C 14.636719 16.863281 15.925781 17.394531 17.292969 17.394531 C 18.660156 17.394531 19.945312 16.863281 20.910156 15.902344 C 21.808594 15.011719 22.335938 13.824219 22.402344 12.566406 L 24.066406 12.652344 C 23.980469 14.324219 23.277344 15.894531 22.089844 17.074219 C 21.441406 17.71875 20.6875 18.21875 19.84375 18.558594 C 19.03125 18.886719 18.171875 19.054688 17.292969 19.054688 Z M 17.292969 19.054688 " fill-opacity="1" fill-rule="nonzero"/><g clip-path="url(#792014b71c)"><path fill="#000000" d="M 28.113281 32.675781 C 27.890625 32.675781 27.671875 32.585938 27.511719 32.421875 L 26.03125 30.894531 L 24.84375 32.363281 C 24.703125 32.535156 24.5 32.644531 24.28125 32.667969 C 24.0625 32.691406 23.839844 32.628906 23.667969 32.488281 L 21.53125 30.769531 L 19.984375 32.410156 C 19.699219 32.714844 19.234375 32.761719 18.894531 32.519531 L 16.226562 30.632812 L 13.011719 32.554688 C 12.679688 32.753906 12.257812 32.699219 11.984375 32.425781 L 10.367188 30.78125 L 8.4375 32.46875 C 8.191406 32.683594 7.84375 32.734375 7.542969 32.601562 C 7.246094 32.464844 7.054688 32.171875 7.054688 31.84375 L 7.054688 2.949219 C 7.054688 2.492188 7.425781 2.121094 7.886719 2.121094 L 28.113281 2.121094 C 28.574219 2.121094 28.945312 2.492188 28.945312 2.949219 L 28.945312 31.84375 C 28.945312 32.183594 28.738281 32.488281 28.425781 32.613281 C 28.324219 32.65625 28.21875 32.675781 28.113281 32.675781 Z M 10.410156 28.8125 C 10.625 28.8125 10.84375 28.894531 11.003906 29.058594 L 12.714844 30.796875 L 15.832031 28.929688 C 16.117188 28.757812 16.476562 28.773438 16.746094 28.964844 L 19.265625 30.75 L 20.847656 29.074219 C 21.144531 28.757812 21.640625 28.722656 21.980469 28.996094 L 24.066406 30.675781 L 25.320312 29.121094 C 25.472656 28.933594 25.695312 28.824219 25.933594 28.8125 C 26.171875 28.800781 26.40625 28.894531 26.570312 29.0625 L 27.277344 29.792969 L 27.277344 3.78125 L 8.722656 3.78125 L 8.722656 30.011719 L 9.859375 29.015625 C 10.019531 28.878906 10.214844 28.8125 10.410156 28.8125 Z M 10.410156 28.8125 " fill-opacity="1" fill-rule="nonzero"/></g><path fill="#000000" d="M 10.640625 20.761719 L 13.28125 20.761719 L 13.28125 22.417969 L 10.640625 22.417969 Z M 10.640625 20.761719 " fill-opacity="1" fill-rule="nonzero"/><path fill="#000000" d="M 14.9375 20.761719 L 25.359375 20.761719 L 25.359375 22.417969 L 14.9375 22.417969 Z M 14.9375 20.761719 " fill-opacity="1" fill-rule="nonzero"/><path fill="#000000" d="M 10.640625 23.664062 L 13.28125 23.664062 L 13.28125 25.324219 L 10.640625 25.324219 Z M 10.640625 23.664062 " fill-opacity="1" fill-rule="nonzero"/><path fill="#000000" d="M 14.9375 23.664062 L 25.359375 23.664062 L 25.359375 25.324219 L 14.9375 25.324219 Z M 14.9375 23.664062 " fill-opacity="1" fill-rule="nonzero"/></svg>