<svg xmlns="http://www.w3.org/2000/svg" xmlns:xlink="http://www.w3.org/1999/xlink" width="48" zoomAndPan="magnify" viewBox="0 0 36 36.000001" height="48" preserveAspectRatio="xMidYMid meet" version="1.0"><defs><clipPath id="904b62fa05"><path d="M 1.214844 0 L 33.324219 0 L 33.324219 35 L 1.214844 35 Z M 1.214844 0 " clip-rule="nonzero"/></clipPath></defs><g clip-path="url(#904b62fa05)"><path fill="#ff00de" d="M 30.574219 0.300781 L 14.847656 3.414062 C 13.703125 3.640625 12.875 4.648438 12.875 5.816406 L 12.875 25.257812 C 11.476562 24.640625 9.6875 24.417969 7.8125 24.742188 C 3.964844 25.40625 1.214844 28.101562 1.675781 30.757812 C 2.132812 33.414062 5.625 35.023438 9.472656 34.359375 C 13.242188 33.710938 15.949219 31.113281 15.625 28.507812 L 15.625 8.21875 L 30.75 5.222656 L 30.75 21.1875 C 29.34375 20.558594 27.542969 20.332031 25.648438 20.660156 C 21.800781 21.324219 19.054688 24.019531 19.511719 26.671875 C 19.972656 29.328125 23.460938 30.941406 27.3125 30.277344 C 30.964844 29.644531 33.621094 27.1875 33.488281 24.664062 C 33.492188 24.628906 33.496094 24.597656 33.496094 24.558594 L 33.496094 2.703125 C 33.5 1.160156 32.085938 0.00390625 30.574219 0.300781 Z M 30.574219 0.300781 " fill-opacity="1" fill-rule="nonzero"/></g></svg>