<svg xmlns="http://www.w3.org/2000/svg" xmlns:xlink="http://www.w3.org/1999/xlink" width="48" zoomAndPan="magnify" viewBox="0 0 36 36.000001" height="48" preserveAspectRatio="xMidYMid meet" version="1.0"><defs><clipPath id="0afe78d0b5"><path d="M 1.140625 17 L 34.707031 17 L 34.707031 34.636719 L 1.140625 34.636719 Z M 1.140625 17 " clip-rule="nonzero"/></clipPath><clipPath id="dad92ee83e"><path d="M 1.140625 0.339844 L 34.707031 0.339844 L 34.707031 34.636719 L 1.140625 34.636719 Z M 1.140625 0.339844 " clip-rule="nonzero"/></clipPath></defs><g clip-path="url(#0afe78d0b5)"><path fill="#ff00de" d="M 34.855469 17.511719 C 34.855469 17.617188 34.855469 17.710938 34.855469 17.816406 C 34.855469 27.132812 27.304688 34.675781 17.996094 34.675781 C 8.691406 34.675781 1.140625 27.125 1.140625 17.816406 C 1.140625 17.710938 1.140625 17.617188 1.140625 17.511719 C 1.296875 26.679688 8.785156 34.0625 17.996094 34.0625 C 27.207031 34.0625 34.695312 26.679688 34.855469 17.511719 Z M 34.855469 17.511719 " fill-opacity="1" fill-rule="nonzero"/></g><g clip-path="url(#dad92ee83e)"><path fill="#ff00de" d="M 34.855469 17.207031 C 34.855469 17.3125 34.855469 17.40625 34.855469 17.511719 C 34.695312 26.679688 27.207031 34.0625 17.996094 34.0625 C 8.785156 34.0625 1.308594 26.679688 1.140625 17.511719 C 1.140625 17.40625 1.140625 17.3125 1.140625 17.207031 C 1.140625 7.898438 8.691406 0.347656 17.996094 0.347656 C 27.3125 0.347656 34.855469 7.898438 34.855469 17.207031 Z M 34.855469 17.207031 " fill-opacity="1" fill-rule="nonzero"/></g><path fill="#000000" d="M 20.753906 17.671875 L 27.851562 24.304688 L 27.851562 24.769531 L 25.117188 27.503906 L 18.007812 20.417969 L 10.910156 27.515625 L 8.175781 24.777344 L 8.175781 24.3125 L 15.273438 17.679688 L 8.175781 10.574219 L 8.175781 10.109375 L 10.910156 7.824219 L 18.007812 14.925781 L 25.105469 7.824219 L 27.839844 10.109375 L 27.839844 10.574219 Z M 20.753906 17.671875 " fill-opacity="1" fill-rule="nonzero"/><path fill="#000000" d="M 20.753906 17.214844 L 27.851562 24.3125 L 25.117188 27.050781 L 18.019531 19.953125 L 10.921875 27.050781 L 8.183594 24.3125 L 15.28125 17.214844 L 8.175781 10.117188 L 10.910156 7.382812 L 18.007812 14.480469 L 25.105469 7.382812 L 27.839844 10.117188 Z M 20.753906 17.214844 " fill-opacity="1" fill-rule="nonzero"/></svg>