<svg xmlns="http://www.w3.org/2000/svg" xmlns:xlink="http://www.w3.org/1999/xlink" width="48" zoomAndPan="magnify" viewBox="0 0 36 36.000001" height="48" preserveAspectRatio="xMidYMid meet" version="1.0"><defs><clipPath id="efd75495e5"><path d="M 5 8 L 31 8 L 31 33.84375 L 5 33.84375 Z M 5 8 " clip-rule="nonzero"/></clipPath><clipPath id="0f5455cd7b"><path d="M 2.15625 1.007812 L 33.53125 1.007812 L 33.53125 19 L 2.15625 19 Z M 2.15625 1.007812 " clip-rule="nonzero"/></clipPath></defs><g clip-path="url(#efd75495e5)"><path fill="#ff00de" d="M 5.414062 20.683594 L 5.414062 33.433594 C 5.414062 33.753906 5.675781 34.015625 5.996094 34.015625 L 19.679688 34.015625 L 19.679688 22.46875 L 26.109375 22.46875 L 26.109375 34.015625 L 29.933594 34.015625 C 30.253906 34.015625 30.511719 33.753906 30.511719 33.433594 L 30.511719 20.683594 L 17.972656 8.195312 Z M 15.621094 27.847656 L 9.820312 27.847656 L 9.820312 22.46875 L 15.621094 22.46875 Z M 15.621094 27.847656 " fill-opacity="1" fill-rule="nonzero"/></g><g clip-path="url(#0f5455cd7b)"><path fill="#ff00de" d="M 33.054688 16.097656 L 17.964844 1.007812 L 10.847656 8.128906 L 10.847656 4.996094 C 10.847656 4.261719 10.253906 3.667969 9.519531 3.667969 C 8.789062 3.667969 8.195312 4.261719 8.195312 4.996094 L 8.195312 10.777344 L 2.875 16.097656 C 2.226562 16.746094 2.226562 17.796875 2.875 18.441406 C 3.199219 18.765625 3.621094 18.929688 4.046875 18.929688 C 4.46875 18.929688 4.894531 18.765625 5.21875 18.445312 L 17.964844 5.695312 L 30.710938 18.441406 C 31.359375 19.089844 32.40625 19.089844 33.054688 18.441406 C 33.703125 17.796875 33.703125 16.746094 33.054688 16.097656 Z M 33.054688 16.097656 " fill-opacity="1" fill-rule="nonzero"/></g></svg>