<svg xmlns="http://www.w3.org/2000/svg" xmlns:xlink="http://www.w3.org/1999/xlink" width="48" zoomAndPan="magnify" viewBox="0 0 36 36.000001" height="48" preserveAspectRatio="xMidYMid meet" version="1.0"><defs><clipPath id="c8f8008133"><path d="M 0.863281 2.433594 L 35.160156 2.433594 L 35.160156 32.351562 L 0.863281 32.351562 Z M 0.863281 2.433594 " clip-rule="nonzero"/></clipPath></defs><g clip-path="url(#c8f8008133)"><path fill="#ff00de" d="M 17.980469 2.433594 L 0.898438 13.449219 L 0.898438 32.59375 L 35.09375 32.59375 L 35.09375 13.449219 Z M 2.863281 17.050781 L 7.039062 19.683594 L 9.765625 21.410156 L 10.292969 21.742188 L 2.863281 29.234375 Z M 4.242188 30.625 L 12.003906 22.832031 L 16.9375 25.980469 L 17.996094 26.660156 L 19.085938 25.980469 L 24.035156 22.832031 L 31.722656 30.625 Z M 33.128906 29.261719 L 25.730469 21.773438 L 33.128906 17.050781 Z M 18.042969 24.332031 L 10.867188 19.761719 L 10.855469 19.746094 C 9.929688 15.101562 12.441406 11.074219 16.875 10.121094 C 17.453125 10 18.011719 9.941406 18.527344 9.941406 C 20.960938 9.941406 22.640625 11.285156 23.140625 13.632812 C 23.503906 15.3125 23.203125 16.445312 22.898438 17.113281 C 22.535156 17.882812 21.945312 18.429688 21.324219 18.550781 C 21.234375 18.566406 21.160156 18.582031 21.097656 18.582031 C 20.933594 18.582031 20.855469 18.535156 20.824219 18.351562 C 20.796875 18.203125 20.78125 18.035156 20.78125 17.855469 L 20.765625 13.191406 L 20.765625 13.132812 C 20.765625 13.117188 20.765625 13.101562 20.765625 13.085938 C 20.765625 13.042969 20.765625 12.980469 20.75 12.921875 C 20.691406 12.648438 20.402344 12.46875 20.097656 12.527344 L 18.722656 12.832031 C 18.449219 12.890625 18.3125 13.042969 18.238281 13.191406 C 17.980469 13.070312 17.617188 12.9375 17.164062 12.9375 C 16.980469 12.9375 16.785156 12.949219 16.589844 12.996094 C 15.484375 13.238281 14.578125 14.085938 14.03125 15.402344 C 13.515625 16.644531 13.394531 18.1875 13.699219 19.625 C 14.152344 21.742188 15.347656 22.0625 16.015625 22.0625 C 16.179688 22.0625 16.363281 22.046875 16.542969 22 C 17.695312 21.757812 18.296875 20.988281 18.632812 20.382812 C 18.902344 20.757812 19.375 21.136719 20.207031 21.136719 C 20.433594 21.136719 20.660156 21.105469 20.917969 21.0625 C 22.445312 20.730469 23.820312 19.777344 24.714844 18.414062 C 25.410156 17.339844 26.136719 15.539062 25.59375 13.011719 C 24.882812 9.683594 22.355469 7.699219 18.828125 7.699219 C 18.085938 7.699219 17.316406 7.792969 16.511719 7.957031 C 13.730469 8.53125 11.351562 10.136719 9.839844 12.421875 C 8.71875 14.101562 8.144531 15.949219 8.144531 18.066406 L 2.863281 14.523438 L 17.980469 4.78125 L 33.128906 14.660156 Z M 17.9375 15.234375 L 17.9375 17.519531 C 17.921875 18.050781 17.816406 19.308594 16.921875 19.488281 C 16.890625 19.488281 16.859375 19.503906 16.832031 19.503906 C 16.769531 19.503906 16.632812 19.503906 16.542969 19.066406 C 16.378906 18.261719 16.332031 17.292969 16.4375 16.539062 C 16.496094 16.054688 16.695312 15.222656 17.195312 15.113281 C 17.285156 15.101562 17.359375 15.085938 17.4375 15.085938 C 17.632812 15.085938 17.785156 15.144531 17.9375 15.234375 Z M 17.9375 15.234375 " fill-opacity="1" fill-rule="nonzero"/></g></svg>