<svg xmlns="http://www.w3.org/2000/svg" xmlns:xlink="http://www.w3.org/1999/xlink" width="48" zoomAndPan="magnify" viewBox="0 0 36 36.000001" height="48" preserveAspectRatio="xMidYMid meet" version="1.0"><defs><clipPath id="ce105ff1a4"><path d="M 7.742188 0.417969 L 28.175781 0.417969 L 28.175781 34.714844 L 7.742188 34.714844 Z M 7.742188 0.417969 " clip-rule="nonzero"/></clipPath></defs><g clip-path="url(#ce105ff1a4)"><path fill="#ff00de" d="M 28.253906 30.824219 L 26.464844 30.824219 L 26.464844 22.882812 L 22.304688 22.882812 C 21.550781 21.75 18.863281 17.324219 18.707031 11.632812 L 22.242188 13.492188 L 21.433594 8.769531 L 24.863281 5.425781 L 20.121094 4.738281 L 18 0.445312 L 15.875 4.738281 L 11.140625 5.425781 L 12.359375 6.617188 C 10.820312 15.761719 13.808594 21.933594 14.285156 22.835938 L 14.296875 22.882812 L 9.535156 22.882812 L 9.535156 30.824219 L 7.742188 30.824219 L 7.742188 34.574219 L 28.253906 34.574219 Z M 15.734375 22.882812 C 14.898438 19.070312 15.808594 13.648438 16.0625 12.273438 L 17.289062 11.636719 C 17.421875 16.832031 19.488281 20.980469 20.628906 22.882812 Z M 16.820312 6.03125 L 18 3.640625 L 19.179688 6.03125 L 21.820312 6.417969 L 19.910156 8.277344 L 20.359375 10.90625 L 18 9.664062 L 15.636719 10.902344 L 16.089844 8.277344 L 14.179688 6.417969 Z M 13.609375 7.832031 L 14.570312 8.769531 L 13.753906 13.492188 L 14.476562 13.113281 C 14.230469 14.636719 14.074219 16.167969 13.996094 17.710938 C 13.273438 14.441406 13.144531 11.148438 13.609375 7.832031 Z M 10.957031 24.300781 L 25.050781 24.300781 L 25.050781 30.824219 L 10.949219 30.824219 Z M 26.839844 33.15625 L 9.15625 33.15625 L 9.15625 32.238281 L 26.839844 32.238281 Z M 26.839844 33.15625 " fill-opacity="1" fill-rule="nonzero"/></g></svg>