<svg xmlns="http://www.w3.org/2000/svg" xmlns:xlink="http://www.w3.org/1999/xlink" width="48" zoomAndPan="magnify" viewBox="0 0 36 36.000001" height="48" preserveAspectRatio="xMidYMid meet" version="1.0"><defs><clipPath id="b42036cfe6"><path d="M 5.144531 9.605469 L 30.660156 9.605469 L 30.660156 34.296875 L 5.144531 34.296875 Z M 5.144531 9.605469 " clip-rule="nonzero"/></clipPath><clipPath id="226f3d7df8"><path d="M 20 0.730469 L 26 0.730469 L 26 9 L 20 9 Z M 20 0.730469 " clip-rule="nonzero"/></clipPath></defs><g clip-path="url(#b42036cfe6)"><path fill="#ff00de" d="M 25.660156 21.964844 C 24.160156 21.964844 22.945312 21.058594 22.945312 19.941406 C 22.945312 18.828125 24.160156 17.921875 25.660156 17.921875 C 27.160156 17.921875 28.375 18.828125 28.375 19.941406 C 28.375 21.058594 27.160156 21.964844 25.660156 21.964844 Z M 24.199219 28.429688 C 22.699219 28.429688 21.484375 27.527344 21.484375 26.410156 C 21.484375 25.296875 22.699219 24.390625 24.199219 24.390625 C 25.699219 24.390625 26.914062 25.296875 26.914062 26.410156 C 26.914062 27.527344 25.699219 28.429688 24.199219 28.429688 Z M 17.460938 32.253906 C 15.960938 32.253906 14.746094 31.347656 14.746094 30.234375 C 14.746094 29.117188 15.960938 28.214844 17.460938 28.214844 C 18.957031 28.214844 20.171875 29.117188 20.171875 30.234375 C 20.171875 31.347656 18.957031 32.253906 17.460938 32.253906 Z M 11.585938 27.617188 C 10.089844 27.703125 8.824219 26.871094 8.761719 25.753906 C 8.699219 24.640625 9.859375 23.667969 11.355469 23.582031 C 12.851562 23.5 14.117188 24.332031 14.183594 25.445312 C 14.246094 26.558594 13.085938 27.53125 11.585938 27.617188 Z M 30.207031 17.824219 C 29.5 15.738281 28.210938 13.847656 26.519531 12.429688 C 25.289062 11.394531 23.839844 10.640625 22.300781 10.179688 C 21.96875 11.175781 21.515625 12.355469 20.972656 13.625 L 20.941406 13.699219 C 21.226562 14.113281 21.355469 14.578125 21.273438 15.042969 C 21.058594 16.207031 19.578125 16.914062 17.96875 16.621094 C 16.355469 16.328125 15.222656 15.144531 15.433594 13.976562 C 15.59375 13.09375 16.484375 12.476562 17.605469 12.355469 L 17.792969 12.011719 C 18.261719 11.152344 18.726562 10.359375 19.164062 9.660156 C 17.125 9.578125 15.074219 9.984375 13.253906 10.910156 C 12.554688 11.265625 11.871094 11.703125 11.410156 12.335938 C 10.945312 12.96875 10.730469 13.832031 11.019531 14.558594 C 11.3125 15.296875 12.035156 15.757812 12.730469 16.136719 C 13.425781 16.519531 14.171875 16.902344 14.582031 17.582031 C 14.992188 18.261719 14.886719 19.78125 14.175781 20.164062 C 13.441406 20.671875 12.4375 20.601562 11.75 20.242188 C 11.066406 19.882812 10.445312 19.390625 9.714844 19.136719 C 8.464844 18.707031 6.972656 19.101562 6.097656 20.089844 C 4.855469 21.492188 4.992188 23.648438 5.585938 25.425781 C 6.984375 29.582031 10.617188 32.910156 14.875 33.945312 C 19.140625 34.980469 23.890625 33.6875 27.039062 30.632812 C 28.425781 29.289062 29.511719 27.628906 30.15625 25.808594 C 31.0625 23.253906 31.078125 20.390625 30.207031 17.824219 " fill-opacity="1" fill-rule="nonzero"/></g><g clip-path="url(#226f3d7df8)"><path fill="#ff00de" d="M 22.78125 3.890625 C 22.367188 4.1875 21.902344 4.609375 21.679688 5.164062 C 21.429688 5.789062 21.492188 6.476562 21.636719 7.035156 C 21.328125 6.441406 21.003906 5.535156 21.339844 4.863281 C 21.601562 4.332031 22.277344 4.054688 22.78125 3.890625 Z M 24.828125 5.082031 C 24.640625 5.558594 24.3125 6.042969 23.847656 6.460938 C 24.273438 5.886719 24.589844 5.265625 24.78125 4.691406 C 25.0625 3.839844 25.304688 2.847656 25.429688 1.871094 C 25.453125 2.984375 25.191406 4.15625 24.828125 5.082031 Z M 21.226562 7.628906 L 22.417969 8.21875 C 23.972656 7.523438 24.941406 6.308594 25.316406 5.171875 C 25.738281 3.878906 26 2.238281 25.839844 0.730469 C 25.175781 1.785156 24.683594 2.539062 23.59375 3.101562 C 23.195312 3.308594 21.332031 3.742188 20.832031 4.914062 C 20.472656 5.765625 20.8125 6.820312 21.226562 7.628906 " fill-opacity="1" fill-rule="nonzero"/></g><path fill="#ff00de" d="M 20.976562 8.0625 C 20.292969 8.929688 19.414062 10.296875 18.480469 11.964844 L 20.582031 13.007812 C 21.347656 11.257812 21.90625 9.730469 22.183594 8.660156 L 20.976562 8.0625 " fill-opacity="1" fill-rule="nonzero"/><path fill="#ff00de" d="M 18.222656 15.894531 C 18.5625 15.957031 18.890625 15.972656 19.203125 15.945312 C 19.226562 15.902344 19.25 15.855469 19.269531 15.8125 C 19.671875 15.003906 20.042969 14.21875 20.378906 13.464844 L 18.238281 12.402344 C 17.84375 13.125 17.441406 13.898438 17.039062 14.703125 C 16.945312 14.898438 16.847656 15.089844 16.757812 15.277344 C 17.152344 15.570312 17.65625 15.792969 18.222656 15.894531 " fill-opacity="1" fill-rule="nonzero"/></svg>