<svg xmlns="http://www.w3.org/2000/svg" xmlns:xlink="http://www.w3.org/1999/xlink" width="48" zoomAndPan="magnify" viewBox="0 0 36 36.000001" height="48" preserveAspectRatio="xMidYMid meet" version="1.0"><defs><clipPath id="b9dedbd1f9"><path d="M 1.402344 0.832031 L 34.972656 0.832031 L 34.972656 34.402344 L 1.402344 34.402344 Z M 1.402344 0.832031 " clip-rule="nonzero"/></clipPath></defs><g clip-path="url(#b9dedbd1f9)"><path fill="#ff00de" d="M 18.039062 0.832031 C 8.84375 0.832031 1.402344 8.273438 1.402344 17.46875 C 1.402344 26.664062 8.84375 34.105469 18.039062 34.105469 C 27.234375 34.105469 34.675781 26.664062 34.675781 17.46875 C 34.675781 8.277344 27.234375 0.832031 18.039062 0.832031 Z M 18.039062 32.148438 C 9.945312 32.148438 3.359375 25.5625 3.359375 17.46875 C 3.359375 9.375 9.945312 2.792969 18.039062 2.792969 C 26.132812 2.792969 32.71875 9.375 32.71875 17.46875 C 32.71875 25.5625 26.132812 32.148438 18.039062 32.148438 Z M 18.039062 32.148438 " fill-opacity="1" fill-rule="nonzero"/></g><path fill="#ff00de" d="M 26.847656 23.339844 L 16.890625 23.339844 C 16.488281 22.203125 15.402344 21.382812 14.125 21.382812 C 12.847656 21.382812 11.761719 22.203125 11.359375 23.339844 L 9.230469 23.339844 C 8.691406 23.339844 8.253906 23.777344 8.253906 24.320312 C 8.253906 24.859375 8.691406 25.296875 9.230469 25.296875 L 11.359375 25.296875 C 11.761719 26.4375 12.847656 27.253906 14.125 27.253906 C 15.402344 27.253906 16.488281 26.4375 16.890625 25.296875 L 26.847656 25.296875 C 27.386719 25.296875 27.824219 24.859375 27.824219 24.320312 C 27.824219 23.777344 27.386719 23.339844 26.847656 23.339844 Z M 26.847656 23.339844 " fill-opacity="1" fill-rule="nonzero"/><path fill="#ff00de" d="M 26.847656 10.621094 L 16.890625 10.621094 C 16.488281 9.480469 15.402344 8.664062 14.125 8.664062 C 12.847656 8.664062 11.761719 9.480469 11.359375 10.621094 L 9.230469 10.621094 C 8.691406 10.621094 8.253906 11.058594 8.253906 11.597656 C 8.253906 12.136719 8.691406 12.578125 9.230469 12.578125 L 11.359375 12.578125 C 11.761719 13.714844 12.847656 14.535156 14.125 14.535156 C 15.402344 14.535156 16.488281 13.714844 16.890625 12.578125 L 26.847656 12.578125 C 27.386719 12.578125 27.824219 12.136719 27.824219 11.597656 C 27.824219 11.058594 27.386719 10.621094 26.847656 10.621094 Z M 26.847656 10.621094 " fill-opacity="1" fill-rule="nonzero"/><path fill="#ff00de" d="M 26.847656 16.492188 L 24.722656 16.492188 C 24.316406 15.351562 23.230469 14.535156 21.953125 14.535156 C 20.679688 14.535156 19.589844 15.351562 19.1875 16.492188 L 9.230469 16.492188 C 8.691406 16.492188 8.253906 16.929688 8.253906 17.46875 C 8.253906 18.011719 8.691406 18.449219 9.230469 18.449219 L 19.1875 18.449219 C 19.589844 19.585938 20.679688 20.40625 21.953125 20.40625 C 23.230469 20.40625 24.316406 19.585938 24.722656 18.449219 L 26.847656 18.449219 C 27.386719 18.449219 27.824219 18.011719 27.824219 17.46875 C 27.824219 16.929688 27.386719 16.492188 26.847656 16.492188 Z M 26.847656 16.492188 " fill-opacity="1" fill-rule="nonzero"/></svg>