<svg xmlns="http://www.w3.org/2000/svg" xmlns:xlink="http://www.w3.org/1999/xlink" width="48" zoomAndPan="magnify" viewBox="0 0 36 36.000001" height="48" preserveAspectRatio="xMidYMid meet" version="1.0"><defs><clipPath id="89a596d715"><path d="M 1.320312 7 L 34.886719 7 L 34.886719 29 L 1.320312 29 Z M 1.320312 7 " clip-rule="nonzero"/></clipPath></defs><g clip-path="url(#89a596d715)"><path fill="#ff00de" d="M 4.703125 7.269531 L 31.289062 7.269531 C 32.214844 7.269531 33.0625 7.652344 33.679688 8.261719 C 34.289062 8.875 34.671875 9.726562 34.671875 10.65625 L 34.671875 24.769531 C 34.671875 25.816406 34.25 26.769531 33.558594 27.453125 C 32.867188 28.144531 31.914062 28.566406 30.871094 28.566406 L 4.703125 28.566406 C 3.777344 28.566406 2.929688 28.191406 2.3125 27.574219 C 1.703125 26.964844 1.320312 26.117188 1.320312 25.183594 L 1.320312 10.65625 C 1.320312 9.726562 1.703125 8.882812 2.3125 8.269531 L 2.3125 8.261719 C 2.929688 7.652344 3.777344 7.269531 4.703125 7.269531 Z M 3.671875 11.949219 L 32.320312 11.949219 L 32.320312 10.65625 C 32.320312 10.371094 32.207031 10.109375 32.019531 9.921875 C 31.832031 9.734375 31.570312 9.613281 31.289062 9.613281 L 4.703125 9.613281 C 4.417969 9.613281 4.167969 9.734375 3.972656 9.921875 C 3.785156 10.109375 3.671875 10.371094 3.671875 10.65625 Z M 32.320312 16.65625 L 3.671875 16.65625 L 3.671875 25.183594 C 3.671875 25.46875 3.785156 25.726562 3.972656 25.914062 C 4.167969 26.101562 4.417969 26.222656 4.703125 26.222656 L 30.871094 26.222656 C 31.269531 26.222656 31.628906 26.0625 31.898438 25.792969 C 32.15625 25.53125 32.320312 25.167969 32.320312 24.769531 Z M 32.320312 16.65625 " fill-opacity="1" fill-rule="evenodd"/></g><path fill="#000000" d="M 21.632812 20.804688 L 29.710938 20.804688 C 29.914062 20.804688 30.074219 20.96875 30.074219 21.171875 L 30.074219 22.675781 C 30.074219 22.878906 29.914062 23.042969 29.710938 23.042969 L 21.632812 23.042969 C 21.429688 23.042969 21.265625 22.878906 21.265625 22.675781 L 21.265625 21.171875 C 21.265625 20.96875 21.429688 20.804688 21.632812 20.804688 Z M 21.632812 20.804688 " fill-opacity="1" fill-rule="evenodd"/></svg>