<svg xmlns="http://www.w3.org/2000/svg" xmlns:xlink="http://www.w3.org/1999/xlink" width="48" zoomAndPan="magnify" viewBox="0 0 36 36.000001" height="48" preserveAspectRatio="xMidYMid meet" version="1.0"><defs><clipPath id="8862715878"><path d="M 6.429688 0.980469 L 29.777344 0.980469 L 29.777344 33.820312 L 6.429688 33.820312 Z M 6.429688 0.980469 " clip-rule="nonzero"/></clipPath></defs><g clip-path="url(#8862715878)"><path fill="#ff00de" d="M 17.996094 0.984375 C 11.609375 0.984375 6.429688 6.164062 6.429688 12.550781 C 6.429688 21.226562 17.996094 34.035156 17.996094 34.035156 C 17.996094 34.035156 29.5625 21.226562 29.5625 12.550781 C 29.5625 6.164062 24.382812 0.984375 17.996094 0.984375 Z M 17.996094 16.683594 C 15.714844 16.683594 13.863281 14.832031 13.863281 12.550781 C 13.863281 10.269531 15.714844 8.421875 17.996094 8.421875 C 20.277344 8.421875 22.125 10.269531 22.125 12.550781 C 22.125 14.832031 20.277344 16.683594 17.996094 16.683594 Z M 17.996094 16.683594 " fill-opacity="1" fill-rule="nonzero"/></g></svg>