<svg xmlns="http://www.w3.org/2000/svg" xmlns:xlink="http://www.w3.org/1999/xlink" width="48" zoomAndPan="magnify" viewBox="0 0 36 36.000001" height="48" preserveAspectRatio="xMidYMid meet" version="1.0"><defs><clipPath id="64e8ac2f57"><path d="M 1.320312 0.832031 L 34.886719 0.832031 L 34.886719 34.402344 L 1.320312 34.402344 Z M 1.320312 0.832031 " clip-rule="nonzero"/></clipPath></defs><g clip-path="url(#64e8ac2f57)"><path fill="#ff00de" d="M 17.996094 0.832031 C 17.449219 0.832031 16.90625 0.859375 16.363281 0.914062 C 15.816406 0.96875 15.277344 1.046875 14.742188 1.15625 C 14.207031 1.261719 13.679688 1.394531 13.15625 1.550781 C 12.632812 1.710938 12.117188 1.894531 11.613281 2.101562 C 11.109375 2.3125 10.617188 2.546875 10.136719 2.804688 C 9.652344 3.058594 9.1875 3.339844 8.730469 3.644531 C 8.277344 3.949219 7.839844 4.273438 7.417969 4.617188 C 6.996094 4.964844 6.589844 5.332031 6.203125 5.71875 C 5.820312 6.105469 5.453125 6.507812 5.105469 6.929688 C 4.757812 7.351562 4.433594 7.789062 4.128906 8.246094 C 3.828125 8.699219 3.546875 9.167969 3.289062 9.648438 C 3.03125 10.128906 2.796875 10.625 2.589844 11.128906 C 2.378906 11.632812 2.195312 12.144531 2.039062 12.667969 C 1.878906 13.191406 1.746094 13.71875 1.640625 14.257812 C 1.535156 14.792969 1.453125 15.332031 1.402344 15.875 C 1.347656 16.417969 1.320312 16.964844 1.320312 17.507812 C 1.320312 18.054688 1.347656 18.601562 1.402344 19.144531 C 1.453125 19.6875 1.535156 20.226562 1.640625 20.761719 C 1.746094 21.296875 1.878906 21.828125 2.039062 22.351562 C 2.195312 22.871094 2.378906 23.386719 2.589844 23.890625 C 2.796875 24.394531 3.03125 24.886719 3.289062 25.371094 C 3.546875 25.851562 3.828125 26.320312 4.128906 26.773438 C 4.433594 27.226562 4.757812 27.667969 5.105469 28.089844 C 5.453125 28.511719 5.820312 28.914062 6.203125 29.300781 C 6.589844 29.6875 6.996094 30.054688 7.417969 30.398438 C 7.839844 30.746094 8.277344 31.070312 8.730469 31.375 C 9.1875 31.679688 9.652344 31.957031 10.136719 32.214844 C 10.617188 32.472656 11.109375 32.707031 11.613281 32.914062 C 12.117188 33.125 12.632812 33.308594 13.15625 33.46875 C 13.679688 33.625 14.207031 33.757812 14.742188 33.863281 C 15.277344 33.972656 15.816406 34.050781 16.363281 34.105469 C 16.90625 34.15625 17.449219 34.183594 17.996094 34.183594 C 18.542969 34.183594 19.085938 34.15625 19.628906 34.105469 C 20.175781 34.050781 20.714844 33.972656 21.25 33.863281 C 21.785156 33.757812 22.3125 33.625 22.835938 33.46875 C 23.359375 33.308594 23.871094 33.125 24.378906 32.914062 C 24.882812 32.707031 25.375 32.472656 25.855469 32.214844 C 26.339844 31.957031 26.804688 31.679688 27.261719 31.375 C 27.714844 31.070312 28.152344 30.746094 28.574219 30.398438 C 28.996094 30.054688 29.402344 29.6875 29.789062 29.300781 C 30.171875 28.914062 30.539062 28.511719 30.886719 28.089844 C 31.234375 27.667969 31.558594 27.226562 31.859375 26.773438 C 32.164062 26.320312 32.445312 25.851562 32.703125 25.371094 C 32.960938 24.886719 33.191406 24.394531 33.402344 23.890625 C 33.609375 23.386719 33.792969 22.871094 33.953125 22.351562 C 34.113281 21.828125 34.246094 21.296875 34.351562 20.761719 C 34.457031 20.226562 34.539062 19.6875 34.589844 19.144531 C 34.644531 18.601562 34.671875 18.054688 34.671875 17.507812 C 34.671875 16.964844 34.644531 16.417969 34.589844 15.875 C 34.539062 15.332031 34.457031 14.792969 34.351562 14.257812 C 34.242188 13.722656 34.113281 13.191406 33.953125 12.667969 C 33.792969 12.144531 33.609375 11.632812 33.402344 11.128906 C 33.191406 10.625 32.960938 10.128906 32.703125 9.648438 C 32.445312 9.167969 32.164062 8.699219 31.859375 8.246094 C 31.558594 7.792969 31.230469 7.351562 30.886719 6.929688 C 30.539062 6.507812 30.171875 6.105469 29.785156 5.71875 C 29.402344 5.332031 28.996094 4.964844 28.574219 4.621094 C 28.152344 4.273438 27.714844 3.949219 27.261719 3.644531 C 26.804688 3.339844 26.339844 3.0625 25.855469 2.804688 C 25.375 2.546875 24.882812 2.3125 24.378906 2.105469 C 23.871094 1.894531 23.359375 1.710938 22.835938 1.550781 C 22.3125 1.394531 21.785156 1.261719 21.25 1.15625 C 20.714844 1.046875 20.171875 0.96875 19.628906 0.914062 C 19.085938 0.859375 18.542969 0.835938 17.996094 0.832031 Z M 17.996094 7.085938 C 18.390625 7.085938 18.78125 7.132812 19.167969 7.222656 C 19.554688 7.3125 19.925781 7.449219 20.28125 7.625 C 20.632812 7.800781 20.964844 8.015625 21.269531 8.269531 C 21.574219 8.523438 21.84375 8.808594 22.082031 9.125 C 22.320312 9.441406 22.519531 9.78125 22.679688 10.144531 C 22.839844 10.503906 22.957031 10.882812 23.027344 11.269531 C 23.101562 11.660156 23.125 12.054688 23.105469 12.449219 C 23.089844 12.84375 23.023438 13.234375 22.914062 13.613281 C 22.804688 13.996094 22.652344 14.359375 22.460938 14.703125 C 22.265625 15.050781 22.035156 15.367188 21.765625 15.660156 C 21.5 15.953125 21.199219 16.210938 20.871094 16.433594 C 20.546875 16.65625 20.195312 16.835938 19.824219 16.980469 C 19.457031 17.121094 19.074219 17.21875 18.683594 17.269531 C 18.289062 17.324219 17.894531 17.332031 17.5 17.292969 C 17.105469 17.253906 16.722656 17.171875 16.347656 17.042969 C 15.972656 16.914062 15.617188 16.746094 15.28125 16.535156 C 10.988281 13.816406 12.847656 7.140625 17.996094 7.085938 Z M 23.992188 27.929688 L 11.996094 27.929688 C 11.496094 27.929688 11.015625 27.832031 10.550781 27.640625 C 10.089844 27.449219 9.679688 27.175781 9.328125 26.820312 C 8.972656 26.464844 8.699219 26.058594 8.507812 25.59375 C 8.316406 25.132812 8.21875 24.648438 8.21875 24.148438 C 8.21875 20.945312 10.582031 18.175781 13.96875 16.929688 C 14.53125 17.40625 15.160156 17.773438 15.851562 18.027344 C 16.542969 18.28125 17.257812 18.40625 17.996094 18.40625 C 18.734375 18.40625 19.449219 18.28125 20.140625 18.027344 C 20.832031 17.773438 21.460938 17.40625 22.023438 16.929688 C 25.410156 18.175781 27.773438 20.945312 27.773438 24.148438 C 27.773438 24.648438 27.675781 25.132812 27.484375 25.59375 C 27.292969 26.058594 27.019531 26.464844 26.664062 26.820312 C 26.3125 27.175781 25.902344 27.449219 25.441406 27.640625 C 24.976562 27.835938 24.496094 27.929688 23.992188 27.929688 Z M 23.992188 27.929688 " fill-opacity="1" fill-rule="nonzero"/></g></svg>