<svg xmlns="http://www.w3.org/2000/svg" xmlns:xlink="http://www.w3.org/1999/xlink" width="48" zoomAndPan="magnify" viewBox="0 0 36 36.000001" height="48" preserveAspectRatio="xMidYMid meet" version="1.0"><defs><clipPath id="3b575bd288"><path d="M 1.410156 31 L 34.246094 31 L 34.246094 32.578125 L 1.410156 32.578125 Z M 1.410156 31 " clip-rule="nonzero"/></clipPath><clipPath id="05c049eb3f"><path d="M 21 2.660156 L 29 2.660156 L 29 11 L 21 11 Z M 21 2.660156 " clip-rule="nonzero"/></clipPath><clipPath id="dc8afff5d5"><path d="M 2 20 L 18 20 L 18 32.578125 L 2 32.578125 Z M 2 20 " clip-rule="nonzero"/></clipPath></defs><g clip-path="url(#3b575bd288)"><path fill="#ff00de" d="M 34.144531 32.359375 L 1.855469 32.359375 C 1.609375 32.359375 1.410156 32.160156 1.410156 31.917969 C 1.410156 31.671875 1.609375 31.472656 1.855469 31.472656 L 34.144531 31.472656 C 34.386719 31.472656 34.589844 31.671875 34.589844 31.917969 C 34.589844 32.160156 34.386719 32.359375 34.144531 32.359375 Z M 34.144531 32.359375 " fill-opacity="1" fill-rule="nonzero"/></g><g clip-path="url(#05c049eb3f)"><path fill="#ff00de" d="M 24.851562 10.242188 C 22.761719 10.242188 21.058594 8.542969 21.058594 6.449219 C 21.058594 4.359375 22.761719 2.660156 24.851562 2.660156 C 26.945312 2.660156 28.644531 4.359375 28.644531 6.449219 C 28.644531 8.542969 26.945312 10.242188 24.851562 10.242188 Z M 24.851562 3.546875 C 23.25 3.546875 21.945312 4.847656 21.945312 6.449219 C 21.945312 8.054688 23.25 9.355469 24.851562 9.355469 C 26.457031 9.355469 27.757812 8.054688 27.757812 6.449219 C 27.757812 4.847656 26.457031 3.546875 24.851562 3.546875 Z M 24.851562 3.546875 " fill-opacity="1" fill-rule="nonzero"/></g><path fill="#ff00de" d="M 25.390625 20.527344 C 25.265625 20.527344 25.132812 20.472656 25.050781 20.363281 L 21.304688 15.792969 C 21.148438 15.601562 21.179688 15.328125 21.363281 15.171875 C 21.554688 15.019531 21.828125 15.046875 21.984375 15.234375 L 25.730469 19.800781 C 25.886719 19.992188 25.859375 20.265625 25.671875 20.421875 C 25.589844 20.488281 25.496094 20.527344 25.390625 20.527344 Z M 25.390625 20.527344 " fill-opacity="1" fill-rule="nonzero"/><path fill="#ff00de" d="M 28.585938 31.886719 C 27.734375 31.886719 27.027344 31.25 26.929688 30.410156 L 26.226562 23.984375 L 19.714844 25.632812 C 18.148438 26.023438 16.550781 25.492188 15.546875 24.238281 C 14.539062 22.980469 14.363281 21.300781 15.085938 19.859375 L 18.785156 12.550781 C 19.332031 11.46875 20.371094 10.8125 21.578125 10.773438 C 22.78125 10.738281 23.863281 11.34375 24.46875 12.386719 L 28.585938 19.519531 C 28.59375 19.527344 28.59375 19.542969 28.601562 19.550781 C 28.910156 19.609375 29.199219 19.75 29.441406 19.957031 C 29.847656 20.296875 30.085938 20.800781 30.09375 21.332031 L 30.25 30.203125 C 30.257812 30.652344 30.085938 31.074219 29.777344 31.398438 C 29.464844 31.726562 29.035156 31.886719 28.585938 31.886719 Z M 26.613281 22.988281 C 26.699219 22.988281 26.789062 23.015625 26.863281 23.070312 C 26.964844 23.140625 27.039062 23.253906 27.046875 23.386719 L 27.808594 30.3125 C 27.855469 30.703125 28.1875 31.007812 28.578125 31.007812 C 28.785156 31.007812 28.984375 30.925781 29.132812 30.777344 C 29.28125 30.628906 29.363281 30.429688 29.355469 30.222656 L 29.199219 21.351562 C 29.191406 21.078125 29.074219 20.820312 28.859375 20.644531 C 28.652344 20.464844 28.371094 20.386719 28.097656 20.429688 L 20.757812 21.5 C 20.585938 21.523438 20.410156 21.449219 20.320312 21.300781 C 20.226562 21.152344 20.230469 20.960938 20.328125 20.820312 L 22.804688 17.132812 C 22.9375 16.925781 23.21875 16.875 23.417969 17.015625 C 23.625 17.148438 23.675781 17.429688 23.535156 17.628906 L 21.621094 20.472656 L 27.601562 19.585938 L 23.699219 12.824219 C 23.261719 12.0625 22.480469 11.625 21.601562 11.648438 C 20.726562 11.667969 19.964844 12.148438 19.574219 12.933594 L 15.878906 20.246094 C 15.308594 21.367188 15.449219 22.683594 16.234375 23.667969 C 17.023438 24.652344 18.273438 25.070312 19.492188 24.761719 L 26.5 22.988281 C 26.539062 22.988281 26.574219 22.988281 26.613281 22.988281 Z M 26.613281 22.988281 " fill-opacity="1" fill-rule="nonzero"/><g clip-path="url(#dc8afff5d5)"><path fill="#ff00de" d="M 4.5 32.109375 L 4.109375 32.109375 C 3.445312 32.109375 2.875 31.636719 2.75 30.984375 L 2.292969 28.636719 C 2.152344 27.910156 2.601562 27.199219 3.320312 27.023438 L 10.328125 25.277344 C 10.421875 25.257812 10.503906 25.203125 10.570312 25.132812 L 14.605469 20.769531 C 14.777344 20.59375 15.050781 20.578125 15.234375 20.746094 C 15.414062 20.917969 15.425781 21.191406 15.257812 21.375 L 11.222656 25.738281 C 11.035156 25.9375 10.800781 26.078125 10.539062 26.144531 L 3.53125 27.886719 C 3.273438 27.953125 3.113281 28.207031 3.164062 28.464844 L 3.621094 30.816406 C 3.664062 31.050781 3.871094 31.222656 4.109375 31.222656 L 4.5 31.222656 C 4.640625 31.222656 4.773438 31.164062 4.871094 31.058594 C 4.96875 30.957031 5.011719 30.824219 4.996094 30.675781 C 4.929688 29.957031 5.441406 29.308594 6.140625 29.183594 L 11.628906 28.25 C 11.703125 28.234375 11.773438 28.207031 11.835938 28.160156 L 16.832031 24.570312 C 17.03125 24.429688 17.304688 24.472656 17.453125 24.671875 C 17.59375 24.871094 17.546875 25.144531 17.347656 25.292969 L 12.359375 28.894531 C 12.1875 29.019531 11.988281 29.101562 11.78125 29.136719 L 6.296875 30.070312 C 6.046875 30.113281 5.863281 30.351562 5.882812 30.609375 C 5.921875 30.992188 5.789062 31.386719 5.527344 31.664062 C 5.261719 31.945312 4.886719 32.109375 4.5 32.109375 Z M 4.5 32.109375 " fill-opacity="1" fill-rule="nonzero"/></g></svg>