<svg xmlns="http://www.w3.org/2000/svg" xmlns:xlink="http://www.w3.org/1999/xlink" width="48" zoomAndPan="magnify" viewBox="0 0 36 36.000001" height="48" preserveAspectRatio="xMidYMid meet" version="1.0"><defs><clipPath id="c44a82828c"><path d="M 1.070312 0.582031 L 34.636719 0.582031 L 34.636719 34.152344 L 1.070312 34.152344 Z M 1.070312 0.582031 " clip-rule="nonzero"/></clipPath></defs><g clip-path="url(#c44a82828c)"><path fill="#ff00de" d="M 17.996094 34.433594 C 8.664062 34.433594 1.070312 26.839844 1.070312 17.515625 C 1.070312 8.179688 8.664062 0.589844 17.996094 0.589844 C 27.328125 0.589844 34.921875 8.179688 34.921875 17.515625 C 34.914062 26.839844 27.320312 34.433594 17.996094 34.433594 Z M 17.996094 2.269531 C 9.589844 2.269531 2.753906 9.105469 2.753906 17.515625 C 2.753906 25.921875 9.589844 32.757812 17.996094 32.757812 C 26.40625 32.757812 33.242188 25.921875 33.242188 17.515625 C 33.234375 9.105469 26.398438 2.269531 17.996094 2.269531 Z M 15.71875 24.914062 L 15.71875 10.113281 C 15.71875 9.746094 15.421875 9.449219 15.054688 9.449219 L 12.632812 9.449219 C 12.261719 9.449219 11.96875 9.746094 11.96875 10.113281 L 11.96875 24.914062 C 11.96875 25.285156 12.261719 25.578125 12.632812 25.578125 L 15.054688 25.578125 C 15.421875 25.578125 15.71875 25.273438 15.71875 24.914062 Z M 24.007812 24.914062 L 24.007812 10.113281 C 24.007812 9.746094 23.714844 9.449219 23.34375 9.449219 L 20.921875 9.449219 C 20.554688 9.449219 20.257812 9.746094 20.257812 10.113281 L 20.257812 24.914062 C 20.257812 25.285156 20.554688 25.578125 20.921875 25.578125 L 23.351562 25.578125 C 23.714844 25.578125 24.007812 25.273438 24.007812 24.914062 Z M 24.007812 24.914062 " fill-opacity="1" fill-rule="nonzero"/></g></svg>