<svg xmlns="http://www.w3.org/2000/svg" xmlns:xlink="http://www.w3.org/1999/xlink" width="48" zoomAndPan="magnify" viewBox="0 0 36 36.000001" height="48" preserveAspectRatio="xMidYMid meet" version="1.0"><defs><clipPath id="295d1d9c84"><path d="M 2.632812 9 L 33.28125 9 L 33.28125 34.714844 L 2.632812 34.714844 Z M 2.632812 9 " clip-rule="nonzero"/></clipPath><clipPath id="4b50183280"><path d="M 8 0.417969 L 28 0.417969 L 28 3 L 8 3 Z M 8 0.417969 " clip-rule="nonzero"/></clipPath></defs><g clip-path="url(#295d1d9c84)"><path fill="#ff00de" d="M 32.183594 9.851562 L 3.8125 9.851562 C 3.160156 9.851562 2.632812 10.378906 2.632812 11.03125 L 2.632812 33.417969 C 2.632812 34.066406 3.160156 34.597656 3.8125 34.597656 L 32.183594 34.597656 C 32.835938 34.597656 33.363281 34.066406 33.363281 33.417969 L 33.363281 11.03125 C 33.363281 10.378906 32.835938 9.851562 32.183594 9.851562 Z M 28.351562 17.164062 C 28.351562 18.40625 27.34375 19.417969 26.097656 19.417969 C 24.851562 19.417969 23.84375 18.40625 23.84375 17.164062 C 23.84375 15.917969 24.851562 14.910156 26.097656 14.910156 C 27.34375 14.910156 28.351562 15.917969 28.351562 17.164062 Z M 4.992188 32.238281 L 4.992188 29.820312 L 13.003906 20.625 C 13.667969 19.863281 14.851562 19.863281 15.515625 20.625 L 20.984375 26.902344 L 23.46875 24.164062 C 24.066406 23.507812 25.097656 23.507812 25.691406 24.164062 L 31.003906 30.011719 L 31.003906 32.238281 Z M 4.992188 32.238281 " fill-opacity="1" fill-rule="nonzero"/></g><path fill="#ff00de" d="M 6.640625 7.496094 L 29.355469 7.496094 C 30.007812 7.496094 30.535156 6.964844 30.535156 6.316406 C 30.535156 5.664062 30.007812 5.136719 29.355469 5.136719 L 6.640625 5.136719 C 5.992188 5.136719 5.464844 5.664062 5.464844 6.316406 C 5.464844 6.964844 5.992188 7.496094 6.640625 7.496094 Z M 6.640625 7.496094 " fill-opacity="1" fill-rule="nonzero"/><g clip-path="url(#4b50183280)"><path fill="#ff00de" d="M 9.472656 2.777344 L 26.527344 2.777344 C 27.175781 2.777344 27.703125 2.25 27.703125 1.601562 C 27.703125 0.949219 27.175781 0.421875 26.527344 0.421875 L 9.472656 0.421875 C 8.820312 0.421875 8.292969 0.949219 8.292969 1.601562 C 8.292969 2.25 8.820312 2.777344 9.472656 2.777344 Z M 9.472656 2.777344 " fill-opacity="1" fill-rule="nonzero"/></g></svg>