<svg xmlns="http://www.w3.org/2000/svg" xmlns:xlink="http://www.w3.org/1999/xlink" width="48" zoomAndPan="magnify" viewBox="0 0 36 36.000001" height="48" preserveAspectRatio="xMidYMid meet" version="1.0"><defs><clipPath id="315889a15e"><path d="M 13 12 L 31 12 L 31 33.445312 L 13 33.445312 Z M 13 12 " clip-rule="nonzero"/></clipPath><clipPath id="cedf4efe7d"><path d="M 14 1.335938 L 35.199219 1.335938 L 35.199219 24 L 14 24 Z M 14 1.335938 " clip-rule="nonzero"/></clipPath></defs><path fill="#ff00de" d="M 11.4375 25.96875 L 5.175781 25.96875 C 3.605469 25.96875 2.296875 27.292969 2.402344 28.929688 C 2.492188 30.332031 3.664062 31.472656 5.066406 31.527344 C 5.898438 31.558594 6.695312 31.222656 7.25 30.601562 C 7.503906 30.316406 7.480469 29.878906 7.195312 29.621094 C 6.910156 29.367188 6.472656 29.390625 6.214844 29.675781 C 5.9375 29.988281 5.539062 30.15625 5.121094 30.140625 C 4.417969 30.113281 3.832031 29.542969 3.789062 28.839844 C 3.738281 28.027344 4.378906 27.355469 5.175781 27.355469 L 11.4375 27.355469 C 11.820312 27.355469 12.128906 27.046875 12.128906 26.664062 C 12.128906 26.28125 11.820312 25.96875 11.4375 25.96875 Z M 11.4375 25.96875 " fill-opacity="1" fill-rule="nonzero"/><path fill="#ff00de" d="M 11.4375 23.1875 L 3.785156 23.1875 C 2.984375 23.1875 2.347656 22.511719 2.398438 21.703125 C 2.441406 21 3.027344 20.429688 3.730469 20.402344 C 4.148438 20.386719 4.546875 20.554688 4.824219 20.867188 C 5.082031 21.152344 5.519531 21.175781 5.804688 20.921875 C 6.089844 20.664062 6.113281 20.226562 5.859375 19.941406 C 5.304688 19.320312 4.507812 18.984375 3.675781 19.015625 C 2.273438 19.070312 1.101562 20.210938 1.011719 21.613281 C 0.90625 23.253906 2.214844 24.574219 3.785156 24.574219 L 11.4375 24.574219 C 11.820312 24.574219 12.132812 24.265625 12.132812 23.878906 C 12.132812 23.496094 11.820312 23.1875 11.4375 23.1875 Z M 11.4375 23.1875 " fill-opacity="1" fill-rule="nonzero"/><g clip-path="url(#315889a15e)"><path fill="#ff00de" d="M 30.929688 25.398438 L 29.679688 24.265625 C 29.140625 23.78125 28.820312 23.113281 28.769531 22.390625 L 28.476562 17.996094 C 28.304688 15.054688 25.863281 12.75 22.921875 12.75 L 18.597656 12.75 C 17.691406 12.75 16.839844 12.515625 16.097656 12.097656 L 16.097656 16.371094 C 16.097656 16.539062 16.039062 16.699219 15.925781 16.828125 L 13.171875 19.980469 L 14.367188 20.792969 C 14.554688 20.921875 14.671875 21.136719 14.671875 21.367188 L 14.671875 22.875 L 16.074219 24.128906 C 16.332031 24.363281 16.378906 24.753906 16.179688 25.039062 L 15.066406 26.648438 C 14.898438 27.121094 14.929688 27.480469 15.15625 27.664062 C 15.257812 27.746094 15.359375 27.835938 15.453125 27.925781 C 15.597656 28.066406 16.070312 28.222656 16.941406 28.214844 C 17.257812 28.214844 17.792969 28.214844 18.40625 28.21875 C 19.929688 28.222656 21.171875 29.472656 21.171875 30.996094 L 21.171875 33.6875 L 30.972656 33.6875 C 30.820312 28.882812 30.988281 31.195312 30.746094 27.789062 C 30.691406 26.960938 30.75 26.160156 30.929688 25.398438 Z M 21.214844 16.945312 L 19.796875 16.945312 C 18.636719 16.945312 17.691406 16 17.691406 14.839844 C 17.691406 14.457031 18.003906 14.144531 18.386719 14.144531 C 18.769531 14.144531 19.082031 14.457031 19.082031 14.839844 C 19.082031 15.234375 19.402344 15.558594 19.796875 15.558594 L 21.214844 15.558594 C 21.597656 15.558594 21.910156 15.867188 21.910156 16.253906 C 21.910156 16.636719 21.597656 16.945312 21.214844 16.945312 Z M 21.214844 16.945312 " fill-opacity="1" fill-rule="nonzero"/></g><g clip-path="url(#cedf4efe7d)"><path fill="#ff00de" d="M 29.019531 4.40625 L 22.675781 4.40625 C 20.304688 4.40625 18.128906 3.25 16.804688 1.335938 C 15.113281 3.148438 14.503906 5.5 14.988281 8.339844 C 15.109375 9.042969 15.425781 9.667969 15.875 10.164062 C 15.902344 10.1875 15.925781 10.210938 15.945312 10.238281 C 16.617188 10.9375 17.5625 11.363281 18.597656 11.363281 L 22.921875 11.363281 C 26.597656 11.363281 29.648438 14.238281 29.863281 17.910156 L 30.15625 22.296875 C 30.179688 22.660156 30.339844 22.992188 30.609375 23.238281 L 31.425781 23.976562 C 31.90625 22.957031 32.273438 22.789062 32.910156 21.613281 C 34.390625 18.878906 35.085938 16.535156 35.085938 13.449219 L 35.085938 10.46875 C 35.085938 7.125 32.363281 4.40625 29.019531 4.40625 Z M 29.019531 4.40625 " fill-opacity="1" fill-rule="nonzero"/></g></svg>