<svg xmlns="http://www.w3.org/2000/svg" xmlns:xlink="http://www.w3.org/1999/xlink" width="48" zoomAndPan="magnify" viewBox="0 0 36 36.000001" height="48" preserveAspectRatio="xMidYMid meet" version="1.0"><defs><clipPath id="ebd68efdae"><path d="M 0.488281 0 L 35.511719 0 L 35.511719 35.027344 L 0.488281 35.027344 Z M 0.488281 0 " clip-rule="nonzero"/></clipPath></defs><path fill="#ff00de" d="M 18.039062 0.941406 C 27.089844 0.933594 34.542969 8.375 34.535156 17.417969 C 34.53125 26.933594 26.699219 34.085938 18.03125 33.945312 C 9.335938 34.136719 1.457031 26.859375 1.476562 17.359375 C 1.496094 8.34375 8.945312 0.949219 18.039062 0.941406 Z M 31.359375 18.265625 C 31.921875 18.25 32.273438 17.878906 32.246094 17.429688 C 32.21875 16.996094 31.902344 16.695312 31.375 16.664062 C 30.882812 16.636719 30.390625 16.65625 29.898438 16.65625 C 29.898438 16.660156 29.898438 16.660156 29.898438 16.660156 C 29.40625 16.660156 28.910156 16.636719 28.417969 16.667969 C 27.871094 16.707031 27.605469 16.988281 27.597656 17.457031 C 27.589844 17.925781 27.851562 18.234375 28.402344 18.253906 C 29.386719 18.289062 30.371094 18.289062 31.359375 18.265625 Z M 30.457031 24.167969 C 30.441406 24.109375 30.429688 24.011719 30.398438 23.921875 C 30.25 23.476562 29.175781 22.78125 28.738281 22.921875 C 28.488281 23 28.195312 23.222656 28.109375 23.453125 C 28.027344 23.675781 28.09375 24.085938 28.261719 24.238281 C 28.582031 24.539062 28.996094 24.785156 29.414062 24.929688 C 29.933594 25.105469 30.429688 24.714844 30.457031 24.167969 Z M 30.101562 11.40625 C 30.289062 11.261719 30.375 10.992188 30.453125 10.871094 C 30.445312 10.28125 29.980469 9.828125 29.53125 9.980469 C 29.058594 10.140625 28.609375 10.433594 28.210938 10.746094 C 27.9375 10.964844 27.953125 11.34375 28.171875 11.636719 C 28.394531 11.929688 28.6875 12.171875 29.089844 11.984375 C 29.441406 11.820312 29.800781 11.644531 30.101562 11.40625 Z M 25.515625 5.820312 C 25.574219 5.667969 25.277344 5.269531 25.058594 5.160156 C 24.84375 5.050781 24.386719 5.058594 24.261719 5.207031 C 23.929688 5.59375 23.636719 6.058594 23.488281 6.539062 C 23.34375 7.019531 23.789062 7.425781 24.355469 7.414062 C 24.425781 7.394531 24.617188 7.402344 24.667969 7.320312 C 24.980469 6.835938 25.3125 6.351562 25.515625 5.820312 Z M 25.03125 29.800781 C 25.273438 29.632812 25.433594 29.34375 25.683594 29.042969 C 25.328125 28.527344 25.0625 28.035156 24.695312 27.636719 C 24.460938 27.382812 24.078125 27.464844 23.789062 27.679688 C 23.496094 27.894531 23.367188 28.222656 23.503906 28.546875 C 23.664062 28.933594 23.878906 29.3125 24.140625 29.640625 C 24.359375 29.910156 24.730469 30.011719 25.03125 29.800781 Z M 21.769531 12.621094 C 22.09375 12.046875 22 11.609375 21.570312 11.332031 C 21.140625 11.046875 20.734375 11.183594 20.347656 11.753906 C 20.253906 11.890625 20.179688 12.039062 20.097656 12.179688 C 19.746094 12.765625 19.394531 13.351562 19.042969 13.9375 C 18.980469 13.917969 18.914062 13.902344 18.851562 13.886719 C 18.851562 13.527344 18.851562 13.171875 18.851562 12.8125 C 18.855469 10.148438 18.855469 7.484375 18.855469 4.820312 C 18.855469 4.589844 18.875 4.355469 18.851562 4.128906 C 18.796875 3.589844 18.523438 3.28125 18.09375 3.253906 C 17.589844 3.21875 17.25 3.503906 17.175781 4.070312 C 17.136719 4.363281 17.15625 4.660156 17.15625 4.957031 C 17.152344 8.839844 17.15625 12.722656 17.15625 16.605469 C 17.15625 16.835938 17.160156 17.066406 17.160156 17.296875 C 17.160156 17.726562 17.300781 18.074219 17.742188 18.222656 C 18.15625 18.363281 18.53125 18.226562 18.8125 17.75 C 19.808594 16.046875 20.796875 14.339844 21.769531 12.621094 Z M 18.859375 29.378906 C 18.859375 28.921875 18.878906 28.460938 18.851562 28 C 18.820312 27.394531 18.445312 26.988281 17.980469 27.015625 C 17.519531 27.039062 17.1875 27.378906 17.167969 27.957031 C 17.140625 28.90625 17.144531 29.859375 17.167969 30.8125 C 17.183594 31.339844 17.566406 31.679688 18.042969 31.675781 C 18.515625 31.671875 18.816406 31.347656 18.847656 30.761719 C 18.867188 30.300781 18.851562 29.839844 18.851562 29.378906 C 18.851562 29.378906 18.855469 29.378906 18.859375 29.378906 Z M 11.671875 29.804688 C 12.050781 29.636719 12.644531 28.640625 12.53125 28.246094 C 12.460938 27.996094 12.253906 27.691406 12.03125 27.601562 C 11.808594 27.511719 11.394531 27.5625 11.238281 27.722656 C 10.925781 28.042969 10.675781 28.457031 10.511719 28.875 C 10.332031 29.34375 10.78125 29.871094 11.351562 29.890625 C 11.421875 29.875 11.554688 29.859375 11.671875 29.804688 Z M 12.113281 7.304688 C 12.335938 7.230469 12.46875 6.898438 12.613281 6.707031 C 12.414062 6.03125 12.21875 5.453125 11.679688 5.144531 C 11.476562 5.027344 11.070312 5.070312 10.867188 5.207031 C 10.667969 5.34375 10.457031 5.734375 10.519531 5.933594 C 10.65625 6.390625 10.894531 6.855469 11.21875 7.199219 C 11.382812 7.375 11.84375 7.394531 12.113281 7.304688 Z M 8.417969 17.5 C 8.425781 16.976562 8.152344 16.683594 7.542969 16.664062 C 6.589844 16.636719 5.636719 16.644531 4.683594 16.667969 C 4.121094 16.683594 3.75 17.046875 3.765625 17.488281 C 3.78125 17.945312 4.125 18.238281 4.726562 18.265625 C 5.183594 18.289062 5.644531 18.269531 6.105469 18.269531 C 6.601562 18.269531 7.097656 18.296875 7.585938 18.261719 C 8.183594 18.21875 8.410156 17.984375 8.417969 17.5 Z M 7.765625 24.242188 C 7.929688 24.089844 7.996094 23.664062 7.902344 23.445312 C 7.792969 23.1875 7.464844 23.023438 7.164062 22.757812 C 6.648438 23.097656 6.136719 23.34375 5.761719 23.722656 C 5.605469 23.878906 5.660156 24.351562 5.757812 24.625 C 5.886719 24.972656 6.28125 25.0625 6.597656 24.933594 C 7.015625 24.761719 7.441406 24.542969 7.765625 24.242188 Z M 7.800781 11.636719 C 7.9375 11.4375 7.992188 11.019531 7.871094 10.832031 C 7.542969 10.324219 6.996094 10.074219 6.292969 9.898438 C 6.121094 10.039062 5.789062 10.175781 5.71875 10.394531 C 5.628906 10.664062 5.644531 11.128906 5.816406 11.289062 C 6.160156 11.613281 6.625 11.851562 7.082031 11.992188 C 7.277344 12.050781 7.664062 11.839844 7.800781 11.636719 Z M 7.800781 11.636719 " fill-opacity="1" fill-rule="nonzero"/><g clip-path="url(#ebd68efdae)"><path fill="#000000" d="M 36.203125 17.367188 C 36.242188 28.304688 27.3125 35.734375 18.054688 35.636719 C 8.703125 35.78125 -0.238281 28.246094 -0.183594 17.359375 C -0.132812 6.808594 8.472656 -0.707031 17.964844 -0.734375 C 27.453125 -0.761719 36.167969 6.742188 36.203125 17.367188 Z M 34.535156 17.417969 C 34.542969 8.375 27.089844 0.933594 18.039062 0.941406 C 8.945312 0.949219 1.496094 8.34375 1.476562 17.359375 C 1.457031 26.859375 9.335938 34.136719 18.03125 33.945312 C 26.699219 34.085938 34.527344 26.933594 34.535156 17.417969 Z M 34.535156 17.417969 " fill-opacity="1" fill-rule="nonzero"/></g><path fill="#000000" d="M 32.246094 17.429688 C 32.273438 17.878906 31.921875 18.25 31.359375 18.265625 C 30.375 18.289062 29.386719 18.289062 28.402344 18.253906 C 27.851562 18.234375 27.59375 17.925781 27.597656 17.457031 C 27.605469 16.988281 27.871094 16.707031 28.417969 16.667969 C 28.910156 16.636719 29.40625 16.664062 29.898438 16.664062 C 29.898438 16.660156 29.898438 16.660156 29.898438 16.65625 C 30.390625 16.65625 30.886719 16.636719 31.375 16.664062 C 31.902344 16.695312 32.21875 17 32.246094 17.429688 Z M 32.246094 17.429688 " fill-opacity="1" fill-rule="nonzero"/><path fill="#000000" d="M 30.398438 23.921875 C 30.429688 24.011719 30.441406 24.109375 30.457031 24.167969 C 30.429688 24.714844 29.933594 25.105469 29.410156 24.929688 C 28.992188 24.785156 28.582031 24.539062 28.257812 24.238281 C 28.09375 24.085938 28.023438 23.675781 28.109375 23.453125 C 28.191406 23.222656 28.488281 23 28.738281 22.921875 C 29.175781 22.78125 30.25 23.476562 30.398438 23.921875 Z M 30.398438 23.921875 " fill-opacity="1" fill-rule="nonzero"/><path fill="#000000" d="M 30.453125 10.871094 C 30.378906 10.992188 30.289062 11.261719 30.101562 11.40625 C 29.800781 11.644531 29.441406 11.820312 29.089844 11.984375 C 28.6875 12.171875 28.394531 11.929688 28.171875 11.636719 C 27.953125 11.34375 27.9375 10.964844 28.214844 10.746094 C 28.609375 10.433594 29.058594 10.140625 29.535156 9.980469 C 29.980469 9.828125 30.445312 10.28125 30.453125 10.871094 Z M 30.453125 10.871094 " fill-opacity="1" fill-rule="nonzero"/><path fill="#000000" d="M 25.058594 5.160156 C 25.28125 5.269531 25.574219 5.667969 25.515625 5.820312 C 25.3125 6.351562 24.980469 6.835938 24.667969 7.320312 C 24.617188 7.402344 24.425781 7.394531 24.355469 7.414062 C 23.789062 7.425781 23.34375 7.019531 23.488281 6.539062 C 23.636719 6.058594 23.929688 5.59375 24.261719 5.207031 C 24.386719 5.058594 24.84375 5.050781 25.058594 5.160156 Z M 25.058594 5.160156 " fill-opacity="1" fill-rule="nonzero"/><path fill="#000000" d="M 25.683594 29.042969 C 25.433594 29.34375 25.273438 29.632812 25.03125 29.800781 C 24.730469 30.011719 24.359375 29.910156 24.144531 29.640625 C 23.878906 29.3125 23.664062 28.933594 23.503906 28.546875 C 23.367188 28.222656 23.496094 27.894531 23.789062 27.679688 C 24.078125 27.464844 24.460938 27.382812 24.695312 27.636719 C 25.0625 28.035156 25.328125 28.527344 25.683594 29.042969 Z M 25.683594 29.042969 " fill-opacity="1" fill-rule="nonzero"/><path fill="#000000" d="M 21.570312 11.332031 C 22 11.609375 22.09375 12.046875 21.769531 12.621094 C 20.796875 14.339844 19.808594 16.046875 18.8125 17.75 C 18.53125 18.222656 18.15625 18.363281 17.742188 18.222656 C 17.300781 18.070312 17.160156 17.722656 17.160156 17.292969 C 17.160156 17.0625 17.152344 16.832031 17.152344 16.601562 C 17.152344 12.71875 17.152344 8.839844 17.15625 4.957031 C 17.15625 4.660156 17.136719 4.359375 17.175781 4.070312 C 17.25 3.503906 17.589844 3.21875 18.09375 3.253906 C 18.519531 3.28125 18.796875 3.589844 18.851562 4.128906 C 18.875 4.355469 18.855469 4.585938 18.855469 4.816406 C 18.855469 7.480469 18.851562 10.148438 18.851562 12.8125 C 18.851562 13.167969 18.851562 13.527344 18.851562 13.882812 C 18.914062 13.902344 18.980469 13.917969 19.042969 13.9375 C 19.394531 13.351562 19.746094 12.765625 20.097656 12.179688 C 20.179688 12.039062 20.253906 11.890625 20.34375 11.753906 C 20.734375 11.183594 21.140625 11.046875 21.570312 11.332031 Z M 21.570312 11.332031 " fill-opacity="1" fill-rule="nonzero"/><path fill="#000000" d="M 18.851562 28 C 18.878906 28.460938 18.859375 28.921875 18.859375 29.378906 C 18.855469 29.378906 18.851562 29.378906 18.851562 29.378906 C 18.851562 29.839844 18.867188 30.300781 18.847656 30.761719 C 18.816406 31.347656 18.515625 31.671875 18.042969 31.675781 C 17.566406 31.679688 17.183594 31.339844 17.167969 30.8125 C 17.144531 29.859375 17.140625 28.90625 17.167969 27.957031 C 17.1875 27.378906 17.519531 27.039062 17.980469 27.015625 C 18.445312 26.988281 18.820312 27.394531 18.851562 28 Z M 18.851562 28 " fill-opacity="1" fill-rule="nonzero"/><path fill="#000000" d="M 12.53125 28.246094 C 12.644531 28.640625 12.050781 29.636719 11.671875 29.804688 C 11.554688 29.859375 11.421875 29.875 11.351562 29.894531 C 10.78125 29.871094 10.332031 29.34375 10.511719 28.875 C 10.675781 28.457031 10.925781 28.042969 11.238281 27.722656 C 11.394531 27.5625 11.808594 27.511719 12.03125 27.601562 C 12.253906 27.691406 12.460938 27.996094 12.53125 28.246094 Z M 12.53125 28.246094 " fill-opacity="1" fill-rule="nonzero"/><path fill="#000000" d="M 12.613281 6.707031 C 12.46875 6.898438 12.335938 7.230469 12.113281 7.304688 C 11.84375 7.390625 11.382812 7.375 11.21875 7.199219 C 10.898438 6.855469 10.65625 6.390625 10.519531 5.933594 C 10.457031 5.734375 10.667969 5.34375 10.871094 5.207031 C 11.070312 5.070312 11.476562 5.027344 11.679688 5.144531 C 12.21875 5.453125 12.414062 6.03125 12.613281 6.707031 Z M 12.613281 6.707031 " fill-opacity="1" fill-rule="nonzero"/><path fill="#000000" d="M 7.542969 16.664062 C 8.152344 16.683594 8.425781 16.976562 8.417969 17.5 C 8.410156 17.984375 8.183594 18.21875 7.585938 18.261719 C 7.097656 18.296875 6.601562 18.269531 6.105469 18.269531 C 5.644531 18.269531 5.183594 18.289062 4.726562 18.265625 C 4.125 18.238281 3.78125 17.945312 3.765625 17.492188 C 3.75 17.046875 4.121094 16.683594 4.683594 16.667969 C 5.636719 16.644531 6.589844 16.636719 7.542969 16.664062 Z M 7.542969 16.664062 " fill-opacity="1" fill-rule="nonzero"/><path fill="#000000" d="M 7.902344 23.445312 C 7.996094 23.664062 7.929688 24.089844 7.765625 24.242188 C 7.441406 24.542969 7.015625 24.761719 6.597656 24.933594 C 6.28125 25.0625 5.886719 24.972656 5.757812 24.625 C 5.660156 24.351562 5.605469 23.878906 5.761719 23.722656 C 6.136719 23.34375 6.644531 23.097656 7.164062 22.757812 C 7.464844 23.023438 7.792969 23.1875 7.902344 23.445312 Z M 7.902344 23.445312 " fill-opacity="1" fill-rule="nonzero"/><path fill="#000000" d="M 7.871094 10.835938 C 7.992188 11.019531 7.9375 11.4375 7.800781 11.636719 C 7.664062 11.839844 7.277344 12.050781 7.082031 11.992188 C 6.625 11.851562 6.160156 11.613281 5.816406 11.292969 C 5.644531 11.128906 5.628906 10.664062 5.71875 10.394531 C 5.789062 10.175781 6.121094 10.039062 6.292969 9.902344 C 6.996094 10.074219 7.542969 10.328125 7.871094 10.835938 Z M 7.871094 10.835938 " fill-opacity="1" fill-rule="nonzero"/></svg>