<svg xmlns="http://www.w3.org/2000/svg" xmlns:xlink="http://www.w3.org/1999/xlink" width="48" zoomAndPan="magnify" viewBox="0 0 36 36.000001" height="48" preserveAspectRatio="xMidYMid meet" version="1.0"><defs><clipPath id="94e466e92e"><path d="M 1.738281 1.25 L 34.574219 1.25 L 34.574219 34 L 1.738281 34 Z M 1.738281 1.25 " clip-rule="nonzero"/></clipPath></defs><g clip-path="url(#94e466e92e)"><path fill="#ff00de" d="M 17.996094 1.25 C 9.03125 1.25 1.738281 8.542969 1.738281 17.511719 C 1.738281 26.476562 9.03125 33.769531 17.996094 33.769531 C 26.960938 33.769531 34.257812 26.476562 34.257812 17.511719 C 34.257812 8.542969 26.960938 1.25 17.996094 1.25 Z M 17.996094 30.621094 C 10.765625 30.621094 4.882812 24.742188 4.882812 17.511719 C 4.882812 10.28125 10.765625 4.398438 17.996094 4.398438 C 25.226562 4.398438 31.109375 10.28125 31.109375 17.511719 C 31.109375 24.742188 25.226562 30.621094 17.996094 30.621094 Z M 17.996094 30.621094 " fill-opacity="1" fill-rule="nonzero"/></g><path fill="#ff00de" d="M 17.996094 12.371094 C 17.128906 12.371094 16.421875 13.074219 16.421875 13.945312 L 16.421875 25.558594 C 16.421875 26.429688 17.128906 27.132812 17.996094 27.132812 C 18.867188 27.132812 19.570312 26.429688 19.570312 25.558594 L 19.570312 13.945312 C 19.570312 13.074219 18.867188 12.371094 17.996094 12.371094 Z M 17.996094 12.371094 " fill-opacity="1" fill-rule="nonzero"/><path fill="#ff00de" d="M 17.996094 7.886719 C 17.128906 7.886719 16.421875 8.59375 16.421875 9.460938 L 16.421875 9.464844 C 16.421875 10.335938 17.128906 11.035156 17.996094 11.035156 C 18.867188 11.035156 19.570312 10.328125 19.570312 9.460938 C 19.570312 8.59375 18.867188 7.886719 17.996094 7.886719 Z M 17.996094 7.886719 " fill-opacity="1" fill-rule="nonzero"/></svg>