<svg xmlns="http://www.w3.org/2000/svg" xmlns:xlink="http://www.w3.org/1999/xlink" width="48" zoomAndPan="magnify" viewBox="0 0 36 36.000001" height="48" preserveAspectRatio="xMidYMid meet" version="1.0"><defs><clipPath id="9a112af3d2"><path d="M 1.070312 3.503906 L 34.636719 3.503906 L 34.636719 31.234375 L 1.070312 31.234375 Z M 1.070312 3.503906 " clip-rule="nonzero"/></clipPath><clipPath id="bff6cd43d4"><path d="M 0.355469 0.734375 L 33.578125 0.734375 L 33.578125 28.234375 L 0.355469 28.234375 Z M 0.355469 0.734375 " clip-rule="nonzero"/></clipPath><clipPath id="e99431105e"><rect x="0" width="34" y="0" height="29"/></clipPath></defs><g clip-path="url(#9a112af3d2)"><g transform="matrix(1, 0, 0, 1, 1, 3)"><g clip-path="url(#e99431105e)"><g clip-path="url(#bff6cd43d4)"><path fill="#ff00de" d="M 30.714844 2.0625 C 30.734375 2.070312 30.753906 2.078125 30.773438 2.082031 C 31.398438 2.296875 31.886719 2.742188 32.167969 3.292969 C 32.453125 3.847656 32.527344 4.503906 32.332031 5.136719 C 31.832031 6.679688 31.019531 8.292969 28.945312 7.617188 L 28.945312 7.621094 C 26.996094 6.785156 27.210938 5.320312 27.660156 3.621094 C 27.871094 2.996094 28.320312 2.507812 28.871094 2.226562 C 29.425781 1.945312 30.082031 1.867188 30.714844 2.0625 Z M 19.433594 5.476562 C 17.664062 5.878906 15.914062 5.371094 14.257812 4.382812 C 14.015625 4.238281 13.695312 4.316406 13.550781 4.5625 C 13.402344 4.808594 13.484375 5.125 13.730469 5.269531 C 15.628906 6.40625 17.65625 6.953125 19.699219 6.476562 L 19.535156 6.738281 C 19.378906 6.980469 19.453125 7.300781 19.695312 7.453125 C 19.933594 7.605469 20.253906 7.535156 20.40625 7.292969 L 21.226562 6.003906 C 21.378906 5.761719 21.308594 5.441406 21.066406 5.289062 L 19.777344 4.472656 C 19.535156 4.316406 19.214844 4.390625 19.0625 4.632812 C 18.910156 4.871094 18.980469 5.191406 19.222656 5.34375 Z M 30.933594 12.136719 C 30.507812 13.898438 29.277344 15.238281 27.652344 16.28125 C 27.414062 16.4375 27.34375 16.753906 27.496094 16.996094 C 27.652344 17.238281 27.972656 17.304688 28.210938 17.152344 C 30.070312 15.957031 31.46875 14.382812 31.949219 12.34375 L 32.109375 12.605469 C 32.257812 12.851562 32.578125 12.929688 32.820312 12.785156 C 33.066406 12.636719 33.144531 12.316406 32.996094 12.074219 L 32.207031 10.765625 C 32.058594 10.519531 31.742188 10.441406 31.496094 10.589844 L 30.1875 11.378906 C 29.945312 11.527344 29.867188 11.84375 30.011719 12.089844 C 30.160156 12.335938 30.480469 12.414062 30.722656 12.265625 Z M 16.199219 8.476562 C 16.179688 8.464844 16.15625 8.457031 16.132812 8.445312 C 15.789062 8.304688 15.21875 7.972656 14.902344 7.773438 C 13.265625 6.726562 11.140625 7.207031 10.128906 8.796875 C 8.160156 11.898438 10.382812 18.402344 10.207031 22.230469 C 8.871094 21.683594 7.644531 21.550781 6.230469 21.417969 C 5.160156 21.316406 4.148438 21.222656 3.261719 20.839844 C 2.578125 20.523438 1.640625 20.222656 1.007812 20.609375 C 0.433594 20.960938 0.4375 21.628906 0.6875 22.269531 C 0.960938 22.976562 0.792969 23.929688 0.632812 24.828125 C 0.355469 26.417969 0.0976562 27.871094 1.785156 28.453125 C 1.84375 28.472656 1.902344 28.480469 1.960938 28.480469 C 2.988281 28.515625 3.3125 27.472656 3.636719 26.441406 C 3.816406 25.871094 3.992188 25.3125 4.175781 25.199219 L 11.101562 26.734375 C 11.300781 26.785156 11.421875 26.804688 11.632812 26.804688 C 12.179688 26.804688 12.675781 26.578125 13.03125 26.222656 C 13.375 25.875 13.589844 25.40625 13.605469 24.886719 C 14.023438 23.175781 14.382812 21.464844 14.609375 19.757812 C 14.808594 18.285156 14.90625 16.8125 14.863281 15.347656 C 17.59375 16.277344 20.632812 16.5625 23.421875 15.835938 C 23.492188 16.265625 23.546875 16.710938 23.574219 17.199219 C 23.210938 19.550781 23.390625 21.226562 23.5625 22.855469 C 23.671875 23.902344 23.78125 24.933594 23.738281 26.101562 C 23.722656 26.660156 23.898438 27.308594 24.53125 27.441406 C 25.414062 27.621094 27.570312 27.894531 28.726562 27.652344 C 29.34375 27.523438 29.785156 27.21875 29.800781 26.679688 C 29.800781 26.640625 29.796875 26.601562 29.789062 26.5625 L 29.792969 26.5625 C 29.640625 25.8125 28.847656 25.519531 28.042969 25.21875 C 27.46875 25.007812 26.886719 24.789062 26.882812 24.550781 C 26.917969 23.835938 26.96875 23.164062 27.019531 22.511719 C 27.164062 20.652344 27.292969 18.945312 27.023438 15.621094 C 27.042969 14.734375 27.246094 14.175781 27.507812 13.765625 C 27.589844 13.695312 27.660156 13.632812 27.722656 13.582031 L 28.007812 13.316406 C 28.015625 13.308594 28.023438 13.300781 28.027344 13.292969 C 28.335938 12.992188 28.574219 12.648438 28.742188 12.277344 C 29.007812 11.851562 29.179688 11.3125 29.140625 10.476562 C 29.101562 9.683594 28.753906 8.988281 28.25 8.453125 C 28.371094 8.511719 28.496094 8.558594 28.625 8.601562 C 31.277344 9.464844 32.621094 7.597656 33.304688 5.484375 C 33.902344 3.652344 32.875 1.664062 31.058594 1.089844 C 29.207031 0.503906 27.257812 1.511719 26.664062 3.332031 L 26.382812 4.207031 C 25.984375 5.433594 26.304688 6.746094 27.148438 7.65625 C 26.707031 7.445312 26.226562 7.324219 25.753906 7.316406 C 25.390625 7.308594 25.039062 7.371094 24.714844 7.507812 C 24.167969 7.652344 23.652344 7.933594 23.21875 8.351562 L 23.210938 8.359375 C 22.910156 8.675781 22.371094 8.953125 21.902344 9.101562 C 20.148438 9.660156 17.898438 9.242188 16.199219 8.476562 Z M 15.433594 9.257812 L 15.433594 14.445312 C 15.121094 14.34375 14.8125 14.234375 14.507812 14.113281 C 14.148438 13.96875 13.773438 14.246094 13.796875 14.625 C 14.011719 18.019531 13.402344 21.378906 12.589844 24.699219 C 12.578125 24.738281 12.574219 24.777344 12.574219 24.820312 C 12.574219 25.476562 11.941406 25.90625 11.375 25.742188 C 11.359375 25.734375 11.347656 25.730469 11.332031 25.726562 L 8.675781 25.140625 L 8.675781 22.816406 C 9.191406 22.945312 9.925781 23.191406 10.390625 23.449219 C 10.722656 23.632812 11.113281 23.441406 11.167969 23.082031 C 11.730469 19.375 9.191406 12.136719 11.003906 9.347656 C 11.730469 8.230469 13.226562 7.914062 14.34375 8.640625 C 14.691406 8.867188 15.058594 9.074219 15.433594 9.257812 Z M 16.472656 14.746094 L 16.472656 9.707031 C 18.527344 10.476562 21.359375 10.789062 23.277344 9.605469 C 23.253906 9.8125 23.242188 10.039062 23.246094 10.28125 C 22.921875 12.347656 23.0625 13.625 23.253906 14.808594 C 21.058594 15.40625 18.675781 15.304688 16.472656 14.746094 Z M 24.34375 15.0625 C 24.132812 13.816406 23.925781 12.570312 24.273438 10.394531 C 24.277344 10.363281 24.28125 10.332031 24.28125 10.300781 C 24.25 9.304688 24.570312 8.738281 25.03125 8.5 C 25.140625 8.441406 25.519531 8.421875 25.660156 8.421875 C 26.265625 8.433594 26.867188 8.675781 27.328125 9.140625 C 27.335938 9.152344 27.34375 9.160156 27.355469 9.171875 C 27.816406 9.652344 28.035156 10.269531 28.023438 10.886719 C 28.019531 11.164062 27.964844 11.441406 27.863281 11.703125 C 27.722656 11.953125 27.53125 12.152344 27.332031 12.359375 C 26.710938 13.011719 26.03125 13.722656 25.992188 15.601562 C 25.988281 15.628906 25.988281 15.660156 25.992188 15.691406 C 26.257812 18.945312 26.128906 20.617188 25.988281 22.433594 C 25.9375 23.0625 25.890625 23.710938 25.851562 24.503906 C 25.808594 25.492188 26.765625 25.847656 27.683594 26.1875 C 28.085938 26.335938 28.480469 26.484375 28.667969 26.625 C 28.628906 26.625 28.578125 26.628906 28.515625 26.640625 C 27.539062 26.847656 25.5625 26.589844 24.804688 26.441406 C 24.777344 26.367188 24.765625 26.242188 24.769531 26.136719 C 24.816406 24.894531 24.707031 23.832031 24.589844 22.75 C 24.425781 21.175781 24.253906 19.558594 24.597656 17.324219 C 24.65625 17.003906 24.402344 15.320312 24.34375 15.0625 Z M 6.136719 22.445312 C 6.625 22.492188 7.128906 22.539062 7.636719 22.613281 L 7.636719 24.910156 L 4.285156 24.164062 C 4.222656 24.152344 4.160156 24.148438 4.097656 24.15625 C 3.238281 24.265625 2.945312 25.195312 2.652344 26.132812 C 2.457031 26.746094 2.265625 27.367188 2.035156 27.4375 C 1.285156 27.105469 1.460938 26.101562 1.65625 25.003906 C 1.835938 23.972656 2.03125 22.878906 1.648438 21.898438 C 1.574219 21.707031 1.546875 21.570312 1.558594 21.484375 C 1.597656 21.46875 1.664062 21.460938 1.75 21.460938 C 2.046875 21.46875 2.441406 21.589844 2.816406 21.773438 C 3.804688 22.226562 5.015625 22.34375 6.136719 22.445312 Z M 1.542969 21.492188 L 1.554688 21.488281 C 1.546875 21.488281 1.539062 21.496094 1.542969 21.492188 Z M 1.542969 21.492188 " fill-opacity="1" fill-rule="evenodd"/></g></g></g></g></svg>