<svg xmlns="http://www.w3.org/2000/svg" xmlns:xlink="http://www.w3.org/1999/xlink" width="48" zoomAndPan="magnify" viewBox="0 0 36 36.000001" height="48" preserveAspectRatio="xMidYMid meet" version="1.0"><defs><clipPath id="8104f94037"><path d="M 1.214844 0.730469 L 34.785156 0.730469 L 34.785156 34.296875 L 1.214844 34.296875 Z M 1.214844 0.730469 " clip-rule="nonzero"/></clipPath></defs><g clip-path="url(#8104f94037)"><path fill="#ff00de" d="M 16.273438 10.707031 C 15.839844 10.34375 15.625 9.855469 15.625 9.234375 C 15.625 8.601562 15.839844 8.101562 16.273438 7.734375 C 16.703125 7.371094 17.261719 7.191406 17.945312 7.191406 C 18.628906 7.191406 19.183594 7.371094 19.617188 7.734375 C 20.046875 8.101562 20.261719 8.601562 20.261719 9.234375 C 20.261719 9.855469 20.046875 10.34375 19.617188 10.707031 C 19.183594 11.074219 18.628906 11.253906 17.945312 11.253906 C 17.261719 11.253906 16.703125 11.074219 16.273438 10.707031 Z M 20.945312 25.941406 C 21.234375 26.042969 21.507812 26.167969 21.765625 26.3125 L 21.765625 27.347656 L 14.234375 27.347656 L 14.234375 26.3125 C 14.507812 26.164062 14.789062 26.042969 15.082031 25.941406 C 15.371094 25.839844 15.6875 25.746094 16.035156 25.652344 L 16.035156 15.621094 L 14.234375 15.402344 L 14.234375 14.363281 C 14.507812 14.253906 14.847656 14.144531 15.257812 14.035156 C 15.667969 13.925781 16.097656 13.832031 16.554688 13.75 C 17.007812 13.667969 17.453125 13.597656 17.890625 13.53125 C 18.328125 13.46875 18.707031 13.417969 19.035156 13.382812 L 19.964844 13.382812 L 19.964844 25.65625 C 20.328125 25.746094 20.652344 25.84375 20.945312 25.941406 Z M 18 31.421875 C 10.316406 31.421875 4.089844 25.195312 4.089844 17.511719 C 4.089844 9.832031 10.316406 3.605469 18 3.605469 C 25.679688 3.605469 31.90625 9.832031 31.90625 17.511719 C 31.90625 25.195312 25.679688 31.421875 18 31.421875 Z M 18 0.730469 C 8.730469 0.730469 1.214844 8.242188 1.214844 17.511719 C 1.214844 26.78125 8.730469 34.296875 18 34.296875 C 27.269531 34.296875 34.78125 26.78125 34.78125 17.511719 C 34.78125 8.242188 27.269531 0.730469 18 0.730469 " fill-opacity="1" fill-rule="nonzero"/></g></svg>