<svg xmlns="http://www.w3.org/2000/svg" xmlns:xlink="http://www.w3.org/1999/xlink" width="48" zoomAndPan="magnify" viewBox="0 0 36 36.000001" height="48" preserveAspectRatio="xMidYMid meet" version="1.0"><defs><clipPath id="b47385e417"><path d="M 0.851562 0.363281 L 35.148438 0.363281 L 35.148438 34.664062 L 0.851562 34.664062 Z M 0.851562 0.363281 " clip-rule="nonzero"/></clipPath></defs><g clip-path="url(#b47385e417)"><path fill="#ff00de" d="M 35.148438 17.511719 C 35.148438 18.074219 35.121094 18.636719 35.066406 19.195312 C 35.011719 19.753906 34.929688 20.308594 34.820312 20.859375 C 34.710938 21.410156 34.574219 21.953125 34.410156 22.492188 C 34.246094 23.027344 34.058594 23.558594 33.84375 24.074219 C 33.628906 24.59375 33.386719 25.101562 33.125 25.597656 C 32.859375 26.09375 32.570312 26.574219 32.257812 27.039062 C 31.945312 27.507812 31.613281 27.957031 31.257812 28.394531 C 30.898438 28.828125 30.523438 29.242188 30.125 29.640625 C 29.730469 30.035156 29.3125 30.414062 28.878906 30.769531 C 28.445312 31.125 27.996094 31.460938 27.527344 31.773438 C 27.058594 32.085938 26.578125 32.371094 26.082031 32.636719 C 25.589844 32.902344 25.082031 33.140625 24.5625 33.355469 C 24.042969 33.570312 23.515625 33.761719 22.976562 33.925781 C 22.441406 34.085938 21.894531 34.222656 21.34375 34.332031 C 20.792969 34.441406 20.238281 34.523438 19.679688 34.578125 C 19.121094 34.632812 18.5625 34.664062 18 34.664062 C 17.4375 34.664062 16.878906 34.632812 16.320312 34.578125 C 15.761719 34.523438 15.207031 34.441406 14.65625 34.332031 C 14.105469 34.222656 13.558594 34.085938 13.023438 33.925781 C 12.484375 33.761719 11.957031 33.570312 11.4375 33.355469 C 10.917969 33.140625 10.410156 32.902344 9.917969 32.636719 C 9.421875 32.371094 8.941406 32.085938 8.472656 31.773438 C 8.003906 31.460938 7.554688 31.125 7.121094 30.769531 C 6.6875 30.414062 6.269531 30.035156 5.875 29.640625 C 5.476562 29.242188 5.101562 28.828125 4.742188 28.394531 C 4.386719 27.957031 4.054688 27.507812 3.742188 27.039062 C 3.429688 26.574219 3.140625 26.09375 2.875 25.597656 C 2.613281 25.101562 2.371094 24.59375 2.15625 24.074219 C 1.941406 23.558594 1.753906 23.027344 1.589844 22.492188 C 1.425781 21.953125 1.289062 21.410156 1.179688 20.859375 C 1.070312 20.308594 0.988281 19.753906 0.933594 19.195312 C 0.878906 18.636719 0.851562 18.074219 0.851562 17.511719 C 0.851562 16.953125 0.878906 16.390625 0.933594 15.832031 C 0.988281 15.273438 1.070312 14.71875 1.179688 14.167969 C 1.289062 13.617188 1.425781 13.074219 1.589844 12.535156 C 1.753906 12 1.941406 11.46875 2.15625 10.949219 C 2.371094 10.433594 2.613281 9.925781 2.875 9.429688 C 3.140625 8.933594 3.429688 8.453125 3.742188 7.984375 C 4.054688 7.519531 4.386719 7.070312 4.742188 6.632812 C 5.101562 6.199219 5.476562 5.785156 5.875 5.386719 C 6.269531 4.992188 6.6875 4.613281 7.121094 4.257812 C 7.554688 3.902344 8.003906 3.566406 8.472656 3.253906 C 8.941406 2.941406 9.421875 2.65625 9.917969 2.390625 C 10.410156 2.125 10.917969 1.886719 11.4375 1.671875 C 11.957031 1.457031 12.484375 1.265625 13.023438 1.101562 C 13.558594 0.941406 14.105469 0.804688 14.65625 0.695312 C 15.207031 0.585938 15.761719 0.503906 16.320312 0.449219 C 16.878906 0.390625 17.4375 0.363281 18 0.363281 C 18.5625 0.363281 19.121094 0.390625 19.679688 0.449219 C 20.238281 0.503906 20.792969 0.585938 21.34375 0.695312 C 21.894531 0.804688 22.441406 0.941406 22.976562 1.101562 C 23.515625 1.265625 24.042969 1.457031 24.5625 1.671875 C 25.082031 1.886719 25.589844 2.125 26.082031 2.390625 C 26.578125 2.65625 27.058594 2.941406 27.527344 3.253906 C 27.996094 3.566406 28.445312 3.902344 28.878906 4.257812 C 29.3125 4.613281 29.730469 4.992188 30.125 5.386719 C 30.523438 5.785156 30.898438 6.199219 31.257812 6.632812 C 31.613281 7.070312 31.945312 7.519531 32.257812 7.984375 C 32.570312 8.453125 32.859375 8.933594 33.125 9.429688 C 33.386719 9.925781 33.628906 10.433594 33.84375 10.949219 C 34.058594 11.46875 34.246094 12 34.410156 12.535156 C 34.574219 13.074219 34.710938 13.617188 34.820312 14.167969 C 34.929688 14.71875 35.011719 15.273438 35.066406 15.832031 C 35.121094 16.390625 35.148438 16.953125 35.148438 17.511719 Z M 35.148438 17.511719 " fill-opacity="1" fill-rule="nonzero"/></g><path fill="#000000" d="M 21.222656 9.667969 C 21.5 10.832031 22.546875 11.699219 23.796875 11.699219 C 25.253906 11.699219 26.4375 10.519531 26.4375 9.058594 C 26.4375 7.601562 25.253906 6.417969 23.796875 6.417969 C 22.519531 6.417969 21.457031 7.324219 21.210938 8.523438 C 19.074219 8.753906 17.40625 10.566406 17.40625 12.761719 L 17.40625 12.773438 C 15.085938 12.871094 12.960938 13.53125 11.277344 14.578125 C 10.652344 14.09375 9.871094 13.804688 9.019531 13.804688 C 6.972656 13.804688 5.316406 15.457031 5.316406 17.503906 C 5.316406 18.988281 6.1875 20.265625 7.445312 20.855469 C 7.570312 25.152344 12.25 28.605469 18.007812 28.605469 C 23.765625 28.605469 28.453125 25.148438 28.570312 20.847656 C 29.820312 20.253906 30.683594 18.980469 30.683594 17.507812 C 30.683594 15.460938 29.027344 13.804688 26.984375 13.804688 C 26.132812 13.804688 25.351562 14.089844 24.730469 14.570312 C 23.03125 13.519531 20.886719 12.859375 18.542969 12.773438 L 18.542969 12.761719 C 18.542969 11.1875 19.710938 9.882812 21.222656 9.671875 Z M 11.132812 19.851562 C 11.191406 18.507812 12.082031 17.480469 13.121094 17.480469 C 14.15625 17.480469 14.949219 18.570312 14.886719 19.910156 C 14.824219 21.253906 14.050781 21.742188 13.011719 21.742188 C 11.976562 21.742188 11.070312 21.195312 11.132812 19.851562 Z M 22.898438 17.480469 C 23.9375 17.480469 24.828125 18.507812 24.890625 19.851562 C 24.949219 21.195312 24.042969 21.742188 23.003906 21.742188 C 21.96875 21.742188 21.191406 21.253906 21.132812 19.910156 C 21.070312 18.570312 21.863281 17.480469 22.898438 17.480469 Z M 21.667969 22.957031 C 21.859375 22.976562 21.984375 23.179688 21.910156 23.359375 C 21.269531 24.882812 19.765625 25.953125 18.007812 25.953125 C 16.253906 25.953125 14.746094 24.882812 14.109375 23.359375 C 14.035156 23.179688 14.15625 22.976562 14.351562 22.957031 C 15.492188 22.84375 16.722656 22.78125 18.007812 22.78125 C 19.296875 22.78125 20.527344 22.84375 21.667969 22.957031 Z M 21.667969 22.957031 " fill-opacity="1" fill-rule="nonzero"/></svg>