<svg xmlns="http://www.w3.org/2000/svg" xmlns:xlink="http://www.w3.org/1999/xlink" width="48" zoomAndPan="magnify" viewBox="0 0 36 36.000001" height="48" preserveAspectRatio="xMidYMid meet" version="1.0"><defs><clipPath id="1ce6d19643"><path d="M 2.507812 0.417969 L 33.15625 0.417969 L 33.15625 34.714844 L 2.507812 34.714844 Z M 2.507812 0.417969 " clip-rule="nonzero"/></clipPath></defs><g clip-path="url(#1ce6d19643)"><path fill="#ff00de" d="M 5.789062 26.175781 C 5.097656 26.003906 4.433594 25.96875 3.898438 25.683594 C 2.148438 24.75 2.027344 22.304688 3.648438 21.109375 C 5.113281 20.027344 6.609375 18.992188 8.078125 17.914062 C 8.34375 17.71875 8.550781 17.476562 8.707031 17.1875 C 9.453125 15.746094 10.167969 14.285156 10.894531 12.832031 C 11.671875 11.261719 12.933594 10.488281 14.679688 10.503906 C 15.433594 10.507812 16.1875 10.503906 16.957031 10.460938 C 15.585938 10.058594 14.460938 9.332031 13.714844 8.101562 C 12.972656 6.875 12.746094 5.550781 13.132812 4.167969 C 13.839844 1.652344 15.980469 0.210938 18.605469 0.441406 C 20.890625 0.644531 22.761719 2.574219 23.003906 5.03125 C 23.203125 7.054688 22.09375 9.589844 18.914062 10.453125 C 19.167969 10.476562 19.296875 10.5 19.425781 10.503906 C 20.066406 10.507812 20.707031 10.507812 21.34375 10.503906 C 23.074219 10.496094 24.320312 11.269531 25.09375 12.816406 C 25.824219 14.285156 26.550781 15.757812 27.300781 17.21875 C 27.4375 17.480469 27.660156 17.726562 27.898438 17.902344 C 29.34375 18.960938 30.808594 19.984375 32.253906 21.035156 C 33.371094 21.847656 33.757812 23.113281 33.292969 24.339844 C 32.851562 25.503906 31.746094 26.136719 30.375 26.011719 C 30.34375 26.007812 30.308594 26.019531 30.230469 26.03125 C 30.191406 26.289062 30.167969 26.558594 30.113281 26.824219 C 29.882812 27.957031 29.230469 28.75 28.164062 29.183594 C 27.558594 29.429688 26.941406 29.65625 26.324219 29.871094 C 26.058594 29.960938 25.960938 30.042969 26.074219 30.359375 C 26.519531 31.621094 26.292969 32.765625 25.332031 33.710938 C 24.359375 34.660156 23.203125 34.789062 21.960938 34.355469 C 20.742188 33.925781 19.535156 33.464844 18.3125 33.042969 C 18.117188 32.972656 17.855469 32.976562 17.660156 33.042969 C 16.378906 33.488281 15.113281 33.988281 13.824219 34.414062 C 12.621094 34.8125 11.511719 34.570312 10.609375 33.660156 C 9.707031 32.753906 9.476562 31.644531 9.886719 30.4375 C 10.011719 30.074219 9.953125 29.945312 9.609375 29.835938 C 9.09375 29.675781 8.589844 29.472656 8.082031 29.289062 C 6.703125 28.800781 5.960938 27.816406 5.820312 26.363281 C 5.808594 26.253906 5.78125 26.144531 5.789062 26.175781 Z M 18.039062 12.074219 L 18.039062 12.066406 C 16.890625 12.066406 15.746094 12.070312 14.597656 12.066406 C 13.542969 12.066406 12.785156 12.519531 12.3125 13.476562 C 11.558594 15.003906 10.808594 16.539062 10.011719 18.050781 C 9.792969 18.453125 9.503906 18.792969 9.136719 19.070312 C 7.664062 20.167969 6.15625 21.214844 4.667969 22.292969 C 4.03125 22.753906 3.886719 23.457031 4.277344 24.007812 C 4.679688 24.574219 5.351562 24.652344 6.015625 24.183594 C 7.710938 22.976562 9.410156 21.773438 11.089844 20.539062 C 11.378906 20.328125 11.617188 20.007812 11.804688 19.691406 C 12.117188 19.15625 12.355469 18.574219 12.65625 18.027344 C 12.957031 17.480469 13.695312 17.425781 13.984375 17.933594 C 14.097656 18.128906 14.113281 18.402344 14.117188 18.644531 C 14.125 20.53125 14.125 22.425781 14.117188 24.316406 C 14.113281 24.675781 14.207031 24.875 14.578125 25 C 15.621094 25.347656 16.640625 25.753906 17.675781 26.105469 C 17.890625 26.175781 18.109375 26.175781 18.324219 26.105469 C 19.347656 25.757812 20.351562 25.363281 21.375 25.019531 C 21.765625 24.890625 21.902344 24.691406 21.898438 24.273438 C 21.878906 22.335938 21.894531 20.394531 21.890625 18.453125 C 21.890625 18.023438 22.039062 17.714844 22.480469 17.617188 C 22.910156 17.519531 23.203125 17.714844 23.394531 18.101562 C 23.617188 18.558594 23.867188 19.003906 24.078125 19.464844 C 24.308594 19.976562 24.648438 20.363281 25.105469 20.6875 C 26.542969 21.691406 27.960938 22.730469 29.386719 23.746094 C 29.707031 23.976562 30.03125 24.203125 30.378906 24.378906 C 30.832031 24.605469 31.257812 24.457031 31.601562 24.132812 C 31.953125 23.796875 32.074219 23.351562 31.832031 22.917969 C 31.660156 22.617188 31.402344 22.339844 31.121094 22.132812 C 29.679688 21.078125 28.210938 20.058594 26.773438 18.996094 C 26.457031 18.761719 26.207031 18.472656 26.019531 18.125 C 25.210938 16.566406 24.445312 14.984375 23.652344 13.414062 C 23.214844 12.546875 22.511719 12.082031 21.53125 12.074219 C 20.367188 12.070312 19.203125 12.074219 18.039062 12.074219 Z M 7.382812 26.265625 C 7.382812 27.015625 7.804688 27.539062 8.632812 27.839844 C 12.074219 29.09375 15.515625 30.351562 18.957031 31.605469 C 20.25 32.074219 21.535156 32.566406 22.84375 32.972656 C 23.613281 33.210938 24.414062 32.722656 24.65625 32 C 24.925781 31.203125 24.566406 30.375 23.796875 30.027344 C 23.589844 29.933594 23.375 29.851562 23.160156 29.773438 C 19.996094 28.617188 16.828125 27.464844 13.664062 26.316406 C 12.203125 25.785156 10.75 25.222656 9.269531 24.761719 C 8.300781 24.460938 7.382812 25.25 7.382812 26.265625 Z M 17.992188 8.929688 C 19.902344 8.9375 21.457031 7.410156 21.476562 5.515625 C 21.496094 3.558594 19.960938 1.976562 18.023438 1.960938 C 16.109375 1.945312 14.53125 3.5 14.515625 5.410156 C 14.5 7.367188 16.035156 8.921875 17.992188 8.929688 Z M 20.347656 27.039062 C 20.5625 27.144531 20.683594 27.214844 20.8125 27.265625 C 22.066406 27.738281 23.324219 28.207031 24.582031 28.667969 C 24.710938 28.714844 24.878906 28.734375 25.007812 28.6875 C 25.902344 28.371094 26.800781 28.066406 27.675781 27.699219 C 27.855469 27.625 28.015625 27.519531 28.15625 27.382812 C 28.296875 27.246094 28.410156 27.089844 28.492188 26.914062 C 28.570312 26.734375 28.617188 26.546875 28.628906 26.351562 C 28.640625 26.15625 28.617188 25.964844 28.554688 25.78125 C 28.289062 24.984375 27.480469 24.539062 26.625 24.773438 C 26.042969 24.933594 25.480469 25.164062 24.910156 25.371094 C 23.421875 25.914062 21.9375 26.457031 20.347656 27.039062 Z M 15.5625 32.15625 C 15.453125 32.054688 15.398438 31.96875 15.328125 31.941406 C 14.164062 31.507812 13 31.085938 11.839844 30.65625 C 11.496094 30.527344 11.398438 30.738281 11.320312 30.988281 C 10.957031 32.175781 11.984375 33.289062 13.191406 32.972656 C 13.976562 32.761719 14.730469 32.445312 15.5625 32.15625 Z M 9.941406 23.292969 L 12.53125 24.246094 L 12.53125 21.429688 Z M 26.0625 23.292969 L 23.457031 21.421875 L 23.457031 24.242188 Z M 26.0625 23.292969 " fill-opacity="1" fill-rule="nonzero"/></g></svg>