<svg xmlns="http://www.w3.org/2000/svg" xmlns:xlink="http://www.w3.org/1999/xlink" width="48" zoomAndPan="magnify" viewBox="0 0 36 36.000001" height="48" preserveAspectRatio="xMidYMid meet" version="1.0"><defs><clipPath id="2d0b5a93bc"><path d="M 6.507812 7 L 29.859375 7 L 29.859375 35 L 6.507812 35 Z M 6.507812 7 " clip-rule="nonzero"/></clipPath></defs><g clip-path="url(#2d0b5a93bc)"><path fill="#ff00de" d="M 28.625 30.175781 C 26.886719 28.328125 20.527344 21.699219 20.09375 21.261719 C 20.363281 20.71875 20.527344 20.175781 20.527344 19.578125 C 22.863281 18.382812 26.613281 16.480469 27.046875 16.316406 C 28.351562 15.613281 28.460938 13.765625 27.210938 12.949219 C 15.90625 6.101562 21.289062 8.382812 14.984375 7.949219 C 13.789062 7.949219 12.757812 8.925781 12.757812 10.125 C 12.757812 17.511719 12.757812 19.144531 12.757812 19.742188 L 7.59375 22.949219 C 6.886719 23.382812 6.507812 24.144531 6.507812 24.957031 L 6.507812 32.457031 C 6.507812 33.761719 7.484375 34.847656 8.734375 34.902344 L 8.84375 34.902344 C 10.148438 34.902344 11.179688 33.871094 11.179688 32.566406 L 11.179688 26.261719 L 15.746094 23.4375 L 25.253906 33.4375 C 26.179688 34.359375 27.644531 34.414062 28.570312 33.542969 C 29.492188 32.621094 29.492188 31.097656 28.625 30.175781 Z M 20.527344 13.21875 L 22.265625 14.308594 L 20.527344 15.175781 Z M 20.527344 13.21875 " fill-opacity="1" fill-rule="nonzero"/></g><path fill="#ff00de" d="M 20.09375 3.4375 C 20.09375 5.285156 18.625 6.753906 16.777344 6.753906 C 14.929688 6.753906 13.460938 5.285156 13.460938 3.4375 C 13.515625 1.589844 14.984375 0.125 16.832031 0.125 C 18.625 0.125 20.09375 1.589844 20.09375 3.4375 Z M 20.09375 3.4375 " fill-opacity="1" fill-rule="nonzero"/></svg>