<svg xmlns="http://www.w3.org/2000/svg" xmlns:xlink="http://www.w3.org/1999/xlink" width="48" zoomAndPan="magnify" viewBox="0 0 36 36.000001" height="48" preserveAspectRatio="xMidYMid meet" version="1.0"><defs><clipPath id="da2d03f728"><path d="M 0.902344 5.917969 L 35.085938 5.917969 L 35.085938 29.109375 L 0.902344 29.109375 Z M 0.902344 5.917969 " clip-rule="nonzero"/></clipPath></defs><g clip-path="url(#da2d03f728)"><path fill="#ff00de" d="M 29.296875 13.367188 C 29.296875 13.226562 29.183594 13.117188 29.042969 13.117188 C 27.683594 13.117188 26.578125 12.007812 26.578125 10.648438 C 26.578125 10.507812 26.464844 10.394531 26.324219 10.394531 L 9.664062 10.394531 C 9.523438 10.394531 9.414062 10.507812 9.414062 10.648438 C 9.414062 12.007812 8.304688 13.117188 6.945312 13.117188 C 6.804688 13.117188 6.695312 13.226562 6.695312 13.367188 L 6.695312 21.660156 C 6.695312 21.796875 6.804688 21.910156 6.945312 21.910156 C 8.304688 21.910156 9.414062 23.015625 9.414062 24.378906 C 9.414062 24.515625 9.523438 24.628906 9.664062 24.628906 L 26.324219 24.628906 C 26.464844 24.628906 26.578125 24.515625 26.578125 24.378906 C 26.578125 23.015625 27.683594 21.910156 29.042969 21.910156 C 29.183594 21.910156 29.296875 21.796875 29.296875 21.660156 Z M 34.703125 29.109375 L 1.285156 29.109375 C 1.785156 28.699219 2.101562 28.078125 2.101562 27.386719 C 2.101562 26.546875 1.621094 25.789062 0.902344 25.414062 C 1.621094 25.035156 2.101562 24.273438 2.101562 23.4375 C 2.101562 22.597656 1.621094 21.839844 0.90625 21.460938 C 1.621094 21.085938 2.101562 20.324219 2.101562 19.488281 C 2.101562 18.648438 1.621094 17.890625 0.902344 17.511719 C 1.621094 17.136719 2.101562 16.375 2.101562 15.535156 C 2.101562 14.699219 1.621094 13.941406 0.902344 13.5625 C 1.621094 13.1875 2.101562 12.425781 2.101562 11.589844 C 2.101562 10.75 1.621094 9.988281 0.902344 9.613281 C 1.621094 9.234375 2.101562 8.476562 2.101562 7.636719 C 2.101562 6.945312 1.785156 6.324219 1.285156 5.917969 L 34.703125 5.917969 C 34.207031 6.324219 33.886719 6.945312 33.886719 7.636719 C 33.886719 8.476562 34.367188 9.234375 35.085938 9.613281 C 34.367188 9.992188 33.886719 10.75 33.886719 11.589844 C 33.886719 12.425781 34.367188 13.1875 35.085938 13.5625 C 34.367188 13.941406 33.886719 14.699219 33.886719 15.535156 C 33.886719 16.375 34.367188 17.136719 35.085938 17.511719 C 34.367188 17.890625 33.886719 18.648438 33.886719 19.488281 C 33.886719 20.324219 34.367188 21.085938 35.085938 21.460938 C 34.367188 21.839844 33.886719 22.597656 33.886719 23.4375 C 33.886719 24.273438 34.367188 25.035156 35.085938 25.414062 C 34.367188 25.789062 33.886719 26.546875 33.886719 27.386719 C 33.886719 28.078125 34.207031 28.699219 34.703125 29.109375 Z M 28.792969 13.609375 L 28.792969 21.417969 C 27.355469 21.539062 26.207031 22.6875 26.085938 24.125 L 9.90625 24.125 C 9.785156 22.6875 8.636719 21.539062 7.195312 21.417969 L 7.195312 13.609375 C 8.636719 13.488281 9.785156 12.335938 9.90625 10.898438 L 26.085938 10.898438 C 26.207031 12.335938 27.355469 13.488281 28.792969 13.609375 " fill-opacity="1" fill-rule="nonzero"/></g></svg>