<svg xmlns="http://www.w3.org/2000/svg" xmlns:xlink="http://www.w3.org/1999/xlink" width="48" zoomAndPan="magnify" viewBox="0 0 36 36.000001" height="48" preserveAspectRatio="xMidYMid meet" version="1.0"><defs><clipPath id="6d16244534"><path d="M 9.289062 16 L 26.804688 16 L 26.804688 27 L 9.289062 27 Z M 9.289062 16 " clip-rule="nonzero"/></clipPath><clipPath id="00e95bfde7"><path d="M 12 0.921875 L 24 0.921875 L 24 24 L 12 24 Z M 12 0.921875 " clip-rule="nonzero"/></clipPath><clipPath id="e7143bc4bb"><path d="M 17 25 L 19 25 L 19 33.761719 L 17 33.761719 Z M 17 25 " clip-rule="nonzero"/></clipPath><clipPath id="bc52b3f42d"><path d="M 13 32 L 23 32 L 23 33.761719 L 13 33.761719 Z M 13 32 " clip-rule="nonzero"/></clipPath></defs><g clip-path="url(#6d16244534)"><path fill="#ff00de" d="M 18.027344 24.988281 C 13.847656 24.988281 10.460938 21.601562 10.460938 17.425781 C 10.46875 17.078125 10.183594 16.800781 9.855469 16.816406 C 9.546875 16.828125 9.289062 17.097656 9.296875 17.425781 C 9.296875 18.003906 9.355469 21.085938 11.847656 23.574219 C 13.421875 25.148438 15.59375 26.121094 17.996094 26.121094 C 22.800781 26.121094 26.695312 22.226562 26.695312 17.425781 C 26.679688 17.128906 26.433594 16.898438 26.140625 16.898438 C 25.847656 16.902344 25.605469 17.132812 25.59375 17.425781 C 25.589844 18.054688 25.496094 20.351562 23.75 22.371094 C 21.535156 24.9375 18.449219 24.988281 18.027344 24.988281 Z M 18.027344 24.988281 " fill-opacity="1" fill-rule="nonzero"/></g><g clip-path="url(#00e95bfde7)"><path fill="#ff00de" d="M 17.996094 23.144531 C 14.816406 23.144531 12.214844 20.542969 12.214844 17.363281 L 12.214844 6.707031 C 12.214844 3.527344 14.816406 0.921875 17.996094 0.921875 C 21.175781 0.921875 23.777344 3.527344 23.777344 6.707031 L 23.777344 17.363281 C 23.777344 20.542969 21.175781 23.144531 17.996094 23.144531 Z M 17.996094 23.144531 " fill-opacity="1" fill-rule="nonzero"/></g><g clip-path="url(#e7143bc4bb)"><path fill="#ff00de" d="M 17.996094 33.871094 C 17.660156 33.871094 17.386719 33.59375 17.386719 33.257812 L 17.386719 25.925781 C 17.386719 25.589844 17.660156 25.316406 17.996094 25.316406 C 18.332031 25.316406 18.605469 25.589844 18.605469 25.925781 L 18.605469 33.257812 C 18.609375 33.59375 18.332031 33.871094 17.996094 33.871094 Z M 17.996094 33.871094 " fill-opacity="1" fill-rule="nonzero"/></g><g clip-path="url(#bc52b3f42d)"><path fill="#ff00de" d="M 22.273438 33.480469 C 22.273438 33.816406 22 34.09375 21.664062 34.09375 L 14.328125 34.09375 C 13.992188 34.09375 13.71875 33.816406 13.71875 33.480469 C 13.71875 33.144531 13.992188 32.871094 14.328125 32.871094 L 21.664062 32.871094 C 22 32.871094 22.273438 33.144531 22.273438 33.480469 Z M 22.273438 33.480469 " fill-opacity="1" fill-rule="nonzero"/></g></svg>