<svg xmlns="http://www.w3.org/2000/svg" xmlns:xlink="http://www.w3.org/1999/xlink" width="48" zoomAndPan="magnify" viewBox="0 0 36 36.000001" height="48" preserveAspectRatio="xMidYMid meet" version="1.0"><defs><clipPath id="3bd9275b0f"><path d="M 1.070312 0.582031 L 34.636719 0.582031 L 34.636719 34.152344 L 1.070312 34.152344 Z M 1.070312 0.582031 " clip-rule="nonzero"/></clipPath></defs><g clip-path="url(#3bd9275b0f)"><path fill="#ff00de" d="M 18 0.582031 C 8.648438 0.582031 1.070312 8.164062 1.070312 17.511719 C 1.070312 26.859375 8.648438 34.4375 18 34.4375 C 27.347656 34.4375 34.925781 26.859375 34.925781 17.511719 C 34.925781 8.164062 27.347656 0.582031 18 0.582031 Z M 29.640625 11.484375 L 15.535156 26.871094 C 15.1875 27.246094 14.597656 27.257812 14.242188 26.894531 L 6.382812 18.9375 C 6.082031 18.632812 6.085938 18.144531 6.386719 17.84375 L 8.742188 15.519531 C 9.089844 15.175781 9.652344 15.179688 10 15.527344 L 14.765625 20.355469 L 26.003906 8.09375 C 26.269531 7.800781 26.726562 7.78125 27.019531 8.050781 L 29.59375 10.410156 C 29.902344 10.695312 29.921875 11.175781 29.640625 11.484375 Z M 29.640625 11.484375 " fill-opacity="1" fill-rule="nonzero"/></g></svg>