<svg xmlns="http://www.w3.org/2000/svg" xmlns:xlink="http://www.w3.org/1999/xlink" width="48" zoomAndPan="magnify" viewBox="0 0 36 36.000001" height="48" preserveAspectRatio="xMidYMid meet" version="1.0"><defs><clipPath id="a08343e825"><path d="M 1.050781 3.019531 L 34.617188 3.019531 L 34.617188 32.210938 L 1.050781 32.210938 Z M 1.050781 3.019531 " clip-rule="nonzero"/></clipPath><clipPath id="ab96da0759"><path d="M 0.378906 0.0195312 L 33.617188 0.0195312 L 33.617188 29 L 0.378906 29 Z M 0.378906 0.0195312 " clip-rule="nonzero"/></clipPath><clipPath id="081eea4d66"><rect x="0" width="34" y="0" height="30"/></clipPath></defs><g clip-path="url(#a08343e825)"><g transform="matrix(1, 0, 0, 1, 1, 3)"><g clip-path="url(#081eea4d66)"><g clip-path="url(#ab96da0759)"><path fill="#ff00de" d="M 0.222656 19.546875 C 0.222656 19.539062 0.222656 19.535156 0.222656 19.53125 C 0.980469 15.628906 2.414062 12.484375 4.480469 10.183594 C 6.355469 8.097656 8.753906 6.761719 11.441406 6.300781 C 11.375 5.875 11.378906 5.433594 11.460938 4.988281 L 11.789062 3.230469 C 11.980469 2.203125 12.566406 1.308594 13.433594 0.714844 C 14.300781 0.121094 15.34375 -0.101562 16.371094 0.09375 C 18.5 0.492188 19.90625 2.546875 19.511719 4.675781 L 19.179688 6.433594 C 18.925781 7.808594 17.976562 8.878906 16.761719 9.359375 C 16.769531 9.40625 16.773438 9.457031 16.769531 9.507812 C 16.695312 10.210938 16.523438 10.90625 16.25 11.621094 L 17.730469 12.425781 C 17.957031 12.550781 18.042969 12.824219 17.933594 13.054688 L 19.039062 13.625 C 20.515625 14.386719 22.257812 15.289062 24.269531 16.328125 C 24.277344 16.332031 24.285156 16.335938 24.292969 16.339844 C 27.929688 18.488281 28.402344 19.105469 29.265625 20.226562 C 29.375 20.371094 29.492188 20.523438 29.621094 20.6875 C 29.90625 21.042969 29.945312 21.527344 29.726562 21.921875 C 29.527344 22.285156 29.152344 22.5 28.75 22.5 C 28.710938 22.5 28.667969 22.5 28.628906 22.496094 C 27.320312 22.355469 25.519531 21.640625 23.128906 20.308594 C 21.175781 19.414062 18.703125 18.3125 15.773438 17.035156 L 15.613281 17.332031 C 15.550781 17.441406 15.449219 17.527344 15.324219 17.5625 C 15.28125 17.574219 15.234375 17.582031 15.191406 17.582031 C 15.109375 17.582031 15.03125 17.5625 14.960938 17.523438 L 13.226562 16.582031 C 12.074219 18.164062 10.902344 19.804688 10.089844 21.722656 C 10.710938 21.851562 11.84375 22.070312 13.484375 22.382812 C 13.503906 22.382812 13.523438 22.386719 13.542969 22.390625 C 16.628906 22.976562 21.484375 23.875 28.082031 25.082031 C 28.722656 25.15625 29.21875 25.042969 29.609375 24.738281 C 30.164062 24.300781 30.515625 23.441406 30.660156 22.1875 C 30.746094 21.347656 31.441406 20.714844 32.285156 20.714844 C 33.132812 20.714844 33.832031 21.347656 33.914062 22.191406 C 33.914062 22.207031 33.917969 22.222656 33.917969 22.234375 C 33.9375 25.363281 33.949219 26.925781 33.949219 26.925781 C 33.949219 26.945312 33.945312 26.96875 33.945312 26.988281 C 33.777344 28.285156 32.992188 28.976562 31.730469 28.941406 C 29.601562 28.878906 28.484375 28.847656 28.386719 28.84375 L 12.855469 28.84375 C 12.851562 28.84375 12.851562 28.84375 12.851562 28.84375 L 9.152344 28.84375 C 8.386719 28.949219 7.664062 29 6.992188 29 C 4.730469 29 3.003906 28.417969 1.839844 27.253906 C 0.28125 25.699219 -0.261719 23.109375 0.21875 19.558594 C 0.21875 19.554688 0.222656 19.550781 0.222656 19.546875 Z M 18.238281 6.253906 L 18.566406 4.5 C 18.867188 2.890625 17.800781 1.339844 16.195312 1.035156 C 15.421875 0.890625 14.632812 1.058594 13.976562 1.507812 C 13.320312 1.957031 12.878906 2.632812 12.734375 3.40625 L 12.40625 5.164062 C 12.316406 5.652344 12.351562 6.132812 12.488281 6.578125 C 12.492188 6.59375 12.496094 6.613281 12.503906 6.628906 C 12.828125 7.625 13.675781 8.417969 14.777344 8.625 C 14.960938 8.660156 15.140625 8.675781 15.324219 8.675781 C 16.722656 8.675781 17.96875 7.679688 18.238281 6.253906 Z M 23.546875 19.445312 C 23.558594 19.449219 23.570312 19.457031 23.578125 19.460938 C 25.832031 20.714844 27.566406 21.414062 28.730469 21.539062 C 28.816406 21.550781 28.859375 21.5 28.886719 21.457031 C 28.917969 21.398438 28.914062 21.339844 28.871094 21.285156 C 28.734375 21.113281 28.617188 20.960938 28.503906 20.8125 C 27.6875 19.753906 27.28125 19.222656 23.816406 17.171875 C 21.8125 16.136719 20.070312 15.238281 18.597656 14.476562 L 17.476562 13.898438 L 16.234375 16.1875 C 19.144531 17.457031 21.601562 18.550781 23.546875 19.445312 Z M 14.996094 16.449219 L 15.125 16.214844 C 15.132812 16.199219 15.140625 16.179688 15.152344 16.164062 L 16.847656 13.042969 L 13.089844 10.996094 C 12.152344 10.488281 10.972656 10.835938 10.460938 11.773438 C 9.949219 12.714844 10.300781 13.894531 11.238281 14.40625 Z M 10.78125 15.25 C 9.375 14.484375 8.851562 12.71875 9.617188 11.316406 C 10.382812 9.910156 12.144531 9.390625 13.550781 10.152344 L 15.398438 11.160156 C 15.574219 10.675781 15.695312 10.207031 15.769531 9.738281 C 15.703125 9.703125 15.640625 9.667969 15.574219 9.628906 C 15.488281 9.632812 15.40625 9.636719 15.324219 9.636719 C 15.085938 9.636719 14.84375 9.613281 14.601562 9.570312 C 13.253906 9.316406 12.199219 8.40625 11.703125 7.230469 C 6.371094 8.089844 2.660156 12.410156 1.222656 19.441406 C 2.351562 20.386719 3.574219 21.042969 4.882812 21.410156 C 6.140625 21.714844 7.546875 21.78125 9.097656 21.605469 C 9.9375 19.515625 11.164062 17.785156 12.375 16.117188 Z M 28.394531 27.882812 C 28.398438 27.882812 28.402344 27.882812 28.410156 27.882812 C 28.410156 27.882812 29.523438 27.917969 31.757812 27.980469 C 32.507812 28.003906 32.878906 27.679688 32.988281 26.898438 C 32.984375 26.65625 32.972656 25.113281 32.957031 22.265625 C 32.914062 21.929688 32.628906 21.675781 32.285156 21.675781 C 31.9375 21.675781 31.648438 21.9375 31.617188 22.285156 C 31.613281 22.289062 31.613281 22.289062 31.613281 22.292969 C 31.441406 23.8125 30.96875 24.890625 30.203125 25.492188 C 29.609375 25.960938 28.851562 26.144531 27.953125 26.035156 C 27.945312 26.035156 27.933594 26.03125 27.925781 26.03125 C 21.730469 24.894531 17.03125 24.027344 13.964844 23.449219 C 14.070312 24.90625 13.917969 26.394531 13.5 27.882812 Z M 2.519531 26.574219 C 3.8125 27.863281 6.011719 28.308594 9.054688 27.886719 C 9.078125 27.886719 9.097656 27.882812 9.121094 27.882812 L 12.5 27.882812 C 12.96875 26.328125 13.128906 24.777344 12.984375 23.265625 C 11.898438 23.058594 11.046875 22.894531 10.441406 22.773438 C 10.050781 22.695312 9.757812 22.636719 9.558594 22.59375 C 9.480469 22.574219 9.414062 22.558594 9.363281 22.546875 C 8.695312 22.65625 8.042969 22.714844 7.402344 22.714844 C 6.429688 22.714844 5.492188 22.585938 4.589844 22.328125 C 3.265625 22 2.089844 21.421875 1.070312 20.601562 C 0.828125 23.363281 1.316406 25.371094 2.519531 26.574219 Z M 2.519531 26.574219 " fill-opacity="1" fill-rule="nonzero"/></g></g></g></g></svg>