<svg xmlns="http://www.w3.org/2000/svg" xmlns:xlink="http://www.w3.org/1999/xlink" width="48" zoomAndPan="magnify" viewBox="0 0 36 36.000001" height="48" preserveAspectRatio="xMidYMid meet" version="1.0"><defs><clipPath id="26fdeec3f9"><path d="M 1.320312 3.417969 L 34.886719 3.417969 L 34.886719 31.878906 L 1.320312 31.878906 Z M 1.320312 3.417969 " clip-rule="nonzero"/></clipPath></defs><g clip-path="url(#26fdeec3f9)"><path fill="#ff00de" d="M 4.839844 22.082031 C 4.839844 22.511719 4.492188 22.863281 4.058594 22.863281 C 3.628906 22.863281 3.277344 22.511719 3.277344 22.082031 C 3.277344 18.03125 4.933594 14.351562 7.601562 11.683594 C 10.097656 9.191406 13.480469 7.582031 17.21875 7.382812 L 17.21875 4.980469 L 14.652344 4.980469 C 14.222656 4.980469 13.871094 4.632812 13.871094 4.199219 C 13.871094 3.769531 14.222656 3.417969 14.652344 3.417969 L 21.34375 3.417969 C 21.777344 3.417969 22.125 3.769531 22.125 4.199219 C 22.125 4.632812 21.777344 4.980469 21.34375 4.980469 L 18.78125 4.980469 L 18.78125 7.382812 C 22.519531 7.582031 25.902344 9.191406 28.394531 11.683594 C 31.0625 14.351562 32.71875 18.03125 32.71875 22.082031 C 32.71875 22.511719 32.371094 22.863281 31.9375 22.863281 C 31.507812 22.863281 31.15625 22.511719 31.15625 22.082031 C 31.15625 18.464844 29.675781 15.171875 27.289062 12.789062 C 24.90625 10.40625 21.617188 8.925781 18 8.925781 C 14.382812 8.925781 11.089844 10.40625 8.707031 12.789062 C 6.320312 15.175781 4.839844 18.464844 4.839844 22.082031 Z M 4.824219 25.183594 L 31.171875 25.183594 C 32.132812 25.183594 33.007812 25.574219 33.636719 26.210938 C 34.269531 26.839844 34.664062 27.714844 34.664062 28.675781 L 34.664062 30.832031 C 34.664062 31.261719 34.316406 31.613281 33.882812 31.613281 L 2.113281 31.613281 C 1.683594 31.613281 1.332031 31.261719 1.332031 30.832031 L 1.332031 28.675781 C 1.332031 27.714844 1.722656 26.839844 2.359375 26.210938 C 2.988281 25.578125 3.863281 25.183594 4.824219 25.183594 Z M 18 14.015625 C 17.566406 14.015625 17.21875 13.664062 17.21875 13.234375 C 17.21875 12.800781 17.566406 12.453125 18 12.453125 C 19.960938 12.453125 21.792969 13.050781 23.324219 14.074219 C 24.902344 15.125 26.152344 16.628906 26.890625 18.394531 C 27.054688 18.792969 26.867188 19.25 26.46875 19.414062 C 26.070312 19.582031 25.613281 19.390625 25.449219 18.992188 C 24.828125 17.511719 23.777344 16.25 22.457031 15.367188 C 21.179688 14.511719 19.644531 14.015625 17.996094 14.015625 Z M 18 14.015625 " fill-opacity="1" fill-rule="evenodd"/></g></svg>