<svg xmlns="http://www.w3.org/2000/svg" xmlns:xlink="http://www.w3.org/1999/xlink" width="48" zoomAndPan="magnify" viewBox="0 0 36 36.000001" height="48" preserveAspectRatio="xMidYMid meet" version="1.0"><defs><clipPath id="17fe20fe49"><path d="M 1.070312 0.582031 L 34.636719 0.582031 L 34.636719 34.152344 L 1.070312 34.152344 Z M 1.070312 0.582031 " clip-rule="nonzero"/></clipPath></defs><g clip-path="url(#17fe20fe49)"><path fill="#ff00de" d="M 2.949219 0.582031 C 2.675781 0.582031 2.417969 0.640625 2.167969 0.753906 C 1.921875 0.867188 1.707031 1.023438 1.53125 1.230469 C 1.351562 1.4375 1.222656 1.667969 1.148438 1.929688 C 1.070312 2.191406 1.050781 2.457031 1.089844 2.726562 L 1.089844 12.007812 C 1.085938 12.257812 1.128906 12.5 1.222656 12.734375 C 1.316406 12.964844 1.453125 13.171875 1.628906 13.351562 C 1.804688 13.53125 2.011719 13.667969 2.242188 13.765625 C 2.472656 13.863281 2.714844 13.910156 2.96875 13.910156 C 3.21875 13.910156 3.460938 13.863281 3.691406 13.765625 C 3.925781 13.667969 4.128906 13.53125 4.304688 13.351562 C 4.480469 13.171875 4.617188 12.964844 4.710938 12.734375 C 4.804688 12.5 4.847656 12.257812 4.84375 12.007812 L 4.84375 7.015625 L 11.03125 13.203125 C 11.207031 13.382812 11.410156 13.527344 11.640625 13.625 C 11.875 13.726562 12.117188 13.777344 12.367188 13.78125 C 12.621094 13.78125 12.863281 13.734375 13.097656 13.640625 C 13.332031 13.546875 13.539062 13.40625 13.714844 13.230469 C 13.894531 13.050781 14.03125 12.84375 14.128906 12.609375 C 14.222656 12.378906 14.269531 12.132812 14.265625 11.882812 C 14.265625 11.628906 14.210938 11.386719 14.113281 11.15625 C 14.011719 10.925781 13.871094 10.71875 13.6875 10.546875 L 7.503906 4.359375 L 12.492188 4.359375 C 12.742188 4.363281 12.988281 4.316406 13.21875 4.222656 C 13.453125 4.128906 13.660156 3.996094 13.839844 3.820312 C 14.015625 3.640625 14.15625 3.4375 14.253906 3.207031 C 14.347656 2.972656 14.398438 2.730469 14.398438 2.480469 C 14.398438 2.230469 14.347656 1.988281 14.253906 1.753906 C 14.15625 1.523438 14.015625 1.320312 13.839844 1.144531 C 13.660156 0.964844 13.453125 0.832031 13.21875 0.738281 C 12.988281 0.644531 12.742188 0.597656 12.492188 0.601562 L 3.207031 0.601562 C 3.121094 0.589844 3.035156 0.582031 2.949219 0.582031 Z M 32.988281 0.582031 C 32.917969 0.585938 32.851562 0.59375 32.78125 0.601562 L 23.5 0.601562 C 23.25 0.597656 23.007812 0.644531 22.773438 0.738281 C 22.539062 0.832031 22.332031 0.964844 22.15625 1.144531 C 21.976562 1.320312 21.835938 1.523438 21.742188 1.753906 C 21.644531 1.988281 21.59375 2.230469 21.59375 2.480469 C 21.59375 2.730469 21.644531 2.972656 21.742188 3.207031 C 21.835938 3.4375 21.976562 3.640625 22.15625 3.820312 C 22.332031 3.996094 22.539062 4.128906 22.773438 4.222656 C 23.007812 4.316406 23.25 4.363281 23.5 4.359375 L 28.492188 4.359375 L 22.304688 10.546875 C 22.121094 10.71875 21.980469 10.925781 21.882812 11.15625 C 21.78125 11.386719 21.730469 11.628906 21.726562 11.882812 C 21.722656 12.132812 21.769531 12.378906 21.867188 12.609375 C 21.960938 12.84375 22.097656 13.050781 22.277344 13.230469 C 22.457031 13.40625 22.660156 13.546875 22.894531 13.640625 C 23.128906 13.734375 23.371094 13.78125 23.625 13.78125 C 23.878906 13.777344 24.121094 13.726562 24.351562 13.625 C 24.582031 13.527344 24.785156 13.382812 24.960938 13.203125 L 31.148438 7.015625 L 31.148438 12.007812 C 31.144531 12.257812 31.1875 12.5 31.28125 12.734375 C 31.375 12.964844 31.511719 13.171875 31.6875 13.351562 C 31.863281 13.53125 32.070312 13.667969 32.300781 13.765625 C 32.53125 13.863281 32.773438 13.910156 33.027344 13.910156 C 33.277344 13.910156 33.519531 13.863281 33.75 13.765625 C 33.984375 13.667969 34.1875 13.53125 34.363281 13.351562 C 34.539062 13.171875 34.675781 12.964844 34.769531 12.734375 C 34.863281 12.5 34.910156 12.257812 34.90625 12.007812 L 34.90625 2.71875 C 34.941406 2.445312 34.921875 2.175781 34.839844 1.910156 C 34.757812 1.648438 34.625 1.414062 34.441406 1.207031 C 34.257812 1 34.039062 0.84375 33.785156 0.734375 C 33.53125 0.625 33.265625 0.574219 32.988281 0.582031 Z M 2.9375 21.105469 C 2.6875 21.109375 2.449219 21.160156 2.222656 21.261719 C 1.992188 21.359375 1.792969 21.5 1.617188 21.675781 C 1.445312 21.855469 1.3125 22.0625 1.21875 22.292969 C 1.128906 22.523438 1.085938 22.765625 1.089844 23.015625 L 1.089844 32.300781 C 1.070312 32.445312 1.066406 32.589844 1.078125 32.734375 C 1.09375 32.878906 1.121094 33.019531 1.167969 33.15625 C 1.214844 33.296875 1.277344 33.425781 1.355469 33.550781 C 1.429688 33.671875 1.519531 33.785156 1.625 33.890625 C 1.726562 33.992188 1.839844 34.082031 1.964844 34.15625 C 2.085938 34.234375 2.21875 34.292969 2.355469 34.339844 C 2.492188 34.386719 2.636719 34.417969 2.78125 34.429688 C 2.925781 34.441406 3.070312 34.4375 3.210938 34.417969 L 12.492188 34.417969 C 12.742188 34.421875 12.988281 34.375 13.21875 34.28125 C 13.453125 34.1875 13.660156 34.054688 13.839844 33.878906 C 14.015625 33.699219 14.15625 33.496094 14.253906 33.265625 C 14.347656 33.03125 14.398438 32.792969 14.398438 32.539062 C 14.398438 32.289062 14.347656 32.046875 14.253906 31.816406 C 14.15625 31.582031 14.015625 31.378906 13.839844 31.203125 C 13.660156 31.023438 13.453125 30.890625 13.21875 30.796875 C 12.988281 30.703125 12.742188 30.65625 12.492188 30.660156 L 7.503906 30.660156 L 13.6875 24.472656 C 13.871094 24.300781 14.011719 24.097656 14.113281 23.863281 C 14.210938 23.632812 14.265625 23.390625 14.265625 23.136719 C 14.269531 22.886719 14.222656 22.644531 14.128906 22.410156 C 14.03125 22.175781 13.894531 21.96875 13.714844 21.789062 C 13.539062 21.613281 13.332031 21.476562 13.097656 21.378906 C 12.863281 21.285156 12.621094 21.238281 12.367188 21.242188 C 12.117188 21.242188 11.875 21.292969 11.640625 21.394531 C 11.410156 21.496094 11.207031 21.636719 11.03125 21.816406 L 4.84375 28.003906 L 4.84375 23.015625 C 4.851562 22.761719 4.804688 22.515625 4.707031 22.277344 C 4.613281 22.042969 4.476562 21.835938 4.296875 21.65625 C 4.117188 21.476562 3.90625 21.339844 3.671875 21.242188 C 3.4375 21.148438 3.191406 21.101562 2.9375 21.105469 Z M 32.996094 21.105469 C 32.746094 21.109375 32.507812 21.160156 32.28125 21.261719 C 32.050781 21.359375 31.851562 21.5 31.675781 21.675781 C 31.503906 21.855469 31.371094 22.0625 31.277344 22.292969 C 31.1875 22.523438 31.144531 22.765625 31.148438 23.015625 L 31.148438 28.003906 L 24.960938 21.816406 C 24.785156 21.636719 24.582031 21.496094 24.351562 21.394531 C 24.121094 21.292969 23.878906 21.242188 23.625 21.242188 C 23.371094 21.238281 23.128906 21.285156 22.894531 21.378906 C 22.660156 21.476562 22.457031 21.613281 22.277344 21.789062 C 22.097656 21.96875 21.960938 22.175781 21.867188 22.410156 C 21.769531 22.644531 21.722656 22.886719 21.726562 23.136719 C 21.730469 23.390625 21.78125 23.632812 21.882812 23.863281 C 21.980469 24.097656 22.121094 24.300781 22.304688 24.472656 L 28.492188 30.660156 L 23.5 30.660156 C 23.25 30.65625 23.007812 30.703125 22.773438 30.796875 C 22.539062 30.890625 22.332031 31.023438 22.15625 31.203125 C 21.976562 31.378906 21.835938 31.582031 21.742188 31.816406 C 21.644531 32.046875 21.59375 32.289062 21.59375 32.539062 C 21.59375 32.792969 21.644531 33.03125 21.742188 33.265625 C 21.835938 33.496094 21.976562 33.699219 22.15625 33.878906 C 22.332031 34.054688 22.539062 34.1875 22.773438 34.28125 C 23.007812 34.375 23.25 34.421875 23.5 34.417969 L 32.789062 34.417969 C 32.933594 34.4375 33.074219 34.441406 33.222656 34.425781 C 33.367188 34.414062 33.507812 34.382812 33.644531 34.335938 C 33.78125 34.292969 33.914062 34.230469 34.035156 34.152344 C 34.160156 34.078125 34.273438 33.988281 34.375 33.882812 C 34.476562 33.78125 34.566406 33.667969 34.644531 33.542969 C 34.71875 33.417969 34.78125 33.289062 34.828125 33.152344 C 34.871094 33.011719 34.902344 32.871094 34.914062 32.726562 C 34.929688 32.582031 34.925781 32.4375 34.90625 32.292969 L 34.90625 23.015625 C 34.910156 22.761719 34.863281 22.515625 34.769531 22.277344 C 34.671875 22.042969 34.535156 21.835938 34.355469 21.65625 C 34.175781 21.476562 33.96875 21.339844 33.730469 21.242188 C 33.496094 21.148438 33.25 21.101562 32.996094 21.105469 Z M 32.996094 21.105469 " fill-opacity="1" fill-rule="nonzero"/></g></svg>