<svg xmlns="http://www.w3.org/2000/svg" xmlns:xlink="http://www.w3.org/1999/xlink" width="48" zoomAndPan="magnify" viewBox="0 0 36 36.000001" height="48" preserveAspectRatio="xMidYMid meet" version="1.0"><defs><clipPath id="00845e1d91"><path d="M 19 19 L 34.785156 19 L 34.785156 33 L 19 33 Z M 19 19 " clip-rule="nonzero"/></clipPath><clipPath id="8d039f5c1c"><path d="M 1.214844 4 L 24 4 L 24 33.636719 L 1.214844 33.636719 Z M 1.214844 4 " clip-rule="nonzero"/></clipPath><clipPath id="2b2240b1d6"><path d="M 18 1.527344 L 34 1.527344 L 34 17 L 18 17 Z M 18 1.527344 " clip-rule="nonzero"/></clipPath></defs><g clip-path="url(#00845e1d91)"><path fill="#ff00de" d="M 27.371094 30.59375 L 21.644531 20.679688 L 33.09375 20.679688 C 32.851562 24.6875 30.714844 28.378906 27.371094 30.59375 Z M 33.925781 19.082031 L 20.265625 19.082031 C 19.976562 19.082031 19.714844 19.238281 19.570312 19.480469 C 19.425781 19.722656 19.425781 20.035156 19.570312 20.28125 L 26.402344 32.105469 C 26.546875 32.367188 26.8125 32.503906 27.089844 32.503906 C 27.226562 32.503906 27.363281 32.472656 27.488281 32.398438 C 31.953125 29.832031 34.726562 25.03125 34.726562 19.878906 C 34.726562 19.441406 34.363281 19.082031 33.925781 19.082031 " fill-opacity="1" fill-rule="nonzero"/></g><g clip-path="url(#8d039f5c1c)"><path fill="#ff00de" d="M 15.613281 31.550781 C 8.519531 31.550781 2.757812 25.78125 2.757812 18.6875 C 2.757812 11.871094 8.09375 6.269531 14.8125 5.851562 L 14.8125 18.6875 C 14.8125 18.824219 14.851562 18.96875 14.925781 19.085938 L 21.339844 30.203125 C 19.566406 31.089844 17.605469 31.550781 15.613281 31.550781 Z M 16.410156 18.476562 L 16.410156 5.027344 C 16.410156 4.589844 16.054688 4.226562 15.613281 4.226562 C 7.640625 4.226562 1.15625 10.714844 1.15625 18.6875 C 1.15625 26.660156 7.640625 33.148438 15.613281 33.148438 C 18.148438 33.148438 20.644531 32.472656 22.84375 31.207031 C 23.222656 30.988281 23.355469 30.5 23.136719 30.121094 L 16.410156 18.476562 " fill-opacity="1" fill-rule="nonzero"/></g><g clip-path="url(#2b2240b1d6)"><path fill="#ff00de" d="M 20.0625 15.378906 L 20.0625 3.339844 C 26.515625 3.738281 31.695312 8.921875 32.097656 15.378906 Z M 19.265625 1.714844 C 18.820312 1.714844 18.464844 2.078125 18.464844 2.515625 L 18.464844 16.175781 C 18.464844 16.621094 18.820312 16.976562 19.265625 16.976562 L 32.921875 16.976562 C 33.363281 16.976562 33.71875 16.621094 33.71875 16.175781 C 33.71875 8.203125 27.230469 1.714844 19.265625 1.714844 " fill-opacity="1" fill-rule="nonzero"/></g></svg>