<svg xmlns="http://www.w3.org/2000/svg" xmlns:xlink="http://www.w3.org/1999/xlink" width="48" zoomAndPan="magnify" viewBox="0 0 36 36.000001" height="48" preserveAspectRatio="xMidYMid meet" version="1.0"><defs><clipPath id="01efc6f28f"><path d="M 1.289062 3.871094 L 35.152344 3.871094 L 35.152344 31.511719 L 1.289062 31.511719 Z M 1.289062 3.871094 " clip-rule="nonzero"/></clipPath></defs><path fill="#ff00de" d="M 28.585938 8.410156 C 28.570312 8.347656 28.503906 8.308594 28.441406 8.324219 C 28.378906 8.339844 28.339844 8.40625 28.355469 8.46875 L 28.363281 8.492188 C 28.375 8.546875 28.425781 8.585938 28.480469 8.585938 C 28.488281 8.585938 28.496094 8.585938 28.503906 8.582031 C 28.570312 8.566406 28.609375 8.503906 28.59375 8.441406 L 28.585938 8.410156 " fill-opacity="1" fill-rule="nonzero"/><g clip-path="url(#01efc6f28f)"><path fill="#ff00de" d="M 33.070312 27.289062 C 33.070312 28.46875 32.113281 29.429688 30.933594 29.429688 L 5.507812 29.429688 C 4.328125 29.429688 3.367188 28.46875 3.367188 27.289062 L 3.367188 10.339844 C 3.367188 9.160156 4.328125 8.203125 5.507812 8.203125 L 13.160156 8.203125 L 14.578125 6.074219 C 14.617188 6.027344 14.742188 5.960938 14.789062 5.953125 L 21.636719 5.953125 C 21.699219 5.960938 21.820312 6.023438 21.851562 6.0625 L 23.277344 8.203125 L 30.933594 8.203125 C 32.113281 8.203125 33.070312 9.160156 33.070312 10.339844 Z M 30.933594 6.121094 L 24.394531 6.121094 L 23.582031 4.910156 C 23.1875 4.308594 22.371094 3.875 21.652344 3.875 L 14.789062 3.875 C 14.058594 3.875 13.261719 4.296875 12.855469 4.90625 L 12.046875 6.121094 L 5.507812 6.121094 C 3.179688 6.121094 1.289062 8.015625 1.289062 10.339844 L 1.289062 27.289062 C 1.289062 29.617188 3.179688 31.511719 5.507812 31.511719 L 30.933594 31.511719 C 33.257812 31.511719 35.152344 29.617188 35.152344 27.289062 L 35.152344 10.339844 C 35.152344 8.015625 33.257812 6.121094 30.933594 6.121094 " fill-opacity="1" fill-rule="nonzero"/></g><path fill="#ff00de" d="M 18.21875 25.933594 C 14.296875 25.933594 11.101562 22.742188 11.101562 18.816406 C 11.101562 14.890625 14.296875 11.699219 18.21875 11.699219 C 22.144531 11.699219 25.335938 14.890625 25.335938 18.816406 C 25.335938 22.742188 22.144531 25.933594 18.21875 25.933594 Z M 18.21875 9.617188 C 13.148438 9.617188 9.023438 13.746094 9.023438 18.816406 C 9.023438 23.886719 13.148438 28.011719 18.21875 28.011719 C 23.292969 28.011719 27.417969 23.886719 27.417969 18.816406 C 27.417969 13.746094 23.292969 9.617188 18.21875 9.617188 " fill-opacity="1" fill-rule="nonzero"/><path fill="#ff00de" d="M 18.21875 13.828125 C 15.464844 13.828125 13.230469 16.058594 13.230469 18.816406 C 13.230469 21.570312 15.464844 23.804688 18.21875 23.804688 C 20.976562 23.804688 23.210938 21.570312 23.210938 18.816406 C 23.210938 16.058594 20.976562 13.828125 18.21875 13.828125 " fill-opacity="1" fill-rule="nonzero"/><path fill="#ff00de" d="M 7.261719 12.675781 C 6.65625 12.675781 6.164062 12.183594 6.164062 11.578125 C 6.164062 10.972656 6.65625 10.480469 7.261719 10.480469 C 7.863281 10.480469 8.355469 10.972656 8.355469 11.578125 C 8.355469 12.183594 7.863281 12.675781 7.261719 12.675781 Z M 7.261719 9.09375 C 5.890625 9.09375 4.777344 10.207031 4.777344 11.578125 C 4.777344 12.949219 5.890625 14.0625 7.261719 14.0625 C 8.628906 14.0625 9.746094 12.949219 9.746094 11.578125 C 9.746094 10.207031 8.628906 9.09375 7.261719 9.09375 " fill-opacity="1" fill-rule="nonzero"/></svg>