<svg xmlns="http://www.w3.org/2000/svg" xmlns:xlink="http://www.w3.org/1999/xlink" width="48" zoomAndPan="magnify" viewBox="0 0 36 36.000001" height="48" preserveAspectRatio="xMidYMid meet" version="1.0"><defs><clipPath id="7ef96b426f"><path d="M 2 18 L 34 18 L 34 34.402344 L 2 34.402344 Z M 2 18 " clip-rule="nonzero"/></clipPath><clipPath id="be53131f97"><path d="M 14 0.832031 L 22 0.832031 L 22 9 L 14 9 Z M 14 0.832031 " clip-rule="nonzero"/></clipPath><clipPath id="bb3b101213"><path d="M 1.320312 17 L 34.886719 17 L 34.886719 21 L 1.320312 21 Z M 1.320312 17 " clip-rule="nonzero"/></clipPath><clipPath id="3374bab4e0"><path d="M 28 13 L 34.886719 13 L 34.886719 17 L 28 17 Z M 28 13 " clip-rule="nonzero"/></clipPath></defs><g clip-path="url(#7ef96b426f)"><path fill="#ff00de" d="M 33.386719 18.792969 L 2.601562 18.792969 L 2.601562 34.183594 L 33.386719 34.183594 Z M 33.386719 18.792969 " fill-opacity="1" fill-rule="nonzero"/></g><g clip-path="url(#be53131f97)"><path fill="#ff00de" d="M 21.84375 4.683594 C 21.84375 5.191406 21.746094 5.683594 21.550781 6.15625 C 21.355469 6.625 21.078125 7.042969 20.71875 7.402344 C 20.355469 7.765625 19.941406 8.042969 19.46875 8.238281 C 18.996094 8.433594 18.507812 8.53125 17.996094 8.53125 C 17.484375 8.53125 16.996094 8.433594 16.523438 8.238281 C 16.050781 8.042969 15.636719 7.765625 15.273438 7.402344 C 14.914062 7.042969 14.636719 6.625 14.441406 6.15625 C 14.246094 5.683594 14.148438 5.191406 14.148438 4.683594 C 14.148438 4.171875 14.246094 3.679688 14.441406 3.210938 C 14.636719 2.738281 14.914062 2.320312 15.273438 1.960938 C 15.636719 1.601562 16.050781 1.320312 16.523438 1.125 C 16.996094 0.929688 17.484375 0.832031 17.996094 0.832031 C 18.507812 0.832031 18.996094 0.929688 19.46875 1.125 C 19.941406 1.320312 20.355469 1.601562 20.71875 1.960938 C 21.078125 2.320312 21.355469 2.738281 21.550781 3.210938 C 21.746094 3.679688 21.84375 4.171875 21.84375 4.683594 Z M 21.84375 4.683594 " fill-opacity="1" fill-rule="nonzero"/></g><g clip-path="url(#bb3b101213)"><path fill="#ff00de" d="M 1.320312 17.507812 L 34.671875 17.507812 L 34.671875 20.074219 L 1.320312 20.074219 Z M 1.320312 17.507812 " fill-opacity="1" fill-rule="nonzero"/></g><path fill="#ff00de" d="M 24.410156 16.226562 L 24.410156 13.019531 C 24.410156 11.222656 23 9.8125 21.203125 9.8125 L 14.789062 9.8125 C 12.992188 9.8125 11.582031 11.222656 11.582031 13.019531 L 11.582031 16.226562 Z M 24.410156 16.226562 " fill-opacity="1" fill-rule="nonzero"/><g clip-path="url(#3374bab4e0)"><path fill="#ff00de" d="M 34.542969 16.226562 C 34.285156 14.816406 33.003906 13.660156 31.464844 13.660156 C 29.925781 13.660156 28.640625 14.816406 28.386719 16.226562 Z M 34.542969 16.226562 " fill-opacity="1" fill-rule="nonzero"/></g><path stroke-linecap="butt" transform="matrix(1.282728, 0, 0, 1.282728, 1.320463, 0.833982)" fill="none" stroke-linejoin="miter" d="M 23.500212 9.00029 L 23.500212 9.499714 " stroke="#000000" stroke-width="1" stroke-opacity="1" stroke-miterlimit="10"/></svg>