<svg xmlns="http://www.w3.org/2000/svg" xmlns:xlink="http://www.w3.org/1999/xlink" width="48" zoomAndPan="magnify" viewBox="0 0 36 36.000001" height="48" preserveAspectRatio="xMidYMid meet" version="1.0"><defs><clipPath id="493b9b612e"><path d="M 0.863281 0.375 L 35.160156 0.375 L 35.160156 34.671875 L 0.863281 34.671875 Z M 0.863281 0.375 " clip-rule="nonzero"/></clipPath></defs><g clip-path="url(#493b9b612e)"><path fill="#ff00de" d="M 28.523438 0.824219 C 28.097656 0.394531 27.339844 0.394531 26.914062 0.824219 L 3.722656 24.011719 C 3.722656 24.015625 3.722656 24.015625 3.71875 24.015625 L 3.714844 24.019531 C 3.714844 24.023438 3.714844 24.023438 3.710938 24.027344 C 3.621094 24.121094 3.550781 24.234375 3.496094 24.355469 C 3.480469 24.382812 3.46875 24.410156 3.457031 24.441406 C 3.449219 24.46875 3.433594 24.492188 3.425781 24.519531 L 1.015625 33.207031 C 0.90625 33.601562 1.019531 34.027344 1.308594 34.316406 C 1.527344 34.53125 1.816406 34.648438 2.113281 34.648438 C 2.214844 34.648438 2.316406 34.636719 2.417969 34.609375 L 11.105469 32.199219 C 11.132812 32.195312 11.15625 32.175781 11.183594 32.167969 C 11.214844 32.15625 11.242188 32.144531 11.273438 32.128906 C 11.394531 32.074219 11.503906 32.003906 11.597656 31.914062 C 11.601562 31.910156 11.601562 31.910156 11.605469 31.910156 L 11.609375 31.90625 C 11.609375 31.902344 11.609375 31.902344 11.613281 31.902344 L 34.800781 8.710938 C 35.015625 8.5 35.136719 8.210938 35.136719 7.90625 C 35.136719 7.605469 35.015625 7.316406 34.800781 7.101562 Z M 23.832031 7.121094 L 28.503906 11.792969 L 10.800781 29.492188 L 6.132812 24.824219 Z M 3.75 31.875 L 5.097656 27.011719 L 8.613281 30.527344 Z M 30.113281 10.179688 L 25.445312 5.511719 L 27.71875 3.238281 L 32.386719 7.90625 Z M 30.113281 10.179688 " fill-opacity="1" fill-rule="nonzero"/></g></svg>