<svg xmlns="http://www.w3.org/2000/svg" xmlns:xlink="http://www.w3.org/1999/xlink" width="48" zoomAndPan="magnify" viewBox="0 0 36 36.000001" height="48" preserveAspectRatio="xMidYMid meet" version="1.0"><defs><clipPath id="5f552af694"><path d="M 1 2.167969 L 35 2.167969 L 35 32.816406 L 1 32.816406 Z M 1 2.167969 " clip-rule="nonzero"/></clipPath></defs><g clip-path="url(#5f552af694)"><path fill="#ff00de" d="M 19.59375 7.347656 C 18.917969 6.199219 17.253906 6.199219 16.578125 7.347656 L 5.210938 26.675781 C 4.527344 27.839844 5.367188 29.308594 6.71875 29.308594 L 29.453125 29.308594 C 30.808594 29.308594 31.648438 27.839844 30.960938 26.675781 Z M 13.566406 5.578125 C 15.59375 2.128906 20.578125 2.128906 22.605469 5.578125 L 33.976562 24.902344 C 36.03125 28.398438 33.511719 32.804688 29.453125 32.804688 L 6.71875 32.804688 C 2.660156 32.804688 0.140625 28.398438 2.199219 24.902344 Z M 13.566406 5.578125 " fill-opacity="1" fill-rule="evenodd"/></g><path fill="#ff00de" d="M 16.339844 10.082031 L 19.835938 10.082031 L 19.835938 20.570312 L 16.339844 20.570312 Z M 16.339844 10.082031 " fill-opacity="1" fill-rule="evenodd"/><path fill="#ff00de" d="M 16.339844 24.066406 L 19.835938 24.066406 L 19.835938 26.6875 L 16.339844 26.6875 Z M 16.339844 24.066406 " fill-opacity="1" fill-rule="evenodd"/></svg>