<svg xmlns="http://www.w3.org/2000/svg" xmlns:xlink="http://www.w3.org/1999/xlink" width="48" zoomAndPan="magnify" viewBox="0 0 36 36.000001" height="48" preserveAspectRatio="xMidYMid meet" version="1.0"><defs><clipPath id="364c412242"><path d="M 1.320312 1.273438 L 34.886719 1.273438 L 34.886719 34 L 1.320312 34 Z M 1.320312 1.273438 " clip-rule="nonzero"/></clipPath></defs><g clip-path="url(#364c412242)"><path fill="#ff00de" d="M 30.761719 33.320312 L 25.277344 28 C 22.042969 31.679688 26.550781 33.65625 24.765625 33.660156 L 4.460938 33.6875 C 2.757812 33.6875 1.371094 32.277344 1.367188 30.585938 L 1.324219 5.007812 C 1.320312 3.113281 2.542969 1.324219 4.566406 1.320312 L 24.199219 1.269531 C 24.816406 1.269531 25.15625 1.652344 25.15625 2.214844 L 25.160156 11.757812 C 27.03125 14.738281 26.984375 18.464844 25.183594 21.4375 C 25.410156 22.351562 26.421875 23.253906 27.519531 23.085938 L 34.339844 30.097656 C 35.140625 30.921875 34.324219 32.363281 33.683594 32.9375 C 33 33.546875 31.65625 34.191406 30.761719 33.320312 Z M 22.597656 24.085938 C 19.746094 25.9375 16.546875 25.996094 13.695312 24.492188 C 8.636719 21.824219 7.253906 15.164062 10.949219 10.8125 C 14.363281 6.796875 20.210938 6.601562 23.9375 10.265625 L 23.972656 2.457031 L 4.550781 2.488281 C 3.269531 2.492188 2.519531 3.625 2.519531 4.789062 L 2.53125 28.191406 C 3.34375 27.792969 4.039062 27.625 4.941406 27.628906 L 23.921875 27.636719 C 24 25.707031 24.3125 25.289062 22.597656 24.085938 Z M 25.425781 16.558594 C 25.425781 12.304688 21.976562 8.855469 17.722656 8.855469 C 13.46875 8.855469 10.019531 12.304688 10.019531 16.558594 C 10.019531 20.8125 13.46875 24.261719 17.722656 24.261719 C 21.976562 24.261719 25.425781 20.8125 25.425781 16.558594 Z M 24.265625 22.535156 L 23.539062 23.308594 L 25.042969 24.722656 L 25.769531 23.945312 Z M 31.464844 32.425781 C 31.941406 32.894531 32.742188 32.226562 33.015625 31.96875 C 33.289062 31.710938 33.628906 30.914062 33.214844 30.5 L 27 24.273438 C 26.269531 24.96875 25.632812 25.382812 25.164062 26.21875 L 31.464844 32.421875 Z M 5.445312 31.28125 C 5.003906 31.277344 4.832031 30.746094 4.917969 30.53125 C 5.019531 30.28125 5.28125 30.125 5.65625 30.125 L 22.78125 30.128906 C 23.105469 29.703125 23.320312 29.304688 23.105469 28.839844 L 4.210938 28.867188 C 3.160156 28.867188 2.472656 29.816406 2.542969 30.707031 C 2.59375 31.375 3.242188 32.511719 4.253906 32.511719 L 23.117188 32.574219 C 23.316406 32.34375 23.125 31.363281 22.785156 31.363281 Z M 5.445312 31.28125 " fill-opacity="1" fill-rule="nonzero"/></g><path fill="#ff00de" d="M 4.699219 3.988281 L 5.875 3.988281 L 5.875 26.191406 L 4.699219 26.191406 Z M 4.699219 3.988281 " fill-opacity="1" fill-rule="nonzero"/><path fill="#ff00de" d="M 24.105469 16.582031 C 24.105469 20.105469 21.25 22.960938 17.722656 22.960938 C 14.199219 22.960938 11.339844 20.105469 11.339844 16.582031 C 11.339844 13.054688 14.199219 10.199219 17.722656 10.199219 C 21.25 10.199219 24.105469 13.054688 24.105469 16.582031 Z M 22.925781 16.585938 C 22.925781 13.714844 20.597656 11.386719 17.726562 11.386719 C 14.855469 11.386719 12.523438 13.714844 12.523438 16.585938 C 12.523438 19.460938 14.855469 21.789062 17.726562 21.789062 C 20.597656 21.789062 22.925781 19.460938 22.925781 16.585938 Z M 22.925781 16.585938 " fill-opacity="1" fill-rule="nonzero"/></svg>